<?xml version="1.0" encoding="UTF-8"?>
<svg id="Layer_2" data-name="Layer 2" xmlns="http://www.w3.org/2000/svg" viewBox="0 0 190.68 268.46">
  <defs>
    <style>
      .cls-1 {
        fill: #eca9b0;
      }

      .cls-2 {
        fill: #f2c0c4;
      }

      .cls-3 {
        fill: #f9e1e3;
      }

      .cls-4 {
        fill: #faecee;
      }

      .cls-5 {
        fill: #919d80;
      }

      .cls-6 {
        fill: #e58b93;
      }

      .cls-7 {
        fill: #f7dcdf;
      }

      .cls-8 {
        fill: #eca7ad;
      }

      .cls-9 {
        fill: #f6d5d8;
      }

      .cls-10 {
        fill: #f1bdc1;
      }

      .cls-11 {
        fill: #f5d2d5;
      }

      .cls-12 {
        fill: #f3c7cc;
      }

      .cls-13 {
        fill: #eeb2b7;
      }

      .cls-14 {
        fill: #eba4aa;
      }

      .cls-15 {
        fill: #f0b8bd;
      }

      .cls-16 {
        fill: #aab39c;
      }

      .cls-17 {
        fill: #f0b9be;
      }

      .cls-18 {
        fill: #eeacb3;
      }

      .cls-19 {
        fill: #e7949b;
      }

      .cls-20 {
        fill: #e48991;
      }

      .cls-21 {
        fill: #839070;
      }

      .cls-22 {
        fill: #f1bfc4;
      }

      .cls-23 {
        fill: #f5d2d6;
      }

      .cls-24 {
        fill: #f8e0e2;
      }

      .cls-25 {
        fill: #fcf8f8;
      }

      .cls-26 {
        fill: #f2c0c5;
      }

      .cls-27 {
        fill: #eeadb4;
      }

      .cls-28 {
        fill: #e7929a;
      }

      .cls-29 {
        fill: #eba5ab;
      }

      .cls-30 {
        fill: #efb6bc;
      }

      .cls-31 {
        fill: #f2c4c9;
      }

      .cls-32 {
        fill: #eeafb5;
      }

      .cls-33 {
        fill: #f0babe;
      }

      .cls-34 {
        fill: #eeb0b6;
      }

      .cls-35 {
        fill: #eba5ac;
      }

      .cls-36 {
        fill: #f1c0c5;
      }

      .cls-37 {
        fill: #b7beaa;
      }

      .cls-38 {
        fill: #7d8969;
      }

      .cls-39 {
        fill: #f4ccd0;
      }

      .cls-40 {
        fill: #e7969d;
      }

      .cls-41 {
        fill: #a89986;
      }

      .cls-42 {
        fill: #e7959d;
      }

      .cls-43 {
        fill: #b1b9a4;
      }

      .cls-44 {
        fill: #f1bfc3;
      }

      .cls-45 {
        fill: #f3cbcf;
      }

      .cls-46 {
        fill: #fae7e9;
      }

      .cls-47 {
        fill: #f7dadd;
      }

      .cls-48 {
        fill: #fbecee;
      }

      .cls-49 {
        fill: #efb6bb;
      }

      .cls-50 {
        fill: #efb5ba;
      }

      .cls-51 {
        fill: #eaa4aa;
      }

      .cls-52 {
        fill: #768360;
      }

      .cls-53 {
        fill: #f3cace;
      }

      .cls-54 {
        fill: #eaa0a6;
      }

      .cls-55 {
        fill: #f0babf;
      }

      .cls-56 {
        fill: #eeb1b7;
      }

      .cls-57 {
        fill: #7d8968;
      }

      .cls-58 {
        fill: #949f82;
      }

      .cls-59 {
        fill: #e7959c;
      }

      .cls-60 {
        fill: #97a186;
      }

      .cls-61 {
        fill: #f3c6cb;
      }

      .cls-62 {
        fill: #849171;
      }

      .cls-63 {
        fill: #f5d1d4;
      }

      .cls-64 {
        fill: #f7dcde;
      }

      .cls-65 {
        fill: #909b7e;
      }

      .cls-66 {
        fill: #efb8bd;
      }

      .cls-67 {
        fill: #7d8a69;
      }

      .cls-68 {
        fill: #f0b7bc;
      }

      .cls-69 {
        fill: #e4ded8;
      }

      .cls-70 {
        fill: #fdfcfd;
      }

      .cls-71 {
        fill: #f9e2e4;
      }

      .cls-72 {
        fill: #fbf6f6;
      }

      .cls-73 {
        fill: #efb4b9;
      }

      .cls-74 {
        fill: #e89da4;
      }

      .cls-75 {
        fill: #f6d5d9;
      }

      .cls-76 {
        fill: #bea69a;
      }

      .cls-77 {
        fill: #f3c9cd;
      }

      .cls-78 {
        fill: #f5d3d7;
      }

      .cls-79 {
        fill: #f1bec2;
      }

      .cls-80 {
        fill: #e69199;
      }

      .cls-81 {
        fill: #eba3aa;
      }

      .cls-82 {
        fill: #758360;
      }

      .cls-83 {
        fill: #f0b9bd;
      }

      .cls-84 {
        fill: #eaa1a7;
      }
    </style>
  </defs>
  <g id="Layer_1-2" data-name="Layer 1">
    <g>
      <path class="cls-21" d="M63.08,258.43c.1-4.81-.97-9.5-1.39-14.26-.19-8.12-1.04-16.21-.9-24.34.11-6.58.15-13.2,2.09-19.58.6-1.95,1.29-3.96,3.83-4.22.97.38,1.2,1.18.99,2.06-1.66,6.85-1.26,13.88-1.84,20.82-.7,2.97-.68,6-.39,8.97.8,8.24-.24,16.56,1.21,24.76.23,1.29.12,2.66.88,3.83.56,2.64,1.69,5.3-.28,7.85-1.4-1.97-2.8-3.93-4.2-5.9Z"/>
      <path class="cls-21" d="M69.57,251.24c.4,5.73,1.05,11.45.65,17.21l-2.1-2.95c-.53-3.91.46-8.02-1.58-11.72-.19-.57-.17-1.16-.2-1.75-.07-1.27-.57-3.13.72-3.52,1.78-.54,1.68,1.75,2.51,2.72Z"/>
      <path class="cls-58" d="M66.96,253.9c.73-.02,1.1.38,1.12,1.06.14,3.52.72,7.03.04,10.55-.28-.39-.56-.79-.84-1.18.25-2.62.15-5.23-.25-7.83-.07-.11-.13-.23-.2-.34-.12-.24-.19-.49-.23-.76-.04-.54.02-1.06.36-1.51Z"/>
      <path class="cls-46" d="M36.06,138.06c-2.82-.92-5.62-1.95-8.67-1.65-2.03-1.12-3.45-2.56-2.9-5.16.2-.97-.07-1.94-.7-2.72-1.37-1.7-1.78-3.78-1.72-5.78.14-4.73-1.95-8.86-3.18-13.22-.19-.69-.88-1.49-.54-2.04,1.95-3.17-.25-5.38-1.61-7.81-2.31-4.12-2.71-8.58-2.66-13.21.04-4.44-1.31-8.46-5.44-10.85-2.42-1.4-3.51-3.13-2.68-5.93.34-1.14.51-2.37-.16-3.51.73-2.98,1.08-6.14,3.11-8.6,2.43-2.94,4.11-6.58,7.5-8.64,1.58-.96,1.19-3.17,2.9-3.9,1.59-1.01,2.06.46,1.8,1.24-1.33,4.08,1.53,7.75.74,11.95-.6,3.21-.83,6.58-1.38,9.87-1.16,6.96-.69,13.8,2.61,20.23.66,1.28,1.07,2.67,1.38,4.08.18,2.46,1.19,4.76,2.32,6.78,2.87,5.09,3.9,10.8,6.06,16.11.23.57.39,1.16.24,1.76-1.63,6.6.89,12.47,3.23,18.37.37.93,1.81,1.96-.26,2.65Z"/>
      <path class="cls-48" d="M5.8,66.17c2.13.21,1.58,1.87,1.39,3-.26,1.57-1.8,3.27.2,4.52,1.24.78,2.29,2.24,4.09,1.9,1-.19.88.53.87,1.1-.03,1.79.66,3.31,1.83,4.58,1.1,1.2,1.41,2.73,1.02,4.05-.91,3.13.56,6.07.37,9.11-.13,2.09,1.43,3.55,2.23,5.21.75,1.53,1.29,3.26,2.31,4.62.7.94.69,1.65-.09,2.06-1.45.75-1.25,1.55-.42,2.54.81.97,1.04,2.15,1.21,3.35.07.48,0,1.06.26,1.41,2.45,3.34,1.4,7.38,2.21,11.04.32,1.45.32,2.81,1.78,3.67,1.08.64.66,1.72.47,2.63-.39,1.85-.78,3.58,1.8,4.19.44.1.3.83.08,1.28-3.63.1-5.01-.55-5.78-3.47-.39-1.46-2-1.34-2.41-2.87-.54-2.04-2.48-3.47-3.29-5.62-.56-1.49-2.88-1.86-4.49-2.6-1.57-.72-3.63-1.12-4.25-2.8-.66-1.8-.69-3.88-.73-5.84-.01-.68-.12-1.46.07-2.1.42-1.44.02-2.31-1.04-3.41-1.48-1.53-2.92-3.35-3.64-5.31-1.14-3.15-2.1-6.46-1.76-9.93.06-.65.4-1.11.87-1.51.48-.41.9-1,.71-1.57-1.03-3.11.15-6.24-.05-9.39-.18-2.82.96-5.82,1.95-8.58.46-1.28.47-2.91,1.75-3.86.02-.3.09-.59.22-.87-.07-.26.03-.43.28-.51Z"/>
      <path class="cls-24" d="M23.93,92.49c-1.22-3.2-3.5-5.97-3.98-9.46-.87-6.25-2.02-12.51.52-18.68.5-1.22.47-2.52.33-3.89-.16-1.59-.7-3.32.32-4.88.85-1.29-.13-2.41-.63-3.36-.79-1.52-1.27-2.76-.33-4.45.39-.72,1.33-2.44-.85-2.74,1.39-3.18,3.85-5.53,6.38-7.74.6-.53,1.38-.96,1.71-1.66.81-1.72,2.17-2.45,3.96-2.59,1.36-.07,2.02-1.58,3.38-1.65.38-.24.75-.48,1.13-.72.96,1.75-.74,2.27-1.52,3.12-1.49,1.61-2.49,3.31-1.52,5.52.51,1.17.02,1.96-.5,2.98-3.87,7.72-7.33,15.54-5.62,24.57,1.01,5.35,1.8,10.72-.81,15.92-.38.76-.24,1.65-.17,2.5.09,1.11.2,2.19,1.47,2.63,1.14.4,2.12.17,2.95-.73.64-.7,1.23-1.94,2.2-1.64,3.6,1.12,5.94-.73,8.24-3.01.62-.61,1.6-.8,2.37-.31,3,1.92,6.79,2.97,8.36,6.55,1.26,2.89,4.48,2.04,6.27,3.78,1.17,1.45,1.17,3.07.72,4.76-.35,4.86-4.1,5.41-7.68,5.67-2.06.15-3.34.95-4.53,2.42-.99,1.21-2.11,2.29-3.44,3.18-3.62,2.41-4.77,6.15-2.79,10.04.94,1.85,1.21,3.51.89,5.51-.55,3.44.82,6.35,2.96,8.99,1.15,1.42,2.76,2.82,1.15,4.92h-.02c-.57-.02-.86-.77-1.51-.55l.1.02c-.34-.29-.7-.39-1.1-.12h.07c-2.56-.44-4.04-1.86-4.34-4.52-.18-1.58-.99-2.93-1.82-4.29-1.2-1.97-2.27-4.03-1.22-6.46.14-.33.42-.8.21-1.03-3.43-3.93.41-8.01-.18-12.08-.32-2.2,2.05-3.93,4.16-5.03.84-.44,1.96-.46,2.51-1.33,1.16-1.85,2.61-3.41,4.14-4.96,1.61-1.63,4.03-1.49,5.88-3.1-2.19-1.99-4.96-2.65-7.1-4.37-1.45-1.16-2.72-.07-3.34,1.49-.74,1.88-1.96,3-4.08,2.89-1.68-.08-2.1,1.28-2.82,2.39-2.33,3.57-3.52,3.67-6.64.92-1.72-1.52-3.64-2.83-3.83-5.4Z"/>
      <path class="cls-71" d="M161.44,161.8c-.15,1.08-1.01,1.58-1.77,2.17-1.59,1.24-3.16,2.44-4.62,3.9-2.03,2.03-5.05,2.93-7.91,2.98-3.77.06-7.55.53-11.26.28-2.1-.14-4.78.2-6.53-1.96-.95-1.18-2.64-.55-3.67-.53-2.42.05-4.53-1.08-5.73-2.32-1.65-1.71-4.92-1.59-5.31-4.68-.04-.34-.97-.69-1.53-.81-3.08-.64-4.94-3.15-7.37-4.77-.67-.45-1.08-1.29-.7-2.22-.1-2.28,1.32-2.47,2.8-1.68,2.11,1.12,3.96,1.77,5.67-.54.2-.27.67-.55.95-.43,4.64,1.92,9.44-1.73,14.18.59,2.32,1.13,5.04,1.31,7.73.49,3.75-1.15,6.02.2,8.12,3.56,1.36,2.19,3.5,3.98,6.44,3.81,2.92-.17,5.72.62,8.57.96.76.09,1.75.09,1.94,1.21Z"/>
      <path class="cls-22" d="M147.87,41.35c4.23-.47,8.05.95,11.81,2.61.98.43,1.96.85,2.94,1.28,3.71,4.4,5.03,9.65,6.4,15.14,1.57,6.25.95,12.94,4,18.85.33.64.35,1.45.81,2,3.75,4.47,2.91,9.42,1.9,14.57-.92,4.68-2.84,8.35-7.37,10.33-.32.16-.65.28-1,.38-.52.13-1.04.2-1.58.23-1.38-.12-2.96.08-3.25-1.9,3.09-4.84,6.88-9.3,8.15-15.13.32-1.49,1.04-2.93.13-5.02-.53,3.34-3.18,4.91-4.18,7.51-.26.67-.82,1.23-1.68,1.05-.68-.14-1.02-.71-1.09-1.3-.67-6.44-5.6-11.15-6.98-17.3-.53-4.01-1.35-7.98-1.82-12,.47-2.02,1.84-3.63,2.87-5.32,1.52-2.5.69-4.23-1.09-5.61-3.29-2.56-6.12-5.72-9.94-7.59-1.08-.53-2.18-1.13-1.87-2.67.26-.03.51-.07.77-.1.31,0,.61.02.91.07h.02c.39.1.78.15,1.15-.07Z"/>
      <path class="cls-64" d="M57.14,92.88c-.8-.23-1.6-.59-2.42-.66-2.27-.19-3.73-1.04-4.35-3.49-.62-2.46-3.67-2.47-5.09-4.25-.06-.08-.23-.07-.33-.12-3.08-1.71-2.98-1.6-5.69.64-1.75,1.45-3.6,3.5-6.23,1.17-.66-.58-1.23.03-1.67.74-1.65,2.66-3.85,3.05-6.46,1.21-.19-.13-.5-.43-.47-.47,1.13-1.71-.68-3.67.5-5.39,2.38-3.45,1.92-7.34,1.5-11.15-.28-2.5-.75-4.98-1.36-7.44-.81-3.29.51-6.41,1.6-9.43.99-2.73,1.95-5.42,2.08-8.35.09-2.02,1.81-2.98,2.96-4.28.51-.57.8-.81.31-1.72-1.27-2.38-.6-4.8,1.47-6.68.86-.78,2.22-1.1,2.36-2.54,2.74-1.46,5.55-2.7,8.75-2.7.39.09.55.32.49.71-.83,1.15-2.18,1.44-3.37,1.98-1.49.68-2.41,1.62-1.69,3.38.45,1.12.31,2.13-.58,2.97-3.78,3.55-5.63,8.2-7.36,12.91-.29.8-.58,1.59-.51,2.45.51,5.89-.29,11.66-1.3,17.44-.35,2-.4,4.08.36,6.06.32.82.87,1.51,1.79,1.59,1.12.1,1.35-.8,1.56-1.63.24-.93.49-1.87,1.03-2.68.56-.83,1.37-1.29,1.96-.24.9,1.61,1.62,1.51,3.05.51,2.81-1.98,4.69-1.26,5.48,2.12.54,2.33,1.5,4.28,3.19,5.91.85.82,1.6,2.02,3,1.54,1.32-.45,1.46-1.79,1.68-2.97.13-.71.1-1.44.44-2.11.22-.29.49-.51.81-.67.53-.16,1.04-.1,1.54.12,2.17,1.92.97,4.41,1.14,6.67.03.31.04.62.05.93.04.3.07.6.11.9.07.29.12.59.19.88.21.76.64,1.42.93,2.15.36,1.64.16,3.08-1.48,3.99Z"/>
      <path class="cls-31" d="M56.84,85.03c-.7-.97-.44-2.02-.26-3.06.27-1.55.23-3.04-.63-4.41-1.26-1.3-.53-2.43.31-3.55,1.06-1.17.92-2.69,1.1-4.09.42-3.22.89-6.3,3.16-8.95,1.11-1.3,1.76-3.18,2.11-4.9.56-2.77,2.28-4.95,3.28-7.48.99-2.5,2.78-4.41,4.6-6.31.7-.8,1.37-1.65,2.88-1.72-.27,2.49.93,3.39,3.33,3,2.58-.43,3.9,1.63,5.32,3.15,1.58,1.71,3.16,2.01,5.09.87,2.44-1.43,5.1-2,7.9-2.14,2.39-.12,4.8-.22,6.95-1.55.7-.43,1.57-.71,2.28.13.02.59-.25,1.06-.6,1.49-.24.29-.51.54-.8.77-.87.64-1.76,1.27-2.66,1.88-6.64,2.61-13.53,4.62-19.96,7.78-2.18,1.07-3.46.29-4.65-1.77-2.36-4.09-3.34-3.96-5.66.25-1.94,3.52-3.06,7.34-4.22,11.14-.64,2.07-1.32,4.03-2.69,5.84-2,2.66-1.18,8.46,1.2,10.69.64.6,1.03,1.32,1.35,2.11.72,1.78,1.43,3.13,3.5,1.08,1.13-1.12,2.85-1.2,3.79.32,1.93,3.11,3.22,6.44,1.66,10.17-2.01-.1-1.69-1.94-2.32-3.13-.88,2.1-.52,5.31-4.29,4.76-4.49-3.41-7.43-8.2-11.07-12.37Z"/>
      <path class="cls-53" d="M138.83,29.24c.23.71-.34,1.02-.71,1.43-.04.57-.72.83-.69,1.44v-.02c-1.37,1.78-2.55,1.07-3.68-.3-.43-.77-.69-1.63-1.2-2.35-1.2-2.76-3.67-3.46-6.3-3.9-.32-.12-.62-.28-.9-.46-3.03-2.8-5.98-5.74-10.66-5.05-.36.05-.73.01-1.05.21-.09.05-.11.2-.17.31.45.51,1.09.43,1.66.53,1.29.22,3.16.14,3.28,1.64.17,2.1-2.19.64-3.16,1.89.08.79,1.34.88,1.77,1.68.99,1.84-.04,3.12-1.56,3.21-4.75.3-9.38,2.23-14.28.81-4.42-1.29-5.5-2.27-5.07-6.79.19-1.96-.25-3.2-1.8-4.28-.91-.63-1.55-1.59-1.36-2.79.56-3.39-1.87-3.69-4.03-3.44-4.46.51-9.14.17-13.14,3.02-1.48,1.06-2.96.32-4-1.13,1.15-1.71,2.31-3.42,3.46-5.13,4.5-3.26,9.73-4.89,14.85-3.11,4.38,1.53,8.86,3.19,12.92,5.89,3.15,2.09,7.03,3.6,11.02,3.78,3.64.16,7.09,1.36,10.72,1.52,1.11.05,2.04.73,2.85,1.46,2.78,2.48,5.42,5.11,9.07,6.41,1.53.54,1.8,2.14,2.17,3.54Z"/>
      <path class="cls-64" d="M161.44,161.8c-4-.35-7.89-1.98-12.01-.95-.75.19-1.4-.31-1.81-.94-.63-.96-1.51-1.48-2.6-1.78-1.35-.36-1.99-1.19-1.62-2.68.31-1.23-.41-1.75-1.53-1.92-1.98-.3-3.59-1.61-6.03-.16-2.1,1.25-5.14.15-7.6-.72-1.14-.4-2.29-.61-3.43-.96-1.94-.59-3.3-.21-3.61,2.11-1.42.01-2.23-1.07-3.42-1.26-1.87-.3-3.82-2-4.93,1.24-.34.99-3.2.62-4.75-.64-1.45-1.18-2.33-.88-3.04.69-2.1-1.47-3.8-3.23-4.21-5.91.11-1.13-1.23-1.66-1.15-2.77v.02c.22-.74-.68-2.66.79-2,3.17,1.42,6.23-.5,9.47.49,2.69.82,5.59,1.09,8.11,2.55,3.41,1.98,7.02.92,10.13-.13,3.97-1.34,7.49-.49,11.2.27.49.13.96.3,1.44.48,3.55-.26,6.35,2.63,9.93,2.36,1.04-.08,1.76.76,1.91,1.83.2,1.49,1.14,1.62,2.33,1.39,3.78.06,7.27,1.26,10.69,2.73.97.42,2.06.75,2.27,2.04-1.55,2.41-4.23,3.23-6.51,4.61Z"/>
      <path class="cls-45" d="M185.45,131.98c-.13.33-.16.81-.4.95-4.14,2.41-5.92,6.42-7.34,10.68-.54.08-.77.51-1.05.89-4.04,5.62-4.61,5.85-11.36,4.31-.93-.21-1.91-.83-2.78-.27-2.16,1.39-3.7,1.47-4.51-1.43-.22-.81-1.22-.5-1.91-.61-5.42-.86-7.47-4.35-5.54-9.43.17-.45.6-.97.41-1.35-1.81-3.5.32-7.24-.91-10.9-1.92-5.71,2.36-11.11,8.39-11.2.85-.06,1.69-.25,2.55-.26.55.07,1,.26,1,.92-.22,1.01-1.13,1.52-1.67,2.3-1.65,2.36-2.44,4.45-.65,7.53,1.51,2.59,2.86,5.79,2.45,9.06-.28,2.22.7,2.77,2.48,3.57,1.53.69,4.63-.26,4.12,3.38,1.75-2.37,3.81-3.4,6.45-3.01,2.12.32,3.19-1.02,4.51-2.36,1.52-1.53,2.76-4.15,5.76-2.78Z"/>
      <path class="cls-44" d="M71.77,14.88c2.16.65,4.27,1.15,5.79-1.24.45-.7,1.1-.82,1.89-.56.44.15,1.09.39,1.38.2,1.83-1.22,3.99-.47,5.76-.98,2.88-.83,5.09.06,7.48,1.11-.43,4.89-.42,4.91,3.67,7.01-.46,1.72-1.07,3.46-.81,5.43.2,1.54.5,2.31,2.05,2.8,3.94,1.24,7.83,2.14,11.81.24,1.07-.51,2.14-.08,3.2.04,1.16.13,2.33,0,2.69-1.23.36-1.25-.92-1.48-1.71-1.94-.61-.36-1.97.14-1.66-1.29.27-1.28,1.12-1.76,2.42-1.47.69.16,1.41.2,2.72.38-1.32-1.54-2.63-1.39-3.81-1.45-.71-.04-1.45.21-2.11-.2-.64-.4-1.18-.94-1.05-1.74.14-.89.9-1.02,1.66-1,1.32.03,2.64.08,3.96.11,4.24.09,6.56,3.1,9.01,5.91-.04,1.38-1.09,2.36-1.42,3.63-.54,2.05-1.92,2.94-3.97,2.78-2.2-.17-4.24.46-6.29,1.08-6.85.36-13.68-.6-20.53-.39-.77,0-1.52.17-2.27.26-.61-.23-.93.06-1.11.62-.26.2-.53.33-.85.41-.98.02-2.07.2-2.09-1.31.38-1.41-1.4-1.14-1.63-2.09-.23-.35-.62-.41-.97-.55-.26-.05-.44-.2-.54-.44-1.05-1.43.4-1.21.96-1.27,1.72-.21,4.13.36,4.14-2.22,0-2.33-.99-4.31-3.34-5.87-4.35-2.89-7.78-.21-11.38,1.17-4.95,1.9-8.19,5.44-8.99,10.91-.11.77-.38,1.7-1.54,1.64-.83-4.1.35-7.87,2.35-11.29,1.47-2.52,2.99-5.1,5.14-7.18Z"/>
      <path class="cls-3" d="M23.93,92.49c1.3,1.68,2.16,3.83,4.58,4.35.2.04.37.3.52.48.57.68.29,2.31,1.6,2.02.93-.21,1.68-1.23,2.51-1.9.6-.49.8-1.19.92-1.91.29-1.74,1.1-2.66,2.99-1.96,2.02.75,2.82-.38,3.4-2.08,1.15-3.41,3.28-3.92,5.84-1.23,1.08,1.14,2.53,1.28,3.75,1.99,1.24.72,2.55,1.28,3.7,2.58-1.18.65-2.22,1.57-3.4,1.81-3.58.72-5.72,2.96-7.35,6.02-.41.77-.91,1.79-2.1,1.75-2.68-.09-3.39,2.41-4.95,3.78-.29.26-.5,1.04-.33,1.32,1.43,2.31-.22,4.42-.51,6.55-.43,3.16-.69,3.12,2.36,4.31-.94,1.28-2.64,2.4-2.05,4.1.54,1.55.77,3.36,2.19,4.48.74.59.92,1.26,1.01,2.16.28,2.65,1.24,4.97,3.8,6.28-2.08.52-4.19.81-6.34.7.14-.19.42-.53.4-.55-2.21-2.19-1.82-5.52-3.5-7.9-.78-1.1-.72-2.27-.74-3.41-.03-1.7-.2-3.32-.78-4.93-.44-1.22-.87-2.44.51-3.55.85-.68.8-1.67-.21-2.42-1.06-.79-1.4-2.14-1.35-3.19.17-4.23-2.29-7.46-3.92-10.97-1.05-2.27-1.43-4.8-2.81-6.95-.32-.5,0-1.17.28-1.71Z"/>
      <path class="cls-39" d="M55.41,60.44c.21.16.27.37.18.62.01.3-.02.6-.09.89-.34,3.96-.61,7.92-.4,11.9.29,1.13.09,2.11-.89,2.85-4.68,3.72-4.83,3.73-5.57-2.2-.44-3.52-1.7-6.73-2.86-10.01-.59-1.66-1.67-2.11-3.02-1.06-2.04,1.58-4.58,1.22-6.83,1.98-2.22.75-3.8-.52-3.99-2.87-.1-1.28-.3-2.63.04-3.93,2.36-9.03,4.12-18.35,11.38-25.13,1.41-1.32,1.79-3.08,2.6-4.65.24-.25.49-.5.74-.74,2.79-.08,5.14,1,7.23,2.77-.43,1.96-1.45,2.96-4.51,4.4-2.97,1.34-3.49,4.68-5.5,6.85-1.3,1.4-1.65,3.67-3.24,5.11-.87.79-.92,1.8.47,2.15,1.27.32,2.4,1.44,3.77,1.01,3.12-.97,3.67.76,4.04,3.29.39,2.73,2.22,5.03,2.54,7.93,1.51-.98,2.9-1.35,3.91-1.15Z"/>
      <path class="cls-63" d="M139.36,147.14c-1.39-.28-2.81-.1-4.2-.69-1.72-.73-3.68-1.6-5.05.73-.06.09-.2.21-.29.2-4.27-.47-8.82,2.39-12.8-.66-3.08-2.36-6.93-1.2-10.09-2.83-.72-.37-1.05.47-1.54.52-1.37.16-2.67,1.08-4.14-.44-1.35-1.4-1.13.63-1.56,1.21-.76-1.21-2.49-1.39-3.01-2.85-1.87-.89-2.66-2.27-2.02-4.33,4.64.98,9.51.17,14.08,1.68,2.58.85,4.92,1.3,7.59-.08,3.53-1.82,6.97-.73,10.21,1.31.86.54,2.02,1.95,3.02.23.75-1.3.45-2.77-.91-3.46-3.2-1.61-3.36-5.37-5.68-7.67-1.41-1.4,0-2.71,1.57-3.6,2.79-1.58,6.25-2.05,8.29-4.9.66-.63,1.42-1.1,2.26-1.44,1.18-.28,2.29-1.22,3.59-.39-.05,4.04-3.54,5.83-5.78,8.29-1.73,1.9-1.51,2.85.12,4.38,1.46,1.37,3.87,2.16,2.94,5.18-.31,1.02,1.71,1.35,2.62,2.07,2.87,2.27,3.17,4.66.79,7.55Z"/>
      <path class="cls-11" d="M138.83,29.24c-1.49-2.2-3.57-3.32-6.08-4.28-1.99-.76-3.52-2.81-5.15-4.4-1.34-1.32-2.59-2.49-4.71-1.73-.45.16-1.12-.3-1.7-.45-2.21-.6-4.45-1.09-6.76-1.05-2.21.04-4.28-.22-6.1-1.69-1.04-.84-2.37-1.38-3.73-.93-1.36.45-2.19-.01-2.5-1.23-.31-1.26-1.07-1.61-2.2-2.01-2.71-.97-5.39-1.83-7.91-3.53-2.13-1.44-5.28-1.08-8.03-.81-3.08.3-5.9,1.51-8.74,2.62,3.94-3.91,8.36-7.02,13.87-8.31,3.68-.18,7.03,1.16,10.17,2.75,5.91,2.98,12.11,5.08,18.47,6.78.86.23,1.41.86,2.05,1.41,3.43,2.92,7.59,3.78,11.9,3.88,2.15.05,3.31,1.1,4.3,2.71.75,1.23.84,2.78,1.92,3.84.36.5.53,1.04.3,1.65-.4.77.25.91.7,1.16.87,1.23.56,2.42-.09,3.61Z"/>
      <path class="cls-47" d="M137.92,22.81c-1.07,0-1.42-.71-1.62-1.59-.3-1.35-1.15-2.39-2.05-3.33-.88-.93-2.25-1.48-3.19-.5-1.09,1.13-1.64.91-2.55-.06-.74-.78-1.74-1.42-2.86-1.34-2.94.22-4.95-1.45-6.9-3.25-.33-.3-.51-1.16-.89-.98-2.91,1.35-4.64-2.12-7.28-1.7-1.27.2-1.57-1.35-2.75-1.43-4.24-.29-7.59-3.05-11.44-4.45-2.41-.88-4.73-1.68-7.24-2.08-.05,0-.04-.42-.06-.65,3.03-1.07,6.07-2.06,9.33-.95.23.08.47.27.68.23,5.33-1.05,10.38,1.19,15.57,1.32,2.86.07,5.34.7,7.87,1.91,1.29.62,2.1,1.63,2.9,2.54,3.34,3.81,7.88,6.48,10.36,11.13.9,1.68,1.83,3.29,2.12,5.19Z"/>
      <path class="cls-45" d="M167.01,106.11c.19-.14.37-.33.58-.42,4.59-2.06,6.61-5.86,7.25-10.62.25-1.87,1.89-3.59.23-5.66-.41-.51.28-1.81.3-2.76.04-1.65.4-3.54-2.06-3.91-.57-.08-.9-.53-.81-1.01.4-2.31-1.25-3.98-1.87-5.95-.61-1.96-1.67-3.65-.5-5.75.41-.73.05-1.59-.3-2.42-1.04-2.49-1.33-5.23-2.1-7.76-.99-3.26.29-7.56-3.74-9.66.62-1.95-1.27-3.21-1.38-4.96.23-.06.38.02.44.25.52.3.84.89,1.48,1.01h.01c.32.05.65.12.96.2,3.38,1.39,5.5,4.36,8.23,6.57,3.18,11.7,2.11,24.32,7.67,35.51-.49,3.93-2.22,10.61-4.26,12.78.15.85-.18,1.48-.87,1.96-1.92,1.19-3.9,2.26-6.08,2.88-1.06.3-2.25,1.06-3.19-.29Z"/>
      <path class="cls-64" d="M44.86,138.02c-.04-1.57-.34-2.97-1.6-4.15-3.12-2.91-4.2-6.57-3.39-10.73.25-1.31.45-2.16-.69-3.42-2.06-2.3-1.39-9.42,1.03-10.97,1.81-1.16,3.67-2.07,5.05-3.81.59-.74,1.4-1.27,1.66-2.27.23-.88.83-1.08,1.65-.74,1.45.6,2.8.52,4.05-.51.99-.81,2.07-.11,3.27-.09.51-1.4,1.03-2.83,1.55-4.26,2.05.67,1.8,2.51,2.09,4.08.17,4.96-1.34,7.17-5.8,8.31-1.3.33-2.15,1.05-2.55,2.28-.37,1.12-1.01,1.9-2.23,2.09-3.44.56-3.67,3.15-3.32,5.75.4,3.03,1.02,5.96,1.03,9.11,0,2.24,1.67,5.12,3.79,6.99,1.71,1.51,3.27,3.13,4.36,5.15-1.01.92-2.32.98-3.25.32-2.07-1.47-4.78-1.44-6.7-3.13Z"/>
      <path class="cls-36" d="M185.45,131.98c-2.39.37-4.1,1.79-5.41,3.71-1.26,1.84-2.47,3.23-5.12,2.27-1.8-.64-3.54.18-4.79,1.73-.45.56-.87,1.15-1.3,1.72-.37.49-.74,1.06-1.43.55-.44-.33-.19-.86-.2-1.33-.01-.87,1.08-1.27.86-2.36-2.16.67-3.74-1.21-5.85-1.22-1.34,0-1.47-1.38-1.24-2.54.37-1.93,1.47-3.99-1.15-5.3-.46-.23-.47-.93-.23-1.32,1.3-2.12-.36-3.3-1.47-4.56-1-1.13-1.05-2.01-.56-3.52.84-2.56,2.18-4.47,4.48-5.76.12-.1.24-.2.36-.3.52-.39,1.11-.64,1.7-.9,1.33-.22,2.55-2.06,4.03-.31-.49,1.77-2.09,2.61-3.32,3.69-2.21,1.93-1.9,3.79-.04,5.5,1.87,1.72,2.99,3.65,3.26,6.2.22,2.03,1.28,2.38,3.31,1.73,4.43-1.42,8.98-2.49,13.51-3.59.84-.2,1.89-.78,2.34.63.3,2.05-.67,3.68-1.74,5.27Z"/>
      <path class="cls-9" d="M158.84,114.58c-1.59.29-3.36-.71-4.8.78-1.79,1.84-3.1,4.05-3.72,6.43-.51,1.94.92,3.87,1.52,5.76.31.96.3,1.42-.21,2.17-.85,1.25-1.22,2.43-.03,3.9,1.03,1.26.97,2.71-.27,4.2-1.71,2.05-1.25,3.85.92,5.37.29.2.62.43.78.72,1.07,1.98,2.62,2.23,4.57,1.42.39-.16.91-.03,1.36-.04.59,1.19-.29,2.52.65,3.53.9.45,1.29-.24,1.69-.82.64-.95,1.88-1.34,2.5-.8,1.86,1.65,4.24.54,6.17,1.49,1.3.64,2.28.07,3.17-.92.95-1.06,2.12-1.94,2.83-3.22.38-.69.94-1.07,1.77-.93.06.24-.03.4-.27.49-.26.26-.29.62-.44.93.02.25-.09.42-.33.5-.26.52-.8.82-1.01,1.37-1.12,1.2-2.16,2.47-3.52,3.45-1.29.93-2.04,2.29-2.49,3.8-.34,1.15-.73,2.25-1.71,3.02-4.03-2.28-8.5-3.23-12.94-4.3-.92-2.83-3.92-3.42-5.71-5.31-2.57-2.7-4.61-5.62-2.86-9.64.15-.33.33-.74.17-1.05-2.83-5.57.25-11.22-.25-16.82-.3-3.36,2.91-4.45,4.62-6.5.21-.24.46-.46.72-.64.27-.15.57-.24.88-.29.15,0,.3,0,.45-.01.29,0,.58.05.86.09.14.01.28.04.42.05.41.02.83.01,1.24-.02.28-.03.56-.03.84-.02.29.01.57.06.86.12.14.04.28.08.42.12.68.33,1.38.64,1.17,1.61Z"/>
      <path class="cls-55" d="M187.2,126.72c-1.19-.66-2.03.4-3.05.6-1.47.3-2.72,1.48-4.47.7-1.37-.61-1.6,1.55-2.99,1.54-2.74,0-5.37.6-7.69,2.5-1.17-1.64-2.3-3.09-2.1-4.99.2-1.87-.95-2.86-2.06-3.95-.75-.74-1.76-1.14-2.13-2.34-.55-1.79-1.61-3.18.93-4.72,1.5-.91,2.92-2.41,4.39-3.63.35-1.04.99-1.49,2.07-.99-.84,2.67-2.04,5.23.33,7.92,2.14,2.42,5.04,3.4,7.79,3.38,2.87-.01,4.8-2.31,5.32-5.44.29-1.76,1.09-3.41,1.43-5.18.25-1.28.77-2.56,2.41-2.72.63,1.28,1.17,2.62,1.9,3.84,2.16,3.6,1.69,7.02-.72,10.23-.76,1.01-.51,2.35-1.38,3.25Z"/>
      <path class="cls-79" d="M104.19,44.14c-.24-.02-.56-.15-.7-.04-3.35,2.6-7.37,2.29-11.22,2.46-2.32.1-3.85,1.75-5.87,2.42-2.64.88-2.8,1.24-4.34-1.11-.89-1.36-3.08-1.11-3.31-3.28-.06-.57-2.2-.16-3.36-.08-3.28.24-3.73-.26-2.68-3.52-.8.47-1.5.88-2.2,1.29,3.52-4.53,8.17-7.29,13.69-8.69-.25,4.62.01,4.52,5.03,6.84,2.91,1.34,5.23.98,8.19.36,5.24-1.1,10.64-1.61,16-2.16,1.14-.12,2.48-.06,3.03,1.39-.82,1.65-2.46,1.63-3.94,1.93-.79.06-1.54.26-2.25.6-.28.13-.57.24-.86.33-.88.25-1.67.69-2.48,1.12-.28.14-.58.24-.88.32-.63.12-1.26.17-1.84-.17Z"/>
      <path class="cls-45" d="M67.83,136.85c-2.32.47-4.64.93-6.96,1.4-2.42.57-4.13-.33-5.96-2.05-2.25-2.12-4.07-4.41-5.65-7.05-2.19-3.65-2.4-6.18.1-9.6,1.05-1.43,1.53-2.95,1.67-4.65.21-2.41,1.23-4.06,3.88-4.38,3.25-.4,5.05-3.01,7.29-4.95,1.26.62,1.96,1.66,2.27,3-.01,1.88-1.75,2.41-2.74,3.55-2.21,2.53-3.93,5.03-5.01,8.59-1.5,4.97,2.02,6.19,3.91,8.81,2.43,3.37,5.71,4.04,9.53,3.07.61-.16,1.19-.09,1.68.36.33.51.31,1.02.07,1.55-1.09,1.25-1.92,2.94-4.07,2.35Z"/>
      <path class="cls-23" d="M181.41,88.78c-.51,0-1.06-.17-1.11-.69-.25-2.74-3.25-4.47-2.7-7.48-2.05-1.54-.92-3.61-1.09-5.53-.2-2.19-.24-4.48-.84-6.59-1.28-4.54-1.01-9.39-2.92-13.78-.39-.91.16-1.3.99-1.44,2.28,1.27,4.13,2.56,5.03,5.49.95,3.09,2.64,6.05,3.92,9.11,1.68,4.02,2.19,8.18,1.99,12.47-.09,2-1.95,3.23-2.41,5.09.05.52-.64.82-.41,1.39v-.09c-.3.29-.31.66-.29,1.05l.02-.04c-.14.34-.26.68-.18,1.06v-.02Z"/>
      <path class="cls-78" d="M61.68,105.58c.31,1.98-.11,3.39-2.35,4.01-1.81.5-2.95,2.58-5.37,1.95-1.14-.3-1.82,1.2-1.88,2.24-.16,2.79-.68,5.16-2.8,7.41-2.1,2.22-.8,6.58,1.98,8.29.92.57,1.23.9.63,1.89-.73,1.22.13,1.83,1.15,2.01,1.42.25,2.27.8,2.77,2.31.62,1.86,2.5,1.98,4.17,2.09.42.03.97-.45.88.46-1.8,1.37-3.48,3.03-6.06,2.58-1.04-.66-2.31-.75-2.88-2.36-.57-1.62-3.17-2.13-3.78-3.36-.7-1.4-.67-3.23-2.04-4.49-1.16-1.07-1.87-2.23-.09-3.46.24-.16.45-.85.38-.9-1.78-1.32-.28-3.51-1.15-4.81-1.47-2.19-.51-4.09-.09-6.15.31-1.54,1.13-2.37,2.7-2.27,1.52.1,2.39-.12,2.49-2.03.08-1.56,1.96-2.93,3-2.56,2.44.88,3.11-1.2,4.17-2.11,1.29-1.09,1.52-3.07,1.25-4.88,2.05.62,3.04,1.99,2.91,4.14Z"/>
      <path class="cls-13" d="M187.4,109.4c-2.13,2.61-2.27,5.93-3.01,8.99-.72,2.95-4.81,6.45-7.69,5.54-2.01-.63-3.8-1.82-6.03-2.14-1.42-.21-3.46-6.93-2.63-8.16.52-.76,1.45-1.24,2.19-1.85.68-2.57,2.47-4.34,4.37-6.02,2.2.66,2.09,1.97.91,3.49-.43.56-1.12.88-1.57,1.45-.7.88-1.25,1.89-.57,2.94.67,1.05,1.69.59,2.56.18,1.1-.52,2.28-.67,3.46-.85,1.62-.24,2.63-1.13,2.66-2.83.03-1.58-.63-2.77-2.2-3.32-1.45-.51-3.06-.73-3.89-2.29-.18-.29-.31-.61-.37-.95.03-.26.15-.43.33-.51.19-.08.31-.1.34-.05.29-.48.59-.96.88-1.44,2.26.64,3.88,2.8,6.59,2.52,1.1-.11,1.85,1.25,2.3,2.1.52,1,1.44,1.93,1.37,3.22Z"/>
      <path class="cls-16" d="M66.78,196.25c-3.55,2.17-3.86,5.96-4.29,9.44-.79,6.41-1.04,12.87-.8,19.34.2,5.5.53,11,.63,16.51.01.79.99,2.13-.63,2.64-2.86-10.38-2.43-20.94-1.67-31.52,1.05-14.61,4.21-28.75,9.38-42.45,1.53.51,1.58.52,1.4,2.34-.34,3.48-1.43,6.86-1.33,10.39-.79,4.46-.75,9.08-2.68,13.31Z"/>
      <path class="cls-36" d="M55.41,60.44c-1.45-.08-2.11.72-2.33,2.05-.1.6-.28,1.23-1.08,1.11-.64-.09-1.09-.53-1.25-1.15-.4-1.51-.61-3.08-1.17-4.52-.77-1.97-2.18-3.66-1.69-6.05.19-.95-.89-1.57-1.74-.91-2.8,2.19-4.6-1.08-7-1.23-1.09-.07-.67-1.94.03-2.36,3.43-2.01,2.91-6.85,6.42-8.78.46-.25.51-1.28.71-1.95.43-1.47,1.46-2.13,2.93-2.21,1.55,3.17-.34,5.31-2.39,7.63,8.2.14,4.06,6.53,5.38,10.27,1.62.26,1.62-2.45,3.38-1.9-.06,3.33-.12,6.66-.19,10Z"/>
      <path class="cls-30" d="M64.28,33.36c.45-.44.75-1.02.7-1.61-.33-3.7,2.88-5.9,3.81-9.07.09-.29.55-.73.73-.69,2.43.62,3.58-1.48,5.27-2.41,1.6-.89,3.51-.8,5.12-1.97,1.44-1.05,3.4-1.21,4.87.52.29.34.74.6,1.17.78.95.41,2.41-.59,2.94.69.87,2.1,1.58,4.3,2.05,6.52.28,1.32-2.39,2.74-4.5,2.62-.67-.04-1.52-1.23-2,.26-.69-.16-1.37-.33-2.06-.49-.88-.78.34-1.54-.09-2.61-2.74,1.05-5.43.6-8.09-.67-2.01-.96-3.47-.11-4.4,1.82-.89,1.85-2.21,3.45-3.06,5.32-.47,1.03-.98,2.37-2.49.99h.03Z"/>
      <path class="cls-15" d="M116.35,40.06c-2.44-1.19-4.93-.67-7.39-.11-2.67.6-5.24,1.48-8.12.89-1.8-.37-3.66.55-5.25,1.51-1.13.68-2.2.92-3.41.49-1.86-.66-3.25-2.62-5.57-1.98-.32-2.09-2.2-1.61-3.49-2.13-1.07-.43-.79-1.3-.73-2.14.11-1.32,1.8-1.65,1.81-3,1.13-.5,2.25-1,3.38-1.51.57.93,1.63.52,2.41.87,5.4,4.04,11.18,6.06,18.05,4.3,5.66-1.45,11.4-.58,17.07.47.33.07.64.18.95.3.46.19.9.43,1.32.7.29.18.54.4.77.64.42.57.69,1.17.32,1.88-4.05-.31-8.17.18-12.11-1.18Z"/>
      <path class="cls-38" d="M75.21,177.89c-3.21,12.49-4.65,25.27-6.13,38.05,0,.31-.02.62-.07.92h0c-.09.38-.15.77.03,1.15-.05.28-.11.56-.16.84-2.28.85-1.83-1.2-2.03-2.13-.96-4.5-.76-9.12-.1-13.58,1.15-7.8,1.94-15.66,3.3-23.42.34-.54.21-.99-.27-1.39-.45-2.88.38-4.97,3.49-5.66.27-.21.57-.28.91-.21.47.23.8.59,1.02,1.06.46,1.45-.75,2.91,0,4.37Z"/>
      <path class="cls-56" d="M145.02,41.46c.37.47.66,1.22,1.13,1.36,4.64,1.35,7.2,5.61,11.16,7.88,1.49.86,1.65,2.59,2.75,3.7.44.45.27,1.51-.26,2.01-1.88,1.77-2.22,4.54-4.17,6.25-.57-.03-.98-.33-1.32-.76-.21-.29-.37-.6-.52-.92-.28-.85-.78-1.6-1.17-2.4-1.27-3.19-3.53-5.69-5.75-8.21-1.1-2.16-1.82-4.55-4.09-5.96-.79-.49-1.25-1.39-.95-2.44,1.02-.47,2.09-.61,3.19-.5Z"/>
      <path class="cls-50" d="M55.6,50.44c-1.27.57-1.12,2.07-1.93,2.94-.51.55-1.13.99-1.9.81-1.01-.23-.63-1.11-.72-1.77-.34-2.38.4-4.74,0-7.18-.28-1.72-.78-2.28-2.39-2.19-1.14.06-2.78,1.08-3.33-.13-.69-1.53,1.39-1.9,2.19-2.84,1.37-1.61,1.35-3.69,1.72-5.63.99-.67,2.69-.48,2.75-2.25.05-1.34,1.9-.03,1.94-1.35,2.27.97,2.89,3.01,3.19,5.15.68,4.93-.11,9.73-1.52,14.45Z"/>
      <path class="cls-67" d="M66.96,253.9c.08.53.15,1.07.23,1.6-.06.33-.12.66-.16,1,0,0,0,0,0,0-.54.02-.99-.21-1.03-.75-.2-2.73-.53-5.41-1.12-8.11-.46-2.09-.22-4.55.03-6.69.56-4.74-.69-9.32-.42-13.99.16-2.73-.44-5.5.56-8.17,3.66.92,2.45,3.75,2.45,6.06-.27.49.53.26.07.1-.14-.05-.09-.15-.03-.35.14-.46.24-.97.81-1.04.38-.05.63.21.65.62.32,2.25.75,4.45-.35,6.69-.38.76-.05,1.88-.02,2.83.19,5.86,1.01,11.68.94,17.55-1.25-.27-1.49-1.6-2.33-2.64-.71,1.97-.21,3.65-.28,5.29Z"/>
      <path class="cls-65" d="M95.47,142.94c.7,3.97.2,7.66-2.63,10.77-3.41,3.46-6.68,7.12-11.94,7.72-.38,0-.75-.08-1.1-.25-.26-.29-.38-.63-.38-1.02.01-.37.07-.73.17-1.08.05-.17.11-.35.15-.52.11-.35.26-.67.45-.98.19-.3.42-.57.66-.83,3.8-2.97,6.97-6.44,9-10.91,1.71-3.78,2.27-7.51.32-11.35-.12-.33-.2-.67-.26-1.02-.04-.36-.03-.71,0-1.07.03-.18.08-.35.11-.53.1-.35.28-.67.52-.94.16-.09.32-.17.48-.26.38.02.71.15.99.41,2.5,3.56,2.07,7.97,3.44,11.86Z"/>
      <path class="cls-29" d="M141.82,41.96c.5.65.88,1.7,1.51,1.88,3.11.91,3.28,3.63,4.03,6.02-.88,1.31-2.36.64-3.47,1.06.91,0,1.33.73,1.86,1.33.91,1.28,1.9,2.5,2.6,3.91.16.34.26.68.32,1.05.07.96.07,1.89-1.01,2.34-1.07.29-1.98.03-2.1-1.15-.27-2.87-2.21-4.85-3.6-7.12-.53-.93-.81-1.95-1.06-2.98-.42-2.43-2.15-3.33-4.32-3.71-1.31-.22-2.65-.21-3.94-.54-.84-.21-1.5-.71-2.1-1.31-.55-.6-1.22-1.1-1.65-1.82-.42-.65-.64-1.5-1.56-1.7h0c-.57-.09-.85-.7-1.43-.76-1.07-.75-2.91-.13-3.4-1.91,1.43-1.89,3.05-.62,4.51-.34-1.32-1.38-4.21-.75-4.79-3.39,1.15-1.5,2.9-1.5,4.52-1.7,1.85-.22,3.12,1.07,4.34,2.15,1.69,1.51-.93,3.04-.15,4.61,2,1.59,4.09,2.99,6.78,2.97,1.49-.01,2.67.99,4.1,1.09Z"/>
      <path class="cls-1" d="M64.25,33.36c.61.15,1.3.22,1.48-.53.76-3.09,3.1-5.29,4.4-8.07.57-1.21,1.42-1.66,2.58-.93,1.41.89,3.24.34,4.61,1.74.96.98,2.48.18,3.66-.44.91-.48,1.89-1.51,2.72-.1.73,1.25.25,2.27-1.13,2.83-.13.05-.13.43-.19.66-3.22.9-6.29,2.38-9.75,2.31-1.25-.02-1.76,1.12-2.53,1.85-.95.88-1.47,2.14-2.84,2.66-2.27.85-2.42.82-3-1.97Z"/>
      <path class="cls-52" d="M69.01,224.17c-2.36.02.15,2.13-1.47,2.57-.68-.89-.46-2.1-.51-3.29-.08-1.78-.26-3.56-1.98-4.67.34-6.15.25-12.32,1.21-18.43.21-1.35,1.39-2.62.52-4.11.29-4.44,1.11-8.8,2.11-13.13.2-1.26-.07-2.62.83-3.73.15-.07.29-.14.44-.21.16.02.33.04.49.06-.46,7.29-1.72,14.47-2.82,21.67-.82,5.34-.99,10.72-.09,16.08.12.72-.16,1.82,1.15,1.87.41,1.76.19,3.54.12,5.32Z"/>
      <path class="cls-37" d="M67.83,136.85c1.6-.35,2.21-2.05,3.61-2.67.39.13.59.41.6.82-.12,1.24-.81,2.24-1.42,3.27-3.56,6.09-3.55,12.03.68,17.82,1.54,2.1,2.82,4.25,1.24,6.92-.25.3-.57.46-.95.5-1.92-1.05-3.65-2.18-4.84-4.23-.54-.93-1.07-1.64-1.03-2.75.02-.58-.1-1.22-.34-1.76-2.62-5.85-.05-11.03,2.02-16.28.2-.51.78-.97.42-1.64Z"/>
      <path class="cls-66" d="M130.94,37.89q-1.52-2.23.12-3.4c-2.55-3.39-5.69-2.72-8.93-1.34-.12.06-.24.11-.36.17-.27.05-.54.06-.81.04-.14,0-.27-.03-.41-.03-.28-.02-.56-.05-.85-.08-.15-.01-.29-.03-.44-.04-.31-.02-.6-.06-.91-.1-1.42-.47-3.31.58-4.3-1.3,2.24-.95,4.48-1.67,6.99-1.25,1.47.25,2.48-.32,2.72-2.07.2-1.46,1.03-2.69,2.34-3.5,1.2.48,2.49.77,3.29,1.97.73,1.09,1.99,1.72,2.94,1.6.29.19.46.45.53.78.39.49-.59,1.57.73,1.66.01,0,.35-.02.35-.02.85,1.38,1.92,2.03,3.5,1.1-.59,2.39-2.33,3.72-4.47,4.54-.79.3-1.52.56-2.02,1.27Z"/>
      <path class="cls-62" d="M70.05,179.65c-.39,1.15-.77,2.31-1.16,3.46-.76-1.28-.24-2.58-.04-3.86.4-2.61.86-5.2,1.29-7.8.1-.61.18-1.23-.74-1.25.73-2.23,1.47-4.47,2.2-6.7,0,0-.02-.22-.02-.22l.19-.11c2.25-1.02.61-3.25,1.47-4.71.98-.42,1.69.26,2.49.59.24.1.49.22.73.33.24.08.48.17.72.24.12.03.24.07.36.09.24.04.47.1.71.15.12.02.23.06.35.08.24.05.46.14.67.27.08.09.17.17.25.26.13.19.26.37.38.56.44,1.15.06,2.17-.48,3.17-.38.25-.77.49-1.15.74-4.01,1.04-3.69,4.6-4.41,7.56-.36,1.1-.72,2.2-1.08,3.3-1.21-.37-.03-1.83-1.55-2.02-1.04,1.37-.98,3.12-1,4.86,0,0,.09.35.09.35-.14.2-.23.42-.27.66Z"/>
      <path class="cls-60" d="M73.85,172.5c-2.31-1.3-.4-2.88.08-3.91.63-1.34-.06-3.61,2.28-3.99.74-.12,1.41-.03,2.05.35-.74,4.38-1.76,8.7-3.05,12.95-.86.01-.83-.55-.76-1.15.12-1.02.47-2.02.24-3.06.09-.66-.19-1.05-.84-1.18Z"/>
      <path class="cls-43" d="M79.41,164.21c-.85-1.21.07-2.15.48-3.17,5.06-1.13,8.91-4.4,12.94-7.34-2.98,5.41-7.56,8.77-13.42,10.5Z"/>
      <path class="cls-69" d="M95.47,142.94c-1-.97-1.36-2.23-1.62-3.55-.59-2.95-1.4-5.84-2.55-8.63-.46-1.45.19-2.43,1.34-3.2,2.21.12,1.59,1.9,1.86,3.17-.58,2.41,1.97,4.47.77,6.95-.53,1.86.54,3.23,1.41,4.66-.4.2-.81.4-1.21.61Z"/>
      <path class="cls-64" d="M34.74,31.38c-1.08.66-1.85,1.93-3.38,1.65,1.11-.59,1.91-1.8,3.38-1.65Z"/>
      <path class="cls-63" d="M99.68,145.15c.57.85,1.53,1.53,1.15,2.77-.41-.91-1.49-1.55-1.15-2.77Z"/>
      <path class="cls-47" d="M138.92,25.63c-.7-.03-1.22-.27-1.25-1.06,0-.03.36-.07.55-.1.23.39.46.78.7,1.16Z"/>
      <path class="cls-22" d="M164.54,46.5c-.77.07-1.17-.41-1.48-1.01.76-.06,1.06.57,1.48,1.01Z"/>
      <path class="cls-45" d="M181.86,86.83c-.3-.59-.05-1.02.41-1.39.28.59-.07.99-.41,1.39Z"/>
      <path class="cls-66" d="M137.42,32.1c-.13-.65.18-1.09.69-1.44.15.66-.2,1.09-.69,1.44Z"/>
      <path class="cls-45" d="M175.68,146.92c0-.71.45-1.08,1.01-1.37.1.78-.46,1.07-1.01,1.37Z"/>
      <path class="cls-64" d="M43.33,137.46c.67-.27,1.12.06,1.51.55-.63.17-1.08-.17-1.51-.55Z"/>
      <path class="cls-22" d="M165.51,46.71c-.32-.07-.64-.13-.96-.2.37-.17.7-.13.96.2Z"/>
      <path class="cls-45" d="M181.57,87.79c-.1-.41,0-.76.31-1.05.17.43.06.78-.31,1.05Z"/>
      <path class="cls-45" d="M181.41,88.81c-.14-.39-.09-.74.18-1.06-.06.35-.12.71-.18,1.06Z"/>
      <path class="cls-56" d="M147.87,41.35c-.37.26-.75.27-1.15.07.37-.22.75-.29,1.15-.07Z"/>
      <path class="cls-56" d="M146.7,41.42c-.3-.02-.61-.05-.91-.07.33-.31.63-.18.91.07Z"/>
      <path class="cls-45" d="M177.01,145.04c.15-.31.29-.62.44-.93.1.43-.06.73-.44.93Z"/>
      <path class="cls-30" d="M84.97,29.44c.42,0,.74.2.97.55-.45.04-.77-.15-.97-.55Z"/>
      <path class="cls-64" d="M45.63,27.91c.4-.22.76-.15,1.09.15l-.16.29c-.28.27-.58.31-.92.09,0-.18,0-.35,0-.53Z"/>
      <path class="cls-39" d="M45,28.54c-.13-.19-.26-.38-.38-.58.33-.2.66-.3,1.01-.05l.04.28c-.13.29-.36.4-.66.34Z"/>
      <path class="cls-36" d="M55.51,61.94c.03-.3.06-.59.09-.89.33.33.21.62-.09.89Z"/>
      <path class="cls-46" d="M5.52,66.68c-.07.29-.15.58-.22.87-.15-.35-.18-.66.22-.87Z"/>
      <path class="cls-64" d="M42.33,137.36c.4-.23.76-.18,1.1.12-.39.18-.76.16-1.1-.12Z"/>
      <path class="cls-52" d="M69.02,216.86c.02-.31.05-.62.07-.92.24.33.15.63-.07.92Z"/>
      <path class="cls-52" d="M69.04,218.01c-.22-.38-.23-.77-.03-1.16.01.39.02.77.03,1.16Z"/>
      <path class="cls-21" d="M67.03,256.5c.05-.33.1-.67.16-1-.05.33-.1.67-.16,1Z"/>
      <path class="cls-34" d="M61.68,105.58c-.97-1.38-1.94-2.76-2.91-4.14-.3-1.5-.26-3.11-1.32-4.39.69-1.45.29-2.82-.31-4.18.21-1.36,1.48-2.55.64-4.07.2-.87-.87-1.33-.71-2.19-.13-.2-.26-.39-.38-.59.05-.34.15-.67.15-1.01,0,0,0,0,0,0,1.7.48,3.03,1.51,3.88,2.99,1.84,3.16,4.87,5.3,6.91,8.27.23.33.81.42,1.23.62,2.43,2.88,3.51,6.39,4.63,9.88.55,1.72.98,3.49,3.29,4.13.5-1.61-.5-2.7-1.04-3.92-1.13-2.51-.67-3.2,2.46-3.87,1.22,1.19,1.68,2.9,2.88,4.11,1.87,2.7,3.81,5.35,5.97,7.82.13,2.59-1.04,3.53-3.51,2.76-1.75-.54-2.92-2.04-4.72-2.97,1.11,1.33,2.79,1.83,3.13,3.5-.47,1.74-1.68.72-2.6.66-1.13-.06-2.2-1.12-3.39-.18-.84.53-1.84-.06-2.98.45,3.54.83,4.37,4.18,6.57,6.15.54.48.27,1.37-.13,2.03-.84,1.07-1.83,1.87-3.28,1.89-.15-1.43-.87-1.92-3.33-2.28-2.22-.32-5.06.75-5.95-2.62-.97-3.66-2.01-7.32,1.66-10.22,1.77-.8,3.18.9,5,.71-.52-6.62-6.34-8.65-10.67-12.38-.46,1.96,1.11,2.86,1.67,4.13.51,1.16,2.16,2.22.42,3.64-.52-.26-.8-.66-.75-1.25-.84-1.18-1.68-2.35-2.52-3.53Z"/>
      <path class="cls-70" d="M176.26,103c-.15.14-.31.28-.46.42-.11.43-.14.88-.24,1.32-.13.43-.33.83-.68,1.14-1.15,2.28-2.74,4.22-4.65,5.89-.88-.29-1.53.2-2.18.66-1.7-.26-2.75,1.53-4.41,1.41-.57-.15-1.04.37-1.6.24,0,0,0,0,0,0-.34-.05-.68-.1-1.01-.16-1.44.3-2.63-.8-4.04-.69h0c-.34-.05-.67-.11-1.01-.16h0c-.57-.14-1.04.36-1.6.24h0c-.34-.05-.68-.11-1.02-.16h0c-.33-.06-.66-.11-1-.15-.21.12-.41.24-.61.37-1.86.43-3.76,1.12-5.21-.88.07-1.14.64-2.11,1.41-2.85,6.66-6.42,7.7-14.58,7.26-23.21.02-.6.1-1.2.32-1.77.26-.66.48-1.46,1.37-1.43.84.04,1.18.78,1.42,1.46,1.01,2.83,1.28,5.86,2.24,8.71.16.86.06,1.71-.07,2.56-.15.93-.33,1.85-.29,2.8.02.3.01.6,0,.89,0,.29-.04.58-.07.87-.01.14-.03.29-.04.43,0,.28,0,.56.01.84.03.14.05.27.09.41.17.52.44.99.82,1.39.21.16.41.33.63.49.23.13.45.28.66.44.09.1.17.21.25.31.9,1.1,2.12,1.24,3.42,1.14.35.02.69.08,1.04.14,0,0,0,0,0,0,2.71-.07,4.98-1.39,7.29-2.57.63-.32,1.17-.85,1.97-.54Z"/>
      <path class="cls-50" d="M160.07,94.09c-1.82-3.17-1.46-6.99-3.07-10.49-.98.87-.54,2.13-1.14,2.93-.26,1.32.14,3.28-1.87,3.3-2.06.02-2.4-1.93-2.24-3.42.47-4.45-1.6-8.63-1.22-13.04.15-.33.39-.56.74-.68,2.75.82,2.51,3.9,4.41,5.65,1.02-1.1.26-3.29,2.09-3.92.99,2.56,1.65,5.33,3.09,7.6,1.2,1.9,2.28,3.74,3.07,5.85.59,1.58.35,3.27,1.18,5.6,1.29-4.27,5.38-6.2,4.94-11.33,1.92,2.47,2.84,4.04,1.92,6.6-1.34,3.71-2.38,7.55-4.65,10.82-1.34,1.93-2.49,4.11-4.75,5.26h0c-.33-.09-.67-.11-1-.19h-.01c-.96-.28-1.21-1.22-1.75-1.88-.12-.51,0-1.12.37-1.3,3.46-1.73,1.86-4.64,1.66-7.16-.19-2.41-1.24.56-1.76-.21Z"/>
      <path class="cls-42" d="M157.75,74.43c-.94,1.8-.46,4.01-1.57,5.91-2.71-1.93-2.94-5.28-4.87-7.51-2.75-2.2-1.8-5.58-2.69-8.37-.05-.75-.13-1.5-.35-2.23-.09-.28-.16-.56-.22-.84-.13-.56-.29-1.11-.31-1.7.04-.14.08-.28.12-.41.11-.67.23-1.35.34-2.02,1.95-.44,2.66,1.29,3.85,2.18.9.67,1.07,2.31,2.69,2.04.29.39.58.78.87,1.17,1.2,3.84,1.53,7.83,2.12,11.78Z"/>
      <path class="cls-45" d="M167.01,106.11c-.35-.05-.69-.09-1.04-.14.35.05.69.09,1.04.14Z"/>
      <path class="cls-75" d="M45,28.54c.22-.11.44-.23.66-.34.3.05.59.11.88.16.12,1.08-.77,2.02-.42,3.16.14.45.08,1.04-.38,1.31-2.98,1.69-4.08,5.06-6.54,7.27-1.46,1.31-2.8,3.32-2.44,5.74.05.33-.02.72-.17,1.02-2.07,3.95-2.16,8.5-3.9,12.54-.36.83-.24,1.64-.13,2.48.41,3.14,1.81,3.79,4.62,2.12.19-.11.41-.54.44-.52,2.76,1.67,4.15-1.24,6.22-1.82,1.16-.33,2.04-.25,2.58,1.47.78,2.47,1.69,4.94,2.55,7.39.86,2.49.79,5.3,1.14,8.13,1.77-.22,1.96-3.02,4.04-2.37v.02c-.16.57.45,1.02.26,1.59.2,1.94-.02,3.8-1.09,5.48-.83,1.3-2.23,1.72-3.3.65-2.22-2.22-5.17-4.03-5.13-7.8,0-.69-.31-1.42-.62-2.06-.53-1.09-2.09-1.46-3.06-.74-.47.35-.73.97-1.19,1.34-.73.59-1.45,1.52-2.48,1.23-1.23-.35-.84-1.55-.92-2.47-.02-.19-.24-.36-.52-.75-.56,1.17-1.18,2.15-1.25,3.35-.07,1.2.02,2.57-1.51,2.84-1.46.26-3.35-1.22-3.74-2.79-.65-2.6-.71-5.29-.06-7.85.61-2.4-.16-5.11,1.65-7.25.19-.23-.07-.93-.24-1.36-1.09-2.78.56-5.73-.54-8.5,1.95-2.62,1.72-6.2,3.89-8.72.23-.27.79-.47.79-.7,0-2.94,2.23-4.17,4.17-5.67.71-.55.28-1.18-.11-1.87-1.09-1.93-.79-3.06,1.14-3.99,1.5-.72,3.15-1.15,4.73-1.7Z"/>
      <path class="cls-31" d="M57.08,86.63c.47.65,1.06,1.27.71,2.19-.47-.65-1.05-1.27-.71-2.19Z"/>
      <path class="cls-39" d="M54.41,77.87c-.33-.49-.53-1-.26-1.59.23.43.47.85.7,1.28-.14.11-.29.22-.45.31Z"/>
      <path class="cls-31" d="M56.84,85.03c-.05.34-.1.67-.15,1.01.05-.34.1-.67.15-1.01Z"/>
      <path class="cls-45" d="M74.26,95.74c.29-3.02-.05-5.91-1.56-8.63-1.22-2.2-2.25-2.44-3.94-.7-1.57,1.61-2.78,1.47-3.58-.45-.27-.66-.47-1.36-.65-2.06-.2-.74-.54-1.57-1.31-1.53-2.79.15-2.03-1.66-2.17-3.3-.18-2.04.71-4.02.01-6.09-.3-.89.44-1.9,1.25-2.44,1.35-.89,1.61-2.22,2.03-3.63,1.42-4.68,2.72-9.4,5.18-13.73,1.04-1.83,2.26-2.95,4.34-3.9.25,2.49,3.1,3.28,3.11,5.85,0,.46.86.92,1.47.58,2.49-1.37,5.55-1.6,7.6-3.85.41-.45,1.05-.89,1.59-.69,2.25.81,3.82-.12,5.45-1.6.93-.84,2.39-1.12,3.72-1.12,1.03,0,1.88-.3,2.66-.91.16.06.31.11.47.17.11.32.1.65-.03.96-.4.73-1.01,1.31-1.49,1.99-.19.27-.41.53-.64.77-3.9,3.6-7.98,6.83-13.71,6.74-1.09-.02-1.66.84-2.25,1.61-.5.66-.85,1.47-1.6,1.92-1.07.64-2.76.6-2.8,2.37-.1,4.75-2.65,9.48-.08,14.24,1.18,2.57.01,5.3.52,7.91-.2,1.95-.27,3.92-.54,5.87-.08.45-.18.9-.24,1.36-.02.3-.06.6-.1.9-.05.31-.14.6-.25.89-.15.28-.34.52-.57.73-.68.35-1.4.92-1.91-.22Z"/>
      <path class="cls-70" d="M141.53,47.78c.35.94.7,1.88,1.05,2.83-.13.81-.27,1.61-.76,2.29-.84,1.2-1.26,2.6-1.88,3.91-.8,1.64-.87,3.46-1.27,5.2-.32,1.41-.62,2.86-2.37,3.23-.37-.03-.66-.18-.91-.45-.28-.45-.44-.95-.55-1.47-.54-4.13-.65-8.32-1.68-12.39-.59-2.33-1.29-4.61-3.42-6.06-1.85-.3-2.03,1.65-3.13,2.34-.4.26-.84.38-1.31.43-.59.05-1.19.09-1.78.13-.45.02-.89-.01-1.33-.06-.45-.04-.91-.08-1.36-.12-1.47-.13-2.87.27-4.27.65-5.03,1.17-9.38,3.75-13.59,6.59-1.76.49-3.07,1.75-4.6,2.63-1.06.61-2.27,1.16-3.28.19-1.01-.96-.38-2.16-.01-3.3.53-1.66,2.07-2.53,2.9-3.94h0c.23-1.11,1.73-1.14,1.94-2.27h0c.37-1.35,2.16-1.36,2.55-2.69.19-.12.37-.24.55-.38,1.14.12,1.66-1.23,2.78-1.15.21-.11.4-.24.6-.37,1.14.14,1.65-1.25,2.78-1.13.2-.11.4-.23.59-.37.86.16,1.33-.89,2.2-.72,1.47-.42,2.94-.83,4.41-1.25,4.13-.28,8.24-.21,12.25,1.02.15,0,.3,0,.44,0,.65.36,1.36.58,2.02.92.47.62.86,1.34,1.79,1.34,1.48.98,2.93,1.84,4.88,1.82,1.7-.02,3.36.55,3.81,2.61Z"/>
      <path class="cls-10" d="M74.26,95.74c.92.39,1.53-.23,2.19-.67.88.4,1.07,1.26,1.38,2.05.35,1.99.97,3.99-.13,5.95-.91,1.31-3.56,2.47-.38,4.16-.23,1.66,1.09,2.79,1.59,4.17-3.14,1.91-5.15.36-5.98-3.14-.95-3.99-3.45-7.31-4.06-11.33,2.05-.4,1.82-2.28,2.28-3.65.25-.74-.34-1.68.45-2.47,1.01.6,1.99,1.18,1.78,2.64-.13.91.38,1.61.88,2.3Z"/>
      <path class="cls-63" d="M102.46,45.43c-.21,1.5-1.63,1.87-2.55,2.7-.14-.2-.29-.4-.43-.59.99-.7,1.99-1.4,2.98-2.1Z"/>
      <path class="cls-63" d="M105.78,43.89c-.85.56-1.56,1.46-2.78,1.15.4-.3.79-.6,1.19-.9.5-.31,1.01-.52,1.59-.25Z"/>
      <path class="cls-44" d="M132.66,29.2c-1.48-.87-1.87,0-2.06,1.27-.09.62-.36,1.21-1.17.91-.77-.28-.73-.87-.32-1.41.79-1.03.07-1.74-.41-2.56-.63-1.08-1.87-1.46-2.61-2.41,3.24-.34,5.66.84,7.15,3.79-.02.24-.12.39-.29.43-.17.04-.27.04-.3-.02Z"/>
      <path class="cls-66" d="M132.66,29.2c.2-.14.39-.27.59-.41.45.66,1.04,1.28.68,2.19,0,0-.03,0-.03,0-.92-.23-1.3-.85-1.24-1.76v-.02Z"/>
      <path class="cls-47" d="M146.74,112.56c1.57.92,3.48-.28,5.03.81-.45,1.38-1,2.65-2.6,3.1-1.76.49-2.19,2.32-1.93,3.45.4,1.77.09,3.2-.43,4.79-.24.75-.31,1.82.05,2.47.93,1.65.34,2.9-.56,4.23-.88,1.29-.72,2.61.56,3.48,1.83,1.24,1.5,2.64.34,3.9-.92,1-.58,1.75-.37,2.86.55,2.98,2.9,4.63,4.5,6.83.6.82,1.5.47,2.29.08.54-.27,1.11-.59,1.63-.02.68.75.14,1.31-.39,1.82-.97.92-.38,1.72.17,2.53-2.78,1.23-2.88,1.24-3.07-1.6-.08-1.21-.76-1.68-1.55-1.42-2.24.76-3.88.01-5.43-1.52-.53-.52-1.3-.53-2.04-.24-1.03.4-1.88.05-2.55-.79.23-.61.81-.83,1.27-1.21,2.4-1.97,2.22-4.74-.62-5.88-1.83-.73-2.8-1.59-2.73-3.59.06-1.47-1.03-2.31-1.97-3.27-3.18-3.24-3.15-5.59-.21-8.99,2.17-2.51,3.65-5.6,6.29-7.74,1.05-1.16,1.64-2.67,2.81-3.74.46-.32.96-.49,1.52-.34Z"/>
      <path class="cls-9" d="M142.85,117.11c-1.59,2.35-3.99,4.03-5.4,6.52-.06.1-.17.17-.25.26-3.66,4.39-3.54,6.07.94,9.72.97.79,1.41,1.54,1.21,2.74-.14.81-.42,1.64-.11,2.46,3.41.39,5.02,1.7,5.19,4.19.18,2.62-.58,3.42-4.06,4.31-.34-.06-.67-.11-1.01-.17.22-.81.47-1.61.66-2.42.45-1.97-.23-3.22-1.98-4.42-1.36-.93-3.02-1.34-4.24-2.52,2.37-1.32,2.41-1.62.47-3.25-1.09-.92-2.17-1.86-3.24-2.81-1.23-1.1-1.44-2.39-.19-3.26,3.25-2.26,5.31-5.57,7.88-8.43.61-2.05,1.98-3.04,4.13-2.92Z"/>
      <path class="cls-47" d="M156.99,113.23c1.53-.84,2.7.41,4.04.69-.64.5-1.44.5-2.19.66-.62-.45-1.23-.9-1.85-1.35Z"/>
      <path class="cls-32" d="M122.64,36.35c.74,1.25,2.54.86,3.28,2.11-4.4-.28-8.75-1.18-13.2-.99-1.69.07-3.33.28-4.97.67-4.63,1.12-9.16,1.29-13.31-1.54-.84-.57-1.72-.78-2.64-1.05-1.27-.37-2.14-1.09-1.83-2.6.2-.14.39-.28.59-.42.03-.24.12-.38.29-.43.17-.05.27-.04.3,0,.66-.44,1.27-1.06,2.19-.66,7.5,2.52,15.35,2.36,23.1,3.02,2.17.19,4.62-.38,6.19,1.87Z"/>
      <path class="cls-80" d="M122.64,36.35c-2.84-1.26-5.89-.85-8.85-1.15-5.91-.61-11.91-.51-17.72-2.02-1.06-.28-2.48-.11-2.72-1.73,5.25-.81,10.49.24,15.74.14,1.6-.03,3.3.19,4.96.22,1.59.86,3.5-.24,5.07.81.33.07.66.16,1,.17h.01c.33.09.66.14,1,.19h0c.34.06.67.15,1.01.17,0,0,0,0,0,0q4.8,1.78,7.22,4.24c-2.46-.11-4.48-1.43-6.72-1.04Z"/>
      <path class="cls-15" d="M91.16,32.11c-.2.14-.4.28-.59.42-.08-.29,0-.48.26-.52.1-.02.22.06.33.1Z"/>
      <path class="cls-77" d="M95.27,137.67c-.47-1.44-.9-2.89-1.43-4.31-.35-.92-.55-1.79,0-2.69,1.61.94,3.18,1.97,5.23,1.38.68-.19,1.63-.08,2.02.48,3.09,4.34,7.88,2.75,11.93,3.24,2.52.3,5.22.72,8.24.05-2.03-2.05-3.18-4.42-4.21-6.89-.61-1.46-.19-2.26.97-2.98.8-.41,1.67-.61,2.54-.83,4.14-.8,7.7-3.44,12-3.74.4.13.6.41.59.83-.65,1.37-1.62,2.44-3.15,2.75-2.15.45-3.79,1.98-5.86,2.62-1.61.5-1.23,1.73-.38,2.5,1.53,1.38,3.18,2.53,3.02,4.99-.07,1.06,1.25.91,1.91,1.35,1.38.93,2.76,1.71,2.25,3.94-.7,3.04-1.35,3.49-4.01,1.8-1.12-.71-2.34-1.17-3.47-1.85-2.66-1.59-5.49-.76-7.86.61-1.57.9-2.8,1.23-4.32.47-2.79-1.4-6.05-.84-8.85-2.2-.64-.31-1.52-.27-2.07.25-1.95,1.82-3.19.45-4.44-.91-.24-.26-.44-.57-.66-.86Z"/>
      <path class="cls-33" d="M142.85,117.11c-1.38.97-2.75,1.95-4.13,2.92-1.19-.53-2.02,1.07-3.21.54.02-.17.04-.33.05-.5.29-.88,1.32-1.34,1.5-2.44-5.26-.82-9.77,2.78-14.86,2.05-.33-.12-.62-.29-.89-.5-.87-2.48-2.29-3.58-5.21-3.09-4.57.76-9.1-1.22-13.73-.78-.8.08-1.65-.29-2.03-1.19-.05-.34.03-.65.21-.95.37-.34.8-.57,1.25-.79.58-.3,1.17-.57,1.78-.8.94-.3,1.83-.76,2.77-1.04,2.01-.34,3.84-1.32,5.82-1.75,2.99-1.58,5.24.88,7.7,1.66,2.26.71,4.14.83,6.18-.19,1.86-.93,3.28-.99,5.09.73,2.83,2.68,6.35,3.68,10.31,1.97,1.22-.53,3.01-2.17,4.06.46-.76,1.34-1.27,2.85-2.69,3.71Z"/>
      <path class="cls-33" d="M133.16,122.22c-.14-.19-.28-.38-.42-.57.53-1.33,1.22-2.3,2.78-1.15,0,0,0,.06,0,.06-.79.55-1.57,1.11-2.36,1.66Z"/>
      <path class="cls-45" d="M162.03,114.08c.49-.34,1.01-.53,1.6-.24-.49.34-1.01.54-1.6.24Z"/>
      <path class="cls-47" d="M154.38,113.31c.5-.33,1.01-.53,1.6-.24-.5.34-1.01.54-1.6.24Z"/>
      <path class="cls-47" d="M155.98,113.07c.34.05.67.11,1.01.16-.34-.05-.67-.11-1.01-.16Z"/>
      <path class="cls-47" d="M153.37,113.15c.34.05.68.11,1.02.16-.34-.05-.68-.11-1.02-.16Z"/>
      <path class="cls-47" d="M152.37,113c.33.05.67.1,1,.15-.33-.05-.67-.1-1-.15Z"/>
      <path class="cls-63" d="M109.16,42.39c-.86.55-1.56,1.46-2.78,1.13.86-.55,1.54-1.51,2.78-1.13Z"/>
      <path class="cls-63" d="M111.94,41.31c-.66.47-1.29,1.02-2.2.72.65-.5,1.27-1.09,2.2-.72Z"/>
      <path class="cls-2" d="M64.2,109.11c.29.39.59.78.88,1.18.35.09.61.29.78.6,1.08,3.69-1.28,6.72-2.09,10.01-1.21,4.91-1.26,5.37,3.53,6.32,1.56.31,2.95,1.06,4.43,1.55,2.13.69,2.49,2.07,1.31,3.92-.39.39-.84.61-1.41.5-.12-.03-.28-.12-.35-.07-3.63,2.38-6.84.11-10.15-.92-.23-.07-.6-.14-.64-.28-.89-3.43-4.42-4.83-5.96-7.75-.48-.9-.51-1.72.52-2.04,1.91-.59,1.38-1.55.58-2.64-.82-1.11-.86-1.93.72-2.34.41-.11.92-.52,1.04-.9,1.09-3.53,4.12-5.17,6.82-7.14Z"/>
      <path class="cls-76" d="M71.63,133.19c.38-.3.76-.6,1.15-.9,1.07-1,.94-3.21,3.12-3.08,1.18-.84,2.35-1.68,3.53-2.51.99-1.84,1.98-3.66,4.6-2.52-.99,3.38-4.69,4.18-6.5,6.81-.58.84-1.63,1.37-2.25,2.27-.96.92-1.93,1.82-3.42,1.53-.14-.2-.27-.4-.41-.6.06-.33.13-.66.19-.99Z"/>
      <path class="cls-8" d="M174.88,105.88l.18-1.03c.11-.63.47-.93,1.12-.85.87,1.29,2.33,1.42,3.63,1.83,2.4.77,3.57,2.34,3.34,4.64-.25,2.49-1.05,3.27-4.12,3.48-1.26.08-2.37.26-3.34,1.07-1.02.86-2.02.56-2.98-.1-1.11-.77-.98-1.87-.63-2.93.42-1.27.98-2.54,2.35-3.03,2.14-.78,1.15-1.93.45-3.07Z"/>
      <path class="cls-45" d="M176.18,104c-.37.28-.75.56-1.12.85-.11-.66.21-1.09.74-1.42.12.19.25.38.37.57Z"/>
      <path class="cls-32" d="M127.35,39.23c.99-.07,1.37.71,1.85,1.34.01.29-.07.46-.26.51-.19.05-.31.05-.35-.02,0,0,0,.02,0,.02-.42-.62-.83-1.24-1.25-1.86Z"/>
      <path class="cls-32" d="M125.92,38.46c.65-.08,1.07.28,1.43.76-.65.08-1.07-.28-1.43-.76Z"/>
      <path class="cls-62" d="M73.85,172.5c.88-.03,1.15.36.84,1.18l-.84-1.18Z"/>
      <path class="cls-52" d="M70.22,178.64c.47-.04.62.15.42.59-.32-.07-.46-.26-.42-.59h0Z"/>
      <path class="cls-6" d="M154.75,61.48c-.55.86-1.17,2.29-2.08.45-1.03-2.07-2.69-3.39-4.46-4.68,0,0,0,0,0,0-.63-1.92-1.77-3.49-3.36-4.73-.44-.65-1.04-1.22-1.15-2.03,1.12-1.05,2.47-.38,3.66-.63,2.97,2.32,5.05,5.28,6.3,8.83-.22.87.87,1.33.69,2.19.14.19.27.39.4.59Z"/>
      <path class="cls-42" d="M154.36,60.89c-.46-.66-1.06-1.27-.69-2.19.46.66,1.04,1.28.69,2.19Z"/>
      <path class="cls-14" d="M55.61,35.61c.57,3.92.52,7.25-1.87,10.79-1.26-4.01-1.8-7.41,1.87-10.79Z"/>
      <path class="cls-82" d="M80.07,160.03c-.19.15-.37.3-.56.45,0,0,0-.02,0-.02-.33-.07-.67-.1-1-.15h0c-.34-.07-.67-.12-1.01-.17-.34-.06-.67-.12-1.01-.17-2.94-4.12-4.89-8.7-4.84-13.75.05-4.39,3.76-7.04,6.18-10.23.93-1.23,2.09-2.21,2.65-3.76,1.29-3.55,3.32-4.91,7.06-4.87,2.47.03,3.95,1.03,3.11,3.82h0c-.06.34-.11.68-.16,1.01h0c-.06.34-.13.67-.16,1.01h0c2.07,5.85-.71,11.08-2.42,16.32-1.12,3.42-4.63,5.32-6.88,8.07-.18.15-.37.29-.55.42-.08.34-.17.67-.2,1.01h0c-.06.33-.12.66-.19.98Z"/>
      <path class="cls-57" d="M90.64,131.18c-.29-1.58-.56-3.18-2.74-3.09-3.55.15-5.95,1.32-6.33,3.6-.36,2.13-1.36,3.41-2.99,4.84-2.18,1.92-3.99,4.44-5.37,7.02-1.72,3.21-1,6.56,1.1,9.46.61.85,1.11,1.42.64,2.48-.35.81-.29,1.62.61,2.2.8.52.73,1.46.91,2.27-1.2-.05-2.1-.66-2.87-1.52-3.46-5.3-5.39-10.93-3.99-17.36.9-4.13,4.08-6.69,6.54-9.76,3.27-3.16,7.02-5.43,11.56-6.25.75-.25,1.51-.3,2.28-.15,1.11.34,2.08.87,2.64,1.95.14.37.09.72-.13,1.04-.4.95-.8,1.89-1.2,2.84-.22.14-.44.28-.66.43Z"/>
      <path class="cls-57" d="M81.02,157.61c.8-2.59,3.24-3.89,4.77-5.92.82-1.08,1.55-2.02,1.73-3.37.29-2.26,1.24-4.34,1.88-6.5.51-1.7,1.91-3.21.3-5.23-.59-.74.03-2.3.62-3.38,2.28,3.4,2.71,6.91,1.25,10.84-2.11,5.67-5.56,10.18-10.55,13.55Z"/>
      <path class="cls-57" d="M90.47,132.2c.05-.34.11-.67.16-1.01-.05.34-.11.67-.16,1.01Z"/>
      <path class="cls-57" d="M90.32,133.21c.05-.34.1-.68.16-1.01-.05.34-.1.68-.16,1.01Z"/>
      <path class="cls-57" d="M80.26,159.04c.07-.34.13-.68.2-1.01-.07.34-.13.68-.2,1.01Z"/>
      <path class="cls-57" d="M80.07,160.03c.06-.33.13-.66.19-.98-.06.33-.13.66-.19.98Z"/>
      <path class="cls-68" d="M141.22,52.45c.34-.69.69-1.39,1.36-1.84.89,1.26,1.75,2.54,2.69,3.76.84,1.09,1.34,2.21,1.01,3.62-.34,1.46,1.04.88,1.59,1.29h0c-.23.87.86,1.33.66,2.19h0c-.2.87.87,1.33.69,2.19.98,2.99.83,6.24,2.1,9.17-.2.14-.4.28-.6.43-.44,1.65-1.46,3.03-2.32,4.45-1.09,1.81-2.29,1.45-3.13-.34-.58-1.24-.74-2.6-.46-3.89,1.39-6.25-1.12-11.75-3.29-17.28-.52-1.32-.91-2.44-.29-3.74Z"/>
      <path class="cls-68" d="M141.53,47.78c-.91-1.56-2.53-2.06-4.01-1.77-2.5.48-3.74-.68-4.68-2.65,1.51.14,3.05.12,4.52.45,2.1.48,4.08,1.29,4.17,3.97Z"/>
      <path class="cls-42" d="M144.85,52.53c1.99.96,3.13,2.51,3.36,4.73-1.12-1.58-2.24-3.15-3.36-4.73Z"/>
      <path class="cls-15" d="M128.59,41.07c.2-.17.41-.33.61-.5.67.41,1.46.67,1.85,1.45-.98.08-1.82-.17-2.46-.95Z"/>
      <path class="cls-38" d="M70.22,178.64c.14.2.28.39.42.59-.2.14-.4.28-.6.42.06-.34.12-.67.17-1.01Z"/>
      <path class="cls-5" d="M76.03,131.85c-1.17,2.06-2.74,3.85-4.02,5.85-1.6,2.51-2.31,5.34-1.99,7.88.35,2.71.31,5.73,2.03,8.21.95,1.38,1.74,2.87,1.56,4.65-.39,1.02.31,2.08-.02,3.03-.27.77-.11,2.34-1.82,1.7.77-1.84,1.2-3.65-.37-5.34-2.79-3.01-4.25-6.63-4.36-10.67-.13-4.74,1.89-8.77,4.81-12.38.98-.7,1.95-1.41,2.93-2.11.19-.61.6-.9,1.24-.83Z"/>
      <path class="cls-29" d="M132.66,29.22c.41.59.83,1.18,1.24,1.76-.52.69-.27,1.85-1.67,2.48.18-1.58-.77-2.93.43-4.24Z"/>
      <path class="cls-29" d="M122.13,33.15c-.34-.06-.67-.11-1.01-.17.34.06.67.11,1.01.17Z"/>
      <path class="cls-29" d="M121.12,32.98c-.33-.06-.67-.12-1-.18.33.06.67.12,1,.18Z"/>
      <path class="cls-29" d="M120.11,32.8c-.33-.06-.67-.11-1-.17.33.06.67.11,1,.17Z"/>
      <path class="cls-57" d="M78.49,160.3c.33.05.67.1,1,.15-.33-.05-.67-.1-1-.15Z"/>
      <path class="cls-57" d="M77.48,160.13c.34.06.67.11,1.01.17-.34-.06-.67-.11-1.01-.17Z"/>
      <path class="cls-57" d="M76.47,159.96c.34.06.67.11,1.01.17-.34-.06-.67-.11-1.01-.17Z"/>
      <path class="cls-79" d="M92.5,127.92c-.08-.19-.13-.39-.16-.59.29-1.14,1.21-1.17,2.12-1.21,1.68.11,3.06.56,4.5,1.76,3.18,2.66,7.5,3.36,10.75,6.24.67-3.25-4.65-5.82.11-8.52,2.92-.2,5.85-.46,8.6.92-.41.39-1.39.81-1,1.27,1.06,1.24,1.71,2.48,1.64,4.15-.03.77.72,1.23,1.46,1.37,1.41.26,1.52,1.34,1.63,2.43.07.67-.07,1.09-.94,1.1-1.41.02-2.79.23-4.23.13-3.23-.23-6.43-.93-9.74-.33-1.9.35-3.75-.48-5.19-1.95-2.11-2.15-3.53-2.29-6.42-.59-.54-1.17-.88-2.46-1.78-3.42-.48-.91.47-2.51-1.34-2.76Z"/>
      <path class="cls-84" d="M77.7,103.06c-.19-1.94-.39-3.87-.58-5.81.34-3.04,2.58-3.45,4.93-3.27,1.76.14,3.09.11,4.32-1.51,1.25-1.66,2.2-.27,2.96.85.78,1.69.96,3.47.77,5.3-.16,1.73,1.11,2.79,1.91,4.07.79,1.28,2.02,2.39,1.68,4.13-.86,1.05-1.85.4-2.55-.05-2.61-1.67-5.55-.93-8.33-1.37-1.93-.31-1.72,1.63-2.75,2.21-1.18-1.31-1.76-2.93-2.36-4.55Z"/>
      <path class="cls-59" d="M80.07,107.61c.46-1.01-.67-1.76-.46-2.96,4.68-.03,9.51-1.17,13.5,2.55.92,1.19,1.19,2.56,1.06,4.03-.41,1.26-1.23,2.25-2.07,3.23-1.43,1.44-2.62,3.68-5.13,1.57-3.06-2.18-4.67-5.55-6.89-8.42Z"/>
      <path class="cls-83" d="M75.91,129.21c-1.32.74-1.74,2.41-3.12,3.08.14-1.24.85-2.43-1.46-2.78-2.39-.36-4.53-1.78-7.18-1.7-1.47.05-2.33-1.6-2.19-3.22.11-1.3.55-2.56.88-3.82.85-3.31,2.34-6.45,2.66-9.9,2.28.18,3.55,1.33,3.54,3.71-3.48,3.19-1.79,6.98-1.12,10.59.21,1.13,1.38,1.14,2.4,1,1.65-.23,3.16-.31,4.85.52,1.59.79.98,1.55.75,2.51Z"/>
      <path class="cls-84" d="M69.03,114.59c-.87-1.53-2.2-2.62-3.54-3.71-.13-.2-.27-.4-.4-.59.23-1.94-1.46-2.91-2.23-4.33-.4-.73-.99-1.36-1.41-2.08-.5-.88-.84-2.02.39-2.38.99-.29,2.68-.65,2.91.97.24,1.69,1.54,2.4,2.56,2.57,2.66.43,3.77,2.37,5.02,4.23,1.33,1.99,2.01,4.26,2.96,6.5-2.56.96-4.33-.46-6.26-1.18Z"/>
      <path class="cls-81" d="M86.96,116.03c2.42.97,3.33-.98,4.56-2.34,3.2-.1,5.23,2.14,7.49,3.83,1.12.84.78,2.15.45,3.33-1.08,1.79-2.52,2.09-4.21.91-1.33-.92-2.81-1.28-4.37-1.42-.83-.16-1.67-.33-2.52-.07-2.26-.03-4.94,1.96-6.52-1.34-1.23-2.14-3.83-2.75-5.45-4.93,1.99-.45,3.43-.08,4.82,1.27,1.35,1.32,2.85,2.65,5.05,1.84.51-.19.73-.56.72-1.09Z"/>
      <path class="cls-51" d="M83.98,124.35c-2.02-.19-2.99,1.63-4.55,2.34-2.6-2.22-3.41-6.46-7.68-6.81-.48-.04-.89-.42-.73-.99.18-.63.73-1.03,1.31-1.04,1.29-.01,2.47.87,3.83.54.87-1.08,1.6-.03,2.14.31,3.06,1.95,6.99,2.36,9.44,5.37-1.12,1.88-2.47.63-3.76.28Z"/>
      <path class="cls-72" d="M87.49,124.49c-.28-.38-.52-1.07-.83-1.1-4.1-.43-6.85-3.65-10.5-4.99-.22-.5-.63-1.3.38-1.09,1.79.38,3.53,1.06,5.28,1.62,2.09,1.79,4.39.79,6.63.49,3.08.87,2.81,3.22,2.49,5.6-.21.33-.5.51-.88.55-.53.01-1.07.03-1.6.04-.61-.12-.95-.48-.96-1.12Z"/>
      <path class="cls-26" d="M141.22,52.45c1.02,3.07,1.43,6.57,3.23,9.08,1.77,2.47,1.53,4.77,1.53,7.27,0,1.91-.21,3.82-.41,5.72-.15,1.39.46,2.51,1.04,4,2.03-1.48,1.51-4.66,4.11-5.26.83,1.09,1.28,2.29.9,3.67-.16.57-.58,1.35-.08,1.67,1.91,1.22.97,3,1.06,4.58.05.83-.05,1.66-.04,2.49.02,1.28-.35,3.06,1.06,3.47,1.87.55,1.38-1.79,2.25-2.6,1.11,7.47-.27,14.42-4.52,20.68-1.31,1.93-3.05,3.57-4.59,5.35-.4.28-.8.56-1.2.84-.82-1.03-1.69-.57-2.54-.07-3.93,2.34-7.71,1.41-11.43-.52-.41-.21-1.03-.43-1.14-.78-.94-2.96-2.61-1.68-4.28-.84-2.03,1.03-4.07,1.9-6.18.04-.63-.56-1.55-.58-2.4-.62-.47-.02-1.29.04-1.35-.15-.78-2.19-2.47-.84-3.74-1.03.08-1.2.96-1.77,1.83-2.35,1-.45,1.91-1.03,2.52-1.99.59-.38,1.23-.43,1.9-.32.85.17,1.59.57,2.31,1.02,1.28.8,2.07.75,2.69-.89,1.08-2.83,3.14-3.96,6.03-2.5,2.02,1.02,3.47-.22,5.05-1,3.99-1.98,3.98-1.99,6.53,1.64.94,1.34,4.53,1.47,5.02-.04.84-2.58,3.45-4.76,1.9-8.03-.65-1.36-.1-3.1-.54-5.05-1.65,1.7-3.64,2.58-5.27,4.02-.72.63-1.51,1.32-2.58.81-1.11-.53-1.54-1.52-1.49-2.68.13-2.77.22-5.55,1.36-8.16.43-.99,1.31-2.11.96-3.05-1.67-4.52-.06-9.51-2.12-13.93-.15-.33-.46-.76-.28-1.01,2.1-3-.35-6.56,1.21-9.61.42-1.35.51-2.85,1.72-3.85Z"/>
      <path class="cls-14" d="M160.07,94.09c.95-.9.32-2.62,2.06-3.7.07,2.56,1.38,4.6.87,6.86-.33,1.45.62,2.15,1.5,3.33-1.66.54-3.46.4-4.63,1.69-.35-.03-.51-.22-.47-.57h.02c.12-.33.15-.68.14-1.03v.02c.13-.33.19-.67.16-1.03v.03c.06-1.22.23-2.43.09-3.65-.13-.68-.03-1.33.26-1.96Z"/>
      <path class="cls-50" d="M159.81,96.05c.87,1.24.59,2.45-.1,3.65-.71-1.24-.45-2.45.1-3.65Z"/>
      <path class="cls-22" d="M159.39,101.71c.16.19.31.38.47.57.56.79,1.12,1.57,1.68,2.36-1.58-.35-2.29-1.33-2.15-2.93Z"/>
      <path class="cls-50" d="M159.72,99.67c-.06.34-.11.69-.17,1.03.06-.34.11-.69.17-1.03Z"/>
      <path class="cls-50" d="M159.56,100.68c-.05.34-.09.69-.14,1.03.05-.34.09-.69.14-1.03Z"/>
      <path class="cls-22" d="M161.55,104.64c.33.06.67.13,1,.19-.33-.06-.67-.13-1-.19Z"/>
      <path class="cls-29" d="M148.52,61.46c-.44-.66-1.04-1.28-.66-2.19.45.66,1.05,1.28.66,2.19Z"/>
      <path class="cls-29" d="M149.21,63.65c-.45-.66-1.06-1.27-.69-2.19.46.66,1.07,1.27.69,2.19Z"/>
      <path class="cls-73" d="M77.39,86.4c-1.16-2.57-.11-5.22-.26-7.83-.54-5.62,3.08-9.17,6.46-12.8.96-1.03,2.28-1.71,3.44-2.54.71-.49,1.36-1.06,1.92-1.72.37-.37.79-.66,1.26-.89.42-.22.85-.39,1.29-.55,2.78-.98,3.26-.59,2.96,2.44-.14,1.4-.46,2.78-.64,4.17-.07.65-.07,1.3.02,1.95.06.33.09.66.11.99-.82,4.3-.92,8.92-4.18,12.3-2.07,2.15-1.1,4.99-2.26,7.28-.97.17-1.88.06-2.55-.75-3.32-3.99-3.73-4.1-7.57-2.06Z"/>
      <path class="cls-63" d="M90.45,61.1c-.38.27-.77.55-1.15.82-.12.86-1.29.95-1.38,1.84-5.79,3.34-9.05,8.52-10.8,14.81-1.25.17-2.43-.11-1.98-1.61,1.04-3.45-.68-7.22,1.35-10.53.2-.33-.03-.91-.05-1.37-.17-2.97-.18-3.02,2.74-3.76.67-.17,1.11-.39,1.25-1.03.23-1.01,1.11-1.53,1.64-2.29.81-1.17,1.65-1.75,2.92-.76.82.64,1.47.27,2.29-.08,3.94-1.66,7.48-3.91,10.68-6.74-.84,1.81-1.69,3.62-2.52,5.43-.19.42-.45.92-.06,1.33.48.52,1.12.37,1.62.06,1.3-.83,2.56-1.73,3.83-2.61.51-.35,1.06-.51,1.68-.36-1.77,3.25-4.31,5.46-8.18,5.27-1.68-.08-2.39,1.56-3.88,1.58Z"/>
      <path class="cls-18" d="M77.39,86.4c.8-1.74,2.29-2.68,4.24-3.58.17,1.57.55,2.87,2.53,2.26.94-.29,1.94.37,1.46,1.33-1.05,2.1,1.17,1.8,1.7,2.69.7.02,1.11.46,1.43,1.02.33.69.5,1.42.69,2.16.05.3.04.6-.03.89-.18.28-.43.37-.75.31-.58-.61-1.38-2.11-1.9-.32-.72,2.47-1.99,2.3-3.91,1.73-2.45-.73-4.36.27-5.72,2.37-.22-.73-.45-1.46-.67-2.19h0c.09-.33.11-.67.16-1.01h0c.15-.57-.35-1.04-.23-1.6.77-1.95-.18-4.18,1.01-6.06Z"/>
      <path class="cls-63" d="M99.91,48.12c-.06,1.26-1.18,1.62-1.94,2.28,0-1.31,1.17-1.62,1.94-2.28Z"/>
      <path class="cls-10" d="M76.38,92.45c.33.5.53,1.01.23,1.6-.33-.5-.53-1.01-.23-1.6Z"/>
      <path class="cls-10" d="M76.61,94.06c-.05.34-.11.67-.16,1.01.05-.34.11-.67.16-1.01Z"/>
      <path class="cls-44" d="M88.57,90.86c-.42-.59-.84-1.18-1.26-1.77.05-.23.21-.51.14-.69-1.57-3.65.78-6.01,2.76-8.49.37-.46,1.09-.95,1.06-1.38-.31-3.46,2.28-6.3,2.04-9.72,1.25-1.9,2.56-3.74,4.14-5.4.99-1.04,2.14-2.11,2.53-3.46,1.88-6.37,6.86-8.92,12.57-10.81,1.55-.51,3.07-1.19,4.61-1.79,1.36-.66,2.74-1.02,4.21-.35,0,.17,0,.34,0,.52-.31,1.08-.93,2.04-1.82,2.64-6.96,4.74-11.46,11.98-17.76,17.39-1.7,1.46-2.13,3.67-3.46,5.39,1.12.78,2.26,1.36,3.2.81,3.46-2.03,3.29.35,3.77,2.67.61,2.97-.03,5.87-.13,9.32.36-1.12.71-1.57,1.34-1.76,2.34,1.54.49,3.48.5,5.24-.13.59-.23,1.17.07,1.95,1.61-.86,2.73-2.19,3.9-3.51,1.94-2.19,3.28-5.06,6.69-5.6,1.12-.18,1.78-1.5,1.77-2.51-.02-3.06,1.95-5.95.71-9.11-.37-.94,0-1.91.54-2.74,1.99-3.11,2.44-6.72,3.33-10.18.01-.33.06-.66.12-.99.14-.65.38-1.28.65-1.89.22-.47.52-.87,1.01-1.09,1.95.26,1.97,1.83,2.09,3.22.12,1.3-.05,2.62.36,3.89.06.35.08.69.07,1.05-.29,3.74-1.45,7.28-2.61,10.81-.58,1.76-.77,3.07,1,4.36,1.54,1.12,1.75,2.8.38,4.4-.47.55-1.18,1.04-1.25,1.73-.36,3.46-2.72,4.38-5.67,4.87-1.72.29-2.79,1.39-3.52,3.18-1.99,4.88-6.1,7.05-11.07,7.87-.23-.43-.71-.75-.81-.55-.63,1.24-1.33,2.41-2.69,3-4.05-2.3-8.31-4.22-12.27-6.7-.51-.32-.65-.98-.58-1.61.22-.87-.87-1.33-.67-2.19Z"/>
      <path class="cls-53" d="M139.51,56.3c.34,2.33-.38,4.8,1.27,6.96.63.82.2,1.41-1.07,1.5-1.16.09-1.21,1.6-.48,1.81,2.14.62,1.86,2.18,1.42,3.42-1.08,3.04-.1,5.79.83,8.54.6,1.77.42,3.29-.52,4.82-1.7,2.79-1.32,6.02-1.87,9.06-.13.72.34,1.43,1.02,1.78.76.39,1-.36,1.4-.76,1.71-1.7,4.55-2.14,5.37-4.88.11-.37.71-.68,1.24-.56.56.13.65.59.67,1.1.05,1.56.14,3.13.18,4.69.02.96-.08,1.92.56,2.77.91,1.22,1.28,2.29-.64,3.06-1.18.48-1,1.78-1.16,2.84-.3,1.95-1.23,2.73-3.09,2.64-.59-.03-1.25-.44-1.73-.27-2.42.87-2.59-.76-2.84-2.38-.28-1.8-.97-2.26-2.45-1.55-1.5.72-3.08,1.37-4.38,2.38-1.4,1.09-2.41.94-3.81.03-2.2-1.43-3.88-.86-4.89,1.49-.42.97-.54,2.07-.84,3.24-2.01-.68-3.66-1.78-5.35-2.82.1-1.41,1.39-2.03,2.02-3.1,10.32-9.35,12.49-22.09,14.51-34.89.21-.81-.03-1.85,1.12-2.17,1.47-.72,1.61-2.12,1.89-3.52.36-1.78.08-3.79,1.6-5.23Z"/>
      <path class="cls-27" d="M123.42,47.29c.52-.28,1.04-.37,1.58-.07.29.18.5.44.61.77-.23,4.39-2.83,7.85-4.63,11.61-.53,1.1-1.17,2.05-1.01,3.32-1.53,3.08-4.31,5.2-6.1,8.07-1.64,1.9-1.72,4.82-4.07,6.27-2.72.38-3.22-1.05-2.48-3.24,1.17-3.43,1.35-7.23,5.02-9.59,1.64-1.05,1.85-3.84,3.71-5.19-.79-1.24-2.78-.18-3-1.6-.23-1.51,1.16-2.37,2.28-2.98,3.08-1.68,4.76-4.69,7.05-7.11.33-.17.67-.25,1.03-.28Z"/>
      <path class="cls-12" d="M117.16,47.36c-2.04,1.56-4.48,2.31-6.89,2.93-3.6.93-5.47,4.1-8.34,5.93-.25.16-.48.7-.4.95,1.16,3.42-1.99,4.83-3.37,6.97-1.07,1.65-2.87,2.77-3.45,4.88-.22.79-.96.19-1.4-.21.16-.57-.39-1.03-.25-1.6-.29-2.36.92-4.59.67-6.97-1.31-.31-1.99,1.44-3.28.85,1.52-1.09,2.9-2.25,5.01-2.28,1.54-.02,2.61-1.48,3.88-2.31,1.08-.71,2.11-1.5,3.16-2.26,1.27-.9,2.58-1.76,3.8-2.72,3.19-2.52,6.99-3.41,10.85-4.16Z"/>
      <path class="cls-34" d="M136.02,65.04l-.33,2.05c-1.45.95-1.28,3.56-3.66,3.56-1.52-.95-1.19-2.46-1.06-3.84.17-1.89.38-3.77.09-5.69-1.59,1-2.19.99-3.23-.02-.13-5.01.31-10.01.31-15.02,0-.79-.06-1.74,1.04-2.02,2.44,1.37,3.22,3.65,3.65,6.25.75,4.48.98,9.05,2.44,13.39.25.2.39.46.41.78.11.18.22.36.32.54Z"/>
      <path class="cls-84" d="M135.16,63.89c-.36.23-.96,1.42-1.1.39-.59-4.22-1.65-8.39-1.99-12.61-.24-2.95-1.21-5.26-2.9-7.47-.02-.27.05-.41.21-.44.16-.03.27-.01.31.05,2.65,1.06,3.44,3.47,4.1,5.88.94,3.45,1.36,7.01,1.63,10.58.08,1.07.17,2.14.26,3.21.01.25-.06.4-.21.44-.16.04-.26.04-.3-.01Z"/>
      <path class="cls-17" d="M129.69,43.81c-.17.13-.35.26-.52.4-.15,4.01-.32,8.02-.45,12.04-.05,1.67-.19,3.32-.88,4.87-1.03-1.09-.76-2.39-.77-3.72-.01-1.29.48-3.06-1.64-3.43-.13-.09-.25-.18-.38-.27-.35-1.34.56-2.29,1.01-3.38.21-.49.27-1,.07-1.52-.11-.25-.19-.5-.25-.76,0-.13-.01-.27-.01-.4.05-.13.09-.25.14-.38,1.03-1.37,1.11-3.74,3.69-3.45Z"/>
      <path class="cls-17" d="M125.4,47.78l-.19-.28s-.2-.28-.2-.28c.33.01.66.02.99.04,0,0-.02.11-.02.11-.05.13-.11.26-.16.39-.14,0-.28.01-.42.02Z"/>
      <path class="cls-53" d="M135.16,63.89c.17-.14.34-.29.51-.43,0,.34.01.69.02,1.03-.18-.2-.36-.41-.53-.61Z"/>
      <path class="cls-44" d="M123.42,47.29c-.21.17-.41.35-.62.52-.14-.06-.28-.12-.42-.18,0-.15,0-.31,0-.46.35.04.69.08,1.04.12Z"/>
      <path class="cls-44" d="M121.37,47.01c.34.05.67.11,1.01.16,0,0-.02.08-.02.08-.42.49-.75.39-1-.16v-.08Z"/>
      <path class="cls-40" d="M118.42,126.52c-2.79.78-5.49-.47-8.24-.35-.37-.11-.53-.36-.52-.74.22-.57.69-.93,1.12-1.33.53-.49,1.04-1.07.57-1.81-.34-.55-1.03-.48-1.61-.46-1.29.04-2.59.18-3.87.06-.85-.08-2,.19-2.13-1.22,1.54-2.41,4.16-2,6.44-2.39,3.9-.66,7.81-.97,11.63.5.14.19.28.37.42.56.82.21,1.66.42,2.37.84,2.1,1.24,2.09,2.84-.09,3.94-1.27.64-2.49,1.42-3.9,1.77-.73.22-1.45.43-2.18.65Z"/>
      <path class="cls-54" d="M120.6,125.87c1.17-.79,2.18-1.85,3.6-2.22.76-.2,1.29-.58,1.29-1.43,0-.71-.5-1.04-1.11-1.18-1-.23-1.64-.88-2.16-1.71,4.85-.63,9.4-2.73,14.34-2.88.77-.02,1.81-.59,2.17.56.29.92-.43,1.56-1.14,2.06-.69.49-1.38.97-2.07,1.45-1.23-.35-1.91.61-2.78,1.15-2.79,1.09-5.57,2.2-8.37,3.26-1.22.46-2.39,1.13-3.77.95Z"/>
      <path class="cls-32" d="M121.8,118.76c-4.34.25-8.69-.38-13.03.57-1.74.38-3.47.58-4.99,1.58-1.57.49-3.16,1.35-4.62-.23-.35-3.17-3.09-4.16-5.24-5.64-.74-.51-1.83-.48-2.41-1.35.81-.9,1.61-1.8,2.42-2.71.14-.06.28-.11.43-.17.93-.06,1.8.24,2.7.41.59.15,1.16.34,1.75.51.83.32,1.89.3,2.12,1.48-.32,1.46.86,1.19,1.56,1.22,2.75.13,5.64-.94,8.14,1.06,2.3-1.02,4.7.22,7.04-.32,1.27-.29,2.57-.25,4.08.08-.27,1.18-1.25,2.44.06,3.52Z"/>
      <path class="cls-28" d="M100.92,113.2c-.81-.31-1.62-.63-2.43-.94-.66-.55-.38-1.24.14-1.43,2.31-.81,4.67-1.87,6.97.08-.46.66-1,1.19-1.87,1.2-.59.41-1.18.81-1.77,1.22-.34-.05-.68-.11-1.02-.13h0Z"/>
      <path class="cls-7" d="M115.39,107.31c-.97.71-1.95,1.42-2.92,2.12-2.01.48-3.71,2.13-5.99,1.57.03-.18.06-.35.08-.53.31-.67.83-1.15,1.4-1.59,1.15-.87,2.46-1.37,3.85-1.65,1.03-.16,1.96-.74,3.03-.68.36.12.54.38.55.76Z"/>
      <path class="cls-32" d="M103.72,112.11c.58-.42,1.15-.85,1.73-1.27.05-.23.16-.4.33-.48.18-.09.28-.12.31-.08.33.13.45.38.39.72,0,0,0,0,0,0-.86.51-1.54,1.49-2.76,1.11Z"/>
      <path class="cls-32" d="M100.93,113.2c.34.04.68.09,1.02.13-.34-.04-.68-.09-1.02-.13Z"/>
      <path class="cls-41" d="M87.49,124.49c.32.37.64.75.96,1.12-.52.3-1.01.78-1.56.86-4.22.61-7.62,2.82-10.86,5.38-.41.28-.83.55-1.24.83,2.42-3.49,5.81-5.9,9.2-8.32,1.21-.92,2.35-.04,3.51.14Z"/>
      <path class="cls-74" d="M90.06,125.57c.2-.2.39-.41.59-.61.85-2.4,2.8-.9,4.24-1.2,1.04.3,2.67-1.51,3.15.85-.77,1.38-1.96,2.03-3.52,2.03-.75.14-1.54.18-2.18.68-.76-.59-1.52-1.17-2.28-1.76Z"/>
      <path class="cls-49" d="M94.52,126.64c1.18-.83,2.36-1.67,3.54-2.5,4.01-.4,7.97-.46,11.7,1.43.14.2.28.4.42.6-1.18.92-3.2,1.78-.23,3.01-.39,1.91.8,3.13,1.81,4.51.51.69-.18,1.47-1.04,1.32-1.41-.25-2.93-.59-3.96-1.6-1.7-1.66-3.77-2.46-5.95-3.15-.68-.21-1.54-.46-1.89-.98-1.09-1.59-2.81-1.97-4.4-2.63Z"/>
      <path class="cls-17" d="M127.83,61.11c1.48,1.42,1.7.2,1.97-.93.14-.56.16-1.31.93-1.3.88,0,1.16.69,1.22,1.47.13,1.89.39,3.8-.02,5.68-.34,1.54-.35,3.07.03,4.6.05.13.1.26.15.39.02.28-.01.56-.09.83-.1.27-.22.52-.35.78-.26.54-.34,1.13-.37,1.73.39,6.23-2.1,11.69-4.57,17.15-.55,1.21-1.14,2.39-2.27,3.19-1.28,1.08-2.62,2.1-3.74,3.36-1.5,1.7-3.18,2.46-5.4,1.37-1.61-.79-3-.1-4.36.79-2.91,1.91-5.53,4.17-8.07,6.54-1.13,1.05-2.43,1.96-3.98,2.35-1.35.53-1.16-2.32-2.77-1.27-1.15-1.36.43-2.09.74-3.11.69-2.26-.12-3.28-2.52-3.11-4.13.29-4.72-.11-4.97-3.35.13-1.66-.42-3.21-.74-4.8.2-.14.39-.28.59-.42.3.36.55.97.91,1.05,2.94.65,4.86,3.66,8.15,3.47.89-.05,1.12.62,1.45,1.29.46.93.89,1.99,2.2,2.04,1.5,1.88-1.14,2.76-1.1,4.05,1.74-1.92,2.19-4.91,4.63-6.57,3.66-1.15,7.21-2.47,9.48-5.85.33-.5.92-1.01.92-1.51,0-3.63,2.97-4,5.3-4.42,2.2-.4,3.73-.59,3.34-3.34-.18-1.25,1.07-1.74,1.83-2.48,1.33-1.27,1.1-3.13-.67-3.57-2.3-.57-2.2-1.51-1.45-3.33,1.7-4.1,2.44-8.5,3.57-12.78Z"/>
      <path class="cls-32" d="M89.4,98.27c.09,2.14,1.35,2.88,3.31,2.74.47-.03.94-.12,1.41-.22,1.21-.27,2.55-1.24,3.56.14.99,1.35.54,4.02-.73,5.3-.43.44-.81.86-.8,1.5.24,1.65-.19,2.89-2.02,3.27,0,0-.21-.01-.21-.01-.73-1.16-1.21-2.38-.83-3.78-.07-2.5-2.18-3.87-3.26-5.81-.56-1-1.72-1.88-.44-3.12Z"/>
      <path class="cls-20" d="M109.75,125.57c-3.89-.59-7.86-.42-11.7-1.43-1.18-.61-2.01,1.07-3.19.49-.47-.41-1.06-.64-1.53-1.04-.61-.55-1.37-.91-1.96-1.49-.56-.68-1.14-1.36-.8-2.35,1.85-.57,3.67-.41,4.94,1.05,1.42,1.62,2.46.75,3.63-.12,1.52.53,3.13-.73,4.62.23,2.14.34,4.29.03,6.43,0,.86-.01,2.02-.78,2.45.63.42,1.38.14,2.63-1.24,3.38-.52.28-1.11.44-1.66.65Z"/>
      <path class="cls-73" d="M90.58,119.75c.53.77,1.06,1.54,1.6,2.32.85.14.94,1.31,1.85,1.37.86,0,1.14.39.84,1.2-.55.28-1.12.51-1.66.05-.97-.83-1.76-.3-2.56.28-.53-1.92-.07-4.24-2.19-5.54.82-.59,1.51-.37,2.12.33Z"/>
      <path class="cls-32" d="M97.99,109.06c4.64-2.75,8.07-7.03,12.59-9.96,2.01-1.3,3.68-2.14,5.75-.39,1.47,1.24,2.48.1,3.28-.9,1.35-1.68,2.92-3.06,4.82-4.05,1.33,1.62.2,2.91-.7,4.06-1.17,1.48-2.4,2.94-3.48,4.47-.44.62.56-.25.65.22-.17,1.54-1.65,1.84-2.55,2.69-.53.08-1.07.17-1.6.25-.23.92-.88,1.27-1.77,1.3-.9.44-1.58,1.44-2.79,1.07-.37-.57,1.44-2.1-.81-1.85-2.09.23-4.15.1-5.97,1.8-1.92,1.8-4.78,2.07-7.11,3.26-.3.18-.61.21-.94.09-.22-.27-.31-.57-.28-.92.1-.32.27-.61.48-.87.14-.1.27-.19.41-.29Z"/>
      <path class="cls-53" d="M114.99,106.75c.59-.43,1.18-.86,1.77-1.3.95,1.65-.37,1.63-1.37,1.85,0,0-.2-.28-.2-.28l-.2-.27Z"/>
      <path class="cls-12" d="M87.93,63.76c-.05-.99.72-1.37,1.38-1.84.04.98-.73,1.37-1.38,1.84Z"/>
      <path class="cls-44" d="M93.06,67.22c.33.49.54,1.01.25,1.6-.34-.49-.54-1.01-.25-1.6Z"/>
      <path class="cls-17" d="M88.57,90.86c.44.66,1.05,1.28.67,2.19-.45-.66-1.05-1.28-.67-2.19Z"/>
      <path class="cls-68" d="M121.36,47.09c.33.05.67.11,1,.16.15.18.3.37.43.56-1.51,4.69-5.91,6.63-9.46,9.47,1.37,1.29,2.19-.28,3.19-.1.61.11,1.18.33,1.43.94.19.49-.02,1.05-.4,1.3-1.97,1.31-3.53,2.83-3.69,5.42-.06,1.02-1.29.94-1.95,1.39-1.42.96-2.65,1.86-2.56,3.95.06,1.5-.33,3.02-1.33,4.4-.98,1.35-.6,1.71,1.72,2.16.88,3.24-.01,5.57-2.81,7.32-.98.41-.86,1.66-1.8,2.31-.99-.94-1.29-2.39-.84-3.3,1.5-3.02-.56-5.88-.08-8.84.18-1.14-1.3-.8-1.47-.4-.72,1.69-1.63,1.54-2.89.69-.63-.42-1.38-.31-2.09-.04-.51.2-1.05.09-1.16-.43-.09-.41.05-.99.29-1.35,3.37-4.88,7.16-9.4,11.83-13.09,1.36-1.07,1.71-2.76,2.92-4.02,3.02-3.12,6.93-5.18,9.72-8.51Z"/>
      <path class="cls-61" d="M113.19,70.57c1.78-3.09,4.38-5.52,6.64-8.23.01-.28.08-.53.21-.78.15-.22.33-.43.52-.62.37-.39.69-.8.99-1.25.15-.22.33-.43.51-.62.38-.39.75-.78,1.08-1.22.16-.23.35-.43.56-.62.36-.27.74-.39,1.19-.24-.59,3.77-1.19,7.55-3.26,10.87-.59.95-1.47,1.98-.62,2.9,1.39,1.5,1.07,2.76.03,4.13-.47.61-.81,1.31-.47,1.99,1.1,2.17-.82,3.59-1.23,5.37-.22.96-1.02.75-1.71.89-1.61.34-2.85.84-3.86,2.61-1.53,2.68-4.23,4.58-6.14,7.1-.46.61-1.52.26-1.66-.57-.17-1.03-.37-2.14.12-3.17,2.08-4.29,5.51-7.93,6.14-12.94.22-1.77.88-3.45,1.61-5.09.43-.95-.54-.21-.67-.5Z"/>
      <path class="cls-25" d="M113.19,70.57c.41-.23.82-.46,2.12-1.19-2.57,5.17-1.65,10.62-5.41,14.64-1.22,1.3-1.63,3.17-2.31,4.83-.32.78-.81,1.23-1.48.25.57-1.63.76-3.32.82-5.04,1.67-2.16,2.6-4.6,2.81-7.32,1.43-1.9,1.75-4.42,3.46-6.17Z"/>
      <path class="cls-14" d="M105.5,98.38c-.67,1.37-1.25,2.8-2.04,4.09-.7,1.15-1.46,2.36-3.04,2.8.02-1.75,1.55-2.79,1.55-4.37.85-1.12,1.57-2.37,2.58-3.31.78-.72.71.41.95.79Z"/>
      <path class="cls-17" d="M125.24,54.96c.07.65-.28,1.07-.75,1.43-.12-.1-.25-.2-.37-.3-.07-.54.17-.91.65-1.14.16,0,.32,0,.48.01Z"/>
      <path class="cls-17" d="M124.89,56.98c-.4.28-.79.56-1.19.84-.68-.97-.17-1.31.76-1.43,0,0,.03,0,.03,0,.13.2.27.39.4.59Z"/>
      <path class="cls-17" d="M125.42,53.96c-.06.33-.12.67-.18,1,0,0-.04,0-.04,0-.46-.44-.41-.77.2-1h.03Z"/>
      <path class="cls-84" d="M120.91,102.52c-.57.41-1.14.81-1.71,1.22.8-2.39,1.95-4.45,3.63-6.19,1.01-1.04,1.83-2.2,1.61-3.79,3.51-6.31,6.33-12.83,6-20.27.09-.88,1.26-.97,1.34-1.86h0c.05-.34.14-.67.17-1.01,0,0,0,0,0,0,.97-.58,1.49-1.44,1.8-2.53.26-.9.94-1.34,1.93-1.01-.57,8.69-3.09,16.91-6.35,24.9-1.75,4.27-5.01,7.5-8.42,10.52Z"/>
      <path class="cls-19" d="M125.39,53.95c-.07.33-.13.67-.2,1-.46.37-.8.8-.74,1.43-.47.36-.82.79-.76,1.43,0,0,0,0,0,0-.11.88-1.26.98-1.37,1.85-.19.14-.37.28-.55.43-.07.43-.37.68-.7.91-.33.23-.6.5-.7.91-.18.14-.37.27-.55.41-1.08-.48-.93-1.19-.38-1.99,2.65-3.87,4.2-8.26,5.94-12.56,0,0,.01-.02.01-.02.34,0,.68.05,1,.17.13.18.27.37.41.55-.13.57.38,1.04.26,1.61-.55,1.29-1.57,2.38-1.69,3.87Z"/>
      <path class="cls-27" d="M127.08,50.08c-.33-.5-.53-1.01-.26-1.61.35.49.55,1.01.26,1.61Z"/>
      <path class="cls-27" d="M126.41,47.93c-.33-.06-.67-.11-1-.17.18-.15.37-.28.57-.39.16.17.3.36.43.56Z"/>
      <path class="cls-35" d="M97.65,111.08c1.68-1.62,3.99-2.09,5.91-3.29.84-.53,2.23-.39,2.26-1.91,0-.39.36-.67.72-.67,2.37,0,4.71.09,7.04-.65.72-.23.82.69.63,1.29-.31,1-1.28,1.37-2,1.97-1.33.62-2.83.86-4,1.84-.83-.09-1.26.96-2.14.76-.21.14-.41.28-.62.42-1.85.08-3.71.14-5.56.24-.75.04-1.4.23-1.39,1.18-.64.08-1.05-.27-1.39-.74.03-.15.06-.3.1-.45.15,0,.3,0,.46,0Z"/>
      <path class="cls-4" d="M97.72,110.09c-.17.13-.32.27-.45.44-.07.33-.13.65-.2.98,0,0,.03.02.03.02-1.17.84-2.04.02-2.96-.53.67-1.09,1.35-2.18,2.02-3.27.63-.45,1.26-.9,1.88-1.34.98,1.07-.27,1.82-.04,2.67h0c-.08.35-.12.7-.27,1.03Z"/>
      <path class="cls-33" d="M106.07,110.42c.65-.45,1.25-1.01,2.14-.76-.58.45-1.16.89-1.73,1.34-.14-.19-.27-.39-.41-.58Z"/>
      <path class="cls-34" d="M131.78,71.64c.06.98-.71,1.36-1.34,1.86-.08-1,.7-1.38,1.34-1.86Z"/>
      <path class="cls-34" d="M131.95,70.63c-.06.34-.11.67-.17,1.01.06-.34.11-.67.17-1.01Z"/>
      <path class="cls-81" d="M94.02,123.43c-1.01.08-1.39-.7-1.85-1.37.97-.02,1.36.73,1.85,1.37Z"/>
      <path class="cls-17" d="M97.72,110.09c.09-.34.18-.68.27-1.02-.09.34-.18.68-.27,1.02Z"/>
      <path class="cls-17" d="M97.07,111.5c.07-.33.13-.65.2-.98.13.19.25.37.38.56-.19.14-.38.28-.58.42Z"/>
      <path class="cls-17" d="M122.33,59.67c-.02-.97.73-1.38,1.37-1.85.07,1.01-.71,1.39-1.37,1.85Z"/>
      <path class="cls-17" d="M120.62,60.95c.39-.28.77-.57,1.16-.85.07.65-.29,1.07-.77,1.42-.33-.06-.45-.25-.39-.57Z"/>
      <path class="cls-27" d="M120.62,60.95c.13.19.26.38.39.57-.21.14-.42.27-.63.41.08-.33.16-.65.24-.98Z"/>
    </g>
  </g>
</svg>