<?xml version="1.0" encoding="UTF-8"?>
<svg id="Layer_2" data-name="Layer 2" xmlns="http://www.w3.org/2000/svg" viewBox="0 0 189.8 359.11">
  <defs>
    <style>
      .cls-1 {
        fill: #bec7be;
      }

      .cls-2 {
        fill: #c8d1c8;
      }

      .cls-3 {
        fill: #dee3de;
      }

      .cls-4 {
        fill: #e1e5e1;
      }

      .cls-5 {
        fill: #dce1dc;
      }

      .cls-6 {
        fill: #d3dad3;
      }

      .cls-7 {
        fill: #e2e6e2;
      }

      .cls-8 {
        fill: #bbc5bb;
      }

      .cls-9 {
        fill: #c6cec6;
      }

      .cls-10 {
        fill: #ccd3cc;
      }

      .cls-11 {
        fill: #c1cbc1;
      }

      .cls-12 {
        fill: #d2d9d2;
      }

      .cls-13 {
        fill: #d9ded9;
      }

      .cls-14 {
        fill: #b7c1b7;
      }

      .cls-15 {
        fill: #dde2dd;
      }

      .cls-16 {
        fill: #d6dcd6;
      }

      .cls-17 {
        fill: #d0d8d0;
      }

      .cls-18 {
        fill: #c9d1c9;
      }

      .cls-19 {
        fill: #bcc6bc;
      }

      .cls-20 {
        fill: #cad2ca;
      }

      .cls-21 {
        fill: #e7ebe7;
      }

      .cls-22 {
        fill: #c7d0c7;
      }

      .cls-23 {
        fill: #ccd2cc;
      }

      .cls-24 {
        fill: #c7cfc7;
      }

      .cls-25 {
        fill: #bec8be;
      }

      .cls-26 {
        fill: #c8d0c8;
      }

      .cls-27 {
        fill: #dbe0db;
      }

      .cls-28 {
        fill: #d8ded8;
      }

      .cls-29 {
        fill: #cfd7cf;
      }

      .cls-30 {
        fill: #d1d8d1;
      }

      .cls-31 {
        fill: #d9dfd9;
      }

      .cls-32 {
        fill: #d5dbd5;
      }

      .cls-33 {
        fill: #d4dbd4;
      }

      .cls-34 {
        fill: #d0d7d0;
      }

      .cls-35 {
        fill: #d5dcd5;
      }

      .cls-36 {
        fill: #d1d9d1;
      }

      .cls-37 {
        fill: #c9d0c9;
      }
    </style>
  </defs>
  <g id="Layer_1-2" data-name="Layer 1">
    <g>
      <path class="cls-30" d="M110.97,260.35c.42.06.63.33.72.72-.91.49-1.06.78-.54,1.15,4.16,2.99,5.38,7.99,8.12,11.95.72,1.04.49,2.56-.37,3.74-4.43.21-7.16-2.71-9.98-5.46-.85-3.27-3.63-4.85-6.22-6.1-9.19-4.46-17.95-10.05-28.12-12.11-6.85-1.39-13.19-4.21-19.81-6.2-.93-.28-1.88-.48-2.85-.38-3.04.31-4.09,3-2.58,5.59,2.38,4.08,6.14,5.91,10.12,8.11,4.63,2.55,9.7,4.62,13.61,8.51,3.45,3.43,7.69,5.37,12.7,5.06,2.56-.16,5.03.44,7.55.64,2.28.18,4.44.79,6.59-.65.97-.65,2.23-.26,2.97.62,1.54,1.81,3.16,1.29,4.87.43,2.63-.3,4.26,1.78,6.38,2.68,2.06.88,4.05,1.93,6.16,2.71.33.12.63.29.93.47.29.19.56.41.81.65.12.12.24.25.36.37,4.59,7.83,10.14,15.08,13.72,23.54,1.57,3.71,3.5,7.4,6.92,9.92,1.14.87,1.9,2.03,2.6,3.25,1.43,4.45,4.86,7.33,8.09,10.38.35.33.81.53,1.17.84,1.58,1.39,4.24,2.63,3.19,5.03-.9,2.06-3.41.62-5.22.61-.32-.11-.62-.27-.88-.49-.16-.28-.25-.58-.26-.9.04-.59-.06-1.13-.66-1.44-.27-.13-.53-.29-.78-.45-.27-.17-.51-.36-.75-.56-.12-.1-.23-.21-.36-.32-.25-.22-.47-.45-.69-.69-2.01-2.2-3.4-4.94-5.91-6.71-.08-1.72-1.6-2.59-2.38-3.9-3.65-6.22-7.25-12.48-11.13-18.55-2.78-4.35-5.88-8.5-9.01-12.61-1.74-2.29-4.82-2.52-7.16-3.94-3.34-2.03-7.11-2.67-10.96-2.79-5.65-.18-11.13-1.69-16.75-2.16-2.49-.21-4.99-.32-7.49-.87-3.67-.8-7-2.14-10.31-3.9-3.77-2.01-7.93-3.24-11.73-5.28-1.47-.79-2.77-1.8-4.23-2.57-.34-1.16-.64-2.43-1.68-3.13-3.15-2.13-4.28-5.76-6.42-8.63-2.44-3.26-1.66-7.12.19-10.28,2.17-3.72,5.82-5.81,10.29-5.52,3.48.22,7.3.44,10.23,1.94,6.29,3.24,13.25,3.36,19.75,5.43,4.05,1.29,7.95,2.78,11.65,4.81,1.71.94,3.46,1.61,5.44,1.63.23-.07.4,0,.49.24,1.03,2.43,3.43,2.89,5.5,3.81.42.94,1.24-.01,1.79.37h-.02c.24.33.54.6.97.65.21-.07.37,0,.47.19.29.22.55.48.92.55Z"/>
      <path class="cls-31" d="M117.25,148.87c4.21-7.04,11.04-10.1,18.61-11.32,3.42-.55,7.03,1.03,10.29,2.45,1.14.49,2.29,1.19,3.42,1.81,2.39,1.32,3.86,3.72,4.56,6.12,2.08,7.09,1.65,14.09-2.08,20.69-1.62,2.87-4.03,5.01-6.47,7.13-.29.22-.59.43-.76.77h.02c-1.57-1.03-3.02-1.28-4.56.2-1.5,1.44-3.23,1.21-4.99.28-4.3-2.28-8.31-1.6-11.58,2.39-3.32,4.05-7.63,7.31-9.91,12.24-.44.96-1.36,2.69-2.82.67-.07-.33-.08-.66-.05-.99.08-.48.26-.93.47-1.37.12-.29.26-.57.39-.85.24-.58.35-1.2.46-1.82.49-2.35,1.66-4.46,2.45-6.96-1.59,3.26-2.76,6.48-4.69,9.3-.29.44-.62.84-1,1.2-.28.23-.6.31-.96.24-1.34-1.07-.63-2.42-.47-3.68.75-5.85,3.74-10.76,6.61-15.72-.6.42-.83,1.14-1.35,1.63-.87.8-1.86,1.17-2.97.64-1.13-.54-.82-1.62-.76-2.55.05-.85.21-1.7.62-2.44,2.88-5.27,3.68-11.4,6.81-16.55.68-1.11.18-2.39.72-3.49Z"/>
      <path class="cls-13" d="M39.79,201.03c-5.82-.55-11.47-1.57-16.38-5.1-2.2-1.58-4.85-2.31-7.05-4.1-3.86-3.15-6.25-7.04-7.75-11.65-.34-.54-.56-1.4-.21-1.7,2.65-2.28,1.55-5.22,1.56-7.98.02-3.44.89-6.67,2.69-9.61,2.12-3.47,5.86-4.53,9.69-3.06,5.43,2.08,9.95,5.83,15.23,8.14,5.08,2.23,9.41,6.04,15.2,6.85,2.36.33,4.59,1.98,6.01,3.75,3.94,4.93,9.69,6.95,14.77,10.04,2.47,1.5,5.11,2.69,7.48,4.35,3.86,4.32,7.79,8.59,10.23,13.96.26.56.41,1.11.22,1.71-.2.3-.49.47-.85.49-.53-.08-.98-.33-1.41-.64-3.81-2.54-7.01-5.82-10.59-8.65-8.11-6.4-17.6-10.83-25.35-17.74-1.03-.92-2.32-1.2-3.68-1.18-3.24-1.51-6.18-3.66-9.86-4.26-1.93-.31-3.56-1.48-4.42-3.39-.93-2.06-2.6-2.95-4.74-3.45-2.33-.54-4.73-.93-6.9-2.03-3.03-1.54-5.33-.1-7.47,1.85-.98.89-1.39,2.25-.64,3.29,2.38,3.28,2.04,7.34,3.37,10.92,1.11,2.97,2.75,5.01,5.54,6.71,5.35,3.26,11.05,4.75,17.37,4.99-.08-1.64-1.5-1.99-2.47-2.72-1.04-.78-2.49-1.55-1.61-3.13.84-1.51,2.46-2.25,4.02-1.36,5.24,2.98,10.99,3.14,16.72,3.08,2.03-.02,3.38,2.04,5.44,1.19,5.43,1.67,10.34,4.09,13.4,9.21-.2,3.07-1.8,4.17-4.83,3.7-2.5-.39-5.03-.59-7.43-1.43-2.43-.85-4.98-1.11-7.48-.94-4.85.33-9.61.15-14.34-1.05-1.2-.3-2.68-.72-3.47.94Z"/>
      <path class="cls-27" d="M150.59,332.84c.24,0,.48,0,.72,0,.75.55,1.53,1.09.73,2.17-2.08,1.1-4.25.93-6.2-.08-6.06-3.16-12.46-2.43-18.93-2.31-4.29.08-8.6.81-12.88.19-5.48-.79-10.55-.1-15.03,3.44-1.52,1.2-3.4,1.81-5.08,2.75-3.73,2.09-4.48,4.56-2.63,8.37.26.54.51,1.09.75,1.64,1.71,4.08,4.21,5.39,8.26,3.59,3.29-1.47,6.58-2.08,10.12-2.09,6.51,0,12.77-2.23,19.32-2.18,2.5.02,5-.52,7.53.01,3.48.73,6.66-.34,9.78-1.75,2.25-.42,4.17.69,6.09,1.51,2.18.93.78,1.56-.38,2.08-5.46,1.34-10.83,2.9-16.14,4.86-6.88,2.54-14.23,3.13-21.51,3.77-5.35.47-10.73.37-16.04-.17-3.39-.34-6.74-1.39-9.64-3.51-3.51-2.57-5.08-5.88-4.58-10.2.79-6.87,4.84-11.5,10.38-15.07.68-.44,1.52-.65,2.15-1.25,2.79-2.71,6.26-3.7,10.01-4.17,3.95-.5,7.92-.14,11.87-.36,3.36-.19,6.52-1.39,9.93-1.43,2.71-.03,5.23.29,7.75,1.22,1.78.66,3.62,1.37,5.61.99.54-.09,1.07-.51,1.58.15,1.65,2.14,3.74,3.94,5.01,6.39.25.23.47.5.72.72h0c.23.25.49.47.72.72Z"/>
      <path class="cls-36" d="M150.59,216.31c1.2-.06,2.4-.22,3.59-.16,2.28.11,4.94.15,6.44,1.77,2.24,2.41,4.04,5.38,4.37,8.85.24,2.5.11,4.98-.66,7.46-1.98,6.31-4.34,12.21-9.23,17.13-3.28,3.3-6.84,6.31-10.03,9.7-3.3,3.5-6.17,7.34-8.91,11.28-1.82,2.61-3.75,5.17-4.33,8.49-.24,1.34-.73,2.83-2.24,3.52-2.87-.88-4.94-3.62-3.89-5.99,2.47-5.52,4.05-11.47,7.59-16.5.58-.12,1.26.01,1.73-.39,6.61-5.73,14.36-10.09,20.21-16.72,4.04-4.58,4.43-10.26,4.13-15.86-.21-4-2.77-4.62-5.96-2.34-6.18,4.41-10.22,10.63-14.56,16.61-2.23,3.07-2.64,6.95-4.38,10.27-1.34,2.55-2.1,5.39-3.8,7.77-.79,1.11-.87,2.2-.02,3.31-.97,4.57-2.69,8.83-5.19,12.78-.18.05-.36.1-.54.15-.19-.03-.37-.06-.56-.09-.34-.17-.63-.41-.87-.7-.2-.31-.34-.65-.43-1.01.24-5.52.91-10.9,3-16.15,1.33-3.34,2.09-6.82,4.88-9.38.72-.66,1-1.8.7-2.7-.93-2.87.51-4.78,2.25-6.76,2.86-3.27,4.27-7.51,7.02-10.87.53-.65.73-1.68,1.41-2.06,4.5-2.54,6.21-7.06,8.26-11.35Z"/>
      <path class="cls-30" d="M38.11,122.23c-7.86,1.17-15.35-.62-22.39-3.72-6.07-2.67-11.08-6.82-13.78-13.37-1.79-4.33-2.41-8.73-1.56-13.15,1.07-5.58,7.69-10.97,13.31-10.48,4.14.36,7.58,1.95,11.03,3.81,4.75,2.55,9.46,5.18,14.15,7.85,3.72,2.12,7.37,4.37,11.05,6.56-.32,2.05,1.25,2.81,2.5,3.89,3.4,2.95,5.03,6.76,5.02,11.27-.29.19-.62.29-.96.32-.52-.03-1.02-.15-1.52-.31-1.98-.72-3.8-1.68-5.03-3.49-2.21-4.41-6.34-6.44-10.52-8.31-1.33-.6-2.62-1.13-3.76-2.06-4.87-3.96-10.2-7.18-15.9-9.79-1.65-.75-3.2-1.5-4.49-2.91-1.84-2.01-3.82-1.96-5.96.01-6,5.55-5.42,17.85,1.34,22.48,3.76,2.57,7.54,5.51,12.15,6.16,5.69.8,11.49.73,17.26.54.62-.02,1.41-.13,1.63-.64,1.58-3.63,4.71-2.55,7.49-2.56,3.66.35,5.61,3.42,8.36,5.21.26.26.47.56.63.9.14.35.17.71.12,1.08-1,2.01-2.74,1.36-4.33,1.19-2.81-.31-5.61-.72-8.38.23-.96-.04-1.91-.08-2.87-.13-1.4-1.29-3.16.35-4.6-.58Z"/>
      <path class="cls-13" d="M75.9,20.78c.05.44.11.87.16,1.31.33.47.23,1.09.56,1.56.2.17.25.37.16.62.41.9.29,1.65-.19,2.59-.55,1.09.74-.13.81.43.16.18.19.38.1.6.35.46.22,1.12.63,1.56.56,7.19.96,14.36-2.38,21.11-.31.62-.39,1.35-.57,2.03-.42-.47-1.62-2.47-1.75-2.93-1.61,1.4-2.39,3.26-3.02,5.22-.55,1.72-1.8,2.61-3.53,2.43-1.97-.2-1.82-1.94-1.93-3.34-.21-2.74.3-5.52-.56-8.21-.49-5.98.91-11.91.48-17.9-.18-2.48-.29-4.94-1.13-7.62-1.08,2.28.5,4.96-1.93,6.45-.64-.23-1.03-.78-1-1.37.27-5.15-3.13-8.61-5.87-12.95-1.6,3.74-1.38,7.34-.99,10.75.99,8.57,2.08,17.15,4.18,25.56.35,1.39.57,2.85,1.87,3.77,1.53,2.83,1.02,5.86.88,8.86-1.01,2.55-2,1.4-2.76-.11-1.35-2.68-1.99-5.64-3.1-8.41-2.02-8.48-3.16-17.13-4.79-25.69-1.01-5.31-.43-10.75-.33-16.1.09-5.07,5.69-7.49,10.2-5.13,5.44,2.86,9.5,7.02,12.46,12.3.79,1.4,2.07,1.93,3.34,2.58Z"/>
      <path class="cls-28" d="M116.79,53.98c.22-.09.37-.03.47.18.4,1.27.99,2.45,1.75,3.54,4.74,6.81,4.18,13.96.46,20.74-4.52,8.24-11.01,15.01-17.95,21.3-1.08.98-2.27,1.82-3.64,2.28-2.14.71-3.76,1.85-4.92,3.89-.97,1.71-2.34,2.27-3.16-.3-.03-.33-.02-.67.03-1,.17-.76.49-1.49.72-2.24.08-.29.19-.57.3-.84.27-.7.34-1.45.57-2.17.12-.3.29-.56.51-.79.24-.22.5-.42.77-.6,3.72-5.77,9.86-8.67,14.99-12.79,6.65-5.34,10.67-12.26,9.99-21.23-.09-1.15-.18-2.44-1.36-2.69-2.67-.56-5.48.48-8.18-.53-.43-.16-.75.58-.62,1.06.73,2.71-1.17,3.93-2.92,5.25-.67.51-1.55.96-1.83,1.72-2.17,5.8-6.41,10.46-8.81,16.13-.3.7-.08,1.43-.15,2.15-3.09,9.19-6.86,18.14-9.68,27.41-.27.61-.56,1.22-.71,1.88-.1.49-.24.98-.42,1.45-.28.65-.62,1.25-1.27,1.61-.37,0-.68-.15-.95-.41-1.76-6-.19-11.64,1.9-17.22.89-2.39,2.63-4.69.25-7.28-.61-.67-.26-1.9.03-2.81,1.4-4.46,2.15-9.14,4.53-13.27,2.8-4.85,4.84-10.15,8.5-14.51,2.45-2.92,5.54-5.04,8.9-6.62,2.14-1.01,3.95-2.2,5.42-4,.79-.53,1.8-.07,2.6-.56.81,0,1.67-.22,2.29.56.02.62.52.35.83.45.25.08.51.16.76.23Z"/>
      <path class="cls-16" d="M189.57,286.52c.66,5.28-.19,10.21-1.99,15.33-1.55,4.4-3.98,8.11-6.31,11.95-2.12,3.49-3.3,7.03-2.81,11.11.52,4.36.22,8.79,1.33,13.13.66,2.58-.76,5.11-1.52,7.57-.55,1.79-1.69,3.4-2.26,5.23-.2.64-.75.89-1.41.88-4.15,1.03-2.83-2.42-3.5-4.25-.15-.35-.28-.71-.39-1.07-.21-.54-.4-1.09-.58-1.65-.13-.38-.21-.77-.25-1.17-.85-2.86-.59-5.64.32-8.47,1.87-5.8.54-11.95,1.73-17.85.26-1.27.02-2.66.92-3.77,1.82,1.39,1.58-.41,2.3-1.26,2.1-2.47,2.85-5.69,5.29-8.04,4.81-4.66,5.32-14.78,2.04-19.44-2.64-3.75-5.51-4.22-8.73-.82-1.58,1.67-3.04,3.59-3.72,5.7-1.39,4.36-4.05,8.3-3.42,13.39.25,2.05-.72,4.63-.96,6.99-.16,1.65-.56,3.35.37,4.93.12.32.17.66.18,1-.05.68-.19,1.35-.29,2.02-.07.51-.18,1.01-.3,1.51-.85,2.2.49,4.87-1.49,7.01-1.85-1.2-1.71-3.04-1.76-4.8-.1-3.21.35-6.52-1.69-9.39-.21-.29-.33-.66-.3-1.03.68-8.46,1.43-16.9,6.27-24.3.82-1.25,2.46-2.51.54-4.34-.8-.76.06-1.79.61-2.58,4.92-7,14.06-6.52,18.01,1.03,1.73,3.3,3.06,6.78,2.34,10.43,1.34-1.24-1.39-3.94,1.44-5Z"/>
      <path class="cls-17" d="M171.59,346.6c.99.78.75,1.9.7,2.9-.09,1.72.8,2.26,2.32,2.22-4.66,1.66-9.39,1.85-14.21.81-.82-.18-1.62-.38-2.29-.95-1.56-1.32-3.38-1.64-5.35-1.4.27-.36.54-.71,1.11-1.46-2.76.63-4.43-1.88-6.9-1.39-3.07-.6-6.07-.86-9.25-.21-2.66.54-5.46.22-7.89-1.67-2.05-1.6-4.68-1.56-6.94-.71-4.41,1.65-9.01,1.34-13.53,1.84-1.72.19-3.36.25-4.73,1.4-1.63,1.36-3.19,1.55-4.78-.08-1.04-1.07-2.39-1.58-3.81-1.98-1.52-.44-2.65-1.47-2.71-3.04-.06-1.62,1.28-2.56,2.56-3.22,1.67-.85,3.47-.83,5.28-.24,2.08.69,4.17.47,5.84-.92,2.21-1.83,4.28-1.89,7.2-1.57,5.32.6,10.78,1.31,16.2.48,9.31-.49,17.89,2.93,26.73,4.95,1.17.27,2.37.61,3.33,1.31,3.34,2.43,6.99,3.57,11.12,2.9Z"/>
      <path class="cls-20" d="M118.73,277.82c.3-2.5-.16-4.69-2.46-6.17-.37-.23-.87-.76-.81-1.07.48-2.68-1.38-4-2.97-5.57-1-.98-1.79-2.17-2.65-3.23.4-1.01,1.26-.49,1.86-.72.41-.16,1.11-.2.9-.82-3.91-11.71-6.41-23.87-11.4-35.22-.41-.94-.81-1.76-2.02-1.65-.89.08-1.66-.26-2.35-.75-6.75-4.79-13.83-9.02-21.25-12.68-.41-.2-.73-.59-1.09-.89,2.32-2.86,4.66-.88,6.64.28,2.7,1.58,5.3,3.32,8.11,4.71,1.43.7,2.86,1.25,4.5.93,7.71,3.02,7.43,1.62,8.38,4.31.57-5.45,1.21-10.91,4.72-15.5.8.7,1.2,1.71,2.79.67,1.74-1.14,3.39-2.18,4.38-4.03,1.69-3.18,4.18-5.76,6.34-8.6,1.25-1.64,2.75-2.37,4.25-.16-4.24,4.34-6.79,9.82-10.03,14.84-3.43,5.32-5.48,11.48-9.79,16.27-.69.77-.46,1.48-.2,2.32,3.7,11.79,6.62,23.83,11.2,35.34.43,1.07.42,2.53,2.22,2.17.67,1.85,1.13,3.74,1.32,5.7-.26,3.79,2.07,6.85,2.92,10.32,0,.32-.04.63-.13.94-.13.28-.33.49-.6.63-.28.04-.54-.04-.75-.21-.11-.51-.55-.37-.9-.42-.28-.03-.54-.12-.78-.28-.38-.43-.81-.85-.36-1.48Z"/>
      <path class="cls-33" d="M81.07,191.65c-3.5-1.53-6.82-3.41-10.05-5.42-1.23-.77-2.44-1.45-3.79-1.97-2.34-.91-4.46-2.08-6.17-4.15-1.62-1.96-3.18-4.34-6.16-4.63-.82-2.44-3.1-1.69-4.81-2.21-2.21-.66-4.75-.7-5.97-3.22-.36-.75-1.12-.85-1.86-.84-1.11.02-2.09-.16-3.03-.88-4.06-3.12-8.81-5.13-13.16-7.79-2.44-1.49-5.43-3.61-8.95-2.2-1.02.4-2.04.65-2.71,1.61-3.06,4.41-4.63,9.2-2.91,14.48.59,1.81-.42,2.69-1.37,3.2-1.2.65-1.5,1.41-1.51,2.55-.95-.85-.47-2.01-.65-3.02.19-.3.13-.52-.21-.66-1.36-3.57-.62-7.21-.37-10.84.31-4.46,3.9-6.86,6.4-9.87,1.27-1.53,3.47-1.97,5.58-1.85.29-.16.58-.34.86-.53.11-.24.28-.32.53-.24,6.94,2.75,14.09,4.95,20.82,8.27,4.16,2.05,6.92,5.98,11.2,7.84,2.54,1.1,4.97,2.45,7.58,3.41.79.29,1.74.46,2.3,1.03,5.38,5.46,12.67,8.74,17.27,15.09.61.85,1.59,1.57,1.15,2.85Z"/>
      <path class="cls-19" d="M90.48,104.03c-.01.24-.01.47,0,.71-.37,4.5-1.31,8.88-2.83,13.13-1.67,5.53-3.26,11.08-4.21,16.79-.76,4.56-2.95,5.48-6.7,2.8-1.27-.91-2.35-2.07-3.74-2.82-1.53-2-3.72-3.16-5.74-4.53-2.88-3.38-6.61-5.92-9.35-9.43h0c-.22-.26-.49-.47-.73-.72-1.71-.64-2.87-2.02-4.29-3.07-1.1-.82-2.12-1.94-3.65-2.03-3.66-1.31-6.72-3.83-10.35-5.21-2.78-1.43-5.46-3.02-7.67-5.28-.32-.37.04.13-.26-.25-.8-1.01-2.36-2.12-1.38-3.35,1.07-1.34,2.4.16,3.43.79,4.41,2.75,9.21,4.71,13.79,7.12,1.39.73,2.82,1.38,3.87,2.6,1.51,1.28,3,2.59,5.07,2.88.23.26.49.48.73.71h0c2.4,0,4.05,2.56,6.63,1.93,1.4,1.72,2.8,3.45,4.21,5.17,2.47,3,5.15,5.75,8.72,7.46,1.25.47,2.08,1.46,3.04,2.57-.74-2.4.23-4.49.42-6.64.66-2.09.56-4.46,2.31-6.13h0c.45-.38.29-1.05.7-1.45.01-.48.02-.96.03-1.43.45-.39.27-1.07.7-1.46,2.68-9.67,6.23-19.02,10.13-28.25-.18-.2-.25-.41-.21-.63.03-.22.08-.34.13-.34.15-.33.36-.63.61-.89.15-.11.29-.22.44-.33.34-.18.69-.21,1.05-.1,2.2,2.64.06,5.02-.44,7.5-.22.6-.47,1.19-.68,1.79-.08.28-.19.56-.31.83-.29.64-.52,1.3-.71,1.98-.07.27-.17.52-.27.78-.25.64-.46,1.29-1.03,1.74-.01.23-.02.47-.01.7-.66.59-.07,1.6-.72,2.19h0c-.67.58-.06,1.59-.72,2.17Z"/>
      <path class="cls-34" d="M81.07,191.65c-2.57-3.97-6.33-6.79-9.68-10.01-.34-.33-.74-.7-1.17-.81-2.48-.64-4.1-2.25-5.44-4.34-1.33-2.07-3.71-2.61-5.79-3.39-3.28-1.22-6.34-2.88-9.41-4.5-2.53-1.33-4-4.11-6.68-5.32-2.11-.94-3.83-2.98-6.53-2.28-.28.07-.88-.13-.94-.33-1.17-3.77-4.84-2.79-7.37-3.64-2.72-.91-5.31-1.71-7.29-3.87,4.41-1.18,8.71-.28,12.96.8,3.87.99,7.08,3.36,10.31,5.57,5.04,3.46,10.32,6.45,15.85,9.03.54.25,1.04.57,1.53.9,5.11,3.5,10.22,7.01,15.33,10.52.34.5,1.04.36,1.41.8h.01c.27.25.49.55.88.61l-.02-.02c.16.58.23,1.2.78,1.57,6.05,3.98,9.62,9.54,11.6,16.53.84,2.97,3.52,5.34,4.63,8.42.32.9.98,1.69.29,2.68-2.55-.07-4.74-.64-5.12-3.7-2.67-3.73-3.39-8.73-7.8-11.37-1.14-.68-1.58-2.54-2.34-3.86Z"/>
      <path class="cls-32" d="M86.87,117.79c1.31-4.32,1.76-8.88,3.61-13.05.06.58-.16,1.32.4,1.68.74.47,1.09-.24,1.28-.76.88-2.45,2.65-3.49,5.07-4.44,4.43-1.73,7.72-5.17,10.37-9.1.76-1.12,1.54-2.1,2.74-2.77,1.06-.59,1.83-1.53,2.51-2.54,1.92-2.84,4.42-5.43,5.65-8.53,1.2-3.03,2.89-5.9,2.75-9.67-.17-4.42-1.19-8.09-3.87-11.47-.72-.9-.92-1.95-.13-2.99,1.11.43,2.22.86,3.33,1.27.7.26,1.46.7,1.56,1.38.31,2.06,1.71,3.67,2.14,5.67,1.15,5.3.34,10.2-1.88,15.2-3.78,8.53-9.66,15.55-15.17,22.87-2.15,2.85-4.14,5.82-6.31,8.67-.62.81-1.09,1.91-2.3,2.15-3.38,1.6-5.46,4.59-7.74,7.34-.38.45-.54,1.07-.91,1.55-.68.87-1.46,1.77-2.69,1.38-1.27-.4-.68-1.61-.77-2.49-.05-.48,0-.96.34-1.35Z"/>
      <path class="cls-6" d="M124.6,191.68c-2.8-.9-3.06-.98-3.9,1.28-.91,2.41-3.62,3.21-4.44,5.72-.33,1.02-1.27,1.98-1.86,3.03-1.33,2.39-3.4,3.59-6.11,3.88-1.56.17-.99-.94-1.15-1.63-.82-3.9,1.57-10.69,4.34-12.32.08.43.02,1.02.73.88.19-.04.43-.28.5-.48,2.1-6,7.46-9.51,11.15-14.29,1.99-2.58,5.67-3.22,9.01-3.68.83-.11.86.54,1.25.93,2.29,2.3,3.53,2.32,6.36.43,1.09-.72,2.24-1.38,3.53-1.67,1.34.62-.63,2.19.84,2.73-2.09,3.3-5.76,4.56-8.88,6.28-3.5,1.94-6.24,4.63-9.22,7.11-.71.6-1.15,1.53-2.15,1.79Z"/>
      <path class="cls-18" d="M86.87,117.79c.21,1.09-.65,2.84.71,3.15,1.49.34,1.94-1.32,2.34-2.6.29-.91.86-1.64,1.68-2.24,1.35-.98,2.5-2.17,3.4-3.62.83-1.35,2.05-1.96,3.64-1.12-.41,2.24-2.41,3.35-3.6,5.04-.33.1-.44.32-.32.64-2.53,2.91-3.96,6.5-6.03,9.7-.91,1.4-.72,3.22-1.2,4.83-1.03,3.44-3.23,6.37-3.97,9.95-.3,1.48-.5,2.86-.05,4.23,4.46,13.56,6.8,27.71,11.28,41.26,1.79,5.41,3.74,10.77,5.7,16.39,1.48-1.02,1.01-2.26.96-3.15-.38-6.98.26-13.88,1.52-20.72.38-2.06,1.21-4.04,1.83-6.05.75-.17.44-1.51,1.37-1.34.84.15.95.98,1.03,1.68.17,1.45-.19,2.87-.57,4.24-1.33,4.91-1.31,9.92-1.43,14.94-.04,1.49.37,2.82.94,4.14-.55,5.13-1.69,10.06-4.96,14.25-1.32-.35-1.36-1.55-1.69-2.55-4.08-12.55-8.22-25.08-12.05-37.7-2.16-7.12-3.61-14.46-5.86-21.57-1.23-3.89-3.01-7.51-5.58-10.71-.99-1.4-2.29-2.59-2.97-4.22.93-1.18,1.45.09,2.02.43,1.12.66,2.1,1.54,3.19,2.26,2.28,1.51,3.99.94,4.2-1.73.44-5.75,2.66-11.06,3.76-16.63.1-.5.33-.88.71-1.19Z"/>
      <path class="cls-36" d="M189.57,286.52c-1.13,2.64-.86,5.47-.92,8.48-1.64-.75-1.17-2.01-1.07-2.9.5-4.45-1.19-8.35-3.36-11.9-3.21-5.26-10.04-5.45-13.92-1.44-.99,1.02-2.24,1.83-2.79,3.15.06.8.53.8,1.03.66,1.54-.44,1.79.35,1.26,1.48-.4.85-1.21,1.49-1.73,2.29-3.46,5.33-5.07,11.35-6.47,17.44-.17.72-.14,1.43.17,2.12.1.22.16.47.31.65,1.62,2.09-1.79,3.37-.88,5.22.73,1.48,2.03,2.28,2.05,4.55.03,2.99-.84,6.29.74,9.55.95-2.4-.51-4.83,1.07-6.78,1.19,1.12,1.17,2.61,1.13,4.04-.11,4.2.5,8.42-.42,12.59-2.34,1.52-4.39.57-4.95-2.79-.62-3.66-1.48-7.33-1.33-11.08.09-2.36-.24-4.5-1.46-6.56-1.52-2.56-1.83-5.27-1.44-8.32.62-4.76,1.4-9.51,1.83-14.31.34-3.79,2.2-7.08,4.37-10.16.89-1.26,2.08-2.37,2.13-4.08l-.02.03c.48-.07.68-.42.82-.83.8-1.53,2.4-2.3,3.47-3.6.56-.68,1.53-1.27,2.56-.99,1.02.28,1.95-.04,2.81-.36,2.68-1.02,4.97-.08,7.08,1.37,4.41,3.02,7.3,7.06,7.94,12.49Z"/>
      <path class="cls-2" d="M164.92,278.4c.66.77,1.6,1.29.34,2.55-2.85,2.86-4.73,6.4-5.68,10.28-.67,2.76-.7,5.68-1.03,8.52-.32,2.73-.3,5.56-1.08,8.15-.84,2.79.08,5.31,1.5,6.98,1.55,1.82,1.87,3.82,1.6,5.49-.69,4.17,1.09,8,1.03,12.06-.02,1.88,1.12,3.69,3.45,4.01,1.45,1.7,1.41,3.64.35,5.36-1.12,1.81-3.02,1.02-4.62.68-9.38-2-18.74-4.18-28.39-4.53-.02-1.31,1.03-1.51,1.93-1.72,5.86-1.36,11.76-1.88,17.7-.51h5.79c-.54-2.24-2.29-3.23-3.82-4.49-3.85-3.16-7.73-6.35-9.2-11.44,1.02-.98,2.11-1.62,3.51-.71,1.36.8,1.45,3.24,3.72,2.85,1.36,1.48,2.37,3.28,4.36,4.61-.45-4.37-1.11-8.5-1.84-12.61-.41-2.29-.45-4.48.32-6.67,1.21-3.17.86-6.55,1.33-9.82,1.04-7.25,3.3-13.85,8.72-19.04Z"/>
      <path class="cls-30" d="M81.8,119.23c-.12,2.25-1.03,4.33-1.45,6.52-1.54,1.61-2.06.29-2.23-.93-.85-5.95-1.85-11.86-1.52-17.95.32-5.88,2.49-11.22,4.08-16.73.28-.96.48-1.85.21-2.82.1-.23.19-.46.29-.68.36-.46.25-1.09.58-1.56,3.78-12.12,9.68-22.82,20.66-29.92,2.42-1.57,5-3.28,8.23-2.66.41.22.46.51.13.85-.81,2.45-2.21,4.18-4.99,4.48-.66.07-1.28.61-1.91.96-1.97,1.08-3.48,2.78-5.49,3.85-1.02.54-1.95,1.48-2.06,2.82-.09,1.03-.37,1.98-1.46,2.25-1.57.38-2.07,1.7-2.42,2.91-1.01,3.51-3.14,6.41-4.83,9.56-.74,1.37-1.37,2.75-1.53,4.39-.29,2.87-2.16,5.31-2.38,8.27-.1,1.43-.42,2.52,1.54,2.8,1.3.19.86,1.19.42,1.95-1.52,2.61-2.34,5.51-3.38,8.32-1.46,3.96-1.25,8.04-1.12,12.13.01.42.42.82.65,1.23Z"/>
      <path class="cls-25" d="M60.08,61.31c-.15-2.91.34-5.87-.71-8.7-1.1-1.52-1.05-3.22-.8-4.96.87-2.66.34-5.42.54-8.13.48-3.32,1.06-6.63,1.36-9.98.1-1.07.15-2.17,1.07-2.95,1.05-.97.64-2.24.7-3.41.07-1.44.02-2.89.09-4.33.02-.47.23-.99.75-1.15.76-.23,1.12.37,1.31.9.9,2.49,1.37,5.05,1.51,7.71.35,6.63-.6,13.19-.75,19.79-.12,7.46,1.58,14.62,3.56,21.73.13.45.05.95.05,1.43-.25.73-.5,1.45-.74,2.18-.59,3.16-.78,6.34-.19,9.5.33,1.73-.11,3.3-.47,4.91-2.93-.88-2.77-3.75-3.65-5.88-.57-1.39-.59-3.01-.85-4.53-.12-.91-.09-1.82-.19-2.73-.09-.53-.29-1.03-.44-1.54-1.02-3.23-2.37-6.38-2.14-9.88Z"/>
      <path class="cls-30" d="M93.39,215.53c-1.25,1.5-2.6.33-3.59-.16-2.88-1.44-5.78-2.83-8.4-4.81-1.97-1.49-4.2-2.98-6.93-1.5-2.7-.17-5.05-1.48-7.42-2.51-5.14-2.24-10.68-2.15-16-3.28-2.54-.54-5.21-.46-7.64-1.51-.21-.24-.44-.27-.7-.08-1.07.23-1.94-.44-2.92-.64-.26-.65-1.4-.78-1.14-1.68.26-.9.99-.76,1.76-.62,2.24.4,4.54.51,6.73,1.07,3.23.82,6.43.5,9.67.32,2.61-.14,5.26-.11,7.76.72,2.51.82,4.96,1.72,7.65,1.41.12-.01.24-.08.35-.06q3.18.29,4.15-2.59c1.04-.84,1.85-.18,2.45.55,3.57,4.35,8.04,7.84,11.59,12.2.41.59.79,1.2,1.39,1.63.23.15.44.33.65.5.2.19.37.4.5.65.03.13.05.27.08.4Z"/>
      <path class="cls-14" d="M148.3,319.1c-1.2.12-2.25.92-3.51.71-.72-.97-1.44-1.93-2.17-2.9-4.19-5.93-7.45-12.32-10.2-19.04-2.37-5.78-5.53-11.2-10.8-14.98v-.02c-.24-.23-.47-.48-.73-.71h0c-2.53-1.63-2.59-1.77-1.44-2.91.24,0,.49,0,.73,0,0,0,.33.14.33.14.1.22.23.41.39.6.24,0,.48,0,.72,0,.35-.02.42-.17.24-.47-.1-.17-.17-.26-.23-.26-.96-3.15-2.78-5.99-3.27-9.32-.09-.64-.18-1.14.38-1.55,1.86-.36,2.32,1.12,3.01,2.29,1.06,1.5,1.11,3.42,2.03,4.98,0,.24.01.47.02.71.24.24.45.5.71.72h0c.24.25.47.24.71,0,1.69-4.34,3.38-8.69,5.07-13.03,0-.12-.01-.25-.02-.37,0-.38.06-.74.14-1.11.05-.24.13-.48.23-.71.15-.34.32-.67.48-1,.1-.23.22-.44.35-.65.13-.2.29-.4.44-.58.07-.1.15-.19.22-.29.2-.3.39-.62.55-.95.1-.23.22-.46.34-.68.11-.24.23-.48.36-.71.12-.25.27-.48.44-.71.17-.23.37-.44.59-.64.12-.09.24-.18.36-.27.27-.15.55-.24.86-.25.72.21.91.74.9,1.41-.07.59-.27,1.16-.45,1.72-.08.27-.19.52-.31.77-.17.36-.36.71-.54,1.06-.1.23-.23.45-.36.66-.18.32-.39.64-.63.92-.1.07-.21.13-.32.19-2.9,5.21-4.56,10.99-7.39,16.23-.72,1.33.03,2.27.52,3.33.56,1.21,1.25,2.32,2.54,2.9-.39,1.05.17,1.83.72,2.63,2.92,4.25,5.31,8.79,7.43,13.49.78,1.74,1.68,3.46,2.76,5.03,2.98,4.33,5.05,9.17,7.8,13.62Z"/>
      <path class="cls-12" d="M105.68,197.43c-1.42-1.1-2.27-2.34-1.5-4.27.25-.63.1-1.43.06-2.16-.31-5.21.61-10.27,1.85-15.28.24-.96.42-1.87.23-2.85-.7-.23-.98.57-1.56.62.44-4.01,2.05-7.65,3.75-11.21,1.49-3.11,3.43-6,5.17-8.99h0c0-.38.08-.7.49-.81.55-.31.82-.8.87-1.41.37-1.1,1.11-1.84,2.22-2.2.83,1.49,1.35,2.68-.1,4.44-1.39,1.68-3.09,3.63-2.23,6.39.25.8-.74,1.7-1.17,2.55-1.6,3.15-3.38,6.24-3.81,9.85-.06.46-.29,1,.24,1.26.55.27,1.26.27,1.67-.23,1.05-1.29,2.09-2.58,3.6-3.63-.14,1.57-1.67,5.38-3.14,7.44-2.82,3.94-3.29,8.62-4.3,13.13-.05.23.37.57.57.86.63,1.93-.91,3.2-1.44,4.78-.21.41-.46.8-.73,1.17-.19.24-.43.43-.71.56Z"/>
      <path class="cls-10" d="M100.85,254.54c-1.92,1.34-3.77.56-5.38-.46-6.84-4.35-14.59-5.95-22.35-7.37-2.45-.45-4.77-.59-6.88-2.14-1.52-1.13-3.35-1.64-5.39-1.57-2.6.09-4.96-1.41-7.61-1.41-3.98.01-6.86,2.13-9.15,4.95-2.18,2.68-1.58,8.09.82,10.66,1.07,1.15,2.13,2.17,2.3,3.93.14,1.43,1.7,1.88,2.73,2.69,1.43,1.13,2.98,2.32,1.47,4.47-5.32-3.19-8.79-7.99-10.26-13.81-1.97-7.8,3.99-14.53,11.94-15.15,5.22-.41,10.24.52,15.18,2.33,7.52,2.75,15.16,5.18,22.72,7.83,3.51,1.23,6.62,3.29,9.86,5.06Z"/>
      <path class="cls-22" d="M61.45,76.68c-2.62-6.31-6.17-12.18-8.58-18.6-4.16-11.1-6.83-22.49-7.43-34.35-.13-2.63-.49-5.25-.5-7.9-.02-5.52,2.08-10.13,6.16-13.66,2.69-2.33,6.15-2.79,9.45-1.33,2.04.9,4.16,1.93,5.55,3.86-.93,1.91-2.23,1.29-3.58.54-6.13-3.39-7.28-3.16-11.99,2.4-2.61,4.13-2.44,8.78-2.18,13.31.17,2.97.93,5.95.85,8.95-.12,5.17,3.05,9.53,3.3,14.63.31,6.09,3.73,11.33,5.21,17.06,1.13,4.41,4.64,7.6,5.21,12.11-.03,1.22-.33,2.31-1.49,2.97Z"/>
      <path class="cls-18" d="M123.79,275.65c-1.75-.93-1.56-3.15-2.88-4.37-.15-8.22,3.26-15.44,6.42-22.73,2.74-5,5.51-9.99,8.75-14.69,1.28-1.87,2.52-3.77,3.87-5.58,1.67-2.25,3.55-4.19,4.47-7.12.76-2.42,3.19-4.38,6.17-4.84.22.55.52,1.08.07,1.67-.8,1.06-1.16,2.17-1.33,3.57-.19,1.56-1.25,3.13-2.83,3.95-2.43,1.27-3.81,3.4-5.41,5.52-2.95,3.9-4.33,8.83-8.19,12.13-.82.7-.98,1.81-.56,3.24.54,1.87.59,3.84-1.62,5.59-1.29,1.02-3.73,2.69-2.74,5.44.21.59-.07,1.14-.39,1.69-2.08,3.57-3.34,7.37-3.1,11.57.1,1.68-.98,3.23-.71,4.95Z"/>
      <path class="cls-30" d="M49.94,7c.35-.47.67-.99,1.07-1.42,4.45-4.7,6.78-4.97,11.91-1.09,1.21.91,2.08.86,3.19.2.23-.05.39.04.47.27.45.31.31.99.77,1.29v-.03c.35.44.25,1.09.68,1.49,3.68,3.71,5.87,8.32,7.85,13.05-1.46.92-2.72.96-3.54-.82-.34-.74-.87-1.34-1.13-2.19-.52-1.69-1.43-3.27-3.1-4.22-1.46-.83-2.71-1.78-3.42-3.49-.5-1.22-1.32-2.69-3.25-1.76-.45.22-1.1-.05-1.23-.49-.84-2.85-3-1.58-4.71-1.51-2.72.11-4.5,1.66-4.8,4.27-.18,1.54-.21,3.15.03,4.67.35,2.24.25,4.41,0,6.65-.38,3.47.79,6.79,1.33,10.18.6,3.73,1.93,7.32,2.14,11.09.14,2.53.1,5.01,1.35,7.33.31.57.12,1.42.16,2.13-2.64-.99-3.47-3.37-3.36-5.67.18-3.56-1.1-6.75-1.74-10.09-1.65-8.65-3.02-17.3-1.9-26.13.17-1.31.7-2.52,1.21-3.72Z"/>
      <path class="cls-30" d="M75.97,138.86c2.08-.51,2.02,1.43,2.72,2.43,4,5.7,5.37,12.43,6.88,18.98,1.8,7.84,4.72,15.34,6.57,23.14.64,2.71,1.55,5.25,2.75,7.75,1.72,3.57,1.93,7.63,3.5,11.3,1.21,2.82,1.98,5.83,2.94,8.76.19.34.14.65-.13.92-1.8.46-2.24-1.02-2.83-2.11-.96-1.77-2.06-3.5-2.48-5.52-.08-1.76-.27-3.5-1.27-5.04-.16-.28-.29-.57-.39-.88-.42-1.38-.58-2.81-.72-4.24-1.38-4.46-2.55-9-4.17-13.37-3.32-8.9-5.63-18.09-8.11-27.22-1.39-5.11-3.27-10.01-5.26-14.89Z"/>
      <path class="cls-24" d="M80.88,87.32c.56.13,1.41.13,1.09,1-.88,2.36-1,4.89-2,7.26-1.22,2.91-2.35,5.93-1.97,9.29.17,1.5-.56,3.01-.58,4.61-.07,5.36,1.33,10.57,1.55,15.89.04.96.85.48,1.39.38-.25,2.37-1.06,4.68-.87,7.23-1.07-1.31-3.31-1.34-3.44-3.54-.18-2.28-1.31-4.29-1.88-6.46-.32-1.25-1.07-2.4-.94-3.76.44-.46.02-1.28.71-1.63,1,.83.32,2.35,1.32,3.18.16.05.31.11.46.17.12-.16.12-.32,0-.48.01-.18.07-.35.19-.49.33-2.99-.47-5.91-.55-8.89-.16-6.07,1.2-11.81,3.2-17.46.75-2.11,1.56-4.2,2.34-6.3Z"/>
      <path class="cls-29" d="M68.76,69.27c-2.52-4.29-3.37-9.03-3.59-13.89-.14-3.09-.02-6.18-.02-9.27,1.17,1.06.66,2.46.7,3.72.07,2.23.02,4.46.02,6.72,2.37.12,3.67-.47,3.78-2.65.14-2.74,2.82-4.03,3.72-6.38.34-.88,1.21-.28,1.61.39.41.69.1,1.37-.15,2.05-.34.93-.5,1.86.34,2.65-1.83,5.68-3.49,11.42-6.42,16.68Z"/>
      <path class="cls-22" d="M96.29,203.94c1.02,2.05,2.02,4.1,3.05,6.14.43.84.76,1.82,1.98,1.82.29,1.26-.51,1.95-1.5,1.79-1.77-.27-3.31-1.1-3.55-3.22-2.02-2.85-2-6.89-5.32-9.02-.69-.44-.73-1.49-.79-2.32-.04-.58.26-1.33-.45-1.56-1.61-.53-1.62-1.64-1.1-2.86.5-1.15-.22-1.81-.75-2.58-2.15-3.08-4.79-5.68-7.82-7.88-1.03-.75-2.02-1.44-1.02-2.88,5.67,3.52,10.83,7.56,13.68,13.86,1.52.72,1.42,2.37,2.07,3.59l.24.22c.45,1.62,1.17,3.17,1.27,4.88Z"/>
      <path class="cls-37" d="M73.92,117.59c-.08.61-.14,1.23-.71,1.63-2.68-8.21-4.44-16.65-6.48-25.02-1.08-4.44-2.65-8.71-3.96-13.06-.44-1.48-1.26-2.85-1.33-4.45.27-1.02.53-2.04.8-3.06,1.41-.44.8,1.12,1.44,1.44.72,3.78,1.32,7.6,3.62,10.85.11.06.21.12.32.18-.06.23-.15.46-.25.68,1.39,6.78,2.86,13.55,4.15,20.35.67,3.52,2.19,6.84,2.41,10.46Z"/>
      <path class="cls-27" d="M127.33,248.55c.15,2.6-1.05,4.85-1.94,7.15-1.79,4.66-3.31,9.38-3.81,14.38-.05.51-.3.89-.67,1.2-.11-1.42-1.01-2.26-2.17-2.89-.07-1.94-2.05-3.65-.73-5.77.67-1.76,1.57-3.38,2.68-4.93,1.8-2.52,3.39-5.19,5.02-7.83.41-.66.88-1.12,1.62-1.31Z"/>
      <path class="cls-4" d="M154.87,307.27c.3,7.14,2,14.1,2.96,21.6-2.73-1.45-4.29-3.64-6.04-5.58-.19-.21.15-.88.24-1.34-.04-1.65.04-3.32-.15-4.95-.43-3.71.74-6.87,3-9.72Z"/>
      <path class="cls-26" d="M63.09,116.81c-.18,1.12-.62,1.9-1.87,1.14-1.61-.98-3.18-2.04-4.76-3.07.82-.43,1.54-.91.62-1.88-1.19-1.25-1.68-2.61-1.9-4.41-.2-1.57-1.46-3.16-3.02-4.18-2.35-1.54-2.33-1.57-3.86-4.38.48-.43,1.2.41,1.63-.3,4.9,2.7,7.92,7.09,10.56,11.8.69,1.23,1.25,2.53,1.87,3.8.03.41.3.7.54,1,.19.11.26.27.2.48Z"/>
      <path class="cls-9" d="M57.9,120.69c2.34.83,3.78,2.77,5.49,4.39,1.54,1.46,3.18,2.83,4.6,4.4.53.58-.44.46-.74.64-.94-.5-1.95-.91-2.82-1.51-5.31-3.64-11.28-4.95-17.59-5.13-.5-.01-.94-.13-1.25-.54-.14-.68-.52-1.55.69-1.5,2.73.11,5.47-.36,8.19.38,1.28.35,2.9,1.09,3.44-1.12Z"/>
      <path class="cls-23" d="M67.31,85.92c-.09-3.85-.22-7.7-.26-11.55-.01-1.04.04-2.14.97-2.91.51,3.65-.16,7.36.58,11.03.21,1.05-.45,2.29-.71,3.43-.18.24-.37.25-.56.02l-.02-.02Z"/>
      <path class="cls-10" d="M107.14,258.99c-4.04-.26-5.05-.99-5.8-4.21,1.89,1.21,4.33,1.44,5.88,3.27.3.34.27.66-.09.94Z"/>
      <path class="cls-30" d="M77.4,27.29c-.21.28-.49.53-.61.84-.26.69-.49,1.38-1.45,1.12-.54-.14-.74-.61-.72-1.08.03-.72-.51-1.81.89-1.84,1.54-.03,1.05-1.25,1.26-2.07.92.86.5,2,.63,3.02Z"/>
      <path class="cls-9" d="M38.11,122.23c1.26-.2,2.63.06,3.69-.96.35-.34.9-.54,1.23-.1.42.56-.15,1.09-.32,1.63-1.53-.24-3.16.39-4.6-.58Z"/>
      <path class="cls-5" d="M110.76,53.35c-.04-.28-.09-.56-.13-.85h0c.33-.12.66-.11.98.07.43.06.87.11,1.3.17-.57.73-1.39.59-2.16.61Z"/>
      <path class="cls-20" d="M107.14,258.99c.03-.31.06-.63.09-.94.56.17,1.1.35,1.4.91-.49.11-.97.81-1.49.03Z"/>
      <path class="cls-31" d="M115.03,151.07c.82,1.15-.22,1.16-.87,1.41.09-.59.28-1.13.87-1.41Z"/>
      <path class="cls-22" d="M67.36,6.26c-.58-.24-.76-.72-.77-1.29.73.15.75.72.77,1.29Z"/>
      <path class="cls-22" d="M68.04,7.73c-.61-.32-.74-.87-.7-1.49.6.32.61.93.7,1.49Z"/>
      <path class="cls-30" d="M76.61,23.65c-.55-.39-.62-.95-.56-1.56.58.38.63.95.56,1.56Z"/>
      <path class="cls-30" d="M78.12,29.45c-.57-.37-.69-.93-.63-1.56.53.39.79.89.63,1.56Z"/>
      <path class="cls-5" d="M115.82,54.06c-.31-.08-.62-.16-.93-.24.1-.17.21-.35.31-.52.25-.09.45-.03.62.16.17.13.23.27.17.4-.06.13-.11.2-.17.2Z"/>
      <path class="cls-24" d="M81.75,85.08c.07.62-.01,1.18-.58,1.56-.05-.61.02-1.18.58-1.56Z"/>
      <path class="cls-22" d="M78.16,180.8c-.62,0-1.14-.18-1.41-.8.6.03,1.14.18,1.41.8Z"/>
      <path class="cls-20" d="M109.58,259.61c-.45-.04-.77-.26-.97-.66.48,0,.8.22.97.66Z"/>
      <path class="cls-20" d="M110.97,260.35l-.92-.55c.45-.05.75.14.92.55Z"/>
      <path class="cls-2" d="M165.71,277.61c-.09.46-.36.73-.82.83.1-.45.38-.72.82-.83Z"/>
      <path class="cls-30" d="M111.62,52.57c-.33-.02-.65-.03-.98-.05.36-.68.68-.45.98.05Z"/>
      <path class="cls-32" d="M115.82,54.06c0-.2,0-.4,0-.6.46-.08.77.11.97.51-.32.03-.65.06-.97.09Z"/>
      <path class="cls-25" d="M67.32,85.93c.19-.02.37-.02.56-.02.06.43-.16.68-.52.86-.01-.28-.03-.56-.05-.84Z"/>
      <path class="cls-19" d="M62.89,116.34c-.37-.23-.55-.56-.54-1,.42.21.58.55.54,1Z"/>
      <path class="cls-32" d="M94.72,117.05c-.24-.2-.25-.4-.02-.55.1-.06.23-.07.34-.1-.11.21-.22.43-.32.64Z"/>
      <path class="cls-34" d="M20.23,153.41c-.29.18-.57.35-.86.53.18-.35.45-.56.86-.53Z"/>
      <path class="cls-6" d="M144.83,176.51c.25-.26.51-.51.76-.77-.02.48-.28.74-.76.77Z"/>
      <path class="cls-13" d="M7.76,176.5c.46.1.73.26.21.66-.2-.18-.27-.4-.21-.66Z"/>
      <path class="cls-22" d="M79.05,181.41c-.41-.03-.7-.24-.88-.6.42.01.75.17.88.6Z"/>
      <path class="cls-13" d="M42.71,201.67c.28-.36.51-.29.7.08-.23-.03-.47-.06-.7-.08Z"/>
      <path class="cls-31" d="M107.87,276.36c-.55,1.38-1.84,1.27-2.98,1.6-1.56.45-1.77-.5-2.25-1.55-.53-1.16-1.56-1.34-2.73-.76-1.32.65-4.23.9-5.55.78-3.19-.29-6.44-.88-9.58-.54-2.58.27-4.7-.67-6.72-1.57-2.19-.98-4.28-2.34-6.13-4.2-2.61-2.61-5.83-4.74-9.67-5.43-.23-.04-.66,0-.68-.07-.98-4.19-5.66-2.66-7.91-5.09-1.15-1.23-3.1-1.66-3.54-3.72-.29-1.34-1.57-2.09-2.41-3.1-.82-.99-1.42-1.94.1-2.96,1.15-.77.97-2.89,2.79-3.02,1.79-.13,3.51.17,5.3.62,2.96.74,5.82,1.93,8.64,2.88,3.04,1.02,6.05,1.9,9.17,2.68,4.6,1.15,8.97,3.26,13.56,4.48,1.98.53,3.32,1.84,4.98,2.7,3.83,1.98,7.81,3.63,11.6,5.64,2.18,1.16,4.32,2.95,5.88,5.1.31.43.04.91-.41,1.2-.26.24-.56.33-.91.28-.5-.11-.97-.29-1.43-.5-9.05-4.2-17.64-9.38-27.25-12.45,1.11,1.11,2.54,1.68,3.95,2.31,7.49,3.32,14.78,7.04,21.57,11.65,1.1.75,2.73,1.19,2.63,3.04Z"/>
      <path class="cls-35" d="M152.03,335.74c-6.32-.54-12.48.89-18.7,1.58-.3.03-.57.39-.86.59-.71.49-1.43.5-2.15.01-3.51,1.29-7.1.83-10.66.37-1.19-.15-2.41-.62-3.54-.27-1.6.5-2.95.73-4.23-.71-.98-1.11-1.81.04-2.42.6-1.27,1.15-2.59,2.2-4.23,2.64-1.62.44-3.22.34-4.91-.31-1.76-.68-3.64-.64-5.13,1.07-1.46,1.68-1.21,3.46.94,3.7,2.14.24,3.59,1.24,4.88,2.7.86.98,1.6.91,2.39.04,1.75-1.93,3.75-2.72,6.42-2,1.06.29,2.34-.28,3.52-.43,1.41-.18,2.77-.67,4.25-.26,1.21.34,2.33-.22,3.46-.71,3.67-1.6,6.96-1.68,10.47,1.06,2.02,1.57,5.23,1.5,7.8.54,2.95-1.1,5.3-.3,7.63,1.36-3.08,2.46-6.71,2.68-10.27,1.89-1.84-.41-3.68-.54-5.28-.12-2.14.56-4.19.34-6.29.39-1.32.03-2.6.05-3.9.5-4.22,1.45-8.67,1.6-13.04,1.56-2.54-.02-4.62.57-6.74,1.75-2.14,1.19-4.44,1.38-6.82.6-.98-.32-1.97-.75-2.26-1.64-.89-2.69-2.95-4.93-3.25-7.78-.3-2.78,1.82-5.36,5.07-6.67,1.91-.77,3.74-1.74,5.32-3.01,4.28-3.45,9.17-3.71,14.28-3,2.26.31,4.54.85,6.66-.37,1.03-.59,1.88-.14,2.75.12,1.05.31,2.17.94,3.14.46,3.37-1.68,6.72-.55,10.06-.11.9.12,1.63-.13,2.45-.33,1.06-.26,2.15-.36,3.12.34,3.01,2.16,6.43,3,10.08,3.1,0,.24,0,.48,0,.72Z"/>
      <path class="cls-25" d="M107.87,276.36c-7.46-5.74-15.8-9.93-24.34-13.78-1.75-.79-3.48-1.62-5.17-2.53-.67-.36-1.05-1.09-.67-1.84.42-.82,1.18-.62,1.87-.33,3.42,1.46,6.89,2.79,10.23,4.4,6.06,2.92,12.04,6,18.05,9.01.21.27.5.46.73.7.24.01.47.02.71.03,2.85,2.4,5.85,4.57,9.42,5.79.24.48.49.96.73,1.43-.5.37-.29.73,0,1.1.49.6.95,1.21,1.43,1.81-4.13-.67-7.54-2.97-11.07-4.99-.63-.36-1.19-.8-1.96-.82Z"/>
      <path class="cls-20" d="M121.62,282.88c1.88-.28,3.11.44,4.11,2.13,1.27,2.16,2.93,4.09,4.35,6.16,1.42,2.08,2.77,4.21,3.41,6.7,1.21,4.72,3.67,8.83,6.24,12.9,1.21,1.92,2.42,3.86,2.9,6.14-2-.6-3.11-2.37-3.94-3.91-1.6-2.99-3.89-5.69-4.48-9.2-.09-.57-.43-1.14-.79-1.61-2.55-3.28-4.04-7.23-6.49-10.52-2.08-2.79-3.35-5.98-5.31-8.79Z"/>
      <path class="cls-35" d="M152.04,335.01c.03-.82-.42-1.47-.73-2.17.72.05,1.52.13,1.72.93.17.66-.45.99-.99,1.24Z"/>
      <path class="cls-25" d="M120.89,282.16c.24.24.49.47.73.71-.24-.24-.49-.47-.73-.71Z"/>
      <path class="cls-35" d="M149.86,332.12c-.24-.24-.48-.48-.72-.72.24.24.48.48.72.72Z"/>
      <path class="cls-35" d="M150.59,332.84c-.24-.24-.48-.48-.72-.72.24.24.48.48.72.72Z"/>
      <path class="cls-1" d="M96.28,210.48c.88.74,1.75,1.5,2.64,2.23,1.21.98,1.87.27,2.4-.81,0-.23.01-.46,0-.7,1.45-4.59,2.9-9.18,4.35-13.78,0-.24.01-.48.02-.71.27-.21.46-.5.71-.73.25-1.89,1.52-3.35,2.17-5.07.01-.24.02-.47.02-.71.24-.24.47-.48.7-.73,2.13-3.58,3.25-7.7,5.99-11.37.69.97.52,1.7.29,2.47-.76,2.53-2.18,4.82-2.64,7.44-.44.39-.29,1.07-.72,1.46h0c-.45.38-.28,1.06-.72,1.45,0,.24-.02.47-.02.71-2.07,2.6-2.36,5.9-3.5,8.87-.42,1.1-.57,2.3-.84,3.45-1.53,4.2-3.73,8.21-3.64,12.87,0,.46-.12.95-.29,1.39-.16.42-.46.79-.71,1.21-2.84-1.96-6.31-2.12-9.11-3.89,0,0,0,0,0,0-.22-.26-.49-.48-.73-.72h0c-.68-.55-1.48-.92-2.17-1.46-2.06-2.82-4.82-4.96-7.15-7.51-1.61-1.76-3.58-3.18-4.77-5.31-.38-.68-1.09-.89-1.83-.94-1.16-2.12-3.41-2.99-5.2-4.34-2.38-1.8-5.05-3.19-7.82-4.35-.13-.02-.26-.03-.39-.05-.25-.1-.48-.22-.71-.36-.12-.07-.24-.14-.36-.2-.52-.27-1.04-.51-1.52-.85-2.81-1.48-4.58-4.23-7.21-5.93-.66-.48-1.25-1.03-1.82-1.61-.84-.96-1.83-1.84-1.75-3.3,1.72-1.59,2.89,0,4.01.84,4.18,3.18,8.16,6.64,12.71,9.32,4.54,2.67,9.03,5.4,13.09,8.76,3.39,2.81,6.69,5.73,10.03,8.59.23.25.46.48.72.71.24.01.48.03.72.05,1.05,2.11,3.27,2.56,5.07,3.6Z"/>
      <path class="cls-3" d="M117.3,174.45c0-1.21.56-2.02.97-2.89.8-1.73,1.82-3.35,2.08-5.34.15-1.17.9-2.22,1.85-3.03,3.84-3.25,6.6-7.58,10.6-10.68.45-.35.87-.91,1.01-1.44.4-1.56,1.06-2.18,2.83-1.72,1.18.31,1.72-1.02,2.38-1.87,1.32-1.68,1.4-1.7,2.87,0,.57.66,1.12,1.56,1.96,1.34,2.86-.75,2.84,1.94,3.79,3.21,1.03,1.37-.33,3.65-2.17,3.65-1.2,0-1.46.58-1.73,1.36-.18.54-.07,1.43-.91,1.18-1.9-.57-2.34.39-2.45,1.96-.07.94-.79,1.4-1.54,1.85-2.42,1.44-4.66,2.98-7.62,3.54-2.94.55-5.85,1.63-7.32,5.04-.8,1.85-3.22,2.78-4.43,4.62-.31.48-.8,1-1.47.82-.98-.26-.55-1.17-.7-1.62Z"/>
      <path class="cls-6" d="M112.21,189.47c.01-.6.15-1.14.72-1.46,0,.6-.13,1.14-.72,1.46Z"/>
      <path class="cls-6" d="M111.49,190.92c0-.6.14-1.13.72-1.45,0,.6-.14,1.13-.72,1.45Z"/>
      <path class="cls-12" d="M109.29,189.47c-.23.24-.47.49-.7.73l.7-.73Z"/>
      <path class="cls-15" d="M49.95,178.61c.73.96,1.46,1.92,2.19,2.88-3.44,1.22-6.26-.99-9.18-1.95-3.5-1.15-6.99-2.68-9.93-5.08-3.1-2.53-6.82-1.88-10.58-2.22,2.02,5.35,4.83,9.45,11.03,9.99,3.73.33,7.29,1.52,10.84,2.67,1.05.34,2.13.55,3.2.2,2.4-.78,4.8-1.34,7.17-.11-.93-.44-1.49-.94-1.12-2.08.53.21,1.18.29,1.58.65,2.16,1.92,4.26,3.91,6.38,5.88.37.46,1.05.34,1.44.75h0c.24.24.46.51.74.71,0,0,0,0,0,0-.07.57.13,1.22-.42,1.68-.92-.14-1.33-.96-1.96-1.48-.57-.48-1.18-1.03-1.91-.84-5.05,1.31-9.81-1.29-14.79-1.06-1.01.05-2.01-.74-2.62-1.74-.55-.9-1.34-.96-2.18-.5-.69.38-1.79.47-1.71,1.56.06.76.75,1.31,1.44,1.47,1.38.32,2.35,1.16,3.24,2.15.46.51,1.25.99.73,1.8-.53.82-1.47,1.74-2.37,1.11-1.88-1.32-3.7-1.49-5.77-.66-.36.14-1.02-.04-1.33-.31-1.3-1.17-2.58-2.19-4.5-1.42-.24.1-.75-.1-.96-.33-1.85-2.04-4.29-3.01-6.76-3.98-.6-.24-1.07-.96-1.47-1.54-2.24-3.31-3.41-7.01-3.73-10.96-.09-1.12-.21-2.12-1.05-2.96-1.07-1.06-1.56-2.19-1.28-3.86.29-1.71,1.52-2.08,2.51-3.04,2.73-2.67,5.22-1.94,8.15-.63,1.96.88,4.17,1.31,6.31,1.64,2.22.35,4,1.29,4.65,3.4.83,2.68,2.96,3.58,5.17,3.65,1.37.04,2.36.43,3.22,1.12,1.74,1.4,4.51,1.09,5.62,3.46Z"/>
      <path class="cls-34" d="M90.49,206.83c-.24-.24-.48-.47-.72-.71.24.24.48.47.72.71Z"/>
      <path class="cls-28" d="M131.05,261.9c0,.23,0,.47-.02.7-.44.38-.29,1.05-.72,1.44,0,0,0,0,0,0-.99.4-2.01.81-1.62-.99.1-.46.37-.89.61-1.3,3.1-5.15,4.97-10.82,7.29-16.31,1.56-3.7,3.36-7.77,7.31-9.99.98-.55,1.45-1.51,1.75-2.62.31-1.16.91-2.26,1.89-3.01,2.65-2.05,5.43-3.92,7.93-6.17.98-.88,2.25-1.13,2.43.92.04.49.37.87.89,1.02,1.53.45,1.47,1.51,1.76,2.94.54,2.62.12,4.77-1.05,6.99-.21.39-.27.98-.14,1.4.55,1.94-.27,3.44-1.24,5.03-1.91,3.15-3.79,6.17-7.25,8.03-1.57.85-3.07,2.22-4.32,3.56-3.3,3.58-7.95,5.36-11.29,8.84-.69.71-1.25.59-1.34-.51,0,0,0,0,0,0,.46-.37.31-1.05.72-1.45h0c.45-.38.33-1.04.72-1.45h0c.71-.56.08-1.58.74-2.17-.02-.58-.12-1.12-.7-1.43-.24.25-.52.45-.74.72h0c-.26.23-.48.49-.72.74,0,.23-.01.47-.03.7-.24.24-.47.48-.7.73h0c-.45.38-.31,1.05-.73,1.44h0c-.26.23-.48.5-.71.76,0,.23,0,.46-.03.69-.26.22-.46.51-.7.75Z"/>
      <path class="cls-18" d="M124.52,277.08c-.24-.24-.47-.48-.71-.72.24.24.47.48.71.72Z"/>
      <path class="cls-18" d="M125.23,277.08c-.23.43-.47.42-.71,0,.24,0,.47,0,.71,0Z"/>
      <path class="cls-28" d="M50.66,111.29c-7.08-2.94-13.97-6.26-20.74-10.58-.03,1.67,1.58,2.17,1.89,3.33-1.23.83-2.29.14-2.73-.79-1.87-4.03-6.08-4.61-9.43-6.08-2.65-1.16-5.11-2.57-7.66-3.86-.63-.32-1.32-.74-1.95-.05-.44.49-.3,1.13-.21,1.72,1,6.08,4.51,9.88,10.42,11.26,1.06.25,2.11.6,3.01,1.17,4.55,2.93,9.88,1.18,14.69,2.48.4.11.76-.52,1.13-.83,3.72,1.35,7.33,2.88,10.15,5.8-.93,1.23-1.92.34-2.93.14-1.38-.27-2.63-.25-3.07,1.56-.42,1.73-1.78,1.99-3.38,1.97-2.53-.04-5.22.68-7.54,0-3.11-.89-6.04.38-9.09-.28-4.71-1.03-8.41-3.91-12.48-6.1-.92-.5-1.54-1.52-2.71-1.69-.33-.05-.83-.3-.89-.54-.85-3.67-4.02-6.86-2.41-11.03.49-1.25.02-2.41-.17-3.53-.4-2.37.07-4.22,2.06-5.69.96-.71,1.74-1.67,2.6-2.51,1.85-1.78,5.71-1.91,6.79.32,1.18,2.42,3.4,2.5,5.18,3.31,2.07.95,3.97,1.83,5.71,3.41,1.7,1.55,4.24,1.98,6.13,3.48,1.03.81,2.31,1.28,3.03,2.48.66,1.09,2.01,1.8,2.91,1.82,2.43.04,3.9,1.52,5.53,2.81,2.02,1.59,4.78,2.36,5.75,5.13.16.45.26.91.39,1.37Z"/>
      <path class="cls-26" d="M56.46,114.89c-.24-.24-.49-.47-.73-.71.24.24.49.47.73.71Z"/>
      <path class="cls-9" d="M57.17,119.97c.24.24.49.48.73.72-.24-.24-.49-.48-.73-.72Z"/>
      <path class="cls-4" d="M59.36,47.57c0,1.68,0,3.36,0,5.04-.76.64-1.17.01-1.29-.52-.8-3.49-2.26-6.79-2.44-10.49-.18-3.56-1.08-7.09-1.69-10.63-1.09-6.29-1.79-12.59-.38-18.94.16-.71.18-1.54,1.07-1.62.7-.07.96.64,1.2,1.18,1.33,3.03,3.58,5.48,5.32,8.24.44.7.33,1.36.35,2.04.05,1.57.03,3.13.03,4.7.17,4.41-.57,8.72-1.46,13.01-1.02,2.59.24,5.38-.72,7.98Z"/>
      <path class="cls-34" d="M63.69,75.06c-.48-.48-.96-.96-1.44-1.44.24-1.78-.91-2.97-1.95-4.09-1.42-1.55-1.85-3.43-2.6-5.29-1.57-3.87-2.35-8.03-4.18-11.7-1.06-2.13-1.34-4.19-1.83-6.35-.78-3.47,0-7.35-2.75-10.32-.7-.76-.4-1.84-.45-2.79-.22-4.02-.81-8.03-1.09-12.02-.33-4.74-.69-9.81,2.54-14.05-1.01,2.65.32,5.68-1.33,8.22.88,2.32.23,4.81.7,7.13,1.09,5.4.89,10.99,2.23,16.28.78,3.05,1.2,6.01,1.41,9.1.13,1.89,2.08,3.11,2.78,4.88,1.68,2.18,1.68,5.02,2.89,7.38.32.62.32,1.5.78,1.92.61.56.55-.27.68-.62,1.07,3.35,2.29,6.65,2.89,10.14.24.24.46.5.7.74,0,.96.01,1.92.02,2.88Z"/>
      <path class="cls-5" d="M93.37,94.6c0-.24,0-.47.02-.71.46-.38.28-1.07.7-1.47-.07-1.57.72-2.92,1.11-4.37.33-1.24.78-2.49-.37-3.57-.22.26-.5.46-.73.72h0c-.24.25-.49.49-.71.75,0,.23,0,.46-.03.69-.54-.4-.86-1-.53-1.56,1.35-2.26,2.01-4.89,3.69-6.97,1.9-2.36,3.62-4.85,4.33-7.84.53-2.23,2.33-3.26,3.91-4.49,1.4-1.09,3.3-1.74,1.43-4.16-.87-1.12.72-2.85,2.02-2.19,2.19,1.11,4.21,1.2,6.59.57,2.56-.68,4.76,1.73,3.96,4.31-.35,1.14-.28,1.98-.14,3.04.34,2.57-.29,4.87-1.73,7.16-1.38,2.18-2.53,4.52-3.9,6.74-1.91,3.11-4.73,5.22-7.69,6.91-4.59,2.62-8.72,5.53-11.39,10.21-.19.33-.82.4-1.25.59-.51-.72-.48-1.45,0-2.18h0c.69-.58.08-1.59.72-2.18Z"/>
      <path class="cls-5" d="M113.29,57.21c-.97-.09-1.03-.43-.98-.78.09-.53.46-.81.99-.8.38,0,.7.21.52.65-.18.43-.46.81-.53.93Z"/>
      <path class="cls-32" d="M90.48,104.03c.01-.8-.11-1.65.72-2.18-.01.8.13,1.65-.72,2.18Z"/>
      <path class="cls-32" d="M91.2,101.86c.01-.81-.1-1.65.72-2.19,0,.81.14,1.66-.72,2.19Z"/>
      <path class="cls-32" d="M92.65,96.79c0,.73,0,1.45,0,2.18h-.73c.01-.8-.11-1.65.72-2.18Z"/>
      <path class="cls-30" d="M83.23,114.89c0,.6-.13,1.14-.7,1.46,0-.6.13-1.14.7-1.46Z"/>
      <path class="cls-30" d="M82.5,117.79c0,.6-.13,1.13-.7,1.45.01-.59.14-1.12.7-1.45Z"/>
      <path class="cls-27" d="M165.77,315.46c-2.58-1.35-.94-3.68-1.07-5.5-.08-1.22.53-2.54.04-3.85-.04-.11-.15-.29-.11-.33,2.27-2.47-.11-5.67,1.41-8.41,1.29-2.31,1.56-5.17,2.75-7.56,1.37-2.76,2.94-5.47,5.29-7.62,1.56-1.43,3.53-1.37,5.39-1.75.53-.11.99.07,1.29.45,2.01,2.53,4.15,5.01,4.55,8.4.14,1.19-.15,2.44.06,3.61.8,4.45-1.06,8.44-3.74,11.24-2.37,2.48-2.89,5.98-5.6,8.02-.63.47-.78,1.19-.43,1.95.31.68.4,1.41.17,2.12-.19.58-.53,1.11-1.26,1.04-.64-.06-.69-.62-.72-1.08-.06-.96-.03-1.93-.04-2.89-.03-.16-.06-.33-.09-.49-.18-1.32-.04-2.66-.12-3.99-.03-2.76.18-5.54-.14-8.29-.11-.94-.25-2.69-1.8-.8-1.35,4.19-2.2,8.51-3.77,12.62-.45,1.19-.57,2.61-2.06,3.12Z"/>
      <path class="cls-8" d="M165.77,315.46c2.07-5.44,3.39-11.1,5.09-16.65,2.52.15,2.76,1.9,2.56,3.81-.45,4.33-1.4,8.67-3.1,12.57-2.03,4.67-1.6,9.14-.77,13.76.31,1.7.46,3.31.06,4.99-.87,3.64-.52,7.15,1.23,10.49.01.24.03.48.04.72.24.24.44.52.69.75,0,.23,0,.47.02.7-2.63,1.81-5.24,1.81-7.91.05-3.14-2.06-6.49-3.51-10.27-4.12-4.5-.73-8.68-2.74-13.24-3.47-2.18-.35-4.31-.27-6.45-.44-1.16-.09-2.45.4-3.39-.71.72,0,1.43,0,2.15-.01,10.14-.26,20.02,1.43,29.83,3.76,2.63.62,2.65.58,2.74-1.97.04-1.08,0-2.17,0-3.25,0-5.79,0-11.58,0-17.37,0-.48.01-.96.02-1.43.45-.38.27-1.06.7-1.46,0-.24,0-.49,0-.73Z"/>
      <path class="cls-11" d="M170.84,344.43c-2.9-2.35-2.94-5.77-2.57-8.86.32-2.63.75-4.99-.03-7.67-.72-2.47-.6-5.21-.64-7.83-.02-1.03.32-2.18.84-3.09,2.62-4.65,2.81-10,4.3-14.97.38-1.28-.56-2.52-1.87-3.19,1.76-2.03,1.97-2.02,3.08-.12.52.89.54,1.8.54,2.75,0,2.5,0,5-.01,7.5-.93,1.34.19,3.01-.72,4.35,0,0,0,0,0,0-.22.4-.65.81-.64,1.21.08,4.65-1.22,9.21-.83,13.87.16,1.9.06,3.82-.67,5.63-1.36,3.4-1.58,6.87-.78,10.42Z"/>
      <path class="cls-36" d="M165.77,316.19c0,.6-.14,1.13-.7,1.46,0-.59.13-1.13.7-1.46Z"/>
      <path class="cls-17" d="M171.57,345.9c-.23-.25-.46-.5-.69-.75.23.25.46.5.69.75Z"/>
      <path class="cls-25" d="M121.64,279.26c.42.32,1.31.41.78,1.21-.18.27-.61-.14-.79-.48,0-.24,0-.49.01-.73Z"/>
      <path class="cls-30" d="M120.18,279.25c.24-.41.48-.39.72,0-.24.23-.48.22-.73,0v-.02Z"/>
      <path class="cls-25" d="M120.17,279.27c.24,0,.48,0,.73,0,0,.24,0,.48,0,.72-.24-.24-.49-.48-.73-.72Z"/>
      <path class="cls-3" d="M39.08,109.07c.24.76.96,1.5.09,2.29-.75.68-1.21-.11-1.85-.29-2.24-.64-4.44-1.72-6.91-.69-1.27.53-2.53-.16-3.81-.58-3.14-1.03-5.93-2.83-9.48-3.09-2.71-.2-4.81-2.9-5.72-5.39-.52-1.41-.99-2.8-1.76-4.12-.42-.71-.81-1.52-.9-2.32-.14-1.15-.44-2.5.69-3.35,1.24-.94,1.92.49,2.8.92,1.29.63,2.46,1.48,3.71,2.18.98.55,1.77,1.76,3.21.99.24-.13.81-.04.99.16,2.08,2.22,5.04,2.67,7.62,3.88.77.36,1.05.85,1.18,1.61.28,1.6,1.21,2.56,2.86,2.77,2.42,1.68,4.85,3.35,7.27,5.03Z"/>
      <path class="cls-32" d="M93.37,94.6c0,.81.13,1.66-.72,2.19.01-.8-.1-1.65.72-2.19Z"/>
      <path class="cls-32" d="M94.09,92.43c0,.6-.12,1.15-.7,1.47,0-.6.14-1.14.7-1.47Z"/>
      <path class="cls-28" d="M94.1,85.2c.24-.24.49-.48.73-.72-.24.24-.49.48-.73.72Z"/>
      <path class="cls-28" d="M93.39,85.95c.24-.25.47-.5.71-.75-.24.25-.47.5-.71.75Z"/>
      <path class="cls-13" d="M59.36,47.57c.34-2.65-.8-5.43.72-7.98-.35,2.65.73,5.43-.72,7.98Z"/>
      <path class="cls-22" d="M63.67,72.18c-.23-.25-.47-.49-.7-.74.23.25.47.49.7.74Z"/>
      <path class="cls-20" d="M90.49,213.36c1.04.02,1.76.5,2.17,1.46-1.04,0-1.77-.49-2.17-1.46Z"/>
      <path class="cls-20" d="M92.66,214.82c.24.24.49.48.73.72-.24-.24-.49-.48-.73-.72Z"/>
      <path class="cls-36" d="M136.1,256.81c-.01.8.13,1.66-.74,2.17.02-.8-.08-1.64.74-2.17Z"/>
      <path class="cls-36" d="M132.48,259.71c.01-.6.15-1.14.73-1.45-.02.6-.16,1.13-.73,1.45Z"/>
      <path class="cls-36" d="M135.37,258.97c0,.6-.13,1.14-.72,1.46.01-.6.15-1.13.72-1.46Z"/>
      <path class="cls-36" d="M134.65,260.43c0,.6-.14,1.14-.72,1.45,0-.6.15-1.13.72-1.45Z"/>
      <path class="cls-36" d="M130.31,264.05c.02-.59.15-1.12.72-1.44,0,.6-.14,1.13-.72,1.44Z"/>
      <path class="cls-36" d="M134.66,256.09c.25-.24.49-.48.74-.72-.25.24-.49.48-.74.72Z"/>
      <path class="cls-36" d="M133.94,256.84c.24-.25.48-.5.72-.75-.24.25-.48.5-.72.75Z"/>
      <path class="cls-36" d="M133.21,258.27c.23-.24.47-.49.7-.73-.23.24-.47.49-.7.73Z"/>
      <path class="cls-36" d="M131.78,260.47c.24-.25.47-.5.71-.76-.24.25-.47.5-.71.76Z"/>
      <path class="cls-36" d="M131.05,261.9c.23-.25.47-.5.7-.75-.23.25-.47.5-.7.75Z"/>
      <path class="cls-31" d="M113.68,153.28c.09.05.27.12.27.16-.04.23-.15.17-.28-.15h0Z"/>
      <path class="cls-18" d="M106.4,195.98l-.71.73.71-.73Z"/>
      <path class="cls-21" d="M96.29,203.94c-.66-1.56-1.93-2.97-1.27-4.88,1.58,1.33,1.92,2.97,1.27,4.88Z"/>
      <path class="cls-30" d="M108.59,272c-.24-.23-.49-.47-.73-.7.24.23.49.47.73.7Z"/>
      <path class="cls-7" d="M53.57,182.91c.57.87,1.15,1.73,2.06,3.11-3.1-1.05-5.61-1.24-8.1.2-.68.39-1.94.17-2.77-.17-4.77-1.94-9.86-2.55-14.81-3.73-2.7-.64-4.58-2.02-5.7-4.46-1.04-2.28-2.6-4.26-3.79-6.29.57-1.17,1.28-.77,1.95-.58,1.26.37,2.59.92,3.85.56,2.91-.82,5.26.53,7.32,2.05,3.92,2.88,8.2,4.94,12.86,6.04,1.99.47,3.56,2.06,5.71,1.85.66.29,1.14.75,1.43,1.42Z"/>
      <path class="cls-13" d="M62.97,190.2c-.6-.02-1.14-.15-1.44-.75.59.03,1.13.18,1.44.75Z"/>
      <path class="cls-13" d="M63.71,190.91c-.25-.24-.49-.48-.74-.71.25.24.49.48.74.71Z"/>
      <path class="cls-16" d="M173.75,313.29c.22-1.45-.56-3.07.72-4.35-.21,1.46.59,3.08-.72,4.35Z"/>
    </g>
  </g>
</svg>