<?xml version="1.0" encoding="UTF-8"?>
<svg id="Layer_2" data-name="Layer 2" xmlns="http://www.w3.org/2000/svg" viewBox="0 0 123.51 360.83">
  <defs>
    <style>
      .cls-1 {
        fill: #6b7f72;
      }

      .cls-2 {
        fill: #91a899;
      }

      .cls-3 {
        fill: #91a197;
      }

      .cls-4 {
        fill: #87a291;
      }

      .cls-5 {
        fill: #516d5c;
      }

      .cls-6 {
        fill: #53715f;
      }

      .cls-7 {
        fill: #a7b9ad;
      }

      .cls-8 {
        fill: #a5b6ab;
      }

      .cls-9 {
        fill: #819e8b;
      }

      .cls-10 {
        fill: #819c8b;
      }

      .cls-11 {
        fill: #6e8e79;
      }

      .cls-12 {
        fill: #375a44;
      }

      .cls-13 {
        fill: #93aa9c;
      }

      .cls-14 {
        fill: #8da796;
      }

      .cls-15 {
        fill: #536f5e;
      }

      .cls-16 {
        fill: #779481;
      }

      .cls-17 {
        fill: #84968b;
      }

      .cls-18 {
        fill: #8f9f95;
      }

      .cls-19 {
        fill: #94a399;
      }

      .cls-20 {
        fill: #8c9990;
      }

      .cls-21 {
        fill: #526e5c;
      }

      .cls-22 {
        fill: #688071;
      }

      .cls-23 {
        fill: #9eada3;
      }

      .cls-24 {
        fill: #7b8981;
      }

      .cls-25 {
        fill: #75897d;
      }

      .cls-26 {
        fill: #567d64;
      }

      .cls-27 {
        fill: #8d9c92;
      }

      .cls-28 {
        fill: #94a49a;
      }

      .cls-29 {
        fill: #6d8d79;
      }

      .cls-30 {
        fill: #73877a;
      }

      .cls-31 {
        fill: #687e70;
      }

      .cls-32 {
        fill: #8ea897;
      }

      .cls-33 {
        fill: #849e8e;
      }

      .cls-34 {
        fill: #a6bcaf;
      }

      .cls-35 {
        fill: #3e604b;
      }

      .cls-36 {
        fill: #738479;
      }

      .cls-37 {
        fill: #7e9b88;
      }

      .cls-38 {
        fill: #6a7f72;
      }

      .cls-39 {
        fill: #4f6e5b;
      }

      .cls-40 {
        fill: #9caaa1;
      }

      .cls-41 {
        fill: #7a9884;
      }

      .cls-42 {
        fill: #476652;
      }

      .cls-43 {
        fill: #30553e;
      }

      .cls-44 {
        fill: #5f826d;
      }

      .cls-45 {
        fill: #3b5d47;
      }

      .cls-46 {
        fill: #8e9e94;
      }

      .cls-47 {
        fill: #74867b;
      }

      .cls-48 {
        fill: #6b8b77;
      }

      .cls-49 {
        fill: #778a7e;
      }

      .cls-50 {
        fill: #60836d;
      }

      .cls-51 {
        fill: #6c8877;
      }

      .cls-52 {
        fill: #7c8f83;
      }

      .cls-53 {
        fill: #a9b7ae;
      }

      .cls-54 {
        fill: #a0b7a8;
      }

      .cls-55 {
        fill: #4e6b59;
      }

      .cls-56 {
        fill: #2a5039;
      }

      .cls-57 {
        fill: #6c8174;
      }

      .cls-58 {
        fill: #496755;
      }

      .cls-59 {
        fill: #85978c;
      }

      .cls-60 {
        fill: #4f6c5a;
      }

      .cls-61 {
        fill: #4b6e58;
      }

      .cls-62 {
        fill: #a2aea6;
      }

      .cls-63 {
        fill: #829f8d;
      }

      .cls-64 {
        fill: #6f7d74;
      }

      .cls-65 {
        fill: #88978d;
      }

      .cls-66 {
        fill: #87a090;
      }

      .cls-67 {
        fill: #98afa0;
      }

      .cls-68 {
        fill: #b4c3b9;
      }

      .cls-69 {
        fill: #c5d1ca;
      }

      .cls-70 {
        fill: #5e816c;
      }

      .cls-71 {
        fill: #769581;
      }

      .cls-72 {
        fill: #98b1a0;
      }

      .cls-73 {
        fill: #afbfb5;
      }

      .cls-74 {
        fill: #789682;
      }

      .cls-75 {
        fill: #b5c6bb;
      }

      .cls-76 {
        fill: #798c80;
      }

      .cls-77 {
        fill: #a7bbaf;
      }

      .cls-78 {
        fill: #2c513a;
      }

      .cls-79 {
        fill: #627e6d;
      }

      .cls-80 {
        fill: #aec0b5;
      }

      .cls-81 {
        fill: #8ca695;
      }

      .cls-82 {
        fill: #a0aea5;
      }

      .cls-83 {
        fill: #829589;
      }

      .cls-84 {
        fill: #486653;
      }

      .cls-85 {
        fill: #42634f;
      }

      .cls-86 {
        fill: #819d8c;
      }

      .cls-87 {
        fill: #2a5139;
      }

      .cls-88 {
        fill: #a2b1a7;
      }

      .cls-89 {
        fill: #345941;
      }

      .cls-90 {
        fill: #acb8b1;
      }

      .cls-91 {
        fill: #607b6b;
      }

      .cls-92 {
        fill: #70907c;
      }

      .cls-93 {
        fill: #84978b;
      }

      .cls-94 {
        fill: #b4c0b9;
      }

      .cls-95 {
        fill: #7b9985;
      }

      .cls-96 {
        fill: #829388;
      }

      .cls-97 {
        fill: #849e8d;
      }

      .cls-98 {
        fill: #9fada3;
      }

      .cls-99 {
        fill: #688974;
      }

      .cls-100 {
        fill: #99b0a1;
      }

      .cls-101 {
        fill: #90a999;
      }

      .cls-102 {
        fill: #63796b;
      }

      .cls-103 {
        fill: #567d65;
      }

      .cls-104 {
        fill: #a3b0a7;
      }

      .cls-105 {
        fill: #8f9e95;
      }

      .cls-106 {
        fill: #436350;
      }

      .cls-107 {
        fill: #577161;
      }

      .cls-108 {
        fill: #395b46;
      }

      .cls-109 {
        fill: #a1b8aa;
      }

      .cls-110 {
        fill: #99afa1;
      }

      .cls-111 {
        fill: #aabbb0;
      }

      .cls-112 {
        fill: #779582;
      }

      .cls-113 {
        fill: #acbeb3;
      }

      .cls-114 {
        fill: #b3c5b9;
      }

      .cls-115 {
        fill: #b0c2b7;
      }

      .cls-116 {
        fill: #385b44;
      }

      .cls-117 {
        fill: #6d8676;
      }

      .cls-118 {
        fill: #9faea4;
      }

      .cls-119 {
        fill: #a3b1a8;
      }

      .cls-120 {
        fill: #31553e;
      }

      .cls-121 {
        fill: #8ca696;
      }

      .cls-122 {
        fill: #325740;
      }

      .cls-123 {
        fill: #8d9d93;
      }

      .cls-124 {
        fill: #829489;
      }

      .cls-125 {
        fill: #657c6e;
      }

      .cls-126 {
        fill: #597764;
      }

      .cls-127 {
        fill: #829d8c;
      }

      .cls-128 {
        fill: #a4b2a9;
      }

      .cls-129 {
        fill: #5d7867;
      }

      .cls-130 {
        fill: #bacabf;
      }

      .cls-131 {
        fill: #8f9e94;
      }

      .cls-132 {
        fill: #385b45;
      }

      .cls-133 {
        fill: #5e7768;
      }

      .cls-134 {
        fill: #295038;
      }

      .cls-135 {
        fill: #2b5139;
      }

      .cls-136 {
        fill: #9eb5a6;
      }

      .cls-137 {
        fill: #788d80;
      }

      .cls-138 {
        fill: #365a43;
      }

      .cls-139 {
        fill: #5c7565;
      }

      .cls-140 {
        fill: #708477;
      }

      .cls-141 {
        fill: #98a79d;
      }

      .cls-142 {
        fill: #9eaaa2;
      }

      .cls-143 {
        fill: #a2b9ab;
      }

      .cls-144 {
        fill: #294f38;
      }

      .cls-145 {
        fill: #5f7b6a;
      }

      .cls-146 {
        fill: #abb8b0;
      }

      .cls-147 {
        fill: #9eb6a6;
      }

      .cls-148 {
        fill: #97a59c;
      }

      .cls-149 {
        fill: #8c9c92;
      }

      .cls-150 {
        fill: #708578;
      }

      .cls-151 {
        fill: #92ab9b;
      }

      .cls-152 {
        fill: #759480;
      }

      .cls-153 {
        fill: #73877b;
      }

      .cls-154 {
        fill: #87a190;
      }

      .cls-155 {
        fill: #94ac9c;
      }

      .cls-156 {
        fill: #93a79a;
      }

      .cls-157 {
        fill: #526f5d;
      }

      .cls-158 {
        fill: #6b8474;
      }

      .cls-159 {
        fill: #8fa998;
      }

      .cls-160 {
        fill: #375b44;
      }

      .cls-161 {
        fill: #9ab1a2;
      }

      .cls-162 {
        fill: #9aa69f;
      }

      .cls-163 {
        fill: #7d8d83;
      }

      .cls-164 {
        fill: #a0b4a7;
      }

      .cls-165 {
        fill: #acbfb3;
      }

      .cls-166 {
        fill: #7f8e84;
      }

      .cls-167 {
        fill: #40614d;
      }

      .cls-168 {
        fill: #a9b6ae;
      }

      .cls-169 {
        fill: #95a49a;
      }

      .cls-170 {
        fill: #bec6c1;
      }

      .cls-171 {
        fill: #a8bcaf;
      }

      .cls-172 {
        fill: #99a89f;
      }

      .cls-173 {
        fill: #9ba9a0;
      }

      .cls-174 {
        fill: #768a7d;
      }

      .cls-175 {
        fill: #91a097;
      }

      .cls-176 {
        fill: #6b8173;
      }

      .cls-177 {
        fill: #466552;
      }

      .cls-178 {
        fill: #788c80;
      }

      .cls-179 {
        fill: #899a8f;
      }

      .cls-180 {
        fill: #567060;
      }

      .cls-181 {
        fill: #a9bbb0;
      }

      .cls-182 {
        fill: #778b7e;
      }

      .cls-183 {
        fill: #7f9787;
      }

      .cls-184 {
        fill: #758a7d;
      }
    </style>
  </defs>
  <g id="Layer_1-2" data-name="Layer 1">
    <g>
      <path class="cls-83" d="M112.74,355.81c1.68,2.08-.23,3.44-1.01,5.02l-5.06-.29c-.03-.24-.04-.47-.01-.71.67-.75,1.51-.59,2.3-.42-1.86-1.14-2.17-3.24-2.17-5.01,0-2.1,1.85-1.11,3.05-.98,1.31.38,2.02,1.48,2.9,2.39Z"/>
      <path class="cls-25" d="M99.96,249.19c-.05-.72-.09-1.43-.14-2.15,2.93-1.75,4.27.82,6.03,2.24-1.42,1.85-2.42,3.87-2.31,6.28.18,3.8-2.21,6.81-3.21,10.25-2.31,8-3.64,16.22-4.4,24.41-.65,6.96-.29,14.15,1.39,21.11.9,3.74,1.54,7.52,1.94,11.34-1.76,2.87-2.35.15-3.33-.7-.16-.27-.29-.56-.41-.85-.17-.41-.33-.82-.52-1.22-.16-.24-.3-.49-.45-.74-.17-.25-.3-.51-.42-.78-.11-.29-.18-.6-.23-.91-.22-1.05.07-2.25-.91-3.07-.4-.26-.65-.62-.71-1.1.04-.3.16-.57.35-.81-2.06-8.84-2.6-17.78-1.14-26.74.82-5.06,2.46-10,3.2-15.07.93-6.45,3.68-12.33,5.13-18.6.6-.93.66-1.9.17-2.89Z"/>
      <path class="cls-85" d="M92.61,312.49c.06.23.07.46.04.7-1.23.21-.48.81-.26,1.31.13.41.19.83.26,1.25.08.27.14.54.22.8.1.25.19.51.28.76.18.49.27,1,.32,1.51.39.29-.25-.05.2.14.04.02.05,0,.04-.03-.03-.14-.07-.21-.11-.22.26-.32.54-.53.94-.2h0c.2.27.46.5.66.78h0c.42.41.25,1.06.63,1.49h0c1.31,3.07,2.64,6.1,4.36,8.99,1.28,2.15,3.71,3.89,2.69,7.24-.33,1.1,1.47,2.85,2.48,4.2.86,1.15,1.8,2.26,1.9,3.79-.18,1.4-1.14,1.71-2.35,1.66-.91-.11-1.71-.51-2.49-.95-1.55-.85-2.63-2.13-3.48-3.65-.17-.28-.31-.57-.43-.88-.28-1.08-.78-2.06-1.5-2.92-2.98-5.22-5.32-10.78-8.69-15.78-.93-2.21-2.46-4.11-3.13-6.44-.79-2-.18-3.97-.11-5.96.09-2.62-.75-5.65-2.43-8.1-.28-1.04-.45-2.09-.51-3.16-.83-3.62-1.27-7.32-2.69-10.8-.44-1.08-.92-2.58.64-3.08,1.71-.55,2.21.91,2.55,2.26,1.15,4.65,2.44,9.26,4.22,13.72.18.44.25.92.75,1.14,1.27,2.18,1.35,4.77,2.37,7.04.6,1.35.73,3.07,2.63,3.42Z"/>
      <path class="cls-50" d="M97.96,105.47c-2.14.93-3.83.35-5.13-1.52.31-.64.13-.94-.6-.86-1.48-.16-2.6-.67-2.39-2.46-.44-2.37-2.44-4-2.97-6.33-1.33-9.57,2.2-13.9,11.28-12.96,3.68.91,6.38,3.18,8.57,6.17,2.24,2.67,2.93,5.77,2.57,9.17-.38,2.31-2.14,3.59-3.73,4.99-2.57,1.19-5.09,2.49-7.6,3.8Z"/>
      <path class="cls-152" d="M40.78,50.24c-.23,0-.42-.1-.57-.28-.44-.61-1.08-.63-1.74-.6-3.22.02-5.9-1.04-7.76-3.79-.71-1.44-2.02-2.36-3.02-3.54-2.56-3.06-4.83-6.31-4.55-10.63.5-3.06,3.43-3.76,5.37-5.37,1.18-.97,2.85-1.44,3.91-2.56,2.41-2.54,4.54-2.2,6.69.25.32.36.79.55,1.21.77,2.78,1.46,3.57,4.27,4.64,6.89l.12-.15c.11.34.07.68-.09.99-1.83,1.12-3.68.65-5.01-.6-1.76-1.67-3.26-1.44-5.11-.37-1.04.6-2.11,1.15-3.1,1.84-1.35.94-3.41,1.5-3.08,3.58.37,2.33,2.6,3.53,4.47,3.64,2.97.18,4.38,1.73,5.29,4.09.62,1.6,2.43,1.94,3.16,3.36.17.98.12,1.88-.84,2.48Z"/>
      <path class="cls-130" d="M39.52,50c-4.59,3.85-9.91,3.25-14.72-.08-1.3-.9-3.44.14-3.85-1.85-.32-1.53-1.46-2.43-2.22-3.6-.44-.68-1.18-1.18-1.78-1.76-.42-.41-1.16-.79-.97-1.41.74-2.29-.59-4.49-.18-6.75.18-.95.37-1.89-.03-2.83-.14-.33-.43-.84-.31-.99,1.72-2.17,2.07-5.23,3.98-7.11,3.28-3.24,7.52-4.89,12.11-5.46,1.82-.23,3.1,1.06,4.5,1.94-.27,1.82-1.73,1.35-2.76,1.26-1.95-.18-3.75.23-5.54.87-1.8.58-3.06,1.75-3.8,3.48-.91,2.37-2.5,4.37-3.49,6.71-3.31,7.83,1.86,13.45,7.84,15.59,2.53.9,5.54,1.68,8.46.78.94-.05,1.87-.07,2.77.24.33.32.33.65,0,.97Z"/>
      <path class="cls-6" d="M60.79,220.97c-.67-1-1.34-1.99-2-2.99,1.38-3.17,1.79-6.32-.21-9.42-1.44-2.46-1.17-5.29-1.6-7.95-.84-5.15-1.75-10.29-1.98-15.52-1.59-1.37-3.25-.97-4.92-.19-1.36,1.16-1.65-.28-2.27-.94-1.63-1.35-4.4-1.77-3.94-4.83,1.3-.76,2.25.03,3.28.68,4.04,2.56,10.15,1.23,12.86-2.77.63-.61,1.06-1.68,2.25-.96.78,2.68-.51,4.46-2.55,5.91-1.45.53-2.97.75-2.27,3.14,2.08,7.04,2.58,14.43,4.87,21.46,1.56,4.79,3.9,9.3,4.88,14.28-.24.89-.67,1.63-1.58,1.99-1.86,0-3.13-1.49-4.83-1.89Z"/>
      <path class="cls-39" d="M51.1,139.09c-.39-.61-.57-1.26-.55-2.01.13-5.11-.09-10.18-1.22-15.2-.18-.79-.02-1.66-.01-2.49.13-3.07.8-6.17-.59-9.14-.21-.26-.41-.53-.6-.8-.37-.58-.6-1.21-.69-1.9,0-.36.07-.7.2-1.04.33-.69.78-1.25,1.54-1.5,2.65-.45,4.1.65,4.33,3.34-.01.37-.08.74-.2,1.09-1.19,2.16-.93,4.58-.36,6.67,1.85,6.81.98,13.82,1.97,20.69.51,3.52,1.58,7.03.88,10.67.37-1.92,1.36-3.48,2.59-4.92.3-.26.65-.34,1.03-.23,1.82,2.61.87,5.4.02,7.87-.71,2.07-2.93,1.59-4.73,1.09-2.96-2.33-3.04-5.81-3.62-9.1-.33-1.04.83-2.07.01-3.11Z"/>
      <path class="cls-18" d="M102.76,264.76c-.81,4.83-1.41,9.71-2.49,14.48-2.25,9.93-2.9,19.83-.74,29.88,1.36,6.32,2.26,12.73,3.36,19.1-.07.38.22.65.33.97.07.67.15,1.35.22,2.02-.3,1.54-1.06.89-1.58.24-1.14-1.41-1.72-3.11-2.16-4.85-.54-6.43-2.32-12.66-3.22-19.02-1.34-9.49-1.3-18.89.81-28.41,1.4-6.3,2.1-12.73,4.64-18.74.23-.55.61-1.03.76-1.63.13-.52.56-.92,1.01-.59.55.4.33,1.07.09,1.64-.09.39-.17.78-.26,1.17-.76,1.14-.07,2.59-.79,3.74Z"/>
      <path class="cls-153" d="M71.64,209.85c1.12-4.73,3.27-9.03,5.79-13.14,2.9-4.73,5.2-9.71,6.88-15.02,1.08-3.42,2.63-6.7,4.07-10,1.31-3,1.37-2.97-1.2-5.12.03-.14.06-.29.09-.43.1-.46.33-.84.7-1.14.31-.08.61-.05.9.09.85.71,1.59,1.53,2.39,2.29,2.01,2.91,6.04,3.04,8.11,5.87-1.34,2.43-3.3,1.37-5.01.74-1.32-.48-2.23-.74-2.88.83-4.44,10.82-11.17,20.43-16.21,30.92-1.59,3.31-2.59,6.9-2.58,10.66.09,1.79-.82,3.39-1,5.13-1.47,1.77-2.35.08-3.41-.58-.24-.27-.42-.57-.56-.89-.3-1.06-.28-2.09.4-3.02.09-.9,1.38,1.34,1.18-.46-.17-1.53.34-3,.55-4.5.5-.82,1.45-1.28,1.79-2.23Z"/>
      <path class="cls-81" d="M103.9,27.42c3.94,3.58,5.15,8.34,5.62,13.36.14,1.51-.92,2.68-1.84,3.76-1,1.17-2.1,2.25-3.16,3.36-2.58-.03-4.92,3.09-7.68.58-.42-1.47.83-1.58,1.65-2.04.28-.13.57-.25.86-.38.4-.23.76-.5,1.05-.87,1.9-3.12.37-5.77-1.15-8.41-.58-1-1.87-1.61-1.62-3.06.12-4.06,3.99-4.4,6.27-6.32Z"/>
      <path class="cls-14" d="M90.27,100.69c.04.8.34,1.39,1.23,1.51.61.08,1.17.27,1.52.83-4.34,1.81-6.84,5.64-9.58,9.08-4.86,6.12-9.81,12.18-14.33,18.56-2.73,3.86-5.33,7.77-5.13,12.81-.1.95-.19,1.9-.29,2.85-1.03,1.52.48,4.45-2.65,4.82-.76-1.05-.56-2.27-.59-3.45,0-.78.07-1.56.14-2.34.2-3.2.67-6.41-.31-9.57.26-1.04.99-1.6,1.98-1.87.54.06.91-.23,1.18-.64,5.29-8.1,11.79-15.33,16.91-23.57,1.87-3.01,4.49-5.58,7.61-7.47.62-.38,1.23-.75,1.48-1.49.26-.3.54-.3.83-.05Z"/>
      <path class="cls-145" d="M58.3,52.47l-.02-1.46c.04-.73.26-1.36.98-1.72.35-.09.7-.09,1.05-.02,2.23,2.04,5.46,2.5,7.54,4.78-.68,2.31-.33,4.74-.85,7.07-.18.3-.43.54-.74.7-.42.13-.83-.8-1.34.11-1.68,3.01-4.32,5.39-5.63,8.64.59.21,3.58.47,3.87.33.45.61.5,1.29.38,2-.17.49-.41.95-.5,1.47-.46,1.94-.72,4-2.96,4.86-.53.3-.87.76-1.1,1.32-.19.26-.44.43-.75.54-1.78-.05-2.61-1.25-3.26-2.67-.04-.34,0-.67.12-.99,1.04-1.74.14-3.61.37-5.41.63-2.92,1.07-5.85,2.78-8.46,1.14-1.75.58-3.97.85-5.97-.32-1.69,1.76-3.76-.8-5.1Z"/>
      <path class="cls-179" d="M86.01,315.85c.78,2.25,2.18,4.26,2.5,6.68-.12.08-.24.15-.36.23-.07-.12-.14-.24-.21-.37-.29-.44-.59-.89-.88-1.33-.1-.36-.35-.59-.67-.74-2.67-3.68-5.2-7.46-8.03-11.04-2.65-3.37-5.74-6.08-9.37-8.28-6.27-3.78-12.51-7.61-18.75-11.44-1.17-.72-2.11-1.27-3.51-.14-1.58,1.28-3.7.66-5.59.8-1.34.33-2-.08-1.14-1.38.66-1,1.74-1.63,2.89-2.06.81-.25,1.65-.35,2.48-.47.32-.03.64-.02.95.02.9.23,1.78.3,2.53-.43.27-.19.56-.35.86-.47,1.66-.35,2.61.9,3.8,1.66,5.74,3.68,10.81,8.27,16.92,11.47,7.2,3.78,12.13,9.94,15.57,17.28Z"/>
      <path class="cls-32" d="M44.79,32.13c.1-.3.2-.6.31-.91,2.58,1.63,2.29,4.12,1.38,6.31-.59,1.41-.36,3.1-1.26,4.18-.98,1.17-.98,2.63-1.78,3.77,2.24,7.68,7.07,13.88,11.62,20.24.25,2.21.6,4.46-2.3,5.3-3.04-2.6-5.08-5.99-6.87-9.44-1.91-3.67-3.85-7.36-5.1-11.34.11-1.03.23-2.07.34-3.1-.2-.98-.09-1.97-.1-2.96-.24-2.14.87-3.9,1.58-5.78,2.02-1.64,1.35-4.22,2.19-6.27Z"/>
      <path class="cls-93" d="M72.69,216.41c-.7-.69-.57-1.56-.46-2.38.71-5.05,2.46-9.82,5.06-14.1,5.11-8.44,9.56-17.2,13.63-26.16.1-.22.19-.44.26-.67.47-1.61,1.07-1.85,2.48-.65,2.68,2.29,2.76,2.19,5.55.54.17-1.88,1.96-1.75,3.08-2.33,1.79-.93,3.1-2.51,4.93-3.35.36-.02.71.06,1.03.23.18.2.25.41.2.62-.05.22-.11.32-.17.32-1.34,1.68-2.99,3.1-4.07,5.01-1.23,2.18-3.25,2.67-5.57,2.3-.7-.11-1.39-.34-2.08-.55-1.7-.51-2.73-.2-3.63,1.66-3.04,6.28-7.06,12.01-10.78,17.9-4.27,6.75-7.63,13.83-9.46,21.62Z"/>
      <path class="cls-93" d="M103.8,259.85c-.04-.24-.03-.5-.13-.7-.18-.39-.46-.47-.65,0-1.46,3.54-2.71,7.16-3.52,10.9-1.29,5.94-1.91,11.99-3.07,17.97-.82,4.24-.67,8.63.29,12.97.54,2.41.49,4.97.54,7.47.03,1.25.24,2.39.8,3.46.86,1.65.98,3.38.98,5.22,0,2.59,1.43,4.98,1.38,7.62-.01.71.1,1.42.16,2.13-1.29.21-1.62-.73-1.97-1.64-.08-.31-.1-.63-.09-.95.02-.16.05-.31.08-.47-.55-3.29-.81-6.67-1.72-9.86-1.24-4.31-1.84-8.73-1.83-13.1.02-4.97-.88-9.91.43-15,1.17-4.57,1.49-9.42,2.45-14.1.84-4.1,1.61-8.21,3.74-11.9,1.03-1.78.76-3.74.87-5.64.15-2.41.84-4.4,3.21-5.46.12-.06.24-.12.36-.19.13.03.26.05.39.08.09.1.17.21.26.31-.03.27-.11.52-.22.77-1.04,2.39-1.76,4.85-1.98,7.47-.08.91.08,1.93-.75,2.63Z"/>
      <path class="cls-140" d="M86.01,315.85c-2.77-3.6-5.35-7.34-8.45-10.71-2.67-2.91-5.74-5.16-9.26-6.79-2.1-.97-3.96-2.16-5.77-3.61-3.65-2.92-7.56-5.52-11.31-8.33-.72-.54-1.29-.46-1.98-.21-.38-.4-.44-.87-.34-1.38.57-1.38,1.16-2.75,2.51-3.58.32-.12.64-.09.95.06,3.79,6.22,9.46,10.58,15.42,14.34,5.64,3.56,10.97,7.27,14.97,12.68,1.99,0,.98-1.27.9-2.15-.15-1.44-1.41-2.77-.44-4.32,1.18.8,1.65,2.04,1.85,3.34.27,1.78.7,3.5,1.38,5.14.4.95.57,1.55-.86,1.43-.68-.06-.62.58-.48,1.05.31,1.02.98,1.92.92,3.05Z"/>
      <path class="cls-157" d="M87.62,302.04c-.91.71-.95-.23-1.13-.66-1.69-4.07-3.16-8.21-4.2-12.5-.29-1.2-.06-3.72-1.82-3.25-1.74.47-.43,2.45.11,3.63,1.4,3.11,1.31,6.5,2.02,9.74-.31.36-.61.35-.89-.04-1.09-2.16-1.01-4.6-1.69-6.88-1.13-3.78-2.62-7.39-4.32-10.92.19-2.31-1.09-4.25-1.61-6.37-.36-1.46-1.11-2.88-.28-4.41,1.66-1.41,3.43-.62,5.19-.26.33.19.58.45.76.78,1.39,3.9,2.35,7.89,2.38,12.06,0,.35-.02.74.25,1.04-.06-.52.13-.91.58-1.17.81,6.59,2.94,12.85,4.66,19.22Z"/>
      <path class="cls-109" d="M63.98,143.48c-1.27-2.05-.71-4.1.07-6.12.91-2.36,2.23-4.54,3.78-6.48,3.87-4.85,7.28-10.04,11.38-14.75,2.96-3.39,5.62-7.09,8.57-10.55,1.44-1.68,3.01-2.68,5.23-2.55.64.45.14.66-.18.91-1.4.57-2.25,1.75-3.1,2.89-3.63,4.94-7.65,9.55-11.61,14.23-5.4,6.4-10.66,13.07-13.47,21.2-.16.45-.22.94-.68,1.21Z"/>
      <path class="cls-25" d="M58.58,208.57c.28-.24.62-.44.81.03.49,1.21.99,2.43,1.36,3.68.39,1.32,1.86,2.9-.83,3.68-.42.12-.22,1.6-1.14,2.02-2.83-1.56-5.7-3.05-8.48-4.69-3-1.77-6.05-3.35-9.42-4.33-4.66-1.36-8.22-4.82-12.59-6.74-1.02-.45-1.87-1.68-3.22-.78-1.14-.85-2.45-1.45-3.59-2.3-.36-1.36.62-2.22,1.19-3.25.37-.41.8-.66,1.37-.52,8.37,4.31,15.73,10.44,24.64,13.76,3.25,1.21,5.92,3.56,9.27,4.5.2-.19.34-.41.42-.67,0-.13.02-.27.03-.4l.17-4.01Z"/>
      <path class="cls-55" d="M43.38,287.31c-.96.65-2.02,1.2-2.85,1.99-.93.89.43.59.62.92-.77.4-1.53.8-2.3,1.19-.13-.01-.26-.03-.39-.04-.27-.02-.54-.03-.81-.05-.28-.01-.56-.02-.85-.02-.3.02-.6.05-.9.12-5.94.35-8.66-1.57-11.7-8.26-.19-.64-.37-1.29-.55-1.94-.1-.33-.16-.67-.21-1.01-.09-1.91-.02-3.83-.29-5.73.22-2.29,1.93-4.31,1.27-6.77,4.18-6.97,15.77-7.62,19.54-1.12-1.09,1.65-2.27.64-3.44.12-4.31-1.9-10.98.02-13.02,3.73-2.28,4.16-.81,10.86,3.01,13.67.19.14.44.24.58.42,3.25,4.27,7.1,4.24,11.31,1.56.36,0,.69.1,1,.28.17.21.22.41.16.61-.06.2-.12.3-.18.3Z"/>
      <path class="cls-133" d="M122.45,227.04c.6,1.74.67,3.57.91,5.37-1.22,1.55-.64,3.83-2.15,5.26-1.55,1.19-2.89,2.98-5.25,1.76-.69-1.1.36-1.57.82-2.26,4.46-5.09,4.5-7.23.22-12.45-2.32-2.83-5-5.02-8.6-6.23-2.59-.87-4.86-.77-7.3.2-4.05,1.61-5.05,3.44-4.3,7.84.38,2.19,1.65,4.32.56,6.65-.33.2-.69.28-1.07.24-1.57-.5-1.89-1.78-1.98-3.2-.06-2.94-.93-5.72-2.03-8.38-.92-2.23-.27-3.78,1.6-4.91,2.37-1.44,4.88-2.62,7.71-2.89,5.3.09,10.32.99,14.31,4.91,2.26,2.64,4.21,5.54,6.57,8.1Z"/>
      <path class="cls-112" d="M27.22,111.75c.87.54,1.54,1.27,1.98,2.19-.45,3.96-1.5,7.96.88,11.7.14.91.05,1.77-.47,2.55-1.85-.11-3.96.5-7.84,2.26-3.86,1.75-11.19-.21-14.73-3.94-.85-.64-1.71-1.26-2.3-2.17-.83-1.94-2.81-3.65-1.25-6.08,1.88-.25,2.49,1.35,3.08,2.48,1.62,3.12,4.04,4.62,7.51,4.57,2.37.85,4.7,1.67,7.18.17,1.42-.86,2.64-1.96,2.64-3.57.02-3.25,1.85-6.48.18-9.77-.22-.44-.01-.93.28-1.34,1.02-.61,1.64.25,2.39.64l-.08-.07c.05.33.23.45.55.37Z"/>
      <path class="cls-80" d="M70.31,211.84c1.11,2.16-.76,3.89-.48,6.31-.72-.69-1.04-1-1.35-1.3-1.53-1.49-1.86-3.45-2.13-5.43-.5-8.38-2.64-16.54-3.37-24.89-.19-2.16-.31-4.3.2-6.43.67-1.35,1.31-2.83,3.02-.98.67,8.04,1.64,16.05,2.93,24.01.4,2.45.81,4.91,1.22,7.36.34.46.32.91-.02,1.35Z"/>
      <path class="cls-54" d="M96.88,48.12c.91.49,1.99,1.36,2.84.41,1.52-1.7,3.18-.71,4.81-.62-1.53,3.48-4.82,5.15-8.65,5.39-3.22.2-5.91-.74-8.6-2.15-2.55,2.17-4.31,5.07-6.75,7.36-1.39,1.31-2.62,2.61-4.43,3.49-3.48,1.69-5.98,4.68-8.66,7.41-.86.88-1.59,2.28-3.25,1.45-.69-1.33-.08-2.45.56-3.57,1.9-2.82,4.39-4.98,7.38-6.61,3.07-1.67,5.61-3.94,7.8-6.71,1.57-1.99,2.92-4.45,5.78-5.06,1.19-.1,2.4.02,3.43.6,2.28,1.3,4.02.68,5.48-1.31.26-.23.56-.4.88-.52.54-.1,1.02-.01,1.39.44Z"/>
      <path class="cls-4" d="M77.78,5.63c.91,2.28,2.54,4.23,3.08,6.68.31.73-.14.92-.73,1-1.83-.64-2.46-2.39-3.52-3.76-.72-.96-1.27-2.07-2.18-2.86-1.44-1.26-2.96-2.64-4.06.36,0,0-.05.17-.24.26-6.33,3.21-5.18,8.68-4.25,14.08-.06,1.28.12,2.67-1.45,3.28-3.79-4.28-5.08-9.33-4.52-14.93.33-.95.66-1.9.99-2.84,1.88-1.77,4.05-3.11,6.41-4.16,4.18-1.55,7.54-.1,10.48,2.88Z"/>
      <path class="cls-60" d="M75.09,49.84c-1.02.9-2.05,1.8-3.07,2.71-.92-.03-1.8.68-2.75.13-.27-.22-.4-.5-.38-.85,2.71-2.91,4.48-6.14,4.2-10.33-.21-3.17-1.41-5.84-3.47-8.14-1.99-2.22-3.25-2.07-5.3.1-1.75,1.86-2.99,4.47-6.07,4.61-.4-.41-.58-.91-.67-1.46-.08-.55-.08-1.1-.05-1.65,0-.92.29-1.79.43-2.69.08-.35.22-.67.42-.97,1.98-2.08,4.83-3.17,7.27-3.68,3.9-.82,6.66,2,8.51,5.41.15.32.29.65.41.99,1.83,4.41,3.2,8.87,1.43,13.66-.52.63-.98,1.29-.92,2.17Z"/>
      <path class="cls-179" d="M59.19,213.53c-.11,1.37-.17,2.54-2.07,1.22-3.57-2.48-7.37-4.56-11.49-6.02-3.08-1.09-5.99-2.46-8.59-4.51-3.2-2.52-6.79-4.42-10.5-6.11-1.15-.52-2.58-.95-2.65-2.64-.5-.53-.53-1.17-.39-1.83.21-.76.54-1.48.82-2.22.24-.57.48-1.15.74-1.71.15-.28.34-.53.58-.74.32-.13.59-.07.81.19.8,1.24-.09,2.3-.4,3.4-.7,2.48-.65,2.85,1.71,3.86,4.21,1.79,7.93,4.3,11.79,6.72,5.92,3.72,12.23,6.94,18.84,9.42.05.11.11.22.18.32.21.21.41.42.6.64Z"/>
      <path class="cls-143" d="M7.59,125.78c1.42,2.66,4.28,3.41,6.69,3.91,2.03.42,4.48.84,6.59.2,2.24-.68,3.45-2.79,4.56-4.86,1.65.74,2.21,2.62,3.78,3.34,1.93.53-.04,1.15.04,1.73-.98,2.14-2.14,4.08-4.76,4.47-4.97.33-9.78.1-14.06-3.02-2.05-1.49-3.87-2.87-2.83-5.77Z"/>
      <path class="cls-67" d="M29.38,125.51c-.2-.55-.28-1.22-.63-1.65-2.91-3.47-.8-6.67.45-9.92,2.25,1.89,2.7,4.14,1.25,6.71-.95,1.68-.77,2.9.72,4.37,3.58,3.55,7.35,6.85,11.38,9.84,2.41,1.79,4.78,3.6,6.96,5.65.48.44,1.3.19,1.69.83.07.5.21.98.3,1.48.03.52-.02,1.03-.2,1.53-.17.32-.42.55-.75.69-2.93-1.21-5.19-3.49-7.38-5.55-3.52-3.3-7.47-6.04-11.06-9.22-1.55-1.38-2.4-2.84-2.74-4.77Z"/>
      <path class="cls-136" d="M103.9,27.42c-.28.66-1.28.74-1.33,1.55-.05.76.64,1.69-.37,2.21-.87.45-1.51-.4-2.26-.65-.22-.07-.45-.08-.69-.12-.69.45-.38.95-.07,1.47,1.2,1.99-.25,1.81-1.48,1.79-.18,0-.37,0-.55.01-2.35-1.07-5.18-.18-7.4-1.79.28-2.16,1.45-4.02,2.11-6.06.73-2.27,3.2-1.72,4.94-2.31,2.74.62,5.6,1,7.09,3.9Z"/>
      <path class="cls-165" d="M64.39,70.93c2.08-.69,3.08-2.73,4.3-4.18,1.63-1.94,3.76-3.09,5.47-4.8.17-.17.33-.44.53-.48,4.31-.8,5.62-5.24,8.88-7.32.96-.61,1.31-1.64,1.77-2.63.38-.82,1.07-1.38,1.93-.39-2.57,5.98-6.95,10.38-12.08,14.22-3.14,2.34-5.6,5.56-9.27,7.23-1.47.34-2.19-.03-1.52-1.66Z"/>
      <path class="cls-115" d="M7.59,125.78c.1,1.51.91,2.7,1.7,3.92.42.64.77,1.23,1.67.93,1.02-.35,1.42.41,2.07.97,2.02,1.75,4.28,2.6,7.1,2.03,1.41-.28,3.08-.17,4.36.95-2.43,1.52-5.54.65-7.97,2.32-.75.52-1.47-.49-2.18-.9-1.4-.79-2.42-2.41-4.39-2.04-.28.05-.83-.2-.92-.44-.6-1.53-2.31-2.13-3.03-3.19-2.09-3.11-4.55-6.12-5.47-9.91-.11-.44.06-.95.1-1.43-.19-.57-.37-1.31.26-1.53,1.04-.36,1.52.6,1.68,1.33.44,2.12,1.16,4.02,2.95,5.37.47.82,1.37,1.1,2.07,1.62Z"/>
      <path class="cls-101" d="M60.79,220.97c1.93-.74,3.24.21,4.41,1.58,1.06.46,2.14.89,2.65,2.06.78,4.21,2.14,8.37,1.06,12.74-2.89,1.55-4.24.06-5.02-2.55-1.2-3.55-1.86-7.22-2.53-10.89-.36-.74.15-1.63-.42-2.33-.07-.2-.12-.4-.14-.61Z"/>
      <path class="cls-172" d="M1.58,181.92c0-2.11,1.75-2.86,3.11-3.82,1.34-.95,2.86-1.64,4.3-2.45,2.35,0,4.71.02,6.63-1.71.9-.82,2.03-.17,3.04-.38,4.31,2.1,6.65,5.49,6.78,10.33.32,2.24-.74,2.28-2.11,1.16-1-.81-1.77-1.92-2.58-2.94-3.02-3.84-6.79-4.41-11.14-2.78-1.1.48-2.19,1.01-3.33,1.39-1.61.22-2.82,1.98-4.68,1.19Z"/>
      <path class="cls-119" d="M101.89,214.52c-2.21.84-4.46,1.57-6.61,2.53-2.75,1.23-2.82,2.08-1.9,4.81.89,2.64,2.11,5.28,1.82,8.21-1.06.63.54,2.74-1.55,2.8-.2-.3-.58-.61-.57-.9.1-2.82-1.43-4.93-2.86-7.13-1.83-2.81-1.43-2.71.24-5.64,2.45-4.29,6.47-5.61,10.69-6.95,2.33-.73,4.45.27,6.67.41-1.39,2.5-3.8,1.75-5.94,1.86Z"/>
      <path class="cls-75" d="M96.82,23.52c-.28.22-.53.57-.84.64-2.49.51-4.01,1.69-3.9,4.54.05,1.4-1.3,2.18-2.25,3.07-1.45,1.87-2.04,4.04-2.21,6.36-.45.57-1.05.84-1.75.94-1.23-.02-.95-1.16-1.34-1.8-.08-3.57,1.11-6.98,1.32-10.52.02-.43.27-1.1.57-1.22,3.34-1.25,6.55-3.31,10.39-2.01Z"/>
      <path class="cls-15" d="M85.36,162.8c0-.26.01-.52.02-.78.3-.89-.05-1.81.1-2.71-.32-2.64.89-5.17.47-7.83-.18-1.11.46-2.19,1.42-2.76,4.54-2.7,9.07-5.61,14.76-3.41,2.82,1.18,5.7,2.33,5.79,6.11-2.57,1.22-3.77-1.18-5.53-2.09-5.77-2.37-7.05-1.86-11.24,4.48-.18.27-.38.53-.59.78-.2.25-.42.48-.65.7-.11.12-.22.22-.33.34-.2.24-.4.47-.6.72-.08.13-.18.26-.26.39-1.63,2.1-.24,4.7-1.15,6.92-1.03.5-1.51-.44-2.2-.83Z"/>
      <path class="cls-171" d="M54.54,65.27c-.92-.04-1.64-.5-2.08-1.24-2-3.39-4.58-6.42-6.28-10-.31-.65-.54-1.38-1.02-1.89-1.8-1.93-2.23-4.16-1.74-6.67,2.12,1.8,3.41,4.26,5,6.47,2.15,2.99,4.22,6.04,7.14,8.36.39.33.53.76.54,1.25-.02.31-.08.61-.17.91-.36.83-.51,1.75-1.02,2.53-.12.09-.25.18-.37.26Z"/>
      <path class="cls-63" d="M27.31,21.67c1.87-1.12,3.79-1.81,6.04-1.18.85.24,1.9.45,2.69-.39.77.46,1.53.92,2.3,1.38.32,1.42,2.49,1.95,1.83,3.83-1.54-.07-2.16-1.4-3.1-2.28-.92-.87-1.73-1.12-2.72.03-1.5,1.76-3.82,2.48-5.5,3.9-1.72,1.46-4.38,2.03-5,4.67-1.85-.36-1.31-1.75-1.28-2.93.07-.34.19-.67.35-.99.98-2.36,2.13-4.62,4.39-6.06Z"/>
      <path class="cls-113" d="M62.26,133.92c-.09.91-.53,1.42-1.5,1.34-1.35-1.42-1.28-3.26-1.43-5-.29-3.45-1.41-6.72-2.04-10.08-.1-.82-.07-1.65-.23-2.46-.09-.3-.18-.6-.27-.9-.17-.45-.33-.9-.46-1.36-.09-.32-.12-.64-.13-.97,1.14-2.31-1.01-5.53,2.02-7.33.45-.27.93-.46,1.46-.45,1.55.7.25,2.25.94,3.2.25,4.67.02,9.35.58,14.01.4,3.33.71,6.67,1.06,10.01Z"/>
      <path class="cls-107" d="M99.24,324.63c0,1.01.47,1.75,1.33,2.26.61,1.37,1.23,2.74,1.84,4.11.25.55.59.62,1.03.21,1.3,3.1,2.3,6.33,4.2,9.15-.19,1.43.55,3.03-.81,4.24-1.36-1.95-3.12-3.63-4.09-5.82-.41-.93-2.22-2-.06-3.06.07-.04-.04-.66-.21-.93-1.2-1.92-2.38-3.85-3.68-5.7-1.76-2.51-2.79-5.24-2.95-8.3,1.05.89,1.36,2.45,2.74,3.04,0,0,0,0,0,0,.22.26.46.51.65.8Z"/>
      <path class="cls-16" d="M73.77,33.03c-1.26-.74-2.06-1.96-2.98-3.02-1.38-1.59-3.45-1.16-5.09-1.96-.97,2.25-3.64,1.26-5.07,2.67-.51.51-1.19.77-1.94.79-.34-2.06.97-2.93,2.6-3.48,1.33-.45,2.83-.66,2.58-2.64-.07-.35.03-.64.3-.87,1.18-.98.65-2.38.89-3.6,1.21-.17,1.18.91,1.59,1.55,1.11,1.76,2.49,2.72,4.73,1.99,2.03-.66,4-.31,5.77.95.43.37.7.82.77,1.39-.57.92-1.15,1.84-1.72,2.75-.71-.28-1.55-1.05-2.16-.22-.83,1.13.92,1.96.68,3.12-.02.19-.05.37-.09.56-.08.1-.16.2-.25.3-.28.07-.48-.03-.6-.3Z"/>
      <path class="cls-118" d="M84.42,150.25c0-.13,0-.26.01-.39-.02-.39-.26-.67-.5-.94-1.16-3.55-1.03-4.23,2.14-5.65,4.77-2.13,9.66-3.8,14.87-1.28-.9,2.04-2.81,2.22-4.64,2.55-.33.02-.66.05-.98.1-.8.03-1.59.05-2.32.45-2.95,1.51-6.23,2.59-7.65,6.04-.31.18-.63.21-.97.08-.15-.33-.14-.65.05-.96Z"/>
      <path class="cls-30" d="M60.63,109.91c-.91-.79.07-2.32-1.17-2.98-.23-.31-.33-.65-.32-1.03.44-3.59,1.2-7.13,1.56-10.73.77-2.19.94-4.39.38-6.69-.3-1.22-.75-2.58.19-3.8.32-.3.67-.33,1.04-.1,1.61,1.56,1.79,3.82,1.59,5.61-.29,2.69.2,5.17.77,7.65.81,3.49.22,6.44-2.74,8.56-1.37.98-.81,2.38-1.31,3.52Z"/>
      <path class="cls-13" d="M90.27,100.69c-.28.02-.55.04-.83.05,0,0,.03.01.03.01-.13-.3-.3-.58-.49-.85-1.39-2.25-2.78-4.49-4.17-6.74-.54-3.99-.13-7.86,1.42-11.59,4.07-2.48,8.36-3.43,12.89-1.43,3.32,1.46,6.09,3.65,7.98,6.83.2.78-.18.96-.86.81-1.97-2.66-4.57-4.43-7.69-5.48-4.9-1.75-8.86-1.23-10.43,2.4-1.31,3.01-2.3,6.62-.43,10.04.85,1.99,2.86,3.47,2.57,5.95Z"/>
      <path class="cls-182" d="M102.5,345.03c.7.29,1.4.59,2.09.88,3.9,1.22,6.23,4.85,5.33,8.29-.81-.1-1.63-.2-2.85-.35,1.23,1.86,1.27,3.87,1.99,5.7-.75.62-1.61.19-2.41.28-.22-.23-.45-.46-.67-.68-1.75-3.53-3-7.28-4.56-10.9-.54-1.25-1.19-2.8,1.09-3.22Z"/>
      <path class="cls-51" d="M50.84,144.12c.03-.46.07-.92.1-1.39.23-.27.31-.71.76-.76.97,2.99,1.19,6.24,3.06,8.92,1.27.83,2.93.52,4.17,1.46.8,1.16,1.55,2.36,2.52,3.38,2.02,2.11,3.3,4.51,3.15,7.52-.12.33-.34.56-.67.68-2.98-2.25-4.52-5.94-7.83-7.85-.51-.33-1.05-.6-1.66-.7-.31-.03-.61-.08-.91-.12-.47-.05-.93-.16-1.38-.33-.3-.14-.55-.33-.77-.58-.46-.72-.51-1.52-.42-2.34.89-1.51.22-2.88-.38-4.26-.41-1.24.69-2.39.24-3.64Z"/>
      <path class="cls-18" d="M88.51,322.53c2.33,2.66,4.64,5.28,5.92,8.7.91,2.42,2.27,4.68,3.43,7,.6.92.71,2.04,1.22,3h0c1.19,2.34,1.8,4.87,2.5,7.37.25.88.76,1.86-.76,2.1-3.92-8.65-7.85-17.29-11.77-25.94-.18-.27-.33-.56-.43-.87-.08-.22-.13-.44-.14-.67-.18-.17-.24-.33-.16-.49.08-.15.15-.23.21-.22h-.03Z"/>
      <path class="cls-88" d="M22.41,273.07c-.24-.39-.48-.79-.72-1.18-.29-.8-.1-1.65-.25-2.47-.88-4.94,1.12-8.47,5.38-10.87,2.84-1.65,5.83-1.11,8.82-.62.46.41,1.1.38,1.63.65.19-.05.36,0,.48.16-.17,1.81-1.76,1.7-2.9,1.97-1.86.43-3.63,1.05-5.39,1.73-2.17,1.29-5.59,1.42-4.91,5.34.24.76.31,1.54.18,2.33-.05.3-.14.6-.26.88-.3.52-.54,1.07-.74,1.64-.14.27-.33.5-.55.7-.31.08-.57-.02-.77-.27Z"/>
      <path class="cls-33" d="M69.82,52.4c.72.21,1.52-.82,2.19.14-.36.72-1.1.92-1.75,1.18-2,.79-2.35,2.34-2.26,4.62,4.01-3.21,8.22-5.49,11.64-8.89,1.17-1.16,2.42-2.36,4.06-2.94.17.06.34.12.52.17.42.38.64.85.59,1.43-3.99,4.28-8.43,8.09-13.36,11.19-1.85,1.16-2.87,3.46-5.3,3.72-.25-.53-.21-1.01.22-1.44-.21-2.73.64-5.31,1.12-7.95.05-.11.09-.22.14-.34.14-.2.32-.36.52-.51.21-.14.44-.2.69-.18.37.1.7.02.99-.22Z"/>
      <path class="cls-154" d="M29.38,125.51c1.64,3.63,5.02,5.52,7.94,7.85,1.75,1.4,3.87,2.34,4.95,4.49.19.38.7.63,1.09.89,2.66,1.8,5.16,3.8,7.4,6.1.49,1.02.36,1.72-.94,1.31-.78-.24-1.25-1.1-2.07-1.38l.06.04c-.13-.4-.37-.69-.78-.81l.07.09c-.79-.97-1.65-1.86-2.81-2.41l.06.05c-.54-.81-1.37-1.23-2.21-1.65-3.74-2.16-6.44-5.53-9.69-8.27-.96-.8-1.59-2.17-3.2-1.73-.08-.57.64-1.17-.04-1.73.06-.95.12-1.91.17-2.86Z"/>
      <path class="cls-19" d="M28.87,261.82c1.79-.88,3.6-1.63,5.6-1.93,1.13-.17,2.36-.25,3.27-1.14,5.02.86,8.2,4.05,10.51,8.33.05.38.28.67.5.96.36.43.75.85.73,1.48.14,1.39-.78.83-1.28.6-.95-.45-1.75-1.18-2.68-1.69-.46-.32-.81-.73-1.05-1.23-2.62-4.19-6.61-5.18-11.19-4.84-1.5.11-3.09.93-4.41-.52Z"/>
      <path class="cls-149" d="M95.78,143.81c1.98.12,3.36-1.45,5.16-1.82,1.44.01,2.61.69,3.74,1.48.17,1.58,1.15,2.26,2.64,2.37,2.77,2.07,4.43,4.88,5.47,8.12q-.48,1.32-2.61.32c-.27-.11-.52-.24-.78-.37-.12-.07-.24-.15-.36-.22-.23-.16-.44-.34-.64-.54-.09-.1-.18-.21-.27-.31-.17-.22-.3-.47-.39-.73,0-.14,0-.28,0-.41-.89-2.78-2.76-4.53-5.53-5.37-1.22-1.19-2.76-1.24-4.33-1.36-.78-.06-2.1.51-2.08-1.15Z"/>
      <path class="cls-175" d="M37.37,290.64c.24-.01.48-.03.73-.04.19.2.32.44.38.71.1.11.22.15.37.11-1.91.87-4.03.89-6.03,1.59-1.75.62-4.11-.46-6.2-.83-.5-.09-.83-.54-.84-1.03-.06-3.04-2.4-5.12-3.25-7.82-.18-1.29-.87-2.95,1.66-2.21h0c.37.44.18,1.12.66,1.51.94,3.12,3.77,4.87,5.42,7.48,2.18,0,4.23,1.39,6.48.59.23.17.45.16.64-.06Z"/>
      <path class="cls-77" d="M64.4,163.62c-.42-3.66-2.53-6.41-5.01-8.89-.74-.74-.92-1.32-.39-2.16.08-.1.15-.21.23-.32.19-.17.41-.32.63-.46.22-.15.44-.27.68-.39.24-.11.5-.15.76-.12.89-.63.76-1.62.83-2.51.09-1.11.42-2.02,1.56-2.44,1.17,1.96.53,4.2.9,6.29.55,3.13.37,6.39.5,9.59.17.67.58,1.46-.7,1.41Z"/>
      <path class="cls-46" d="M115.74,239.21c2.09.36,3.55-.98,5.16-1.92.42.1.65.37.7.8.01.4-.16.66-.57.74-.5.16-.83.48-.92,1.01-.46.92-1.32,1.36-2.2,1.72-3.78,1.54-6.97,3.95-10,6.61-.23.24-.46.48-.7.71h0c-.26.21-.5.18-.73-.05h-.01c-.22-.28-.39-.58-.52-.91-.21-1.86.58-3.38,1.6-4.83.32-.38.7-.7,1.12-.97.95-.53,1.88-1.09,2.72-1.79.25-.19.51-.34.79-.48.99-.42,1.99-.79,3.09-.73.15.02.3.05.45.08Z"/>
      <path class="cls-150" d="M95.78,143.81c.86,1.1,2.12.77,3.23.86,1.31.11,2.59.18,3.18,1.64-5.71-2.52-10.09.91-14.69,3.31-.54.28-.95.99-.75,1.53,1.1,3.05-.79,5.85-.64,8.81-1.28.25-.71-1.36-1.55-1.55-.39-.15-.49-.43-.38-.81.83-2.13-.68-4.37.3-6.5,1.32-4.08,4.94-5.3,8.38-6.76.63-.62,1.6.06,2.22-.59.24.01.47.03.71.05Z"/>
      <path class="cls-166" d="M39.84,92.1c-.52-.41-.45-.93-.28-1.47.17-.26.33-.53.47-.82.16-.79.56-1.51.8-2.27l.03.16c.95-1.03.95-2.31.97-3.59.02-.24.07-.47.15-.7.98-1.77-.4-3.78.55-5.55.1-.31.28-.57.54-.76.42-.08.84-.15,1.26-.23.32-.09.63-.2.93-.34,1.57-.96,3.32-.62,5.02-.68.71-.44,1.54-.05,2.28-.31.18-.15.39-.26.62-.32.72.42,1.17.94.68,1.81-.1.07-.19.15-.3.19-2.39.97-6.39-.55-7.19,2.11-1.26,4.23-3.3,8.46-2.9,13.1.11,1.21.27,2.38-.22,3.53-.49,1.05-1.38.73-2.2.64-.52-.71-.53-1.54-.59-2.37,0,0,.14-.3.14-.3,0,0,.22-.23.22-.23,0,0-.31-.08-.31-.08-.16-.18-.24-.38-.24-.61-.09-.33-.29-.61-.43-.92Z"/>
      <path class="cls-178" d="M8.99,178.78c2.57-1.91,5.45-1.16,8.26-.97.76.05,1.36.52,1.77,1.11,1.42,2.05,3.67,3.34,4.92,5.61.83,1.51,1.14-.03,1.49-.64.69,1.69.84,3.49,1.04,5.28-.24-.02-.48-.03-.72-.05-1.6-.96-2.55-2.82-4.52-3.27-.92-.49-1.66-1.19-2.39-1.92-2.37-3.46-6.4-3.76-9.85-5.15Z"/>
      <path class="cls-18" d="M21.55,199.02c1.65.13,3.48,0,3.53,2.44-3.26,4.43-7.74,4.54-12.53,3.53.3-1.86,3.05-1.09,3.26-3.05.42-.53.99-.81,1.63-.98,1.63-.1,2.55-1.71,4.12-1.94Z"/>
      <path class="cls-3" d="M101.89,214.52c1.86-1.01,4.11-.76,5.94-1.86,4.28.54,7.17,3.24,9.81,6.32.2.23.36.49.47.78.2.11.31.27.33.5.04,1.36-.64,1.19-1.42.64-.56-.4-1.05-.88-1.6-1.3-3.46-2.56-6.89-5.16-11.63-4.34-.7.12-1.44-.06-1.91-.73Z"/>
      <path class="cls-49" d="M109.77,153.28c.75.04,1.32.41,1.86.9.44.4.84.21,1.15-.23.26.52.46,1.09.8,1.56,2.54,3.45,1.8,6.61-.81,9.61-.32-.18-.45-.09-.4.27.03.2.09.3.17.3-.83,1.33-2.41,1.38-3.61,2.08-.21.22-.42.22-.61-.03-.3-.04-.61-.08-.91-.13-.25-1.26.64-1.98,1.41-2.63,1.97-1.68,2.67-3.76,2.23-6.27.76-2.1-1.95-3.37-1.29-5.44Z"/>
      <path class="cls-92" d="M55.44,62.44c.04-.23.08-.47.13-.7,2.48-.06,2.94-1.74,3.12-3.76.06-.64.45-1.37,1.42-1.08-.09,1.56-.17,3.12-.26,4.67-.05.83.05,1.76-.56,2.41-2.32,2.45-2.1,5.74-2.99,8.67-1.25.56-2.14-.17-3.03-.85-.38-.12-.51-.41-.52-.78,1.55-1.62,1.76-3.66,1.79-5.75,0,0,0,0,0,0,.9-.76.08-2.05.9-2.84Z"/>
      <path class="cls-141" d="M93.65,232.87c1.17-.57.38-2.23,1.55-2.8-.11,1.23-.05,2.38,1.29,2.99,2.11,1.89.83,5.45,3.48,7.09.18.31.3.63.38.98.13,1.12.15,2.2-.85,3-1.27-.48-2.17-1.34-2.72-2.57-.29-.65-.49-1.54-1.22-1.63-2.86-.35-2.45-2.32-2.24-4.23.1-.94.22-1.88.33-2.82Z"/>
      <path class="cls-19" d="M41.06,96.6c.48-.83,1.01-.27,1.53-.06.69.17,1.01.69,1.23,1.3.2.75.29,1.52.53,2.26.1.3.17.61.23.91.01,2.6,1.61,4.31,3.32,5.96-.02.23-.05.47-.08.7.38.44.2,1.08.55,1.53l.07-.02c.15.68-.09.92-.76.69-2.29.23-3.24-.74-4.42-2.9-1.84-3.39-2.15-6.77-2.2-10.37Z"/>
      <path class="cls-180" d="M99.51,244.13c.08-1.22.16-2.44.24-3.66,2.17,2.22,4.81,2.72,7.75,2.14.33.1.6.29.81.56-.87,1.53-1.6,3.12-1.88,4.88-.16.31-.39.55-.69.72,0,0,0,0,0,0-1.53-.01-3.04-.16-4.06-1.47-.6-.77-1.22-.33-1.86-.26-.72-.9-.21-1.94-.32-2.92Z"/>
      <path class="cls-57" d="M74.07,270.22c-.02,2.22,1.02,4.17,1.55,6.25.38,1.49,1.71,3.12.06,4.68-1.61-2.24-2.85-4.68-4.13-7.11-.78-1.49-1.53-3-3.31-3.56-.36-.4-.34-.83-.11-1.28.98-.55,2.08-.42,3.14-.57,1,.07,1.88.41,2.58,1.15.08.14.15.29.22.43Z"/>
      <path class="cls-2" d="M26.74,111.45c-.9.18-1.58-.37-2.3-.74-.14-.03-.28-.05-.43-.08-.26-.13-.5-.3-.72-.49-.33-.3-.63-.62-.93-.96-.61-.69-1.14-1.45-1.66-2.21-2.34-3.14-5.65-4.12-9.37-4.18-.33-.06-.66-.16-.98-.28-.78-.34-1.61-.63-2.08-1.42,3.55-1.92,6.98-1.28,10.11.82,3.59,2.41,6.82,5.26,8.36,9.53Z"/>
      <path class="cls-53" d="M18.65,173.56c-2.34.33-3.6,2.85-6.11,2.94-1.31.05-2.63.54-3.56-.85.02-.35-.02-.72.07-1.06.99-3.35.65-4.04,4.73-2.96,1.67.44,3.4.89,4.86,1.92Z"/>
      <path class="cls-22" d="M66.18,179.11c-.98-.72-1.68-.41-2.16.62-.54.55-.95,1.24-1.66,1.61-.25.19-.52.35-.79.5-.28.15-.58.24-.89.29-.32,0-.62-.06-.9-.2-.1-.12-.2-.24-.3-.36,1.49-1.57,2.38-3.42,2.58-5.59.05-.54.3-.99.63-1.4,1.33-1.25,1.67-2.83,1.53-4.58-.09-1.17-.49-2.38.42-3.43.34-.17.65-.11.93.15.86,4.1,1.5,8.21.61,12.4Z"/>
      <path class="cls-104" d="M50.97,152.02c.98.54.66,1.43.6,2.26-.48.64-1.2.84-1.9.79-4.02-.26-6.5,1.76-7.97,5.31-1.37,1.63-1.41,1.64-2.01.53.07-.47.14-.94.2-1.41.19-.25.19-.51.01-.77-.31-2.05,1.65-3.28,1.88-5.17.07-.54.97-.45,1.53-.62,2.51-.75,5.05-1.03,7.66-.92Z"/>
      <path class="cls-111" d="M64.18,24.53c-.02.23-.03.46-.02.7.19.73-.15.86-.77.67-3.74-4.82-5.95-9.98-3.49-16.14.55.29,1.1.65.96,1.36-.76,3.9.13,7.33,2.78,10.3.83.93.45,2.06.54,3.12Z"/>
      <path class="cls-38" d="M100.82,350.71c1.05-1.46-.16-2.67-.49-3.95-.47-1.83-1.41-3.55-1.25-5.52,1.42,1.01,1.92,2.85,3.42,3.79-1.24,1.12-.68,2.09-.07,3.4,1.46,3.11,2.63,6.36,3.61,9.66.09.32-.04.7-.07,1.06-.95-.35-1.65-.97-1.97-1.96-.75-2.31-2.09-4.33-3.18-6.48Z"/>
      <path class="cls-98" d="M42.94,180.04c-2.14-1.39-3.66-3.36-5.07-5.43-1.94-2.86-1.83-7.24.24-10.14,2.24-.64,2.09,1.08,1.88,2.22-.47,2.59-.02,4.99.86,7.38.23.43.46.86.68,1.29.47,1.03,1.25,1.88,1.79,2.87.12.32.15.64.11.97-.05.34-.22.61-.48.83Z"/>
      <path class="cls-127" d="M60.11,56.91c-1.42,1.37-.67,3.19-.99,4.79-.14.72-.16,1.61-.93,1.81-.92.23-1.13-.6-1.27-1.34-.19-.95-.81-.6-1.36-.42,0-.47,0-.95,0-1.42,1.33-.91,1.34-2.35,1.59-3.74.25-1.39.75-2.74,1.15-4.11,2.7-.7,2.93-.56,2.28,1.65-.27.93-.39,1.84-.47,2.78Z"/>
      <path class="cls-181" d="M68.96,220.61c.86.46,1.39,1.86,2.72.93.75,4.35,1.51,8.69,2.22,13.04.11.69,0,1.42,0,2.14.26.81-.21.96-.86.95-2.64-3.29-3.13-7.28-3.64-11.26.6-1.51.13-2.81-.79-4.02-.13-.31-.18-.64-.18-.97.07-.34.25-.61.53-.81Z"/>
      <path class="cls-115" d="M66.8,3.64c-1.51,1.39-3.62,1.93-4.98,3.54-.08.1-.61-.18-.93-.28-.59-2.48.67-4,2.63-5.24,2.19-1.39,4.46-2.12,7.04-1.37-.02,2.51-2.76,1.95-3.76,3.35Z"/>
      <path class="cls-90" d="M26.82,258.56c-.27.92-.58,2.06-1.4,2.39-3.32,1.37-2.98,4.39-3.4,7.06-.2,1.28-.22,2.59-.33,3.89-1-1.4-1.17-3.04-1.13-4.67.02-.95.03-1.82-.23-2.78-.75-2.75-.18-3.55,2.49-4.72,1.3-.57,2.47-1.42,4-1.17Z"/>
      <path class="cls-121" d="M10.36,101.92c.26.02.52.05.79.08,1.1,1.85-.19,2.52-1.56,3.13-1.98.87-3.74,1.99-4.56,4.14-.89,1.77-.92,3.94-2.49,5.39-1.76-.09-1.29-1.42-1.38-2.45.02-.35.07-.71.13-1.05.1-.5.31-.98.41-1.48.22-1.81.85-3.51,1.29-5.27.31-.69.82-1.15,1.54-1.38,2.1.43,3.56-2.48,5.84-1.1Z"/>
      <path class="cls-1" d="M109.93,354.2c-.66-3.48-2.3-6.33-5.33-8.29,1.02.03,2.09.15,2.24-1.31.29-1.41-.32-2.99.81-4.24.21.5.42,1,.63,1.5-.31.93-.54,1.85-.03,2.79.75,2.26,1.66,4.46,2.98,6.46.94,1.42,1.38,3.01,1.5,4.7-1.26.02-1.84-1.13-2.81-1.61Z"/>
      <path class="cls-66" d="M77.92,26.81c-.28-.29-.56-.57-.84-.86-.62-2.42,1.05-4.48,1.08-6.8.07-.31.18-.61.31-.9.14-.27.31-.53.5-.77.09-.12.19-.23.28-.35.17-.24.35-.47.53-.71.16-.24.35-.47.56-.68.47-.37.95-.7,1.57-.33,1.34,1.46,1.22,3.36.45,4.71-1.33,2.3-2.38,4.85-4.45,6.69Z"/>
      <path class="cls-96" d="M45.96,267.87c1.08.04,1.7.78,2.35,1.5.34.38.72.66,1.18.14,1.02,2.52,2.17,4.99,3.02,7.56.44,1.33.4,2.83-.15,4.21l-.32-.02h-.32c-.15-.06-.3-.1-.44-.14-.25-.18-.46-.4-.62-.66-.13-.28-.21-.57-.27-.86-.11-.74-.3-1.47-.7-2.12-1.07-1.87-1.76-3.93-2.76-5.83-.17-.26-.32-.54-.48-.81-.16-.26-.3-.54-.43-.82-.2-.71-.7-1.42-.06-2.15Z"/>
      <path class="cls-31" d="M40.31,174.78c-1.14-2.64-2.06-5.29-1.02-8.22.36-1.02.16-1.92-1.18-2.08.04-1.41.62-2.57,1.58-3.57.96.7.76-.82,1.39-.74.13.1.26.2.38.31.78,1.68.27,3.51.66,5.24,0,.31-.03.61-.09.91-.14.58-.19,1.16-.08,1.76.06.31.08.62.07.93-.42,1.73-.49,3.55-1.33,5.17-.13.1-.27.19-.41.29Z"/>
      <path class="cls-125" d="M56.12,253.92c.42-2.08,1.52-3.86,2.39-5.75.58.11.95.47,1.18.99.62,3.95-.73,7.94.81,11.99.73,1.93,2.69,2.67,3.03,4.6-1.22,1.56-2.52.43-3.8.12-.39-.56-.78-1.11-1.17-1.67-.7-3.45-1.84-6.8-2.45-10.27Z"/>
      <path class="cls-131" d="M73.15,237.46c.25-.25.5-.5.75-.75.47.98,1.07,1.81,2.1,2.29,3.13,1.46,5.28,3.9,6.75,6.98.19.26.36.54.51.82.07.23.06.46-.03.68-.64.59-1.25.3-1.85-.06-.26-.19-.5-.42-.71-.67-.99-1.4-2.09-2.69-3.8-3.25-1-.47-1.98-.98-2.66-1.89-.34-.5-.51-1.06-.7-1.62-.11-.25-.21-.51-.33-.76-.14-.24-.25-.48-.36-.74-.03-.13-.06-.26-.09-.4.02-.28.15-.5.4-.64Z"/>
      <path class="cls-176" d="M82.96,282.82c-.14.56-.28,1.12-.43,1.68-.18.02-.35.03-.53.05-.95-4.68-1.89-9.37-2.84-14.05.52-.97,1.18-1.42,2.19-.61.18,2.89,1.4,5.66,1.06,8.62.4.73-.03,1.6.38,2.33.06.66.11,1.32.17,1.98Z"/>
      <path class="cls-168" d="M59.36,249.11c-.28-.32-.57-.63-.85-.95.33-1.45-.11-2.82-.29-4.24-.24-1.95-.05-3.77,2.33-4.62,1.17-.42,2.12-1.5,3.16-2.27,1.89.57,1.29,2.03.51,2.69-2.66,2.23-2.98,5.32-3.53,8.36-.29.54-.73.89-1.33,1.03Z"/>
      <path class="cls-155" d="M1.89,111.63c.05,1-.47,2.12.59,2.91,2.07.7,1.7,2.18,1.19,3.71-.63,2.36,1.24,3.93,1.84,5.91-2.29-.42-2.8-2.29-3.38-4.12-.21-.67-.34-1.53-.82-1.9-.45-.34-.47.52-.69.85-1.3-2.22-.23-4.5-.16-6.75.37-.44.62-1.14,1.41-.61Z"/>
      <path class="cls-137" d="M60.06,248.33c.07-.96.23-1.92.19-2.87-.09-2.19.61-3.92,2.43-5.28.96-.72,2.43-1.54,1.05-3.16.06-.74.11-1.48.17-2.22,1.24,1.53,2.54,2.91,4.8,2.42.37,1.31-.59,1.66-1.49,1.87-.95.22-1.37.78-1.56,1.64-.09.32-.22.62-.37.92-1.42,2-3.49,3.6-3.92,6.23-.33.44-.7.77-1.29.45Z"/>
      <path class="cls-8" d="M40.17,25.31c-.61-.82-1.21-1.65-1.84-2.45-.37-.48-.72-.92,0-1.38,1.53.47,2.86,1.48,4.18,2.22,1.55.86,2.02,3.28,2.42,5.22.16.79.03,1.63.03,2.46-1.14-.45-1.44-1.54-1.89-2.51-.66-1.45-1.56-2.69-2.92-3.56Z"/>
      <path class="cls-36" d="M75.06,48.32c1.75-3.79,1.38-7.58-.14-11.31-.44-1.09-1.19-2.06-1.1-3.32.18-.14.34-.31.46-.51.11-.06.22-.11.34-.16,1.25,1.37,1.97,2.93,2.14,4.82.16,1.78.53,3.54.85,5.3.38,2.07-.39,3.75-1.73,5.25-.3.23-.57.21-.82-.08Z"/>
      <path class="cls-164" d="M62.3,84.57c-.28-.01-.56-.03-.83-.04-.12-.1-.24-.2-.37-.3-.59-1.1-1.3-2.12-2.15-3.04-.06-.15-.12-.29-.17-.44.03-.24,0-.48-.06-.72-.27-.53-.28-1.01.24-1.41,2.82-.06,2.73-2.63,3.7-4.28.46.11.48.57.71.86.58,3.23-1.28,6.18-1.06,9.36Z"/>
      <path class="cls-27" d="M16.29,202.31c-.34,1.52-1.01,2.57-2.85,2.17-.25-.05-.6.32-.9.5-1.48-.29-2.87-.95-4.44-.88-1.95.09-2.8-.99-2.76-2.87-.27-.69.1-1.02.69-1.23,3,2.59,6.87,1.37,10.25,2.31Z"/>
      <path class="cls-100" d="M66.8,3.64c.65-1.79,2.89-1.81,3.76-3.35,2.38.13,4.25,1.21,5.68,3.08.2.29.4.58.68.8h0c.2.24.39.5.56.77.1.23.2.45.3.68-.45-.1-1.05-.06-1.34-.33-2.87-2.65-6.18-2.54-9.63-1.66Z"/>
      <path class="cls-73" d="M86.24,81.59c.97.2,1.73.75.79,1.62-2.26,2.07-2.02,4.57-1.55,7.15.19,1.06.51,2.1-.65,2.82-1.1-1.26-1.27-2.84-.99-4.32.33-1.75.59-3.49.7-5.26.07-1.16.8-1.64,1.72-2.01Z"/>
      <path class="cls-1" d="M81.23,246.69c.66.29,1.23.83,2.02.8.78,1.33,1.41,2.72,1.48,4.29.15.54.1,1.11.31,1.64.07.44.14.88.21,1.32.14.37.2.76.16,1.16-.15,1.57-.02,3.16-.42,4.71-.34.29-.7.31-1.08.07-.72-4.07-1.31-8.17-3.07-11.99-.3-.65-.18-1.42.38-2.01Z"/>
      <path class="cls-86" d="M53.27,71.81c1.12-.1,2.11.25,3.03.85.16,1.04.34,2.07.46,3.12.12,1.07-.18,1.88-1.46,1.9-.84.31-1.18-.17-1.39-.87-.24-.52-.48-1.05-.73-1.57.03-1.14.05-2.29.08-3.43Z"/>
      <path class="cls-10" d="M66.37,61.6c-.02.49-.04.99-.07,1.48.89,1.7-.36,2.93-.97,4.29-.17,1.23-1.08,2.25-.95,3.56-.08,1.09.6,1.48,1.52,1.65-.75.46-1.51.91-2.26,1.37-.48-.09-.5-.6-.78-.87.02-.74.03-1.49.05-2.24-1.16-3.7.49-6.56,2.78-9.22.23,0,.45-.02.68-.03Z"/>
      <path class="cls-102" d="M47.68,109.87c.25-.23.51-.46.76-.69,1.41.66,2.38,1.56,2,3.32-.49,2.27.43,4.77-1.11,6.88-.88-3.11-.42-6.46-1.65-9.52Z"/>
      <path class="cls-110" d="M97.96,105.47c1.87-2.6,4.46-3.75,7.6-3.8.03.23-.03.44-.18.62-.25.22-.49.43-.74.65-.27.22-.65.39-.8.68-1.38,2.51-3.39,2.93-5.88,1.85Z"/>
      <path class="cls-4" d="M63.39,25.9c.26-.22.51-.45.77-.67,1.31,1.9-.09,2.64-1.5,3.03-1.88.51-3.08,1.64-3.96,3.26-.03.21-.06.42-.09.64-.47.42-.92.4-1.34-.08.11-1.27-.41-2.66.72-3.74.46.16-.12.29.33.11.12-.05.17-.15.17-.31,0-.19-.06-.29-.18-.3,1.11-.7,2.35-.78,3.61-.8.79-.02,1.3-.35,1.48-1.14Z"/>
      <path class="cls-156" d="M84.54,37.26c.43.51.85,1.02,1.28,1.54.93,2.03.36,4.16.37,6.25-.2.74-.58,1.35-1.24,1.76-.37.18-.7.13-1.01-.15,0,0-.24-.14-.24-.14-1.2-3.22-.04-6.22.83-9.25Z"/>
      <path class="cls-28" d="M56.12,253.92c.35.31.93.56,1.01.92.61,2.75,1.13,5.52,2.04,8.2.16.48-.14.9-.61,1.15-2.28-3.08-3.37-6.43-2.45-10.27Z"/>
      <path class="cls-68" d="M1.89,111.63c-.47.2-.94.41-1.41.61-.46-1.67.21-3.28.23-4.93.01-1.55,1.11-2.26,2.27-2.91.73.5.8,1.23.43,1.9-.66,1.22-.61,2.55-.76,3.85-.22.26-.44.51-.67.75-.03.24-.06.49-.09.73Z"/>
      <path class="cls-124" d="M24.18,281.12c-1.51.02-1.55,1.15-1.66,2.21-1.01-2.93-.66-5.86-.04-8.8.46-.42.91-.38,1.34.05,1.03,2.13.31,4.35.36,6.53Z"/>
      <path class="cls-163" d="M115.43,219.6c.74.06,1.32.42,1.87.9.44.39.84.21,1.15-.24,1.65,2.08,3.15,4.24,4.01,6.78-.23.28-.69.63-.85.36-1.68-2.91-4.46-4.94-6.18-7.81Z"/>
      <path class="cls-76" d="M84.1,260.64c.27,0,.54,0,.81,0,.13.01.26.02.4.04-1.05,2.59-.88,5.7-3.31,7.69-1.43-.09-1.28-1.36-1.68-2.23-.13-.69-.09-1.37.19-2.02.97-1.39,2.09-2.63,3.59-3.48Z"/>
      <path class="cls-82" d="M53.59,44.91c-.84-2.7-.56-5.34.47-7.93.42-.38.32-1.04.74-1.41h0c1.94-.04,1.98,1.32,2,2.7-.04.32-.12.62-.23.92-.16.43-.35.85-.51,1.28-.14.43-.29.86-.45,1.28-.27.73-.39,1.49-.61,2.23-.29.58-.52,1.25-1.41.93Z"/>
      <path class="cls-183" d="M106.25,87.79c.29-.27.57-.54.86-.81,2.9,2.74,3.85,5.92,2.19,9.69-.43-3.16-1.45-6.12-3.05-8.88Z"/>
      <path class="cls-76" d="M1.58,181.92c1.59-.33,2.66-1.88,4.39-1.9-1.75,3.23-2.6,6.7-2.76,10.36-.21.53-.53.96-1.08,1.18-1.08-.08-.74-1.05-1.02-1.63.39-.95.34-1.91.05-2.87-.04-1.23.59-2.4.29-3.65.04-.49.09-.99.13-1.48Z"/>
      <path class="cls-161" d="M74.71,32.47c-.87-.91-1.74-1.83-2.56-2.68.42-.99,1.12-1.43,1.87-1.78,1.65-.78,1.75-.71,2.18,1.56-.92.75-.26,2.31-1.49,2.9Z"/>
      <path class="cls-169" d="M56.03,39.23c.1-1.39.39-2.85-1.23-3.66.45-1.19,1.34-2.02,2.27-2.83,1.97-.1.53,1.78,1.36,2.35-.02.47-.04.93-.06,1.4-.65.67-.39,1.68-.91,2.4-.17.25-.38.44-.64.6-.31.06-.57-.04-.79-.26Z"/>
      <path class="cls-173" d="M42.98,77.68c-.02,1.07-.1,2.13.29,3.19.45,1.23-.11,2.07-1.29,2.55-.41-.94-1.02-1.85-1.19-2.84-.22-1.24-.21-2.59,1.39-3.11.31-.1.58-.03.8.21Z"/>
      <path class="cls-157" d="M80.86,266.24c.85.45.37,1.62,1.14,2.12-.21.51-.43,1.02-.64,1.53-.82-.11-1.49.31-2.19.61,0,0-.05-.05-.05-.05-1.08-1.56-1.74-3.1.16-4.56.59-.19,1.13-.11,1.59.34Z"/>
      <path class="cls-105" d="M59.75,265.86c1.26-.77,2.44.48,3.69.14.16,0,.33,0,.5.01.87.21,1.48.71,1.77,1.58.05.35-.08.62-.37.82-2.17-.16-4.33-.36-5.57-2.55Z"/>
      <path class="cls-20" d="M42.94,180.04c.03-.28.05-.56.08-.83.13-.08.25-.15.38-.23.11.1.22.19.33.29.63,2.2,3.23,2.68,4.08,4.69-3.06.47-4.1-1.55-4.87-3.92Z"/>
      <path class="cls-30" d="M81.7,298.96c.3.01.6.02.89.04.2.95.41,1.89.61,2.84.1,1.58.63,3.04,1.15,4.51-.33.27-.42.78-.91.87-.87-2.69-1.86-5.36-1.75-8.25Z"/>
      <path class="cls-17" d="M59.01,49.67c0,.57-.11,1.09-.72,1.33-2.18-.82-4.28-1.73-4.33-4.57.27-.21.58-.31.93-.27,1.54.97,3.1,1.92,4.13,3.5Z"/>
      <path class="cls-40" d="M84.48,151.11c-.04.94.06,1.86.47,2.73.68,1.44.3,2.68-.77,3.77-1.25-2.11-.73-4.3-.33-6.49.23-.24.44-.24.66.02l-.03-.03Z"/>
      <path class="cls-46" d="M50.07,184.9c.38-.54,3.19-2.04,3.65-1.85.88.36.93,1.31,1.27,2.04,0,0-.31-.05-.31-.05h-.32c-.28.15-.57.27-.88.36-1.14-.15-2.21-.76-3.41-.51Z"/>
      <path class="cls-76" d="M3.34,199.55c-.89-1.07-.45-2.57-1.19-3.7-.44-.79-.66-1.6-.34-2.49.17-.31.42-.52.75-.64,1.81,1.26,1.76,3.46,2.64,5.19.04.33,0,.65-.12.96-.45.55-1.09.62-1.74.68Z"/>
      <path class="cls-142" d="M121.6,238.09c-.23-.27-.47-.53-.7-.8.6-.92.96-1.91,1.03-3.02.06-.92.53-1.57,1.43-1.87,0,.69,0,1.38,0,2.07.15.3.13.58-.09.84-.36.67-.72,1.35-1.08,2.02-.14.29-.31.55-.51.8l-.07-.06Z"/>
      <path class="cls-7" d="M10.36,101.92c-1.38-.25-2.37.61-3.49,1.15-.72.35-1.6,1.22-2.35-.05,1.05-1.04,2.3-1.67,3.76-1.92.75.13,1.63-.08,2.08.82Z"/>
      <path class="cls-174" d="M23.82,274.59c-.45-.02-.89-.04-1.34-.05,0-.25-.01-.5-.02-.76.2-.26.43-.49.68-.7.01-.23.03-.46.07-.69.46-.36.34-1.04.79-1.4h0c.73-.75.3-1.75.58-2.59.11-.1.23-.2.35-.3,1,1.17.64,2.4.1,3.6-.43.95-1.09,1.81-1.21,2.89Z"/>
      <path class="cls-97" d="M47.74,144.78c.77-.06,1.35.29,1.95.75.8.61.96-.05,1.07-.68.03-.24.05-.49.08-.73.92,1.28.89,2.49-.24,3.64-.97-.97-2.32-1.58-2.85-2.97Z"/>
      <path class="cls-105" d="M68.39,269.13c-.05.45-.09.9-.14,1.36-1.95.68-2.49-.62-2.93-2.07,0,0,.17-.13.17-.13.61-.57,1.32-.68,2.1-.44.54.26.94.61.79,1.3Z"/>
      <path class="cls-62" d="M107.31,145.84c-2.19.62-3.09-.19-2.64-2.37,1.07.58,1.83,1.5,2.64,2.37Z"/>
      <path class="cls-24" d="M83.44,307.21c.3-.29.61-.58.91-.87.08.45.12.92.26,1.35.21.67.55,1.54-.17,1.87-.97.44-1.36-.5-1.69-1.26.23-.37.46-.73.69-1.1Z"/>
      <path class="cls-146" d="M1.45,183.4c1.01,1.31.88,2.52-.29,3.65-1.09-1.31-.32-2.47.29-3.65Z"/>
      <path class="cls-64" d="M85.36,162.8c.81-.04,1.39.5,2.05.81.61.27.92.69.7,1.39l-.15.23c-.35.29-.34.76-.55,1.12l-.25.22c-.6-1.26-1.21-2.51-1.81-3.77Z"/>
      <path class="cls-173" d="M41.83,84.12c1.45,1.68.14,2.61-.97,3.59.41-1.17-.51-2.71.97-3.59Z"/>
      <path class="cls-162" d="M2.22,192.99c-.02.95-.04,1.91-.07,2.86-1.34-.64-1.72-1.68-1.23-3.06.5-.41.93-.31,1.3.19Z"/>
      <path class="cls-65" d="M85.31,260.67c-.13-.02-.26-.03-.4-.04.06-1.65.11-3.3.17-4.94.2-.31.38-.29.57.01.29,1.68.29,3.35-.34,4.97Z"/>
      <path class="cls-59" d="M65.57,166.71c-.28,0-.56,0-.85,0-.83-.86-1.1-1.83-.62-2.96,0,0,.3-.13.3-.13.53-.33.47-.94.7-1.41.94,1.42.37,3,.47,4.5Z"/>
      <path class="cls-148" d="M84.55,158.42c.87.16.97,1.1,1.56,1.55-.06.75.18,1.6-.72,2.05-.94-1.05-.86-2.33-.83-3.6Z"/>
      <path class="cls-11" d="M81.92,15.41c-.44.21-.88.41-1.32.62-.87-.85-1.14-1.82-.58-2.96.28-.25.56-.51.83-.76.75.9.64,2.09,1.07,3.1Z"/>
      <path class="cls-31" d="M54.95,46.42c-.33,0-.67.01-1,.02-.48-.42-.43-.97-.37-1.53.56-.24.74-.73.83-1.27.14-.11.27-.21.41-.32.33.14.57.38.71.71.23.9.19,1.74-.58,2.4Z"/>
      <path class="cls-97" d="M44.29,141.69c1.62.01,2.4.99,2.81,2.41-1.27-.41-2.09-1.36-2.81-2.41Z"/>
      <path class="cls-94" d="M58.31,27.83c.52.18,1.18.26.97,1.07-.09.35-.41.64-.76.54-.52-.15-.4-.72-.53-1.12,0-.23.11-.39.32-.49Z"/>
      <path class="cls-173" d="M40.83,87.54c.05,1.08.46,2.26-.74,3.03-.46-.42-.25-1.05-.5-1.53.05-.8.49-1.28,1.25-1.5Z"/>
      <path class="cls-31" d="M58.43,35.09c-.85-.55-.4-1.86-1.36-2.35,0-.24.07-.47.2-.68.45.03.89.05,1.34.08-.06.98-.12,1.96-.18,2.95Z"/>
      <path class="cls-97" d="M51.71,141.97c-.26.25-.51.5-.77.76,0-.5.02-1.01.03-1.51-.25-.17-.34-.34-.28-.53.07-.2.14-.3.21-.29.07-.44.13-.87.2-1.31.93.81.49,1.91.6,2.89Z"/>
      <path class="cls-162" d="M1.11,189.93c.56.38.59.99.69,1.57.11.3.06.57-.16.81-.31.11-.57.05-.8-.19-1.04-.87-.31-1.52.27-2.19Z"/>
      <path class="cls-93" d="M102.76,264.76c.12-1.28-.39-2.69.79-3.74-.21,1.26.34,2.68-.79,3.74Z"/>
      <path class="cls-97" d="M42.14,140.09c1.17-.03,1.96.45,2.21,1.65-.95-.26-1.66-.85-2.21-1.65Z"/>
      <path class="cls-47" d="M75.06,48.32c.27.03.54.05.82.08,0,.63-.19,1.15-.8,1.44-.78-.5-.77-1-.02-1.52Z"/>
      <path class="cls-128" d="M3.34,199.55c.32-.51.76-.76,1.37-.58.54.46.56.94.08,1.46-.59-.12-1.32,0-1.45-.88Z"/>
      <path class="cls-76" d="M4.79,200.43c-.03-.49-.05-.97-.08-1.46,0,0,.22-.17.22-.17,1.13-.06,1.66.38,1.31,1.56-.3.29-.59.59-.89.88-.33-.17-.58-.4-.57-.81Z"/>
      <path class="cls-180" d="M99.96,249.19c.95,1.02.92,1.99-.17,2.89.06-.96.11-1.93.17-2.89Z"/>
      <path class="cls-123" d="M108.25,344.66c-.92-.94-.82-1.87.03-2.79.39.93.25,1.86-.03,2.79Z"/>
      <path class="cls-173" d="M39.84,92.1c.72.24.83.8.76,1.46-.25.19-.46.16-.62-.12-.05-.45-.09-.89-.14-1.34Z"/>
      <path class="cls-6" d="M60.93,221.58c.77.66.64,1.49.42,2.33-.77-.66-.55-1.51-.42-2.33Z"/>
      <path class="cls-157" d="M82.79,280.84c-.73-.68-.5-1.51-.38-2.33.75.68.51,1.51.38,2.33Z"/>
      <path class="cls-114" d="M62.86,73.08c.26.29.52.58.78.87-.09.42-.19.84-.28,1.26-.24-.29-.47-.57-.71-.86.07-.42.14-.85.21-1.27Z"/>
      <path class="cls-42" d="M52.57,75.55c-.68.68-1.49.44-2.28.31.69-.63,1.49-.44,2.28-.31Z"/>
      <path class="cls-169" d="M54.8,35.57c-.01.59-.18,1.11-.74,1.41-.02-.61.08-1.16.74-1.41Z"/>
      <path class="cls-32" d="M39.52,50c0-.27,0-.53.01-.8-.25-.17-.33-.33-.24-.48.09-.15.18-.23.27-.22.57.33.68.87.65,1.46-.23.03-.46.05-.69.04Z"/>
      <path class="cls-42" d="M39.58,89.05c.55.39.49.97.5,1.53-.17.04-.35.06-.53.05,0-.53.02-1.06.03-1.59Z"/>
      <path class="cls-39" d="M50.9,140.39c.02.28.04.55.06.83-.58-.02-1.22.07-1.44-.69.46-.04.92-.09,1.38-.13Z"/>
      <path class="cls-170" d="M112.54,165.7c-.32-.18-.58-.41-.31-.8.02-.03.35.14.54.22.04.24-.04.43-.23.57Z"/>
      <path class="cls-76" d="M.84,192.11c.32,0,.63,0,.95,0,.55-.06.75.18.62.71,0,0-.19.16-.19.17-.43-.06-.87-.13-1.3-.19-.06-.22-.09-.45-.08-.68Z"/>
      <path class="cls-58" d="M85.03,253.42c-.52-.47-.51-1.04-.31-1.64.3.51.43,1.05.31,1.64Z"/>
      <path class="cls-19" d="M37.26,258.58c-.65.06-1.25,0-1.63-.65.64-.03,1.25,0,1.63.65Z"/>
      <path class="cls-4" d="M76.93,4.18c-.23-.27-.46-.53-.68-.8.38.13.62.39.68.8Z"/>
      <path class="cls-4" d="M77.48,4.95c-.19-.26-.37-.52-.56-.78.4.11.62.34.56.78Z"/>
      <path class="cls-42" d="M45.27,76.55c-.23.35-.53.47-.93.34.31-.11.62-.22.93-.34Z"/>
      <path class="cls-42" d="M42.98,77.68c-.27-.07-.54-.14-.8-.21.22-.31.52-.44.9-.36-.03.19-.06.38-.1.57Z"/>
      <path class="cls-42" d="M39.98,93.44c.21.02.42.06.62.11,0,0-.02-.04-.02-.04.18.19.23.42.19.68,0,0-.3.04-.3.03-.17-.26-.33-.53-.5-.79Z"/>
      <path class="cls-14" d="M88.99,99.91c.16.28.32.56.49.85-.39-.15-.54-.44-.49-.85Z"/>
      <path class="cls-50" d="M104.65,102.94c.25-.22.49-.43.74-.65-.04.46-.31.65-.74.65Z"/>
      <path class="cls-2" d="M27.22,111.75c-.57.46-.56.04-.55-.37.26,0,.44.13.55.37Z"/>
      <path class="cls-97" d="M47.03,144.01c.43.1.69.38.78.81-.42-.12-.69-.38-.78-.81Z"/>
      <path class="cls-150" d="M83.93,148.92c.33.23.56.51.5.94-.4-.19-.55-.51-.5-.94Z"/>
      <path class="cls-150" d="M84.51,151.14l-.33-.02s-.33,0-.33,0c-.04-.45.16-.73.57-.87.03.3.06.59.08.89Z"/>
      <path class="cls-31" d="M39.91,158.72c.07.18.17.36.21.55.01.06-.15.15-.22.22,0-.26,0-.52.01-.77Z"/>
      <path class="cls-160" d="M108.32,167.75c.2,0,.41.01.61.03-.22.23-.45.46-.67.7.02-.24.04-.48.06-.73Z"/>
      <path class="cls-6" d="M53.48,185.41c.2-.35.5-.47.88-.37-.22.29-.51.43-.88.37Z"/>
      <path class="cls-163" d="M118.11,219.76c-.16-.26-.31-.52-.47-.78.16.26.31.52.47.78Z"/>
      <path class="cls-133" d="M123.26,235.33c.03-.28.06-.56.09-.84.05.2.13.41.15.61,0,.07-.16.15-.24.23Z"/>
      <path class="cls-133" d="M121.67,238.15c-.03-.4.13-.67.51-.8.06.42-.17.64-.51.8Z"/>
      <path class="cls-142" d="M120.11,239.85c.13-.5.4-.87.92-1.01-.16.48-.46.82-.92,1.01Z"/>
      <path class="cls-1" d="M83.27,246.81c-.17-.27-.34-.55-.51-.82.42.12.64.36.51.82Z"/>
      <path class="cls-25" d="M107.23,248.89c.08-.38.32-.61.7-.71-.23.24-.46.47-.7.71Z"/>
      <path class="cls-25" d="M106.49,248.85c.24.01.49.03.73.04-.07.42-.3.7-.69.85-.01-.3-.03-.6-.04-.9Z"/>
      <path class="cls-58" d="M85.64,255.7c-.19-.01-.38-.02-.57-.01.06-.32.11-.63.17-.95.13.32.27.64.4.96Z"/>
      <path class="cls-96" d="M48.76,268.03c-.35-.23-.52-.54-.5-.96.34.23.52.55.5.96Z"/>
      <path class="cls-124" d="M23.15,273.08c-.23.23-.45.47-.68.7-.02-.23-.04-.47-.06-.7.25,0,.49,0,.74,0Z"/>
      <path class="cls-85" d="M86.39,320.32c.38.11.62.33.67.74-.39-.09-.62-.34-.67-.74Z"/>
      <path class="cls-85" d="M88.54,322.52c-.02.24-.03.47-.05.71-.35-.17-.56-.43-.55-.84.21-.02.41.02.6.12Z"/>
      <path class="cls-85" d="M88.62,323.9c.37.18.51.47.43.87-.33-.2-.53-.46-.43-.87Z"/>
      <path class="cls-107" d="M103.23,329.19c-.29-.26-.43-.57-.33-.97.35.24.49.56.33.97Z"/>
      <path class="cls-107" d="M93.75,319.91c-.89-.79-1.24-1.81-1.29-2.97.08-.19.22-.32.41-.39.16-.14.23-.31.2-.53.01-.35-.16-.65-.21-.99,0-.42.13-.75.51-.96,1.31-.14,1.07,1.02,1.19,1.63.18.9,0,1.87-.02,2.81-.59.29-.76.81-.81,1.41h0Z"/>
      <path class="cls-128" d="M93.37,314.07c-.02.49-.04.99-.06,1.48-.85.37-1.07-.36-1.44-.83-.32-.81-.48-1.53.78-1.53.24.29.48.59.71.88Z"/>
      <path class="cls-107" d="M95.84,320.77c-.54-.35-.64-.89-.63-1.48.58.33.68.87.63,1.48Z"/>
      <path class="cls-107" d="M95.21,319.29c-.22-.26-.44-.52-.66-.78.22.26.44.52.66.78Z"/>
      <path class="cls-25" d="M91.87,314.73c.48.28.96.55,1.44.83.71.54-.02.96-.13,1.43-.24-.01-.48-.03-.72-.04h0c-.21-.27-.46-.51-.61-.82,0-.46.01-.93.02-1.39Z"/>
      <path class="cls-38" d="M99.08,341.24c-.93-.79-1.27-1.82-1.22-3,1.15.7,1.37,1.78,1.22,3Z"/>
      <path class="cls-107" d="M91.86,316.12c.2.27.4.55.61.82-.2-.27-.4-.55-.61-.82Z"/>
      <path class="cls-107" d="M93.74,319.92c.1.06.28.14.27.17-.06.23-.17.16-.26-.18h0Z"/>
      <path class="cls-103" d="M103.77,91.89c-1.47,2.16-1.96,5.51-4.29,7.6-1.82,1.63-4.51.96-6.83,1.13-.67.05-.76-.78-.83-1.39-.28-2.6-.62-5.19-.85-7.79-.14-1.58.66-2.35,2.77-2.41.89-.03,1.41.06,2.02-.84,1.46-2.13,3.01-2.67,4.73-2.03,1.6.6,3.43,3.48,3.27,5.74Z"/>
      <path class="cls-95" d="M87.7,94.74c-1.3-.68-1.33-1.85-1.29-3.1.06-1.8.41-3.58.11-5.4-.27-1.67,1.35-2.12,2.16-3.07,2.85-3.39,6.1-3.64,9.88-.87-3.02-.34-5.94-.27-8.61,1.55-.96.65-1.69,1.24-1.77,2.47-.18,2.8-1.36,5.55-.48,8.42Z"/>
      <path class="cls-48" d="M44.79,32.13c.66,2.48,1.44,4.98-1.74,6.41-2.38,1.53-2.73,3.45-1.06,5.73-.13,1,.21,2.14-.86,2.86-.91.35-1.79.79-2.39-.53-.59-1.31-1.28-2.59-2.03-3.81-.48-.79-.93-1.66-2.18-1.57-2.4.17-5.95-1.7-6.91-3.54-.75-1.44.19-3.67,2.3-4.66,1.92-.9,3.41-2.54,5.61-2.98.82-.16,1.49-1.07,2.49-1.83,1.42,2.83,3.75,4.03,6.76,3.92Z"/>
      <path class="cls-147" d="M39.56,48.49c0,.24-.01.47-.03.71-.96-.04-1.93-.08-2.89-.12-6.39,1.02-15.27-3.15-16.96-9.19-.78-2.8-.06-5.18,1.44-7.47,2.2-.72,2.48.66,2.23,2.24-.49,3.04.11,5.12,3.39,6.39,1.71.66,3.43,2.12,4.32,4.06,2.24,2.61,5.14,3.58,8.5,3.39Z"/>
      <path class="cls-159" d="M31.06,45.1c-2.23-1.68-4.03-3.91-7.17-4.3-1.64-.2-2.27-2.6-1.45-5.23.45-1.44.67-2.51-.81-3.33-1.17-2.11-.3-3.41,1.7-4.25.1,1.23-.63,2.57.51,3.65.23,2.69.97,5.15,2.67,7.36.94,1.22,1.61,2.59,3.01,3.44.94.56,1.59,1.45,1.54,2.66Z"/>
      <path class="cls-115" d="M23.33,27.99c-1.47,1.06-1.68,2.62-1.7,4.25-.08.35-.17.7-.25,1.05-.46,2.04-1.84,3.99-1.06,6.17,1.13,3.2,3.34,5.65,6.47,6.84,3.18,1.2,6.23,3.1,9.86,2.78-.47.75-1.08,1.4-2.04,1.18-4.36-1-8.89-1.21-12.39-4.89-3-3.15-4.61-7.58-3.21-11.78,1.03-3.09,2.81-5.76,4.48-8.51.57,1,.38,1.96-.14,2.9h0Z"/>
      <path class="cls-159" d="M23.34,27.99c.05-.97.1-1.93.14-2.9.54-1.97,1.83-3.09,3.83-3.42-1.32,2.11-2.65,4.21-3.97,6.32Z"/>
      <path class="cls-89" d="M62.81,175.27c-.25.24-.5.47-.74.71-.51.45-1.02.91-1.52,1.36-1.16,1.43-2.56,2.5-4.39,2.97-.57.15-1.31.74-1.66.29-1.99-2.62-4.99-1.77-7.57-2.41-3.03-.75-4.24-3.73-3-6.9,1.9-4.85,4.21-9.46,7.65-13.45.94-1.08,2.03-1.55,3.13-.74,3.64,2.67,7.85,4.98,7.44,10.57-.19,2.55,2.42,4.88.65,7.59Z"/>
      <path class="cls-167" d="M62.81,175.27c.12-1.73-.47-3.32-1.08-4.89-.44-1.14-.76-2.27-.62-3.51.39-3.55-1.81-5.55-4.52-7.08-.83-.47-1.58-.59-2.02-1.7-.46-1.15-1.97-.96-2.27.32-.52,2.2-1.79,3.56-3.69,4.59-.69.37-1.66.98-1.41,1.91.63,2.34-.96,3.86-1.83,5.66-.46.96-1.25,1.77-1.18,2.96.14,2.47,1.17,3.58,3.71,4.04.62.11,1.18,0,1.77-.03,3.58-.18,3.58-.17,5.16,2.72,1.9-.97,3.81-1.94,5.71-2.92-.5,1.98-1.34,3.45-3.77,3.56-1.5.07-2.95.82-4.43,1.22-2.4.65-4.21.13-5.78-1.62-.78-.87-1.7-1.26-2.84-1.23h0c-.35-.53-.55-1.16-1-1.64-.16-.29-.3-.59-.42-.89-2.58-2.6-.53-5.66-.85-8.48h0c-.39-.51-.36-.99.08-1.44.36-5.41,3.25-8.73,8.41-10.2.57-.16.94-.7,1.36-1.11.23-.22.5-.4.79-.53.55-.3,1.26-.02,1.75-.51.24.01.48.03.72.05.35.47,1.05.33,1.41.8,2.77,1.61,5.33,3.42,6.67,6.49.34.77.68,1.52,1.46,1.95.56.91.7,1.91.62,2.96.16,1.41.36,2.82.48,4.24.17,1.96-.41,3.54-2.4,4.32Z"/>
      <path class="cls-79" d="M66.73,221.19c-1.33-3.57-2.74-7.11-3.96-10.72-1.99-5.86-4.03-11.72-4.61-17.96-.22-2.38-.74-4.72-1.53-7-1.2-3.45-.98-3.73,2.85-3.95,0,0,.11.1.11.1-.77,2.06-.71,3.97-.05,6.19,1.39,4.73,2.83,9.46,4.1,14.24.5,4.07,1.88,7.93,3,11.84.56,1.97,1.08,3.92,1.24,5.96.02.56-.05,1.08-.61,1.38-.18-.03-.36-.06-.53-.09Z"/>
      <path class="cls-91" d="M67.22,224.19c-.97-.18-1.72-.63-2.02-1.63.51-.45,1.02-.91,1.53-1.36h0c.75.72.96,1.61.79,2.62-.1.12-.2.25-.3.37Z"/>
      <path class="cls-158" d="M59.49,106.19c-.01.24-.03.49-.04.73-.26.24-.52.47-.77.71-2.5.57-3.73,1.84-2.41,4.46.54,1.08-.18,2.33.52,3.38h0c.39.43.24,1.07.61,1.51v-.02c.67.6-.03,1.6.63,2.2,1.39,5.28,2.61,10.59,2.73,16.09,2.04,3.26.91,6.78.85,10.22-2.09-.31-.98-2.03-1.38-3.09-.12-.31.29-.98-.3-.89-.32.05-.67.63-1.05.93h0c-1.58,1.64-1.98.12-2.37-.97-.68-1.94-.9-4.02-.84-6.01.13-4.57-.91-9.01-1.16-13.54-.19-3.51-2.3-6.75-2.1-10.44.04-.71-.15-1.41.35-2.03.02-.24.05-.47.07-.71.8-3.76,1.09-3.87,6.66-2.53Z"/>
      <path class="cls-126" d="M52.76,109.43c.76,3.58.72,7.35,2.74,10.62.28.45.17,1.16.19,1.76.01.6-.18,1.22-.07,1.79,1.19,5.96.73,12.08,1.8,18.05.21,1.16.74.97,1.46.78-.48,2.15-2.03,3.76-2.79,5.79-.73-.51-.94-1.21-.98-1.91-.29-4.43-1.07-8.81-1.41-13.24-.2-2.57-.7-5.15-.47-7.72.44-4.7-1.74-9.03-1.69-13.67.01-1.17.24-1.8,1.22-2.25Z"/>
      <path class="cls-129" d="M59.49,106.19c-.87.36-1.83.93-2.69.52-2.3-1.09-3.19.28-3.97,2.01q-.79-2.91-4.14-3.12c.84-1.96.88-4.17,1.91-6.07,2.37-.7,4.97-.6,7.12-2.06,1.31-.6,1.97-2.36,3.76-2.11-.29,3.68-.5,7.38-1.99,10.84Z"/>
      <path class="cls-52" d="M50.39,99.9c.47,2.21.95,4.42-1.7,5.69-.09.56-.21,1.1-.78,1.38-3.66-1.39-3.99-1.95-4.03-6.75,1.38-.54,2.89.05,4.27-.48.31-.09.62-.14.94-.2.16-.02.32-.03.48-.04.33.02.61.15.83.39Z"/>
      <path class="cls-126" d="M58.88,142.43c.42-1.1.81-2.21,1.27-3.3.06-.15.38-.2.73-.38.98,2.18-.81,4.68.73,6.73-.05.72-.1,1.44-.15,2.17-.97,1.28.04,3-.96,4.27h0c-.4.43-1.07.24-1.48.65,0,0-.01,0-.01,0-1.61-.05-3.19-.19-4.24-1.68,1.25-.75,2.86.69,4-.66.98-1.16.05-2.52.38-3.78.35-1.34.86-2.76-.26-4.03Z"/>
      <path class="cls-52" d="M48.37,109.21c-.53-.39-.63-.93-.55-1.53.51.39.62.93.55,1.53Z"/>
      <path class="cls-160" d="M111.67,158.48c1.05,3.12,0,5.49-2.53,7.4-.65.49-1.16,1.16-1.73,1.75-2.08,2.79-5.18,4.03-8.21,5.36-3.23-1.16-6.64-2.05-8.43-5.43-3.64-3.41-3.07-7.59-2.18-11.84h0c.25-.23.51-.45.76-.69.26-.22.52-.45.76-.69h0c1.14-.85,1.57-3.07,3.74-1.95.52,1.66-.77,2.67-1.43,3.89-1.28,2.36-1.82,4.69-.22,7.14,1.07,1.64,2.43,2.65,4.45,2.53,1.98-.12,3.56-.98,4.13-2.93.85-2.88,2.26-3.78,4.99-2.06,1.05.66,2.42.86,3.25-.36.88-1.29-.2-2.2-.98-3.12-2.81-3.31-6.64-4.12-10.69-4.38-1.28-.08-2.69.48-3.62-.93,2.38-3.77,4.5-4.63,9.03-3.64,1.54,1.22,3.14,2.34,4.94,3.15,0,0-.02,0-.02,0,.15.33.41.55.67.78h0c.19.29.42.54.68.77h0c.93,1.71,2.49,3.12,2.61,5.25Z"/>
      <path class="cls-117" d="M67.49,220.51c-1.33-4.74-2.69-9.46-3.97-14.21-.37-1.38-1.01-2.73-.77-4.22.33-.18.66-.16.97.05,2.06,2.92,2.43,6.44,3.51,9.72.03,1.76,1.5,3.17,1.24,5-.08,1.23-.17,2.47-.25,3.7-.13.08-.25.15-.38.23-.12-.09-.23-.18-.35-.26Z"/>
      <path class="cls-167" d="M88.59,155.72c.85,1.31.59,2.94.33,4.12-.65,3,.54,5.31,1.85,7.71-1.51-.2-1.83-1.63-2.65-2.55-.23-.46-.47-.92-.7-1.39-.46-2.76-1.42-5.59,1.17-7.89Z"/>
      <path class="cls-118" d="M87.43,166.35c-.1-.51-.02-.93.55-1.12,0,.46.06.95-.55,1.12Z"/>
      <path class="cls-117" d="M68.96,220.61c0,.24-.02.48-.07.71-.65.13-.89-.1-.69-.75,0,0,.01-.02.01-.02.25.02.5.04.75.05Z"/>
      <path class="cls-29" d="M84.6,46.69c.29-.46.57-.92.86-1.38,1.69-2.08-.16-5.2,2.11-7.1.23-.67.72-1.31.69-2.02-.12-2.52.37-3.72,3.48-3.09,1.87.38,4.07-1.07,5.96.58,0,0,.02-.02.02-.02,1.63,1.82,3.29,3.58,4.06,6.03.76,2.43.9,4.61-1.15,6.47-.23.25-.53.42-.77.67-.24,0-.48,0-.71-.02-1.52.28-2.02-.86-2.64-2.61.01.25-.38,1.1.01.81.86,1.44-.27,2.19-1.07,3.05h0c-2.58-.76-4.84-.38-7.27,1.01-1.82,1.04-2.89-.79-3.59-2.39Z"/>
      <path class="cls-71" d="M95.45,48.07c.1-1.31,1.13-2.32.88-4.05,1.23,1.1,1.69,2.3,2.81,2.8-.5.88-1.77.42-2.26,1.3-.48-.02-.95-.03-1.43-.05Z"/>
      <path class="cls-71" d="M99.85,46.83c.26-.22.51-.45.77-.67-.26.22-.51.45-.77.67Z"/>
      <path class="cls-158" d="M60.5,151.92c.32-1.42-.37-3.08.96-4.27-.05,1.21-.1,2.43-.15,3.64-.27.21-.54.42-.81.63Z"/>
      <path class="cls-122" d="M58.3,37.95c2.21-1.61,4.31-3.27,5.67-5.78,1.06-1.96,2.55-2.15,4.58-1.02,2.46,1.37,3.78,3.81,4.74,6.16,1.13,2.76,1,5.89.32,8.86-.62,2.69-2.2,4.72-4.58,6.11-.15.33-.4.56-.74.68h0c-.22.27-.48.49-.76.68,0,0-.02,0-.02,0-3.16-.19-5.5-1.94-7.68-4.01-.92-1.96-.72-4.32-2.74-5.95-1.08-.87-.77-2.67-.12-4.06.3-.69.59-1.38,1.36-1.67Z"/>
      <path class="cls-43" d="M61.48,95.35c-1,.92-2.01,1.85-3.01,2.77-2.9.7-5.79,1.45-8.78,1.67l.02.07c-.33.22-.69.3-1.08.25-5.29-2.51-7.06-8.91-3.57-13.4,1.2-1.55,1.97-3.15,2.49-5.04,1.06-3.84,4.03-5,7.73-3.3,1.31.58,1.79,2.36,3.48,2.38,0,0,.05-.04.05-.04,1.37.93,1.93,2.43,2.65,3.81,0,0,0,0,0,0-.33,1.48.27,2.87.62,4.21.6,2.34.38,4.48-.6,6.61Z"/>
      <path class="cls-42" d="M55.29,78.38c-4.51-.8-6.21.44-6.92,4.99-.23,1.5-1.23,2.52-2.24,3.55-2.42,2.46-2.64,7.1-.3,9.65,1.01,1.1,1.35,2.89,3.14,3.22.16.17.21.33.13.48-.07.14-.14.22-.2.21-1.7.36-3.42,1.11-5.03-.24h0c-.59-.65.02-1.6-.56-2.25-.24-.48-.47-.96-.71-1.44.06-1.66.48-3.34-.34-4.94-.42-.82-.02-1.5.2-2.32.82-3.03,2.68-5.86,2.02-9.22-.22-1.12.52-1.67,1.4-2.23,2.54-1.62,5.33-.94,8.04-1.02.46.29.93.58,1.39.87,0,.23,0,.47-.01.7Z"/>
      <path class="cls-61" d="M65.69,61.62c-.73,3.13-2.44,5.97-2.78,9.22-.79.39-.9,2.56-2.49.88-.78-.82-1.8.31-2.95-.17,1.16-1.23,2.23-2.46,1.94-4.22,2.74-1.23,3.09-4.39,5.05-6.25.17-.16.36-.41.55-.42.68-.04.59.54.67.97Z"/>
      <path class="cls-84" d="M57.48,39.33c-.04.96-.09,1.92-.12,2.88-.02.76.15,1.72.84,1.84,3.25.58,2.18,2.62,1.69,4.51-.09.34-.05.72-.08,1.08-.27.01-.53.02-.8.03-1.79-.53-3.34-1.37-4.06-3.25.07-.93.13-1.86.2-2.79,0-1.64.73-3.03,1.56-4.38h0c.28-.29.53-.26.75.07Z"/>
      <path class="cls-30" d="M58.95,78.63c-.08.47-.16.94-.24,1.41-.65-.6-.58-1.06.24-1.41Z"/>
      <path class="cls-55" d="M49.31,284.74c-.02.49-.04.97-.07,1.46-.8,1.08-1.78,1.31-2.94.58l-.35-.04h-.35c-.73.43-1.44.35-2.13-.11l-.06-.07c.7-2.26,3.06-1.23,4.4-2.24.57-.09,1.08-.01,1.51.41Z"/>
      <path class="cls-140" d="M46.3,286.78c1.04.12,2.01-.13,2.94-.58-.61,2.05-1.72,1.62-2.94.58Z"/>
      <path class="cls-140" d="M43.46,286.64c.71.03,1.42.06,2.13.09-.59.79-1.42.63-2.22.58.02-.22.05-.45.09-.67Z"/>
      <path class="cls-41" d="M41.98,44.27c-.35-.31-.8-.56-1.05-.94-2.19-3.36-2.03-3.69,2.11-4.79-.11.94.15,2.04-.59,2.73-1.02.94-.43,1.99-.47,3Z"/>
      <path class="cls-25" d="M105.75,248.77c.23-.24.46-.48.69-.72.01.26.03.53.04.79-.24-.02-.49-.04-.73-.07Z"/>
      <path class="cls-25" d="M99.24,324.63c-.22-.27-.43-.54-.65-.8.22.27.43.54.65.8Z"/>
      <path class="cls-132" d="M49.31,284.74c-.47-.02-.94-.03-1.42-.05-.06-.15-.11-.3-.17-.45.55-1.69,1.21-3.33,2.48-4.64.34-.14.61-.06.83.22,0,.23.04.46.1.68.15.28.34.54.58.76,0,0,0,0,0,0-.79,1.17-1.21,2.6-2.41,3.48Z"/>
      <path class="cls-35" d="M68.39,269.13c-.22-.27-.43-.54-.65-.81-.42-.4-.56-.9-.48-1.46.1-.34.27-.64.52-.89,1.18-.65,2.77-1.25,3.72-.55,2.45,1.78,4.73.59,7.09.2.33.1.61.29.83.56-1.25,1.35.08,2.88-.29,4.29-1.71.62-3.35-.36-5.04-.24,0,0,0,0,0,0-.86-.59-1.55-1.69-2.85-.93-.95-.03-1.94.64-2.85-.16Z"/>
      <path class="cls-45" d="M19.55,183.69c.69.52,1.39,1.05,2.08,1.57,2.5,2.21,3.72,4.81,2.45,8.15-.06.69-.13,1.38-.19,2.07-.23.26-.46.51-.69.77-.31.21-.61.2-.9-.04.44-5.23-3.36-8.4-5.94-12.17.04-.39.23-.68.57-.87.99-.4,1.83-.07,2.62.52Z"/>
      <path class="cls-21" d="M22.48,196.22c.24,0,.48.01.72.03.02,1.26-1.2,1.79-1.65,2.77-.98,1.28-1.9,2.64-3.76,2.69-.49-1.54.56-2.52,1.29-3.62,1.04-.8,2.01-1.72,3.41-1.87Z"/>
      <path class="cls-69" d="M59.19,213.53c-.2-.21-.4-.43-.6-.64.45-.02.59.25.6.64Z"/>
      <path class="cls-132" d="M47.89,284.68c-.5.88-1.23,1.32-2.26,1.28-.8-.03-1.63-.14-2.23.59-2.16.34-3.62,2.18-5.8,2.63-1.32.27-2.16.23-3.22-.61-2.06-1.61-3.93-3.45-6.1-4.96-1.77-1.23-2.33-3.53-2.56-5.74-.25-2.41.52-4.73.55-7.11,0-.76.61-1.26,1.11-1.78,2.22-2.33,5.16-3.46,8.06-4.45,1.87-.64,3.8.33,5.44,1.33.94.57,1.77,1.21,2.92,1.16.15.05.3.1.44.14.91.86,1.61,1.88,2.32,2.89h-.01c.18.29.44.51.65.79,1.57,2,2.12,4.5,3.27,6.71.35.43.29.9.13,1.38-1.8.49-1.87-1.17-2.57-2.05-.21-.5-.32-1.04-.48-1.56-.1-.22-.2-.45-.31-.66-.14-.19-.28-.39-.42-.58,0,0-.23-.28-.24-.28-.17-.18-.34-.36-.5-.55-.09-.09-.17-.19-.26-.28-.19-.19-.37-.38-.54-.58-.1-.1-.18-.21-.28-.31-.2-.21-.37-.43-.55-.66-.2-.24-.38-.48-.55-.74-1.94-1.7-4.11-2.73-6.69-3.32-3.25-.73-4.94,1.2-6.82,3.05-1.28,1.26.44,1.84.73,2.73.4,1.25.54,2.48-.71,3.21-1.39.82-2.11-.08-2.37-1.44.04,3.62,1.22,6.53,4.46,8.5,1.61.98,3.24,1.46,4.73.54,2.56-1.58,5.06-1.09,7.66-.49,1.08.16,2.19.25,2.96,1.17l.02.03Z"/>
      <path class="cls-174" d="M28.87,261.82c1.08.09,2.14-.14,3.21-.23,5.32-.46,10,.78,13.15,5.55-.51.39-.98.32-1.42-.11-4.03-4.5-8.87-5.36-14.53-2.37-1.61.85-3.63,1.38-4.35,3.44,0,0-.07.06-.07.06-.26.28-.5.28-.7-.06-1.01-3.68-1-3.71,2.12-5.15.85-.4,1.73-.75,2.59-1.12Z"/>
      <path class="cls-124" d="M24.83,282.63c-.6-.34-.71-.89-.66-1.51.56.35.67.9.66,1.51Z"/>
      <path class="cls-23" d="M37.37,290.64c-.19.32-.4.41-.64.06.21-.09.42-.11.64-.06Z"/>
      <path class="cls-23" d="M38.48,291.31c-.13-.24-.25-.47-.38-.71.43.07.65.26.38.71Z"/>
      <path class="cls-116" d="M107.54,243.09c-.57.09-1.14.17-1.71.27q-4.34.74-6.08-2.89s-.1.04-.1.04c-1.39-2.3-1.73-4.93-2.35-7.46-.53-2.33-1.26-4.63-1.55-6.98-.54-4.39-.12-5.78,4.2-7.96,4.54-2.29,8.65-1.08,12.51,1.15,4.03,2.33,6.72,6.09,8.55,10.35.81,1.89.21,3.8-1.05,5.39-.81,1.02-1.78,1.92-2.68,2.87-3.29,1.47-5.56-1.7-8.49-1.86-1.11-1.59.31-2.39,1.08-3.35,2.99-3.74,1.56-9.86-2.73-11.87-1.6-.75-2.78-.21-3.91.86-3.09,2.94-4.17,9.98-2.22,13.84,1.15,2.29,2.98,1.45,4.72,1.24,1.15-.14,2.25-1.92,3.48-.13.48,2.44.83,4.84-1.65,6.53Z"/>
      <path class="cls-177" d="M108.67,235.9c1.53-.73,2.93-.84,4.29.47,1.17,1.13,2.68,1.54,4.31,1.47-.51.46-1.02.91-1.52,1.37h0c-1.23.43-2.66.24-3.69,1.25h0c-1.07.57-2,1.36-3.01,2.03-.24.22-.49.45-.73.67-.26-.02-.51-.05-.77-.07,1.41-2.23.81-4.78,1.12-7.19h0Z"/>
      <path class="cls-184" d="M97.29,233.04c1.97,2.11,2.11,4.81,2.36,7.46-1.8-.87-2.64-2.28-2.66-4.3-.01-1.05-.32-2.09-.5-3.14.27,0,.54-.02.8-.02Z"/>
      <path class="cls-70" d="M23.05,109.2c.24.25.48.49.72.74.22.26.39.56.67.77,0,0,0,0,0,0-.05.76.24,1.38.68,1.98.98,1.35,1.28,2.73.42,4.32-.37.69-.63,1.45-.58,2.37.28,5.95-3.87,9.11-9.57,7.37-.45-.14-.85-.43-1.27-.65-6.04-1.4-7.31-2.96-7.51-9.2-.2-6.15,2.77-11.11,7.41-12.4.38-.04.76-.02,1.14.05,3,.91,5.68,2.39,7.89,4.65Z"/>
      <path class="cls-99" d="M14.59,105.08c-3.81.38-5,3.23-6.09,6.29-1.13,3.15-1.01,6.36-.51,9.54.33,2.12,1.78,3.63,3.89,4.28.78.24,1.72.03,2.24.9-3.87.39-6.52-1.2-8.15-4.75-.53-1.14-1.51-2.07-2.29-3.1-.84-1.1-.14-2.68-1.19-3.71.33-1.97.81-3.9,1.75-5.68,1.83-2.8,4.75-3.91,7.73-4.86,1.08-.35,2.43-.89,2.63,1.09Z"/>
      <path class="cls-34" d="M67.23,211.85c-1.97-2.95-2.82-6.34-3.78-9.69-1.86-5.77-2.52-11.75-3.07-17.74-.09-.97-.11-1.94.57-2.75v.02c.31-.17.53-.44.81-.64.59-.72,1.43-.99,2.26-1.31-.49,4.06.06,8.06.7,12.06.92,5.72,1.75,11.46,2.57,17.2.13.93-.03,1.9-.06,2.86Z"/>
      <path class="cls-151" d="M65.34,67.37c-.18-1.54.63-2.86.97-4.29,1.02-1.93,2.59-3.22,4.46-4.37,3.53-2.18,6.81-4.73,9.64-7.8,1.17-1.27,2.78-1.82,4.15-2.76,1.18-.13,1.6.41,1.36,1.53-2.63.51-3.8,2.86-5.14,4.64-2.36,3.17-5.19,5.62-8.65,7.33-2.76,1.37-4.64,3.68-6.79,5.71Z"/>
      <path class="cls-71" d="M85.91,49.68c-.22-.71-.69-1.21-1.36-1.53-.2-.5-.41-.99-.61-1.49.22,0,.44.02.66.03.45.37.97.69,1.35,1.13.95,1.09,1.89,1.47,2.86.08.45-.66,1.13-.76,1.8-1.01,1.34-.5,2.65-1.23,3.56.68.14.3.84.34,1.28.49-.37.61-.68,1.27-1.13,1.82-1.42,1.73-2.29,1.99-4.34.96-1.31-.66-2.6-1.18-4.07-1.16Z"/>
      <path class="cls-44" d="M80.02,13.08c.44.94.71,1.91.58,2.96-.02.23-.04.46-.07.69-.27.21-.51.46-.75.7h0c-.27.2-.53.43-.76.69h0c-1.25,4.7-2.95,6.5-6.15,6.52-3.71.02-6.02-1.87-6.72-5.49-.76-3.88,1.53-9.31,4.97-11.19,2.32-1.27,4.4-.28,6.22,1.34.89,1.26,1.79,2.52,2.68,3.78Z"/>
      <path class="cls-11" d="M77.34,9.29c-1.3-.18-2.42-.96-3.8-.97-1.42-.01-2.67-.07-2.87,1.79-.07.62-.57,1-1.03,1.4-3.66,3.16-3.71,8.36-.22,11.62,1.53,1.43,3.28,1.17,5.05,1.01.31-.03.85-.4.83-.57-.3-2.89,3.66-2.86,3.72-5.47-.03,2.77-.71,5.37-1.94,7.84-2.24-.68-4.41-1.65-6.75-.04-.91.63-4.36-1.51-4.6-2.69-.16-.79.11-1.68-.66-2.28-.95-2.39-.59-4.96-1-7.43-.35-2.08,1.03-3.29,2.43-4.51.99-.86,2.45-1.11,3.09-2.4.19-.38.71-.49.66-1.11-.12-1.59.23-1.89,1.54-1.46,2.66.88,4.43,2.75,5.55,5.27Z"/>
      <path class="cls-31" d="M57.48,39.33c-.25-.03-.5-.05-.75-.08.21-1.13.72-2.07,1.65-2.76-.02.49-.05.98-.07,1.46-.27.46-.55.92-.82,1.38Z"/>
      <path class="cls-145" d="M68.29,52.97c.25-.23.5-.46.74-.68.26.04.53.08.79.11-.38.54-.93.64-1.54.57Z"/>
      <path class="cls-161" d="M74.28,33.18c-.15.17-.31.34-.46.51-.03-.22-.05-.44-.05-.66.18.03.34.08.51.15Z"/>
      <path class="cls-5" d="M24.09,193.41c.43-3.09-1.55-5.46-2.45-8.15,2.26.34,3.51,1.76,4.11,3.86-.04.22-.06.45-.06.68-.41.41-.31,1.06-.7,1.47-.17.77-.13,1.62-.89,2.14Z"/>
      <path class="cls-178" d="M24.97,191.26c0-.61.17-1.12.7-1.47,0,.61-.14,1.14-.7,1.47Z"/>
      <path class="cls-9" d="M97.69,33.68c-1.6-.01-3.19-1.24-4.75.77-.98,1.26-2.11-1.04-3.62-.92-.48,1.5.52,3.55-1.32,4.66-.28.29-.54.27-.76-.06.02-.35.17-.76.05-1.05-1.15-2.74.34-4.19,2.53-5.32,1.52.08,3.03.15,4.55.25,1.33.09,2.51.51,3.31,1.66Z"/>
      <path class="cls-91" d="M64.9,240.68c.14-1.32-.37-3.18,2.19-2.3.77.26,1.27-.47,1.6-1.16-.49-4.35-.98-8.7-1.47-13.04,0,0,.09-.09.09-.09.48-.56,1.05-.94,1.83-.88.92.6,1.83,1.21.95,2.5.33,4.09,1.87,7.87,3.06,11.74-.03.25-.07.49-.1.74-2.79.57-4.95,3.24-8.15,2.48Z"/>
      <path class="cls-139" d="M19.55,183.69c-.96-.06-1.93-.12-2.89-.17-1.64.25-3.04-.62-4.55-.97-3.63-.84-6.69,1.12-7.36,4.71-.27,1.44-.09,3.25-2.28,3.46.03-.72.14-1.44.09-2.15-.26-3.41.66-6.34,3.41-8.54,1.01-.41,2.01-.83,3.02-1.24.59.02,1.19.11,1.78.05,4.05-.4,6.63,1.84,8.78,4.85Z"/>
      <path class="cls-37" d="M87.25,38.13c.25.02.51.04.76.06-.89,1.25-.93,2.71-.96,4.16-.02,1.27-.25,2.41-1.6,2.96.1-2.17-.47-4.38.36-6.51.34-.53.86-.65,1.44-.67Z"/>
      <path class="cls-167" d="M102.78,148.54c-2.3-.22-4.47-.17-6.09,1.95-.68.89-2.35.57-2.84,1.9-1.68-.17-2.38,1.53-3.74,1.96.51-1.72,1.48-3.25,2.57-4.59,2.57-3.14,5.41-3.38,10.11-1.22Z"/>
      <path class="cls-167" d="M90.11,154.35c-.25.23-.51.46-.76.69.25-.23.51-.46.76-.69Z"/>
      <path class="cls-167" d="M89.35,155.03c-.25.23-.51.46-.76.69.25-.23.51-.46.76-.69Z"/>
      <path class="cls-32" d="M55.44,62.44c-.13,1,.2,2.14-.9,2.84.14-1-.15-2.13.9-2.84Z"/>
      <path class="cls-54" d="M56.79,115.47c-.65-1.52-1.35-3.02-1.95-4.55-.9-2.29-.78-2.48,1.73-3.08.68-.16,1.41-.14,2.12-.2-.44.68-1.8.99-1.4,1.89.97,2.15-.39,3.97-.5,5.94Z"/>
      <path class="cls-54" d="M58.02,119.17c-.75-.58-.66-1.4-.64-2.2.86.55.67,1.4.64,2.2Z"/>
      <path class="cls-54" d="M57.4,116.98c-.55-.37-.66-.91-.61-1.52.57.36.67.9.61,1.52Z"/>
      <path class="cls-149" d="M95.07,143.76c-.58.78-1.41.63-2.22.59.58-.8,1.41-.64,2.22-.59Z"/>
      <path class="cls-31" d="M41.09,160.17c1.57-4.56,3.47-5.99,7.99-6.01.83,0,1.66.07,2.49.11.27.04.55.07.82.11.23.18.3.34.21.49-.09.15-.18.22-.27.21h0c-4.11.87-7.18,3.97-11.11,5.23l-.15-.14Z"/>
      <path class="cls-15" d="M52.34,155.08c.02-.23.04-.47.06-.7.48.03.96.05,1.45.08-.35.56-.9.66-1.5.62Z"/>
      <path class="cls-15" d="M55.97,155.31c-.6-.04-1.12-.21-1.41-.8.6.03,1.12.2,1.41.8Z"/>
      <path class="cls-124" d="M24.16,268.09c.23.01.47.03.7.06-.12.99.24,2.13-.85,2.82.05-.96.1-1.92.15-2.89Z"/>
      <path class="cls-124" d="M24.01,270.99c-.05.59-.21,1.11-.79,1.4.03-.6.2-1.12.79-1.4Z"/>
      <path class="cls-145" d="M67.52,53.65c.25-.22.51-.44.76-.66-.11.38-.38.6-.76.66Z"/>
      <path class="cls-55" d="M43.81,267.03c.47.04.95.07,1.42.11.24.24.48.49.73.73.21.73.41,1.47.62,2.2-1.26-.7-2.13-1.77-2.76-3.04Z"/>
      <path class="cls-15" d="M111.67,158.48c-1.18-1.6-2.23-3.26-2.61-5.26.24,0,.47.02.71.06.61.89,1.31,1.72,1.78,2.67.37.76,1.29,1.63.12,2.52Z"/>
      <path class="cls-15" d="M108.38,152.47c-.38-.13-.6-.39-.68-.78.23.26.45.52.68.78Z"/>
      <path class="cls-15" d="M109.06,153.23c-.23-.26-.46-.52-.68-.77.23.26.46.52.68.77Z"/>
      <path class="cls-51" d="M59.02,152.57c.35-.55.88-.66,1.48-.64-.34.57-.87.7-1.48.64Z"/>
      <path class="cls-133" d="M109.05,242.49c.67-1.17,1.53-2.06,3.01-2.03-.73,1.08-1.59,1.97-3.01,2.03Z"/>
      <path class="cls-133" d="M112.05,240.47c.81-1.64,2.28-1.35,3.69-1.25-1.06.91-2.4,1.01-3.69,1.25Z"/>
      <path class="cls-19" d="M40.77,94.2c-.09-.22-.15-.45-.19-.68.13.14.28.28.39.44.01.02-.13.15-.2.24Z"/>
      <path class="cls-108" d="M2.47,190.71c.98-1.24,1.73-2.53,1.37-4.22-.35-1.66.51-2.75,1.86-3.51,2.7-1.49,5.47-2.5,8.46-.81.82.46,1.9.45,2.49,1.34-.02.25-.03.49-.05.74-.43.25-.9.27-1.38.22-6.31-.68-9.34,2.27-9.03,8.65.09,1.77.87,2.65,2.59,2.76,2.05.13,3.98.38,5.57,2,1.5,1.52,3.45-.68,5.11.34-.19,1.34-1.11,2.34-1.69,3.49-.54.09-1.1.14-1.5.6-.94-.08-1.98-.35-2.8.19-2.73,1.81-4.66.69-6.38-1.54-.21-.27-.58-.41-.87-.6-.23-.7-.72-1.18-1.31-1.56-.84-1.99-1.68-3.98-2.52-5.97-.21-.24-.41-.47-.62-.71,0-.21,0-.41.02-.62.22-.26.45-.52.67-.78Z"/>
      <path class="cls-52" d="M43.31,97.98c.79.6.66,1.43.56,2.25-.8-.59-.63-1.43-.56-2.25Z"/>
      <path class="cls-157" d="M71.23,269.29c1.45-1.23,2.2-.32,2.85.93-.95-.31-1.9-.62-2.85-.93Z"/>
      <path class="cls-74" d="M14.59,105.08c-.46-.72-1.11-.75-1.88-.59-3.25.64-5.97,2.31-8.48,4.37.8-2.55,2.79-3.87,5.14-4.59,1.29-.39,1.8-1.03,1.78-2.27,4.39-.2,8.12,1.03,10.57,4.96-2.41.36-4.19-1.51-6.41-1.82-.24-.02-.48-.03-.72-.05Z"/>
      <path class="cls-99" d="M15.31,105.13c2.34-.1,4.35.93,6.41,1.82.44.75.88,1.5,1.33,2.25-2.58-1.36-5.16-2.71-7.74-4.07Z"/>
      <path class="cls-112" d="M24.43,110.71c-.22-.26-.45-.51-.67-.77.22.26.45.51.67.77Z"/>
      <path class="cls-72" d="M60.96,181.66c.67,5.54,1.39,11.07,1.98,16.62.14,1.3.79,2.53.52,3.88-.23-.02-.47-.04-.7-.08-1.66-5.5-3.15-11.06-5.06-16.46-.84-2.36.58-2.97,1.9-3.94.45,0,.91-.01,1.36-.02Z"/>
      <path class="cls-72" d="M61.76,181.04c-.27.21-.54.43-.8.64.27-.21.53-.42.8-.64Z"/>
      <path class="cls-31" d="M43.1,177.08c0,.23.01.46.02.69.18.21.23.39.14.56-.09.16-.17.24-.25.23-.98-.79-2.01-1.57-2.05-3,.15-.08.3-.16.45-.23.92.24,1.25,1.05,1.69,1.76Z"/>
      <path class="cls-6" d="M43.01,178.56c.04-.26.07-.53.11-.79.52.37.65.9.61,1.5-.24-.01-.47-.03-.71-.06,0-.22,0-.43-.01-.65Z"/>
      <path class="cls-31" d="M40.96,175.56c-.22-.26-.43-.52-.65-.78,0,0,.12-.09.12-.09.61-.07.84.18.65.78,0,0-.12.09-.12.09Z"/>
      <path class="cls-6" d="M68.79,223.47c-.35.55-.88.67-1.48.63-.49-.91-.75-1.87-.58-2.91.25-.23.51-.45.76-.68.24.02.48.03.71.05.23.25.46.5.69.75.04.21.06.42.06.64.27.54.3,1.06-.16,1.52Z"/>
      <path class="cls-153" d="M68.79,223.47c.05-.51.11-1.01.16-1.52.81,1.13,2.98,1.84,1.14,3.77.05-1.03-.39-1.78-1.3-2.25Z"/>
      <path class="cls-155" d="M1.98,110.9c.22-.25.45-.5.67-.75-.23.25-.45.5-.67.75Z"/>
      <path class="cls-11" d="M79.79,17.43c.25-.23.5-.47.75-.7-.25.23-.5.47-.75.7Z"/>
      <path class="cls-11" d="M79.03,18.11c.25-.23.51-.46.76-.69-.25.23-.51.46-.76.69Z"/>
      <path class="cls-140" d="M50.37,279.01c.04-.48.08-.96.12-1.45.8.6.63,1.44.55,2.25-.21-.07-.42-.12-.63-.16-.18-.13-.24-.27-.19-.42.05-.15.11-.23.16-.22Z"/>
      <path class="cls-55" d="M47.21,270.85c-.22-.26-.43-.53-.65-.79.22.26.43.53.65.79Z"/>
      <path class="cls-140" d="M51.71,281.25c-.19-.25-.38-.51-.58-.76.19.25.38.51.58.76Z"/>
      <path class="cls-15" d="M41.24,160.31c2.34-1.31,3.88-3.68,6.66-4.57,1.52-.48,2.92-.7,4.44-.66-.72,1.66-1.44,2.85-3.78,2.95-2.75.11-5.89,4.57-5.8,7.49.03,1.04-.44,1.21-1.22,1.29-.58-2.15-.64-4.32-.3-6.5Z"/>
      <path class="cls-15" d="M41.07,175.46c-.22-.26-.43-.52-.65-.78-.34-2.25.77-4.27,1.03-6.42.2.29.63.68.56.86-1.22,2.88-.27,5.44,1.08,7.96-.67-.54-1.35-1.08-2.02-1.62Z"/>
      <path class="cls-15" d="M41.54,166.82c-.03.48-.05.96-.08,1.44-.7-.52-.68-1,.08-1.44Z"/>
      <path class="cls-106" d="M64.9,240.68c1.96-1.17,4.4-1.29,6.16-2.94.59-.55,1.33.24,1.99.46,0,0,0,0,0,0,.15.31.43.52.6.82v.02c.44.5.36,1.02.07,1.54-.57.49-1.29.58-2,.73-4.31.91-8.18,5.06-8.74,9.42-.36,2.8-1.98,5.28-1.42,8.4.47,2.59,1.17,4.29,3.96,4.63.96.12,1.85.52,2.4,1.42.18.36.14.7-.11,1.02-.02.25-.05.51-.07.76-1.64.6-2.89-.55-4.31-.96,0,0,0,0,0,0-.42-.81-1.21-1.17-1.97-1.44-1.06-.38-1.6-1.01-1.44-2.12.19-1.32-.97-2.17-1.11-3.32-.42-3.35-.49-6.71.45-10.01.23-.26.47-.52.7-.78.28-.2.56-.41.84-.61.18-2.81,3.13-3.91,3.94-6.33.02-.24.04-.47.06-.71Z"/>
      <path class="cls-58" d="M84.1,260.64c-.34,1.77-1.78,2.58-3.07,3.53-.63-.53-.76-1.3-.54-1.97,2.43-7.34-1.26-12.72-5.67-17.87-.45-.56-.82-1.17-.99-1.88-.04-.36,0-.7.13-1.04.13-.12.25-.25.38-.37.92.59,1.85,1.17,2.77,1.76,1.38,1.28,2.91,2.41,4.11,3.89h0c.01,1.6.67,3.16,1.41,4.35,1.94,3.08,1.69,6.3,1.46,9.61Z"/>
      <path class="cls-1" d="M81.23,246.68c-1.76-.88-3.26-2.04-4.11-3.89,2.13.49,3.47,1.81,4.11,3.89Z"/>
      <path class="cls-91" d="M73.58,240.45c.02-.47.05-.95.07-1.42.79.47.7,1.25.7,2,0,0-.09.29-.09.29-.61,0-.9-.23-.69-.87Z"/>
      <path class="cls-91" d="M73.64,239.02c-.2-.27-.4-.54-.6-.82.2.27.4.54.6.82Z"/>
      <path class="cls-91" d="M64.84,241.39c.02.97-.1,1.95-.95,2.53-1.42.96-2.03,2.51-2.99,3.8-.29-3.11,2.08-4.56,3.94-6.33Z"/>
      <path class="cls-30" d="M61.47,84.53c-1.44-.88-1.84-2.49-2.65-3.81,2.01.49,2.81,1.82,2.65,3.81Z"/>
      <path class="cls-12" d="M74.89,243.42c3.43,2.32,5.01,6.16,6.93,9.49,1.4,2.42.36,5.87-.32,8.8-.19.81-.51,1.59-.47,2.45-.06.69-.11,1.38-.17,2.08-.48-.03-.97-.05-1.45-.08-.25-.02-.49-.04-.74-.06.95-6.82-.92-13.15-3.35-19.38-.42-1.06-1.39-2.06-.43-3.3Z"/>
      <path class="cls-31" d="M56.72,39.26c0,1.64-.59,3.08-1.56,4.38,0,0-.14-.13-.14-.13-.34-.73-.34-1.43.15-2.1.05-.46.1-.91.15-1.37.2-.29.5-.48.7-.77,0,0,.02-.03.01-.03.23.02.46.02.69.03Z"/>
      <path class="cls-169" d="M55.16,41.4c-.05.7-.1,1.4-.15,2.1-.2.04-.4.08-.6.13,0-.83-.1-1.69.75-2.23Z"/>
      <path class="cls-169" d="M56.01,39.26c-.23.26-.47.51-.7.77.23-.26.47-.51.7-.77Z"/>
      <path class="cls-125" d="M63.43,266c1.5.02,3.01,0,4.31.96,0,.45,0,.9,0,1.35-.75-.01-1.49-.03-2.24-.04-.25-1.16-1.53-1.37-2.06-2.27Z"/>
      <polygon class="cls-25" points="93.19 316.98 93.47 317.16 93.33 317.29 93.19 316.98"/>
      <path class="cls-42" d="M49.69,99.8c2.85-.99,5.7-1.92,8.78-1.67-2.48,1.56-5.17,2.17-8.09,1.78-.23-.02-.47-.05-.7-.1Z"/>
      <path class="cls-129" d="M48.9,100.47c.03-.23.05-.46.07-.69.25.03.5.05.74.08-.27.2-.54.4-.81.61Z"/>
      <path class="cls-78" d="M107.06,162.53c-1.68.21-2.71-2.31-4.33-1.62-1.44.62-.54,2.84-1.75,4.13-2.11,2.26-6.11,2.72-8.37.61-2.41-2.25-3.13-5.56-1.64-8.72.71-1.5,1.5-3.38,2.8-4.07,1.49-.79,3.56-1.26,5.39-.67,1.16.37,2.31.55,3.5.74,3.32.55,5.31,3.06,7.4,5.31.68.73,1.09,1.93.27,3-.79,1.02-1.82,1.55-3.27,1.28Z"/>
      <path class="cls-87" d="M62.88,50.87c.22-1.37.83-2.1,1.42-2.86.88-1.12,1.67-2.08.86-3.84-.48-1.06-.3-2.93,1.13-3.76.99-.58,2.18.88,2.85,2.99.57,1.8.26,3.58.11,5.35-.26,3.01-1.8,3.91-4.65,2.89-.55-.2-1.08-.48-1.73-.78Z"/>
      <path class="cls-134" d="M54.67,84.15c-.52-.79-1.19-.71-1.73-.91-.87-.33-1.52-.85-1.14-1.89.35-.95.94-1.7,2.13-1.53.12.02.24.04.35.06,4.35.9,8.57,9.22,6.36,12.93-1.01,1.69-2.53,3.21-4.67,3.73-.58.14-1.2.17-1.73.4-.83.36-1.75,1.43-2.49.34-.6-.88.4-1.77.98-2.48,1.04-1.27,1.35-2.41.23-3.86-2.75-3.55-2.64-3.93,1.13-6.13.19-.11.3-.34.57-.66Z"/>
      <path class="cls-135" d="M50.37,279.01c.03.21.04.43.03.64-.49,1.85-1.23,3.56-2.52,5.01-1.2-.06-2.4-.13-3.61-.19-2.75-2.4-5.85-2.37-9.11-1.34-2.37.75-5.87-1.29-6.26-3.67-.33-2.01,1.1-3.13,2.6-3.3,1.73-.2,2.31-1.24,3.3-2.3,2.8-3.01,6.56-2.61,10.21-2.41.22.26.45.52.68.76h0c.22.26.45.52.68.76h0c.22.26.45.52.68.76h0c.22.26.45.51.68.76h0c.4.41.21,1.09.64,1.49l1.99,3.01Z"/>
      <path class="cls-87" d="M74.89,243.42c1.93,3,2.02,6.77,4.07,9.72.44.63.42,1.38.33,2.09-.24,1.82-.03,3.61.6,5.31.81,2.17.38,3.97-1.21,5.57-1.48.31-2.6,1.58-4.23,1.52-.45-.02-1.11.38-1.33-.02-1.29-2.41-3.51-1.06-5.3-1.4,0-.23.01-.47.02-.7-.96-1.96-2.02-3.8-4.06-4.9-1.21-.66-2.24-1.86-1.84-3.24,1.07-3.71.49-7.89,3.47-11.09,1.57-1.68,3.43-2.96,5.15-4.42,1-.85,2.47-.95,3.66.1.23.49.46.98.68,1.47Z"/>
      <path class="cls-144" d="M19.48,198.22c-1.24.43-2.48.84-3.71,1.3-1.19.45-1.95.4-2.36-1.1-.45-1.63-2.03-1.45-3.31-1.47-4.87-.07-5.53-.04-4.58-6.19.3-1.94.32-4.26,2.23-5.85,2.87-2.39,5.76-2.42,8.86-.66,3.43,1.73,4.78,5.05,6.37,8.22.71,1.43-.47,2.49-.5,3.75-.71,1.11-1.58,1.97-3.01,2Z"/>
      <path class="cls-120" d="M45.01,271.45c-2.36.64-4.67,1.34-7.22,1.22-1.65-.07-2.87,1.95-3.57,4.79-.82.15-1.19-.7-1.89-.82-1.13-.2-1.82.48-2.44,1.22-.63.76-.55,1.5.18,2.23.42.42.67.99,1.04,1.45,1.42,1.77,1.76,1.82,3.85.6,2.05-1.19,7.06-.63,8.69,1.04.32.32.42.85.62,1.29-2.32-.94-4.45-1.47-6.69.55-1.16,1.05-3.26.79-4.47-.05-3.02-2.09-6.29-4.22-5.71-8.77.13-1.04-.09-2.13.54-3.34,1.31.75.05,2.16.95,2.82.29.21.53.55.89.43.31-.1.77-.38.79-.62.08-.91.49-1.95-.49-2.66-.65-.47-1.34-.89-2.05-1.36,1.02-1.76,2.91-2.5,4.07-4.08.79-1.07,2.45-1.44,4.26-1.09,2.64.51,5.07,1.16,7.23,2.82.82.63,1.45,1.24,1.42,2.33Z"/>
      <path class="cls-120" d="M48.38,275.99c-.56-.35-.66-.89-.64-1.49.56.35.66.89.64,1.49Z"/>
      <path class="cls-120" d="M45.69,272.22c-.23-.25-.45-.51-.68-.76.23.25.45.51.68.76Z"/>
      <path class="cls-120" d="M46.37,272.98c-.23-.25-.45-.51-.68-.76.23.25.45.51.68.76Z"/>
      <path class="cls-120" d="M47.06,273.74c-.23-.25-.45-.51-.68-.76.23.25.45.51.68.76Z"/>
      <path class="cls-120" d="M47.74,274.51c-.23-.25-.45-.51-.68-.76.23.25.45.51.68.76Z"/>
      <path class="cls-56" d="M108.67,235.9c-1.53,2.11-3.89,1.95-6.09,2.27-.85.12-1.63-.21-1.81-.85-.62-2.32-2.69-4.35-1.55-7.05.24-.57.34-1.12.24-1.75-.62-3.99,1.91-6.37,4.53-8.67.42-.37,1.05-.64,1.61-.71,2.21-.27,6.5,3.8,6.46,6.08,0,.47-.37,1.03-.21,1.38,1.62,3.53.11,5.93-2.67,7.98-.32.23-.35.86-.51,1.31,0,0,0,0,0,0Z"/>
      <path class="cls-26" d="M23.79,117.05c-.1.21-.15.54-.3.61-2.27.92-2.41,3.05-2.99,5-.34,1.16-1.17,2.1-2.29,2.7-1.1.59-2.04.88-3.26-.11-1.62-1.31-2.99-2.66-3.93-4.59-1.12-2.32-.52-4.19.93-5.96,1.66-2.04,4.25-3.11,5.72-5.38.29-.44.87-.32,1.33-.12,1.32.57,4.97,6.58,4.8,7.86Z"/>
      <path class="cls-138" d="M74.2,241.95c-1.88.09-3.91-.13-4.57,2.35-.06.21-.27.56-.39.55-3.41-.25-2.92,3.64-5.05,4.75-.54.28-.74,1.07-.51,1.6.77,1.87-.05,3.46-.67,5.13-.69,1.87-.35,3.12,1.49,3.7,2.89.9,3.53,2.85,3.33,5.47-1.23-.92-2.74-.75-4.12-1.07-2.45-.58-2.81-1.05-2.84-3.66-.01-.98-.26-1.89-.4-2.83-.21-1.42-.41-3,.45-4.2.99-1.37,1.47-2.71,1.07-4.35-.19-.76.04-1.8.46-2.01,2.25-1.11,3.21-2.91,3.36-5.29,1.91-.47,3.61-1.65,5.62-1.75.72-.04,1.44.07,2.16.11.23.29.46.58.69.87-.02.21-.04.42-.06.63Z"/>
    </g>
  </g>
</svg>