<?xml version="1.0" encoding="UTF-8"?>
<svg id="Layer_2" data-name="Layer 2" xmlns="http://www.w3.org/2000/svg" viewBox="0 0 331.59 237.03">
  <defs>
    <style>
      .cls-1 {
        fill: #fbb040;
        fill-rule: evenodd;
      }
    </style>
  </defs>
  <g id="OBJECTS">
    <path class="cls-1" d="M331.24,15.5c-.15-.15-.38-.18-.56-.09-.32-.02-.76-.17-1.07-.09-.04-.01-.09-.03-.14-.03-4.4-.01-8.79.13-13.18.18-9.4.05-18.79-.07-28.19-.12-9.35-.31-18.71-.31-28.07-.2-1.17.02-2.34.06-3.51.08-.18-.1-.39-.14-.59-.12.08-.25.17-.51.23-.77.46-2.41,0-5.43-2.14-6.93-.5-.33-1.1-.47-1.68-.61-1.29-.31-2.67-.44-3.93.07-.89.31-1.73.79-2.35,1.51-.2.24-.46.49-.48.82,0,.17.1.34.25.42.29.17.57-.03.81-.19,1.02-.63,2.38-.4,3.26.37,1.67,1.34,1.33,3.63.2,5.3-.34-.06-.77.03-1.06-.02-4.01,0-8.02-.05-12.04-.08-.19,0-.32.1-.4.22-2.33-1.49-4.45-3.33-6.85-4.72-3.69-2.01-7.97-2.97-12.15-2.42-1.58.07-3.18-.05-4.74.25-3.46.88-6.49,2.95-9.14,5.28-.68.59-1.32,1.22-1.93,1.86-.07-.73-1.23-.38-1.76-.46-2,0-4,.04-5.99.1-4.16.05-8.34.24-12.5.05-.21-.07-.38-.01-.5.11-3.42-2.03-6.9-3.95-10.57-5.54-4.7-1.99-9.55-3.73-14.58-4.64-3.01-.49-6.03-1.12-9.08-1.21-6.06-.06-12.11,1.48-17.53,4.16-1.74.92-3.35,2.08-4.75,3.46-.45.52-3.04,2.81-2.32,3.44.17.21.48.21.69.09,1.77-1.33,3.43-2.84,5.4-3.89,3.43-1.84,7.35-2.62,11.22-2.93,3.88-.19,7.73.46,11.51,1.21,5.4,1.04,10.6,2.96,15.49,5.49.19.1.38.2.57.3-15.9-.14-31.81.29-47.71.13-8.02.04-16.03-.36-24.05-.33-1.36,0-2.72.03-4.09.09-.09-.03-.18-.01-.27.02-1.32-2.53-2.88-4.94-4.76-7.1-1.79-1.87-3.8-3.55-5.9-5.07-3.05-2.28-7.02-3.53-10.81-2.75-3.99.82-8,4.21-7.64,8.59.14,2.1,1.07,4.66,2.81,6.06-1.78-.12-3.56-.27-5.34-.27-4.27.14-8.56,0-12.84.15-3.06.03-6.11.18-9.17.3-.73.03-1.46.09-2.19.2-.23.02-.5.09-.66.24-.82-2.13-1.23-4.29-.85-6.37.25-1.18.99-2.28,2.12-2.77,1-.42,2.19-.61,3.2-.12.53.29,1.04.78.95,1.44-.22.75-.97,1.25-1.02,2.07-.2,1.28.67,2.5,1.79,3.04,3.2,1.58,5.91-1.53,4.79-4.67-.41-1.21-1.3-2.18-2.21-3.04-1.88-1.79-4.36-2.94-6.95-3.19-2.06-.29-3.89.13-5.45,1.56-1.45,1.29-2.76,2.94-2.83,4.96-.15,1.98.46,3.91,1.07,5.77.25.82.57,1.61.95,2.37-2.3.28-4.41,1.64-6.18,3.08-1.16.98-2.11,2.19-3.02,3.41-.25.35-.46.72-.67,1.1,0,0-.01,0-.02-.01-.04-.02-.09-.04-.13-.06-.05-.03-.1-.07-.16-.1-.66-.35-1.33-.7-2-1.04-.14-.07-.3-.07-.44-.01-2.28-.91-4.66-1.52-7.12-1.31-6.89.53-11.46,7.42-7.69,13.64,1.53,2.85,5.38,4.69,8.32,2.83,1.63-.9,2.53-3.32,1.24-4.85-.83-1.03-2.28-1.17-3.43-.63-.53.21-.97.6-1.52.76-.43.11-.84-.03-1.19-.28-.04-.09-.12-.15-.24-.2-.17-.16-.32-.34-.43-.53-.58-1.08-.02-2.38.46-3.4.75-1.65,2.46-2.48,4.13-2.93,1.93-.58,4.05-.62,5.92.12.32.2.68.35.98.56.49.3.99.59,1.48.88.08.06.16.12.24.17-.77.51-1.27,2.02-1.51,2.84-.37,1.46-.53,2.96-.67,4.46-.22,2.07-.48,4.14-.59,6.22-.26,5.14-.27,10.29-.21,15.44.06,1.93.25,3.86.25,5.79,0,.02,0,.03.01.05-2.51-3.31-7.79-3.97-11.26-1.83-5.2,3.51-3.38,11.32-.73,15.94,2.85,5.15,7.16,9.22,11.99,12.52-.01.04-.03.08-.03.13.02,5.36-.06,10.71.13,16.07.26,4.77.42,9.55.43,14.33-1.85,1.21-3.62,2.54-5.29,3.98-3.15,2.77-5.74,6.19-7.76,9.86-3.45,6.77-4.25,14.82-2.34,22.17,1.5,5.72,4.21,11.15,8.06,15.65,1.72,2.08,3.64,3.93,5.33,6.04.65.84,1.29,1.7,1.91,2.58-.07.19-.08.43-.09.62-.08.78-.14,1.55-.19,2.33-.5,9.53-.53,19.08-.42,28.61.29,8.18.76,16.36.85,24.55-.04.06-.07.12-.08.19-.02.14.03.27.12.37.06.2.24.36.46.36s.42-.17.47-.38c.07-.06.14-.13.2-.21.45-.61.71-1.35.94-2.07.38-1.17.65-2.37.96-3.56,1.42-5.45,2.98-10.87,4.54-16.28.2-.78.42-1.55.64-2.33.19-.37.31-.86.39-1.39.96-3.31,2.03-6.58,3.19-9.84,1.42-3.98,2.79-7.98,4.38-11.9,1.65-3.93,3.4-7.82,5.27-11.66,2.24-4.68,4.42-9.4,7.05-13.87,3.52-5.81,7.16-11.53,11.31-16.93,5.29-6.59,10.44-13.29,15.98-19.67.84-.93,1.7-1.84,2.55-2.75,1.72-1.66,3.44-3.34,5.07-5.1.46-.72,1.93-1.61,2.46-2.54,2.06-1.99,4.15-3.96,6.29-5.87.11-.04.22-.1.32-.2.14-.15.27-.3.41-.45,5.2-4.63,10.59-9.05,16.14-13.26,6.83-5.39,13.74-10.7,20.9-15.66,4.85-3.21,9.93-6.06,14.95-9,7.91-4.64,16.06-8.64,24.33-12.66,6.66-3.29,13.42-6.37,20.35-9.06,6.74-2.68,13.41-5.55,20.26-7.96,4.79-1.64,9.7-3.25,14.59-4.74.23-.02.46-.08.66-.18,1.4-.44,2.83-.8,4.24-1.22.51-.16,1.02-.33,1.53-.5,4.76-1.4,9.48-2.96,14.29-4.19,7.38-1.81,14.62-3.87,22.14-5.11,5.95-1.11,11.96-1.79,17.93-2.79,2.51-.47,5.02-.99,7.56-1.28,2.66-.3,5.33-.49,7.98-.83,3.53-.48,7.09-.72,10.64-1,3.35-.36,6.69-.79,10.05-1,3.52-.35,7.11-.5,10.53-1.44.43-.14.86-.29,1.28-.46.01,0,.03,0,.04,0,.16-.04.29-.11.4-.19.26-.11.53-.22.78-.35.2-.11.41-.24.55-.43.28-.4.14-.9-.19-1.22ZM19.09,223.84c-.03.12-.05.24-.08.37,0-.08,0-.17,0-.25,0-.06,0-.11,0-.17.03.02.06.04.09.06ZM13.77,66.67c-.2,1.09-1.19,1.82-2.07,2.39-.31.2-.67.34-.9.64-.3.35-.1.89.32,1.03.49.16,1.01.14,1.51.04.38.12.74-.07,1.06-.34.13-.05.26-.11.39-.16.61-.25,1.12-.62,1.55-1.06.03,4.06.01,8.12.2,12.18-2.55-2-4.86-4.3-6.72-6.95-.9-1.14-1.39-2.51-1.75-3.91-.23-1.05-.51-2.08-.39-3.17.25-1.65,1.4-3.37,3.16-3.59,1.7-.21,3.99.92,3.65,2.9ZM29.16,27.82s.06-.02.09-.03c-.03.13-.03.26,0,.39.12-.11.27-.17.42-.22,1.22,1.32,2.54,2.53,3.87,3.73.01.01.02.02.03.03.33.42.68.92,1.1,1.18.53.56,1.07,1.12,1.58,1.7,0,.04,0,.08-.02.12.35.35.69.72,1.04,1.07,2.14,2.51,4.18,5.11,6.23,7.7,5.01,6.34,9.64,12.99,13.9,19.86.24.41.46.83.7,1.24-.03,0-.06,0-.09,0-1.82.47-3.74-.23-5.45-.86-2.35-.99-4.57-2.32-6.64-3.8-.08-.07-.17-.15-.27-.21-3.73-8.65-8.2-16.96-13.7-24.61-1.42-1.89-2.92-3.78-4.57-5.52.02-.05.02-.11.02-.17.21-.13.36-.35.4-.63.13-.15.28-.29.43-.42.35-.16.71-.3.92-.56ZM191.1,21.41c.19,0,.38,0,.56.02,1.62.04,3.23.01,4.85-.01-.02.02-.03.04-.05.05-.61.69-1.38,1.25-1.97,1.94-1.14-.65-2.27-1.32-3.39-2ZM10.56,140.79c.88-3.21,2.14-6.36,3.92-9.18.49-.8,1.05-1.51,1.65-2.2-.02,5.23.18,10.46.18,15.69-.06,8.15.09,16.3.02,24.46,0,.04.01.06.02.1,0,.06,0,.12.01.19-.7-1.42-1.43-2.83-2.18-4.22-2.15-4.1-3.72-8.54-4.25-13.15-.34-3.89-.23-7.85.62-11.68ZM22.03,179.09c-.03.24-.07.48-.1.73.01-.11.03-.22.04-.33.02-.14.04-.27.05-.41,0,0,0,.01.01.01ZM17.31,169.58s0,.01,0,.02c0,0,0,0,0,0,0,0,0,0,0-.01ZM38.11,122.33c.49-.89,1-1.77,1.51-2.64-.51.88-1.01,1.76-1.51,2.64ZM57.99,102.85c.29-.13.58-.24.87-.35-.3.12-.59.24-.87.35ZM42.01,114.28c-2.39,3.05-4.15,6.54-6.02,9.92-2.34,4.3-4.23,8.83-5.9,13.42-.91,2.75-1.69,5.54-2.54,8.31-1.14,3.75-2.23,7.53-2.94,11.38-.7,3.85-1.33,7.71-2.08,11.56-.44,2.81-.9,5.63-1.28,8.46-.01-.19-.02-.38-.03-.57-.05-4.68.01-9.36-.1-14.04-.06-5.11.25-10.22.4-15.32.18-7.05.38-14.1.35-21.15.01-.68,0-1.36.07-2.03.06-.1.07-.2.05-.29,1.03-.81,2.08-1.58,3.15-2.33,3.09-2.09,6.4-3.81,9.79-5.39,1.35-.61,2.73-1.16,4.12-1.68,1.62-.59,3.27-1.2,4.64-2.24-.58.66-1.14,1.32-1.68,2.01ZM17.25,171.71s.06-.07.09-.12c0,.11,0,.21,0,.32-.03-.07-.06-.14-.09-.2ZM75.65,106.31c-1.33-1.86-3.19-3.38-5.27-4.34-3.08-1.39-6.57-1.53-9.86-.93-2.44.4-4.6,1.75-6.8,2.81-2.08,1.15-4.02,2.56-5.84,4.09-.76.72-1.5,1.46-2.23,2.22.41-.64.76-1.33,1.09-2.01.13-.31.38-.62.29-.97-.07-.23-.32-.41-.57-.35-.55.19-.95.67-1.45.97-.56.39-1.14.75-1.74,1.07-6.81,3.58-14.63,4.65-21.61,7.84.06-.08.11-.18.11-.29.02-.93.03-1.86.05-2.8.02-.92.05-1.84.09-2.76.05-1.02.1-2.03.14-3.05.04-1.03.06-2.06.08-3.09.02-1.04.03-2.08.06-3.12.03-1.05.07-2.1.1-3.16.02-1.03.03-2.05.03-3.08,0-.52,0-1.03,0-1.55,0-.26,0-.52,0-.79,1.62.86,3.26,1.69,4.92,2.46,2.43.99,4.94,1.8,7.44,2.58,5.05,1.22,10.21,2.12,15.42,2.11,3.51-.03,7.02-.25,10.47-.93,4.29-.92,8.49-2.29,12.42-4.24.08.01.16,0,.24-.03.25-.17.55-.19.84-.22,2.51-.11,4.85,1.17,6.71,2.77,1.16,1.06,2.15,2.33,2.83,3.74.24.79.4,1.61.45,2.44-.07.74-.27,1.46-.58,2.13-.77,1.28-1.95,2.26-2.93,3.37-.68.73-1.32,1.49-2.02,2.2-.54.54-1.09,1.08-1.63,1.61.09-.56.15-1.13.17-1.71.05-1.75-.43-3.54-1.41-4.99ZM38.87,22.9c1.33-.75,2.82-.89,4.34-1.2.22-.05.45-.08.67-.12.05.09.12.17.21.22.73.64,1.45,1.28,2.17,1.93,2.24,1.98,4.29,4.16,6.28,6.39,2.59,2.82,5.1,5.69,7.29,8.84,1.83,2.79,3.25,5.76,4.44,8.88.01.03.02.05.03.08-1.7-1.22-3.37-2.48-4.97-3.79-2.99-2.62-6.16-5.04-9.04-7.79-3.3-3.15-6.37-6.48-9.09-10.16-.74-.98-1.57-2.07-2.4-3.23.03-.01.05-.03.08-.04ZM86.79,21.14c.07.18.14.37.21.55,1.58,4.43,2.59,9.06,3.29,13.71.68,4.62.82,9.3.58,13.99-.18,2.39-.72,4.69-1.13,7.06-.14.85-.3,1.7-.47,2.54-.25-.03-.55.03-.79.06-.06-.06-.14-.1-.23-.12-1.79-.34-3.54-.81-5.32-1.29-3.4-1.01-6.65-2.46-9.79-4.11-.02-.13-.05-.25-.09-.36-.46-1.83-1.21-3.58-2.04-5.27-1.41-2.9-3.12-5.63-4.89-8.32-1.71-2.64-3.57-5.2-5.74-7.47-3.47-3.75-6.92-7.58-11.12-10.53-.29-.21-.6-.41-.9-.61,1.47-.13,2.94-.21,4.41-.23,5.07-.13,10.14-.18,15.21-.08,2.06,0,4.12.2,6.18.27,2.06.04,4.13.06,6.18.17,1.77.06,3.54.06,5.32.04.37,0,.75.01,1.12.02ZM125.94,21.13c12.12-.14,24.24-.05,36.35.08,4.04.01,8.07.05,12.11.19.4.22.91.23,1.3.05.57.02,1.15.04,1.72.07.22.01.4-.16.46-.36.96.59,1.92,1.2,2.93,1.73,1.56.83,3.15,1.59,4.76,2.33.3.14.59.27.89.4,1.43.64,2.87,1.25,4.32,1.83-.09.12-.18.23-.26.3-2.63,2.94-7.23,5.07-10.91,6.38-2,.65-4.06,1.05-6.18,1.18-.63,0-1.35.13-1.97-.07-.28-.1-.54.01-.67.2-2.46-.75-5-1.71-7.38-2.76-3.68-1.7-7.27-3.89-10.95-5.66-3.29-1.58-6.67-3.03-10.22-3.91-2.39-.44-4.81-.73-7.24-.74-4.85,0-9.75.52-14.41,1.9-3.34,1.06-6.52,2.58-9.51,4.4-2.32,1.43-4.59,3.01-6.51,4.96-1.06,1.1-1.88,2.39-2.66,3.7-1.15,1.95-2.31,3.92-3.05,6.07-1.37,4.46-1.56,9.25-.82,13.85.3,1.71.75,3.42,1.55,4.96,1.18,2.09,2.67,4.1,4.59,5.56,2.47,1.61,5.3,2.85,8.26,3.08,3.48.32,7.43.1,10.02-2.54.81-.82,1.36-1.87,1.78-2.94,1.02-2.22,1.14-4.77.48-7.11-1.22-4.38-4.96-7.92-9.67-7.83-1.73,0-3.58.45-4.76,1.81-1.66,1.88-1.8,4.86-.57,7,.86,1.21,2.02,2.35,3.5,2.7,3.14.57,5.63-1.83,3.99-4.9,2.15.9,3.59,3.3,3.35,5.62-.92,4.28-6.62,3.85-9.9,2.93-.43-.13-.86-.29-1.27-.48-1.08-.62-2.09-1.41-2.99-2.29-.16-.19-.33-.38-.49-.56-1.89-2.81-2.36-6.39-2.13-9.71.4-4.62,2.34-8.68,5.26-12.23,2.18-2.78,5-5.03,8-6.86,3.13-1.63,6.49-2.83,9.96-3.52,5.1-.82,10.43-1.05,15.43.41,2.86.9,5.54,2.3,8.13,3.83,3.38,2.09,6.53,4.55,10.01,6.49-2.57-.73-4.95-1.99-7.5-2.78-4.09-1.34-8.38-2.2-12.68-2.42-5.45.05-12.32.95-14.64,6.67-.14.37-.12.79.09,1.13.78.99,2.81,0,3.86-.23,2.77-.83,5.59-1.65,8.5-1.74,4.77-.25,9.3,1.29,13.83,2.67,4.47,1.51,9.14,2.57,13.88,2.29.81-.05,1.61-.12,2.42-.19.13-.01.27-.02.4-.03,3.82-.35,7.61-.94,11.36-1.75,4.1-1,8.14-2.21,12.2-3.36,3.19-1.04,6.42-1.98,9.63-2.98-1.35.49-2.7.97-4.05,1.46-2.05.74-4.09,1.51-6.11,2.3-2.04.8-4.07,1.61-6.12,2.38-2.09.78-4.19,1.52-6.29,2.29-2.11.77-4.2,1.59-6.29,2.43-1.01.41-2.02.82-3.04,1.22-1.07.43-2.15.84-3.23,1.27-2.12.85-4.24,1.7-6.32,2.65-1.03.47-2.05.97-3.08,1.46-1.03.49-2.06.96-3.09,1.45-2.01.95-3.99,1.96-5.94,3.02-2.02,1.09-4.01,2.25-6.03,3.35-.99.54-1.99,1.07-2.98,1.63-1.02.57-2.03,1.16-3.03,1.75-1.98,1.16-3.94,2.34-5.87,3.58-.94.6-1.88,1.22-2.81,1.84-.9.6-1.79,1.2-2.67,1.83-1.83,1.32-3.62,2.68-5.46,3.98-1.29.91-2.59,1.81-3.91,2.68-1.31.87-2.68,1.67-4.06,2.41-.8.41-1.62.77-2.46,1.09-.35.12-.69.23-1.05.31-.21.04-.41.07-.62.1-.1,0-.2,0-.31,0-.28-.02-.55-.05-.82-.09-.16-.04-.32-.08-.48-.12-.35-.13-.7-.27-1.04-.43-.54-.26-1.07-.55-1.57-.87-.28-.19-.55-.39-.8-.61-.48-.42-.98-.91-1.46-1.42-.27-.3-.57-.66-.85-1.04-.35-.51-.67-1.04-.96-1.58,0,0,0,0,0,0,0-.02-.02-.03-.03-.05-.52-.99-.99-2.03-1.4-3.11-.49-1.36-.92-2.82-1.27-4.29-.15-.64-.29-1.29-.4-1.94-.02-.13-.03-.26-.05-.4.01-.23-.01-.45-.08-.63-.04-.3-.08-.6-.11-.9-.06-.71-.1-1.42-.07-2.13,0-.03,0-.07,0-.1.07-.15.06-.33-.02-.47-.03-.05-.07-.09-.11-.12.45-1.61.83-3.23,1.12-4.87.79-4.46.98-8.99.79-13.52-.17-2.68-.25-5.36-.48-8.03-.63-5.36-1.49-10.72-3.12-15.88-.07-.19-.14-.37-.21-.55.27,0,.53-.01.8-.01,10.47.28,20.95.11,31.42-.17ZM173.81,36.27s-.03,0-.04,0c.01,0,.03,0,.04,0,0,0,0,0,0,.01ZM114.22,69.95s.04.02.06.03c-.14,0-.29,0-.43-.01.12,0,.25,0,.37-.02ZM122.4,66.84s0-.01,0-.02c.08-.1.14-.21.21-.31-.07.11-.13.22-.21.33ZM148.05,37.56s-.02-.01-.03-.02c.09.02.17.04.26.06-.08-.01-.15-.03-.23-.04ZM211.03,32.25c.18,0,.36,0,.54,0-5.13,1.19-10.28,2.3-15.45,3.34-5.39,1.15-10.98,1.87-16.48,1.51.12-.02.25-.02.37-.04,2.03-.31,4.06-.72,6-1.42,1.95-.74,3.73-1.84,5.49-2.94,1.56-1,3.14-1.99,4.54-3.21.01,0,.01-.02.02-.03,2.66.94,5.4,1.6,8.19,2.02,2.03.39,4.08.67,6.14.77.21,0,.43,0,.64,0ZM21.61,77.61c-.01-9.09-.04-18.17-.02-27.26,0-2.96.07-5.94.4-8.89,1.59,3.3,3.7,6.31,5.92,9.22,1.83,2.58,3.85,5,6.2,7.12,3,2.77,5.79,5.82,9.29,7.98.14.09.3.09.45.03.93,2.42,1.8,4.86,2.5,7.35,1.27,4.87,2.53,9.75,3.33,14.72.2,1.4.37,2.83.52,4.26.09.61.13,1.24.21,1.87-.05,0-.11,0-.16,0-10.04-.21-19.84-3.57-28.45-8.66-.05-2.58-.13-5.17-.19-7.75ZM34.96,24.6c.11-.03.19-.11.25-.21,4.01,5.43,8.55,10.48,13.21,15.34,5.26,5.75,11.08,10.98,17.42,15.5,0,0,0,0,0,0-.28.14-.33.53-.15.77.03.04.07.08.11.13.14,1.65-.31,3.3-1.37,4.61-.32.41-.67.8-1.06,1.16-.11.08-.22.19-.3.31-3.04-3.58-5.97-7.25-8.9-10.87-5.58-7.24-11.89-13.91-17.1-21.43-.67-.97-1.32-1.96-1.97-2.94-.25-.31-.76-1.25-1.29-1.81.13-.08.25-.16.37-.24.25-.12.51-.23.78-.31ZM57.48,34.22c.03.08.08.15.12.23-.06-.08-.12-.15-.19-.23.02,0,.05,0,.07,0ZM63.27,43.02c.05.11.08.23.13.35-.06-.13-.12-.25-.18-.38.02.01.03.02.05.03ZM86.4,65.76c.34.07.69.11,1.04.09-.04.13-.08.27-.12.4-1.5,4.65-3.4,9.24-6.22,13.24-.7-.37-1.38-.8-2.04-1.27-3.49-2.78-6.73-5.85-9.81-9.09.17-.1.33-.21.47-.28,2.66-1.77,3.98-5.17,3.95-8.29-.03-.38-.37-.5-.64-.41,0,0,0,0,0,0,0-.07,0-.15,0-.22.16.1.32.2.48.3,4.01,2.44,8.35,4.41,12.91,5.55ZM64.67,62.01s-.03,0-.04-.01c.03-.03.05-.06.08-.09-.01.03-.03.07-.04.1ZM56.44,93.55c-.14.02-.29.03-.43.05-.71-4.78-1.72-9.53-3.13-14.15-1.04-3.34-2.16-6.66-3.36-9.96,3.05,1.58,6.44,2.54,9.84,2.94.95.08,1.9-.01,2.82-.2,0,0,0,0,0,0,1.74,3.44,3.4,6.91,5.03,10.4.87,2,1.65,4.05,2.25,6.15.1.27.15.56.22.85-1.53.72-3.13,1.33-4.71,1.89-1.9.69-3.85,1.26-5.82,1.68-.89.02-1.83.32-2.72.35ZM89.48,82.53c-.02-.19-.07-.37-.14-.53-.12-.47-.25-.94-.36-1.41-.04-.12-.11-.2-.19-.26,1.04-1.71,1.99-3.47,2.84-5.28.03.2.05.4.1.59,1.09,4.54,4.64,7.88,8.04,10.84,1.46,1.34,2.12,1.62.34,3.14-1.43,1.19-3.3,2.45-5.24,1.9-1.54-.67-2.28-2.36-3.13-3.71-1.04-1.63-1.74-3.42-2.27-5.27ZM80.28,90.41c.93-.75,1.84-1.53,2.67-2.38.55-.6,1.07-1.22,1.58-1.85.02,0,.04,0,.06-.01-.04.11-.04.23,0,.34.66,1.44,1.55,2.76,2.56,3.98,1.3,1.56,2.71,3.03,3.86,4.71.38.56.75,1.16.83,1.84-.09.57-.66.93-1.04,1.33-.68.56-2.19,1.85-3.1,1.45-.43-.26-.63-.77-.87-1.2-.59-1.17-.97-2.43-1.52-3.62-.8-1.84-2.36-3.16-4.1-4.1-.3-.18-.62-.33-.93-.5ZM58.52,65.38s0-.01-.01-.02c0,0,0,0,0,0,0,0,0,0,0,0,0,0,0,.01.01.02ZM39.76,56.2s-.02-.02-.02-.02c0,0,0,0,0,0,0,.01,0,.02.01.03ZM229.14,27.55c-3.51.81-6.99,1.75-10.38,2.95-2.1.16-4.21.05-6.3-.25-4.53-.79-9.11-2.1-13.2-4.28,0,0,0,0,0,0,.38-.37.74-.75,1.11-1.12,1.03-1.04,2.09-2.03,3.15-3.03.05.01.11.03.18.03,6.3-.13,12.6-.34,18.91-.55,4.1-.02,8.21.1,12.31.11.29-.01.43-.19.46-.39,1.72.96,3.47,1.85,5.4,2.28,3.41.78,7.18-.03,10.17-1.96.07.13.17.24.32.28.17.06.37-.01.49-.14,2.22-.2,4.46-.29,6.7-.36-9.89,1.57-19.59,4.08-29.32,6.43ZM71.17,11.52s0,0,0,0c0,0,0,0,0,0,0,0,0,0,0,0ZM72.15,11.63c.01-1.26-.42-1.68-.79-1.7-.02-.01-.03-.03-.06-.04-.28-.08-.55.13-.6.4-.11.32-.26.63-.48.9-.54.62-1.34,1.13-2.19,1.13-2.73-.49-1.52-8.17,4.6-6.83,2.3.44,4.29,1.83,6.08,3.29,2.05,1.71,3.79,3.75,5.12,6.07.09.14.17.29.26.44-1.98-.02-3.97.01-5.95-.03-2.01-.06-4.02-.09-6.03-.19-.59-.02-1.19-.1-1.78-.14,1.07-.75,1.82-1.9,1.82-3.29ZM39.15,55s-.07-.06-.1-.09c-2.22-1.95-4.37-3.99-6.39-6.14-3.24-3.35-6.52-6.76-8.84-10.83-.08-.12-.15-.25-.22-.37,0-.02,0-.04,0-.05-.02-.17-.11-.29-.24-.36-.15-.26-.3-.51-.47-.75.25-1.11.56-2.24,1.2-3.19.1,0,.18-.05.25-.11.2.21.4.43.6.64,5.64,6.4,10.39,13.62,14.22,21.26ZM41.75,156.17c-4.75,7.13-9.23,14.49-12.8,22.29-1.85,4.22-3.54,8.52-5.09,12.86-.13.36-.24.73-.36,1.1.03-.47.06-.94.09-1.42.07-.6.13-1.2.22-1.8.43-2.84.91-5.68,1.43-8.51.57-2.95,1.14-5.92,2.09-8.78,1.4-4.47,2.9-8.92,4.74-13.23,2.27-5.51,5.38-10.59,8.52-15.63,1.96-3.26,4.19-6.33,6.25-9.53.57-.92,2.9-4.48.36-4.16-.8.2-1.5.7-2.18,1.16-1.18.84-2.35,1.72-3.35,2.77-1.68,1.77-3.09,3.77-4.44,5.8-1.28,1.94-2.54,3.9-3.6,5.97,1.28-4.23,2.92-8.33,4.55-12.43,1.77-4.72,4.09-9.25,6.92-13.42,3.31-4.72,7.24-9.29,12.42-12,2-.94,4.43-1.61,6.72-1.45,1.75.13,3.6.46,4.93,1.7.5.48.87,1.03,1.13,1.63.01.04.03.08.04.13.01.02.03.05.04.07.89,2.22.35,5-.96,6.96-1.27,1.9-3.88,2.98-6.07,2.15,1.12-.81,2.21-1.82,2.52-3.22.3-1.31.18-2.88-.85-3.84-1.8-1.65-5-1.07-6.68.49-3.67,3.3-1.42,11,3.2,12.25,1.72.42,3.23.4,4.63.07-.58.56-1.14,1.14-1.67,1.74-5.45,5.73-10.24,12.05-14.73,18.55-2.77,3.85-5.46,7.75-8.02,11.74ZM194.09,24.29c-.11-.04-.21-.09-.32-.13,0-.02-.02-.04-.02-.06.11.07.23.13.34.19ZM16.64,82.01s.06-.07.08-.11c.02.08.04.15.07.22-.05-.04-.1-.08-.15-.12ZM54.14,139.97c-.04.08-.09.16-.12.24-.38.5-.76,1.01-1.14,1.52.42-.59.84-1.17,1.26-1.75ZM272.08,19.86c-.06,0-.12.02-.18.03-.02-.01-.03-.02-.05-.03.08,0,.15,0,.23,0ZM248.12,8.04s0,.03-.01.05c-.03,0-.05,0-.08,0,.03-.01.06-.03.09-.04ZM238.16,15.98s-.05.07-.06.11c-.02,0-.04-.02-.06-.03-.05-.03-.1-.06-.15-.09.09,0,.18,0,.27,0ZM201.33,15.98s0,0,0,0c-.05.05-.1.11-.15.16-.03-.06-.05-.11-.09-.16.08,0,.16,0,.24,0ZM182.79,16.19s-.02.04-.03.06c0,.01,0,.02,0,.03-.06-.03-.11-.07-.17-.1.07,0,.13,0,.2,0ZM126.36,11.19s0,.02.01.03c-.08.05-.16.1-.24.15.07-.06.15-.12.22-.18ZM19.35,28.33s-.03,0-.04,0c0,0,0-.01,0-.02.01,0,.02.02.03.03Z"/>
  </g>
</svg>