<?xml version="1.0" encoding="UTF-8"?>
<svg id="Layer_2" data-name="Layer 2" xmlns="http://www.w3.org/2000/svg" viewBox="0 0 366.28 163.86">
  <defs>
    <style>
      .cls-1 {
        fill: #fbb040;
        fill-rule: evenodd;
      }
    </style>
  </defs>
  <g id="OBJECTS">
    <g>
      <polygon class="cls-1" points="100.5 137.43 100.5 137.43 100.49 137.43 100.46 137.43 100.5 137.43 100.5 137.43"/>
      <path class="cls-1" d="M366.26,127.74c-.08-.02-.17-.04-.25-.06.09,0,.18,0,.27-.01,0,.02-.01.05-.02.07Z"/>
      <path class="cls-1" d="M0,141.08c.04.33.42.47.68.58,1,.41,2.01.78,3.04,1.12.37.22.81.31,1.25.39,2.41.75,4.87,1.36,7.35,1.79,3.14.5,6.28,1.05,9.46,1.18,2.41.15,4.83.09,7.24.26.02.02.04.03.06.04,0,0,0,0,0,0,1.11.99,2.29,1.91,3.51,2.75.1.08.19.16.29.24.05.04.11.08.16.12.21.18.43.35.65.51.93.72,1.91,1.39,2.93,1.99.86.66,2.37,1.31,3.63,1.79,3.01,1.22,6.15,2.14,9.36,2.62,2.66.5,5.37.68,8.08.55,1.55-.06,3.1-.16,4.65-.27.04,0,.07-.02.1-.04.17.08.4.1.59.07.24-.02.48-.08.72-.14,3.24,1.45,6.64,2.5,10.08,3.41,10.41,2.84,21.3,3.39,32.05,3.39.33,0,.67,0,1,0,5.23-.1,10.47-.4,15.65-1.18,4.01-.64,8.04-1.17,11.97-2.21,6.52-1.81,12.9-4.11,19.3-6.29.77-.28,1.53-.58,2.3-.88,1.03.26,2.06.51,3.1.73,4.89,1.07,9.88,1.56,14.88,1.56.62,0,1.24,0,1.85-.02,3.91-.1,7.8-.61,11.68-1.04,6.28-.74,12.44-2.26,18.4-4.36,2.97-1.04,5.93-2.11,8.79-3.41,4.25-1.96,8.32-4.28,12.56-6.27.3-.17.68-.24.87-.55.02-.03.02-.07.03-.1,2.5.59,5.01,1.18,7.52,1.72,8.11,1.66,16.24,3.32,24.44,4.48,4.02.51,8.06.81,12.1,1.18,1.81.12,3.61.21,5.42.27-.13.51-.31,1.01-.53,1.49-1.49,3.07-3.91,5.79-6.9,7.46-2.03,1.08-4.45,1.67-6.76,1.45-.18-.1-.39-.16-.6-.13-.04,0-.08.03-.12.04-.75-.13-1.49-.34-2.19-.66-2.2-.97-3.18-3.46-3.71-5.62-.84-.98-1.37,1.06-1.62,1.62-.45,1.37-.57,2.83-.46,4.27.11.73.46,1.4.8,2.04,1.84,3.69,6.34,4.91,10.18,4.81,5.9-.17,11.25-3.06,14.89-7.65,2.04-2.59,4.05-5.61,4.32-8.95.85,0,1.69.02,2.54.02,1.79,0,3.58-.01,5.37-.04,6.3-.2,12.51-1.37,18.57-3.06,3.44-1.07,6.75-2.52,9.94-4.18.7-.36,1.4-.73,2.1-1.11.76.06,1.53.09,2.3.09.93,0,1.86-.03,2.79-.07,5.59-.35,11.17-1.06,16.58-2.53,4.61-1.3,9.04-3.14,13.42-5.06.15-.03.29-.08.39-.17.26-.11.52-.23.78-.34-.02-.03-.04-.06-.06-.1-.07-.12-.15-.24-.22-.36-.07-.12-.14-.25-.21-.37,0,0,0-.01-.01-.02-.3.13-.61.27-.91.4-.36.06-.76.23-1.03.25-2.19.53-4.35,1.23-6.54,1.77-4.76,1.14-9.61,1.99-14.5,2.28-2.12.13-4.23.08-6.33-.03,1.14-.95,2.22-1.99,3.17-3.15,1.05-1.27,2-2.64,2.75-4.11.65-1.3.96-2.75,1.15-4.18.09-2.6-.49-5.35-2.07-7.46-1.88-2.5-5.2-3.01-7.64-1-1.96,1.58-2.79,3.91-2.03,6.33.44,1.48.96,2.99.73,4.56-.42,3.99-3.91,6.52-7.01,8.56-.03.02-.07.04-.11.07.04-.06.07-.13.09-.22.03-.26-.17-.51-.44-.53-.55-.06-1.11-.13-1.65-.22-.99-.17-1.97-.36-2.95-.58-5.96-1.43-11.87-3.05-17.78-4.68-4.99-1.3-10.07-2.29-15.22-2.7-.95-.08-1.91-.12-2.86-.17-.15-.03-.29.02-.4.11-.94-.85-1.95-1.64-3.01-2.36-.55-.4-1.11-.76-1.71-1.08-1.32-.81-2.68-1.54-4.12-2.1-8.84-3.4-18.49-4.66-27.9-3.45-4.46.54-8.84,1.6-13.25,2.46-5.98,1.26-11.96,2.57-17.78,4.45-3.13,1.01-6.27,1.99-9.36,3.11-.48-.04-.97-.09-1.45-.15-.12-.14-.3-.23-.54-.21-.18.03-.35.04-.53.06-.56-.08-1.13-.16-1.69-.22-3.75-.43-7.52-.75-11.29-.87-9.19-.22-18.37.79-27.39,2.46-10.37,2.16-20.5,5.37-30.5,8.83-3.01,1.19-5.98,2.48-8.96,3.73.01-.03.03-.05.04-.08.06-.26-.1-.52-.36-.59-.65-.16-1.31-.32-1.96-.46-1.92-.4-3.84-.75-5.77-1.07-5.54-.95-11.14-1.55-16.77-1.69-7.15-.32-14.32-.34-21.48-.39-5.7.08-11.39.46-17.07.9-1.33.12-2.66.28-3.97.42-.76.07-1.52.15-2.28.18-.1,0-.18.04-.25.09-.91-1.13-1.77-2.3-2.54-3.52-2.07-3.35-3.6-6.96-5.15-10.55,3.29,2.62,6.83,4.95,10.68,6.65,3.77,1.67,7.95,2.51,11.97,3.18,2.55.45,5.14.71,7.73.71.36,0,.71,0,1.06-.02,1.95-.04,3.89-.2,5.82-.45,2.88-.34,5.76-.91,8.39-2.19,2.61-1.12,5.11-2.51,7.36-4.24,2.27-1.63,4.32-3.62,6.55-5.3.09-.07.15-.16.19-.26.28.45.52.93.73,1.43.95,2.36,2.25,4.69,4.3,6.28,2.97,2.22,6.81,3.38,10.5,3.05,5.06-.36,9.83-2.66,14.95-2.56,1.03-.02,2.1.2,3.11,0,.94-.44-.01-1.36-.4-1.85-2.56-3.14-5.5-6-8.89-8.23-4.16-2.67-9.17-3.83-14.07-4.01-3.25-.07-6.55.6-9.67,1.39-.05-.07-.1-.15-.16-.22.08,0,.15-.03.24-.08,9.79-5.39,20.98-2.61,31.53-2.28,4.86.02,9.75-.62,14.47-1.77,8.86-2.24,16.86-7.38,22.84-14.26,2.71-3.15,4.69-6.83,7.01-10.26.51-.78,1.02-1.57,1.51-2.36.25-.44.6-.87.63-1.39-.16-.81-.84-.55-1.3-.15-5.53,4.01-12.76,4.12-19.33,4.17-3.85-.16-7.7-.15-11.56-.11-3.45-.02-6.93.04-10.34.67-2.43.42-4.79,1.13-7.11,1.95-6.96,2.47-13.04,6.82-18.8,11.34-4.05,3.44-7.29,7.71-10.51,11.91-.19.3-.52.61-.36.99.03.07.09.13.16.18-.08.07-.16.15-.24.22-.24-.21-.48-.41-.73-.6.76-.66,1.41-1.45,2-2.25,1.3-1.75,2.37-3.65,3.43-5.55,1.47-2.57,3.29-4.97,5.52-6.94,6.45-5.55,14.2-9.54,20.01-15.84,3.15-3.7,5.95-7.87,7.47-12.5,1.96-6.22,1.97-12.79,2.06-19.24-.08-.97.11-2.09-.35-2.97-.52-.66-1.19-.02-1.46.54-1.2,1.95-2.29,3.96-3.56,5.86-1.57,2.24-3.54,4.13-5.72,5.74-3.39,2.62-7.54,3.93-11.55,5.25-3.29.96-6.66,1.71-9.77,3.18-2.94,1.42-6.07,3.97-7.93,6.65-3.14,4.89-3.45,11.02-2.45,16.63.02.18.04.37.07.55.06.26.13.52.19.77h0c.53,2.67,1.51,5.23,1.65,7.95.2,3.61-.16,7.32-1.7,10.6,1.37-3.99,1.77-8.81.88-12.91-1.15-4.13-3.85-7.55-6.78-10.58-2.39-2.48-5.14-4.54-7.74-6.79-2.55-2.12-3.83-4.57-3.63-7.94.04-.5.1-.99.18-1.49.05-.48.28-1.09-.14-1.45-.55-.37-1.03.28-1.35.66-.48.57-.96,1.14-1.42,1.72-1.88,2.43-3.83,4.99-4.86,7.87-1.01,2.98-1.69,6.13-1.6,9.29.36,5.89,2.88,11.98,7.96,15.29,3.81,2.78,8.86,2.73,12.75,5.35.45.31.84.64,1.2,1.02.09,2.06-.58,4.09-1.49,5.92-1.32,2.28-3.3,4.14-5.49,5.56-.02.02-.05.03-.08.05-.36.07-.71.36-1.06.65-7.34,4.23-17.9,3.5-25.58.86-3.01-1.12-5.84-2.49-8.53-4.14,1.02.33,2.08.44,3.15.44.49,0,.99-.02,1.47-.06,2.81-.17,5.39-1.62,7.42-3.52,2.17-1.91,3.56-4.52,3.67-7.42.26-4-1.97-7.85-4.95-10.38-2.01-1.39-5.39-2.06-7.79-1.79-4.28.53-8.38,5.25-6,9.48.22.39.68.77,1.12.46.46-.37.48-1.04.8-1.51.42-.71,1.03-1.27,1.66-1.79.37-.3.88-.34,1.34-.34,3.02-.03,5.46,2.58,4.55,5.6-.34,1.72-1.71,2.74-3.24,3.35-2.52.83-5.29.14-7.69-.79-1.77-.72-3.28-1.95-4.64-3.26-.92-.89-1.76-1.87-2.54-2.89.02-.07.03-.15.02-.22-.12-.62-.21-1.24-.28-1.86-.28-2.56-.22-5.12-.07-7.68.35-8.15,1.9-16.22,2.02-24.38,0-.21-.04-.46-.24-.58,0,0-.01,0-.02,0,.01-.05.02-.1.04-.15.82-1.13,1.64-2.29,2.4-3.56.84-1.41,1.72-2.81,2.29-4.36,1.17-3.42,1.65-7.07,1.55-10.69-.1-1.93-.4-3.84-.7-5.75-.05-.26-.1-.52-.15-.78.03.04.06.09.09.13.58.88,1.18,1.75,1.84,2.57,2.15,2.61,4.73,4.82,7.44,6.82,2.04,1.5,4.15,2.93,6.41,4.07,3.03,1.6,6.32,2.66,9.67,3.38,2.63.56,5.31.93,8,.93.75,0,1.5-.03,2.25-.09,3.44-.2,6.84-.81,10.17-1.69,4.12-1.04,8.18-2.58,11.54-5.23,5.95-4.85,10.84-11.54,12.29-19.19.51-3.28.37-6.62-.24-9.88.01-.03.03-.07.03-.1-.28-2.1-1.02-4.15-1.76-6.12-1.48-3.79-4.23-7.07-7.66-9.26-5.19-3.41-13.3-4.93-19.21-2.76-.88.38-1.71.87-2.51,1.39-.47.2-.93.42-1.39.64-1.23,1.06-2.23,2.42-2.95,3.86-1.06,2.31-1.21,4.97-.8,7.45.74,4.1,2.98,8.31,6.98,9.99,1.43.63,3.06.95,4.71.95,2.01,0,4.03-.48,5.72-1.44.23-.12.45-.26.65-.41,1.57-1.08,2.77-2.62,3.24-4.66.63-2.78.17-7.17-3.2-7.78-.3-.05-.6-.02-.88.05-.04-.03-.09-.06-.15-.08-.78-.14-1.51.84-1.88,1.42-.86,1.44-.59,2.55.05,3.98-.51.29-1.1.13-1.61-.05-.01-.01-.01-.03-.03-.04-.52-.33-1.06-.75-1.53-1.23-.59-.85-.88-1.95-.88-2.98,0-.79.06-1.6.37-2.34.64-1.23,1.77-2.21,3.03-2.76,4.76-1.8,10.82.84,14.08,4.44,3.97,4.61,3.55,12.35,2.01,17.88-.16.65-.33,1.27-.52,1.86-.29.62-.65,1.37-.72,1.91-1.34,3.18-3.29,5.7-6.05,8.39-3.95,3.91-9.05,6.54-14.38,8.01-3.63,1.02-7.56,1.05-11.27.59-3.47-.38-6.82-1.29-10.06-2.54-4.44-1.93-8.15-5.14-11.46-8.62-5.86-6.11-10.91-13.11-14.09-20.98-1.2-2.86-2.36-5.72-3.22-8.71-.65-2.08-1.34-4.14-1.74-6.27-.51-2.48-1.14-4.96-1.36-7.49-.03-.26-.25-.47-.52-.45-.26.02-.48.25-.45.52.04.44.1.87.16,1.31-.48,2.17-.98,4.34-1.29,6.55-.72,5.37-.7,10.8-.68,16.21-.08,5.33,0,10.66.27,15.98.22,6.36.71,12.71.99,19.07.03,1.02.03,2.05.01,3.07-.2.37-.39.73-.58,1.1-1.52,2.92-2.97,5.9-4.13,8.98-.3.54-.6,1.47-.89,2.59-.44,1.45-.81,2.92-1.07,4.43-.15.96-.26,1.93-.35,2.91-.16,1.03-.26,1.82-.29,2.13-.13,1.56-.11,3.13-.02,4.69.06.11.09.24.12.36.13,2.45.45,4.89,1.05,7.26.7,2.9,1.87,5.65,3.3,8.26,0,0,0,0,0,0,0,0,0,0,0,.01.45.82.92,1.62,1.42,2.41.6,1.01,1.28,1.95,2,2.87-.06.06-.11.12-.13.2-.35.24-.23.82.2.88.08.26.16.52.23.79,0,.21.06.42.18.63,1.37,4.58,3.06,9.08,5.31,13.29,1.2,2.33,2.48,4.63,3.91,6.83-.31.03-.62.07-.94.11-.21-.06-.4-.03-.55.07-1.1.15-2.19.34-3.27.58-1.45.29-2.88.71-4.35.85-.34-.22-.61-.1-.73.11-2.45-2.86-4.52-6.03-6.17-9.41-1.68-3.46-2.42-7.19-3.22-10.91-1.98-9.09-2.73-18.4-3.24-27.67-.59-9.65-.38-19.33.21-28.96.4-7.88.82-15.76,1.52-23.62.54-6.19,1.08-12.38,1.42-18.58.13-4.46.34-8.97-.24-13.4-.43-2.61-1.18-5.24-2.64-7.47-.15-.22-.44-.29-.67-.15-.22.14-.3.45-.15.67.29.45.54.92.78,1.4-.24.05-.41.27-.39.51.14,4.54-.43,9.05-.99,13.53-.89,7.03-1.4,14.12-2.31,21.13-.99,7.77-1.9,15.55-2.24,23.38-.46,10.95-.38,21.91-.08,32.86.25,7.82.64,15.67,2.07,23.37.54,3.05,1.16,6.09,2.01,9.07,1.48,5.64,3.49,11.25,6.89,16.03-.19.03-.38.07-.53.06-4.61.38-9.25.14-13.85-.22-2.99-.25-5.99-.59-8.95-1.07-.38-.06-.75-.13-1.13-.19-.34-.04-.7-.19-1.03-.05-.21.09-.3.31-.27.52ZM39.92,53c.35-5.58-.06-11.18-.49-16.75.86,1.7,1.39,3.53,1.78,5.39.04.12.12.21.23.27,0,.25.02.5.02.76,0,0,0,0,0,0-.08.46-.05,1.09,0,1.74-.05,2.53-.4,5.05-1.15,7.46-.13.38-.27.75-.4,1.13ZM38.99,33.88c.04.06.07.12.1.18-.03,0-.06,0-.09,0,0-.06,0-.12,0-.17ZM313.09,137.42c-4.51,2.02-9.35,3.29-14.24,4.03-4.44.54-8.92.68-13.39.69.12-.09.21-.22.22-.38.14-4.14-1.35-7.75-3.57-11.17-.07-.12-.15-.23-.22-.35,2.56.54,5.13,1.06,7.68,1.68,4.97,1.14,9.79,2.9,14.73,4.14.3.14.7.21,1.1.26.29.07.58.14.88.21,1.81.35,3.65.63,5.48.82.42.03.85.08,1.28.08.02,0,.04,0,.06,0ZM258.27,123.91c2.17.33,4.33.8,6.41,1.52-.12,0-.23.01-.34.04-4.62-.23-9.24-.59-13.86-.22-7.15.54-14.23,2.37-20.78,5.25-1.55.63-3.02,1.52-4.62,1.99-.25,0-.45.22-.46.46-2.95-.89-5.95-1.64-8.92-2.47-1.14-.32-2.28-.65-3.43-.95,1.92-.62,3.88-1.14,5.81-1.72,1.22-.4,2.44-.79,3.67-1.13.08.01.16.01.24-.02,1.19-.4,2.45-.56,3.66-.91.66-.19,1.34-.35,2.01-.52.41-.07.83-.14,1.24-.2.34-.05.68-.1,1.02-.15,0-.02,0-.04,0-.06,0-.04-.02-.08-.03-.11,2.79-.62,5.62-1.08,8.47-1.3,2.4-.13,4.79-.13,7.19-.12,1.31,0,2.62,0,3.94-.02,2.95-.05,5.88.17,8.79.65ZM235.97,136.53c-.73-.19-1.45-.39-2.17-.61,5.16-2.76,10.74-4.76,16.54-5.59,4.65-.49,9.38-.48,14.05-.5,2.49,0,4.93.03,7.42.08.18,0,.37,0,.56,0,2.97,2.63,5.31,6,6.51,9.73.22.79.4,1.59.42,2.42-.35,0-.7,0-1.05-.01-6.48-.03-12.98-.42-19.42-1.14-1.5-.17-2.99-.38-4.48-.61-.53-.16-1.07-.3-1.52-.24-2.08-.35-4.15-.76-6.2-1.22-3.56-.74-7.12-1.45-10.65-2.32ZM271.15,128.95s-.02,0-.03,0c0,0,0-.01.01-.02,0,0,.01.01.02.02ZM163.23,149.97c2.5-1.08,4.99-2.18,7.49-3.26,6.26-2.91,12.86-4.91,19.19-7.64,2.72-1.13,5.44-2.24,8.06-3.6.49-.24.98-.46,1.48-.69.41-.19.83-.37,1.24-.56.39-.17.78-.34,1.17-.51.05,0,.11,0,.16-.02,3.15.02,6.24.93,9.3,1.6,2.46.59,4.91,1.19,7.36,1.79-.04.06-.07.12-.09.19-1.39.86-2.82,1.66-4.27,2.43-6.23,3.38-12.96,5.64-19.72,7.65-5.48,1.62-11.11,2.87-16.83,3.09-4.77.29-9.5.05-14.24-.45,0,0-.01,0-.02,0-.09,0-.18-.02-.27-.03ZM53.63,151.48c-2.59-.4-5.09-1.15-7.52-2.11-2.88-1.11-5.67-2.35-8.04-4.31-.07-.06-.13-.12-.19-.17,2.56-.13,5.11-.41,7.66-.66.2.07.42.04.61-.06.35-.03.71-.07,1.06-.1,2.43,2.79,5.16,5.32,8.13,7.54-.18,0-.36,0-.55,0-.05,0-.1,0-.15,0,0,0,0,.01-.01.02-.33-.03-.66-.08-.99-.14ZM187.71,131.56c-4.43,1.88-8.85,3.78-13.29,5.62-5.6,2.1-11.2,4.22-16.8,6.32-3.18,1.18-6.38,2.3-9.61,3.31-.05-.11-.14-.2-.26-.24-.54-.19-1.06-.4-1.59-.6-2.39-.93-4.84-1.37-7.31-1.99-2-.49-4-.97-6.03-1.33-.16-.03-.32-.05-.48-.07,3.8-1.38,7.59-2.77,11.38-4.16,2.53-.93,5.06-1.86,7.64-2.63,2-.51,4.01-.94,6.01-1.41,4.11-.92,8.25-1.85,12.43-2.29,3.72-.5,7.5-.6,11.25-.66,2.22-.02,4.45.05,6.67.15ZM104.96,153.55c-3.18.19-6.38.39-9.57.51,6.51-1.25,12.91-3.08,19.17-5.26,3.81-1.26,7.6-2.58,11.38-3.93.08.07.17.11.28.13,2.2.26,4.34.83,6.49,1.33,2.97.68,5.92,1.5,8.85,2.32-.46.12-.92.25-1.39.37-11.57,2.57-23.39,3.86-35.2,4.54ZM113.62,141.76c-.54.21-1.07.42-1.61.62-4.92,1.72-9.79,3.71-14.91,4.75-2.53.57-5.09.95-7.62,1.48-2.92.63-5.82,1.37-8.73,2.02-2.26.47-4.53.89-6.83,1.07-.23.01-.4.2-.43.42-6.25-1.58-12.26-4.05-17.52-7.79-.78-.55-1.53-1.14-2.26-1.75,2.86-.34,5.72-.76,8.59-1.03,5.74-.51,11.5-.91,17.25-1.28,11.01-.52,22.18-1.04,33.02,1.27.35.07.7.15,1.05.22ZM33.02,86.32c.23-2.03.77-3.78,1.5-5.39-.04,2.59-.13,5.21-.31,7.75,0,0,0,0,0-.01v-.02c-.15,2.13-.25,4.24-.39,6.36-.05.74-.11,1.47-.18,2.21-.84-3.57-1.23-7.26-.62-10.91ZM97.66,114.93s.01.04.03.06c0,0-.01,0-.02-.01,0-.02-.02-.04-.02-.05,0,0,0,0,.01,0ZM98.06,115.19s-.02,0-.04.01c-.01,0-.02-.01-.03-.02.02,0,.04,0,.07,0,0,0,0,0,0,0ZM100.44,137.4c.14.01.28.02.42.03-.01.01-.03.02-.04.04-.12-.01-.24-.02-.33-.03-.01,0-.02,0-.04,0h0s-.01-.02-.02-.04ZM49.09,138.06s.02,0,.03,0c0,0,0,.02-.01.03,0,0-.01-.02-.02-.03ZM117.64,140.16s-.06.03-.09.04c0-.02,0-.04,0-.06.03,0,.06.01.09.02Z"/>
    </g>
  </g>
</svg>