<?xml version="1.0" encoding="UTF-8"?>
<svg id="Layer_2" data-name="Layer 2" xmlns="http://www.w3.org/2000/svg" viewBox="0 0 366.28 163.86">
  <defs>
    <style>
      .cls-1 {
        fill: #fbb040;
        fill-rule: evenodd;
      }
    </style>
  </defs>
  <g id="OBJECTS">
    <g>
      <polygon class="cls-1" points="265.78 137.43 265.78 137.43 265.79 137.43 265.82 137.43 265.78 137.43 265.78 137.43"/>
      <path class="cls-1" d="M.02,127.74c.08-.02.17-.04.25-.06-.09,0-.18,0-.27-.01,0,.02.01.05.02.07Z"/>
      <path class="cls-1" d="M366,140.56c-.33-.14-.69,0-1.03.05-.38.07-.75.13-1.13.19-2.96.48-5.96.82-8.95,1.07-4.6.36-9.25.6-13.85.22-.15,0-.34-.03-.53-.06,3.4-4.79,5.41-10.39,6.89-16.03.85-2.98,1.47-6.02,2.01-9.07,1.44-7.7,1.82-15.55,2.07-23.37.29-10.95.38-21.91-.08-32.86-.34-7.83-1.25-15.61-2.24-23.38-.91-7.01-1.42-14.11-2.31-21.13-.56-4.48-1.13-8.99-.99-13.53.02-.25-.15-.47-.39-.51.24-.48.49-.95.78-1.4.15-.22.07-.53-.15-.67-.23-.14-.53-.07-.67.15-1.46,2.23-2.2,4.86-2.64,7.47-.59,4.44-.38,8.94-.24,13.4.35,6.2.88,12.39,1.42,18.58.7,7.86,1.12,15.74,1.52,23.62.58,9.63.8,19.31.21,28.96-.51,9.27-1.26,18.58-3.24,27.67-.8,3.72-1.54,7.45-3.22,10.91-1.65,3.37-3.72,6.55-6.17,9.41-.12-.22-.4-.33-.73-.11-1.47-.14-2.9-.56-4.35-.85-1.08-.24-2.18-.43-3.27-.58-.15-.1-.34-.13-.55-.07-.31-.04-.62-.08-.94-.11,1.43-2.2,2.71-4.5,3.91-6.83,2.25-4.22,3.94-8.72,5.31-13.29.12-.2.19-.41.18-.63.08-.26.16-.52.23-.79.43-.06.54-.64.2-.88-.02-.08-.07-.15-.13-.2.71-.92,1.4-1.87,2-2.87.49-.79.97-1.59,1.42-2.41,0,0,0,0,0-.01,0,0,0,0,0,0,1.43-2.61,2.59-5.36,3.3-8.26.6-2.37.93-4.81,1.05-7.26.03-.12.07-.25.12-.36.09-1.56.11-3.13-.02-4.69-.03-.31-.13-1.1-.29-2.13-.1-.97-.21-1.94-.35-2.91-.25-1.51-.62-2.98-1.07-4.43-.29-1.12-.59-2.05-.89-2.59-1.16-3.09-2.61-6.07-4.13-8.98-.19-.37-.39-.73-.58-1.1-.01-1.02-.02-2.05.01-3.07.28-6.36.77-12.71.99-19.07.26-5.32.35-10.65.27-15.98.01-5.41.04-10.84-.68-16.21-.31-2.21-.81-4.38-1.29-6.55.06-.44.12-.87.16-1.31.03-.26-.2-.5-.45-.52-.27-.02-.49.19-.52.45-.22,2.53-.86,5-1.36,7.49-.4,2.12-1.09,4.19-1.74,6.27-.87,2.98-2.03,5.84-3.22,8.71-3.18,7.86-8.23,14.87-14.09,20.98-3.31,3.47-7.02,6.69-11.46,8.62-3.23,1.25-6.59,2.16-10.06,2.54-3.72.46-7.64.43-11.27-.59-5.33-1.47-10.43-4.09-14.38-8.01-2.76-2.69-4.7-5.2-6.05-8.39-.07-.54-.42-1.29-.72-1.91-.19-.59-.37-1.21-.52-1.86-1.55-5.53-1.97-13.27,2.01-17.88,3.25-3.6,9.32-6.23,14.08-4.44,1.27.55,2.39,1.53,3.03,2.76.3.74.37,1.55.37,2.34,0,1.03-.28,2.12-.88,2.98-.47.48-1.01.9-1.53,1.23-.01.01-.02.03-.03.04-.51.19-1.11.34-1.61.05.64-1.43.91-2.54.05-3.98-.38-.58-1.1-1.56-1.88-1.42-.06.02-.11.05-.15.08-.28-.06-.57-.1-.88-.05-3.38.61-3.84,5-3.2,7.78.46,2.04,1.66,3.59,3.24,4.66.21.15.42.29.65.41,1.69.96,3.71,1.44,5.72,1.44,1.65,0,3.28-.32,4.71-.95,4-1.68,6.25-5.89,6.98-9.99.41-2.48.26-5.14-.8-7.45-.72-1.44-1.72-2.8-2.95-3.86-.46-.22-.92-.44-1.39-.64-.8-.52-1.63-1.01-2.51-1.39-5.9-2.17-14.01-.65-19.21,2.76-3.42,2.19-6.17,5.47-7.66,9.26-.74,1.97-1.48,4.03-1.76,6.12,0,.04.02.07.03.1-.61,3.26-.75,6.6-.24,9.88,1.46,7.65,6.34,14.33,12.29,19.19,3.36,2.65,7.42,4.19,11.54,5.23,3.33.88,6.73,1.49,10.17,1.69.75.06,1.5.09,2.25.09,2.69,0,5.37-.38,8-.93,3.35-.71,6.64-1.77,9.67-3.38,2.27-1.14,4.37-2.57,6.41-4.07,2.71-2,5.29-4.21,7.44-6.82.66-.82,1.27-1.69,1.84-2.57.03-.04.06-.08.09-.13-.05.26-.09.52-.15.78-.3,1.91-.6,3.82-.7,5.75-.1,3.61.39,7.26,1.55,10.69.57,1.55,1.45,2.95,2.29,4.36.76,1.27,1.57,2.43,2.4,3.56.01.05.03.1.04.15,0,0-.01,0-.02,0-.2.12-.23.37-.24.58.12,8.16,1.68,16.23,2.02,24.38.14,2.56.21,5.12-.07,7.68-.07.62-.17,1.24-.28,1.86-.01.08,0,.15.02.22-.78,1.02-1.62,1.99-2.54,2.89-1.37,1.31-2.87,2.55-4.64,3.26-2.4.93-5.17,1.62-7.69.79-1.53-.61-2.89-1.63-3.24-3.35-.91-3.02,1.54-5.63,4.55-5.6.46,0,.97.04,1.34.34.63.52,1.24,1.09,1.66,1.79.32.47.34,1.14.8,1.51.44.31.9-.08,1.12-.46,2.38-4.23-1.72-8.95-6-9.48-2.4-.27-5.78.39-7.79,1.79-2.98,2.53-5.21,6.38-4.95,10.38.12,2.91,1.51,5.52,3.67,7.42,2.03,1.89,4.61,3.34,7.42,3.52.49.04.98.06,1.47.06,1.07,0,2.13-.12,3.15-.44-2.69,1.66-5.53,3.02-8.53,4.14-7.69,2.63-18.25,3.37-25.58-.86-.35-.29-.7-.58-1.06-.65-.02-.02-.05-.03-.08-.05-2.19-1.42-4.18-3.28-5.49-5.56-.91-1.83-1.58-3.86-1.49-5.92.37-.38.76-.71,1.2-1.02,3.89-2.62,8.94-2.57,12.75-5.35,5.08-3.31,7.6-9.4,7.96-15.29.09-3.16-.59-6.31-1.6-9.29-1.03-2.88-2.98-5.43-4.86-7.87-.46-.58-.94-1.16-1.42-1.72-.32-.38-.81-1.03-1.35-.66-.42.37-.2.98-.14,1.45.08.49.15.99.18,1.49.21,3.36-1.08,5.82-3.63,7.94-2.59,2.25-5.35,4.31-7.74,6.79-2.93,3.03-5.63,6.45-6.78,10.58-.89,4.1-.49,8.93.88,12.91-1.54-3.28-1.9-6.99-1.7-10.6.14-2.72,1.11-5.28,1.65-7.95h0c.07-.26.13-.52.19-.78.03-.18.04-.37.07-.55,1-5.62.69-11.74-2.45-16.63-1.86-2.68-5-5.24-7.93-6.65-3.11-1.47-6.49-2.22-9.77-3.18-4.01-1.32-8.16-2.63-11.55-5.25-2.18-1.61-4.15-3.5-5.72-5.74-1.27-1.9-2.36-3.91-3.56-5.86-.28-.55-.94-1.2-1.46-.54-.46.88-.27,2-.35,2.97.08,6.45.1,13.03,2.06,19.24,1.52,4.63,4.33,8.8,7.47,12.5,5.81,6.3,13.56,10.29,20.01,15.84,2.23,1.97,4.04,4.37,5.52,6.94,1.07,1.9,2.13,3.8,3.43,5.55.6.81,1.24,1.6,2,2.25-.26.19-.5.39-.73.6-.08-.07-.16-.15-.24-.22.07-.05.13-.1.16-.18.17-.38-.17-.69-.36-.99-3.21-4.2-6.46-8.47-10.51-11.91-5.77-4.52-11.84-8.87-18.8-11.34-2.32-.82-4.69-1.52-7.11-1.95-3.41-.62-6.88-.68-10.34-.67-3.85-.04-7.71-.04-11.56.11-6.57-.05-13.8-.16-19.33-4.17-.47-.41-1.14-.66-1.3.15.02.52.38.95.63,1.39.49.79,1,1.58,1.51,2.36,2.32,3.43,4.3,7.11,7.01,10.26,5.98,6.88,13.98,12.02,22.84,14.26,4.72,1.15,9.61,1.8,14.47,1.77,10.54-.33,21.73-3.11,31.53,2.28.08.05.16.07.24.08-.05.07-.1.15-.16.22-3.12-.79-6.42-1.46-9.67-1.39-4.89.19-9.91,1.34-14.07,4.01-3.39,2.24-6.33,5.1-8.89,8.23-.39.49-1.35,1.41-.4,1.85,1.01.21,2.08-.01,3.11,0,5.11-.1,9.88,2.19,14.95,2.56,3.69.34,7.53-.82,10.5-3.05,2.05-1.59,3.35-3.92,4.3-6.28.21-.49.45-.97.73-1.43.04.1.1.19.19.26,2.22,1.67,4.28,3.66,6.55,5.3,2.25,1.74,4.75,3.13,7.36,4.24,2.63,1.28,5.5,1.85,8.39,2.19,1.93.25,3.87.42,5.82.45.36.01.71.02,1.06.02,2.59,0,5.18-.26,7.73-.71,4.02-.68,8.2-1.51,11.97-3.18,3.85-1.71,7.38-4.04,10.68-6.65-1.55,3.59-3.08,7.2-5.15,10.55-.77,1.22-1.63,2.39-2.54,3.52-.07-.05-.16-.09-.25-.09-.76-.03-1.52-.11-2.28-.18-1.31-.14-2.63-.3-3.97-.42-5.68-.43-11.37-.82-17.07-.9-7.16.04-14.33.06-21.48.39-5.63.14-11.22.74-16.77,1.69-1.93.33-3.86.67-5.77,1.07-.66.14-1.31.3-1.96.46-.26.06-.42.33-.36.59,0,.03.03.06.04.08-2.98-1.25-5.95-2.54-8.96-3.73-10-3.46-20.13-6.67-30.5-8.83-9.03-1.67-18.2-2.68-27.39-2.46-3.77.12-7.54.44-11.29.87-.57.06-1.13.14-1.69.22-.18-.02-.35-.03-.53-.06-.24-.03-.42.07-.54.21-.48.06-.96.11-1.45.15-3.09-1.12-6.23-2.1-9.36-3.11-5.82-1.88-11.8-3.19-17.78-4.45-4.41-.86-8.79-1.93-13.25-2.46-9.41-1.21-19.05.05-27.9,3.45-1.44.56-2.81,1.29-4.12,2.1-.59.32-1.16.68-1.71,1.08-1.06.71-2.06,1.5-3.01,2.36-.11-.09-.25-.15-.4-.11-.95.05-1.91.08-2.86.17-5.15.41-10.23,1.4-15.22,2.7-5.91,1.63-11.82,3.25-17.78,4.68-.98.22-1.96.41-2.95.58-.55.09-1.1.17-1.65.22-.26.03-.46.27-.44.53.02.09.05.16.09.22-.04-.02-.07-.04-.11-.07-3.1-2.03-6.59-4.57-7.01-8.56-.23-1.57.3-3.08.73-4.56.77-2.42-.07-4.75-2.03-6.33-2.44-2.01-5.76-1.5-7.64,1-1.58,2.11-2.16,4.86-2.07,7.46.19,1.43.5,2.88,1.15,4.18.75,1.47,1.7,2.84,2.75,4.11.95,1.17,2.03,2.2,3.17,3.15-2.11.11-4.22.17-6.33.03-4.89-.29-9.73-1.14-14.5-2.28-2.19-.55-4.35-1.24-6.54-1.77-.26-.03-.67-.19-1.03-.25-.3-.13-.61-.27-.91-.4,0,0,0,.01-.01.02-.07.13-.14.25-.21.37-.07.12-.14.24-.22.36-.02.03-.04.06-.06.1.26.11.52.23.78.34.1.09.24.14.39.17,4.38,1.92,8.81,3.76,13.42,5.06,5.41,1.47,10.99,2.19,16.58,2.53.93.04,1.86.07,2.79.07.77,0,1.53-.04,2.3-.09.7.38,1.4.75,2.1,1.11,3.2,1.65,6.51,3.1,9.94,4.18,6.06,1.69,12.27,2.86,18.57,3.06,1.79.02,3.58.04,5.37.04.85,0,1.69,0,2.54-.02.27,3.34,2.28,6.37,4.32,8.95,3.64,4.59,8.99,7.48,14.89,7.65,3.84.11,8.34-1.11,10.18-4.81.34-.65.69-1.31.8-2.04.11-1.43,0-2.9-.46-4.27-.24-.56-.78-2.6-1.62-1.62-.53,2.16-1.52,4.65-3.71,5.62-.7.33-1.44.53-2.19.66-.04-.01-.08-.04-.12-.04-.22-.03-.42.03-.6.13-2.32.21-4.74-.37-6.76-1.45-2.99-1.67-5.41-4.39-6.9-7.46-.21-.48-.39-.98-.53-1.49,1.81-.07,3.62-.15,5.42-.27,4.04-.36,8.08-.67,12.1-1.18,8.2-1.15,16.33-2.82,24.44-4.48,2.51-.54,5.02-1.13,7.52-1.72,0,.03.01.07.03.1.18.31.57.38.87.55,4.23,1.99,8.3,4.31,12.56,6.27,2.86,1.3,5.83,2.36,8.79,3.41,5.95,2.1,12.12,3.62,18.4,4.36,3.88.43,7.77.94,11.68,1.04.62.02,1.23.02,1.85.02,5,0,10-.49,14.88-1.56,1.04-.22,2.07-.48,3.1-.73.77.29,1.53.6,2.3.88,6.41,2.18,12.78,4.48,19.3,6.29,3.93,1.04,7.96,1.57,11.97,2.21,5.18.77,10.42,1.08,15.65,1.18.33,0,.67,0,1,0,10.75,0,21.64-.55,32.05-3.39,3.44-.91,6.84-1.97,10.08-3.41.24.06.47.12.72.14.19.03.42.01.59-.07.03.01.06.03.1.04,1.55.11,3.1.21,4.65.27,2.7.14,5.41-.05,8.08-.55,3.22-.48,6.35-1.4,9.36-2.62,1.26-.47,2.77-1.13,3.63-1.79,1.01-.61,1.99-1.27,2.93-1.99.22-.17.44-.34.65-.51.05-.04.11-.08.16-.12.1-.08.19-.16.29-.24,1.22-.84,2.4-1.76,3.51-2.75,0,0,0,0,0,0,.02-.02.04-.02.06-.04,2.41-.16,4.83-.1,7.24-.26,3.18-.13,6.32-.68,9.46-1.18,2.48-.43,4.94-1.04,7.35-1.79.44-.08.88-.17,1.25-.39,1.02-.35,2.04-.72,3.04-1.12.26-.12.65-.26.68-.58.02-.22-.07-.43-.27-.52ZM325.95,51.87c-.75-2.41-1.1-4.93-1.15-7.46.06-.64.09-1.28,0-1.74,0,0,0,0,0,0,0-.25.02-.5.02-.76.11-.06.19-.15.23-.27.39-1.86.92-3.69,1.78-5.39-.43,5.57-.84,11.17-.49,16.75-.13-.38-.28-.75-.4-1.13ZM327.28,34.06s-.06,0-.09,0c.03-.06.06-.12.1-.18,0,.06,0,.12,0,.17ZM53.25,137.42c.43,0,.86-.05,1.28-.08,1.84-.19,3.67-.48,5.48-.82.29-.06.58-.14.88-.21.41-.05.81-.12,1.1-.26,4.93-1.24,9.76-3.01,14.73-4.14,2.55-.62,5.11-1.15,7.68-1.68-.07.12-.15.23-.22.35-2.22,3.42-3.71,7.03-3.57,11.17,0,.16.09.29.22.38-4.47,0-8.94-.15-13.39-.69-4.89-.74-9.73-2.01-14.24-4.03.02,0,.04,0,.06,0ZM116.79,123.26c1.31.02,2.62.02,3.94.02,2.4,0,4.79,0,7.19.12,2.85.22,5.68.68,8.47,1.3-.01.04-.03.07-.03.11,0,.02,0,.04,0,.06.34.05.68.09,1.02.15.41.06.83.13,1.24.2.67.17,1.34.34,2.01.52,1.21.35,2.47.51,3.66.91.08.03.16.03.24.02,1.23.35,2.45.73,3.67,1.13,1.93.58,3.89,1.1,5.81,1.72-1.15.3-2.29.63-3.43.95-2.97.83-5.97,1.58-8.92,2.47-.01-.24-.21-.46-.46-.46-1.6-.47-3.07-1.36-4.62-1.99-6.54-2.88-13.63-4.71-20.78-5.25-4.61-.37-9.24,0-13.86.22-.1-.02-.22-.04-.34-.04,2.08-.71,4.24-1.19,6.41-1.52,2.91-.49,5.84-.7,8.79-.65ZM119.67,138.85c-2.06.46-4.13.87-6.2,1.22-.45-.07-.99.08-1.52.24-1.49.23-2.98.44-4.48.61-6.44.72-12.93,1.11-19.42,1.14-.35,0-.7,0-1.05.01.02-.82.2-1.63.42-2.42,1.2-3.72,3.54-7.1,6.51-9.73.19,0,.37,0,.56,0,2.49-.05,4.92-.08,7.42-.08,4.66.02,9.4,0,14.05.5,5.8.83,11.38,2.83,16.54,5.59-.72.22-1.44.42-2.17.61-3.53.87-7.09,1.58-10.65,2.32ZM95.15,128.93s0,.01.01.02c-.01,0-.02,0-.03,0,0,0,.01-.01.02-.02ZM202.78,150s-.01,0-.02,0c-4.73.5-9.47.74-14.24.45-5.73-.22-11.35-1.47-16.83-3.09-6.76-2.01-13.49-4.27-19.72-7.65-1.45-.76-2.88-1.56-4.27-2.43-.02-.07-.04-.14-.09-.19,2.45-.6,4.9-1.21,7.36-1.79,3.06-.66,6.15-1.58,9.3-1.6.05.02.1.01.16.02.39.17.78.34,1.17.51.41.19.83.37,1.24.56.5.23.99.45,1.48.69,2.61,1.35,5.34,2.47,8.06,3.6,6.32,2.73,12.93,4.73,19.19,7.64,2.5,1.08,4.99,2.18,7.49,3.26-.09,0-.18.02-.27.03ZM311.66,151.62s0-.01-.01-.02c-.05,0-.1,0-.15,0-.18,0-.36,0-.55,0,2.97-2.21,5.7-4.74,8.13-7.54.35.03.71.07,1.06.1.18.1.4.13.61.06,2.55.25,5.1.53,7.66.66-.07.06-.13.12-.19.17-2.37,1.96-5.17,3.2-8.04,4.31-2.43.96-4.94,1.71-7.52,2.11-.33.06-.66.11-.99.14ZM185.23,131.41c3.75.07,7.52.16,11.25.66,4.19.44,8.32,1.37,12.43,2.29,2,.48,4.02.91,6.01,1.41,2.58.77,5.11,1.71,7.64,2.63,3.79,1.38,7.59,2.77,11.38,4.16-.16.03-.32.05-.48.07-2.03.36-4.03.83-6.03,1.33-2.47.62-4.92,1.06-7.31,1.99-.53.2-1.06.42-1.59.6-.12.04-.21.13-.26.24-3.23-1.01-6.44-2.13-9.61-3.31-5.6-2.1-11.2-4.22-16.8-6.32-4.45-1.84-8.87-3.73-13.29-5.62,2.22-.1,4.44-.17,6.67-.15ZM226.11,149.01c-.47-.11-.93-.25-1.39-.37,2.93-.82,5.88-1.64,8.85-2.32,2.15-.5,4.3-1.07,6.49-1.33.11-.01.2-.06.28-.13,3.78,1.35,7.57,2.67,11.38,3.93,6.26,2.18,12.66,4.01,19.17,5.26-3.19-.11-6.38-.31-9.57-.51-11.82-.69-23.64-1.98-35.2-4.54ZM253.71,141.54c10.85-2.31,22.01-1.78,33.02-1.27,5.75.37,11.51.77,17.25,1.28,2.87.27,5.73.69,8.59,1.03-.73.61-1.48,1.2-2.26,1.75-5.26,3.74-11.27,6.21-17.52,7.79-.03-.22-.21-.41-.43-.42-2.3-.18-4.58-.6-6.83-1.07-2.91-.65-5.81-1.39-8.73-2.02-2.54-.53-5.1-.91-7.62-1.48-5.12-1.04-9.99-3.03-14.91-4.75-.54-.2-1.07-.42-1.61-.62.35-.08.7-.15,1.05-.22ZM332.64,97.22c-.07-.74-.13-1.47-.18-2.21-.14-2.12-.24-4.22-.39-6.36v.02s0,0,0,.01c-.17-2.54-.27-5.16-.31-7.75.73,1.61,1.27,3.36,1.5,5.39.61,3.65.22,7.33-.62,10.91ZM268.63,114.92s-.02.04-.02.05c0,0-.01,0-.02.01.01-.02.02-.04.03-.06,0,0,0,0,.01,0ZM268.22,115.19s.04,0,.07,0c-.01,0-.02.01-.03.02-.01,0-.02,0-.04-.01,0,0,0,0,0,0ZM265.82,137.43h0s-.02,0-.04,0c-.09,0-.21.02-.33.03,0-.01-.03-.02-.04-.04.14-.01.28-.02.42-.03,0,.01-.02.02-.02.03ZM317.17,138.09s0-.02-.01-.03c.01,0,.02,0,.03,0,0,0-.01.02-.02.03ZM248.73,140.14s0,.04,0,.06c-.03-.01-.06-.03-.09-.04.03,0,.06-.01.09-.02Z"/>
    </g>
  </g>
</svg>