<?xml version="1.0" encoding="UTF-8"?>
<svg id="Layer_2" data-name="Layer 2" xmlns="http://www.w3.org/2000/svg" viewBox="0 0 331.59 237.03">
  <defs>
    <style>
      .cls-1 {
        fill: #fbb040;
        fill-rule: evenodd;
      }
    </style>
  </defs>
  <g id="OBJECTS">
    <path class="cls-1" d="M.15,16.72c.14.19.34.32.55.43.25.13.52.24.78.35.11.08.24.15.4.19.01,0,.03,0,.04,0,.42.17.85.32,1.28.46,3.42.94,7.01,1.08,10.53,1.44,3.36.21,6.7.63,10.05,1,3.55.28,7.11.52,10.64,1,2.65.33,5.32.52,7.98.83,2.54.3,5.04.82,7.56,1.28,5.96,1,11.98,1.68,17.93,2.79,7.52,1.24,14.76,3.3,22.14,5.11,4.81,1.23,9.52,2.8,14.29,4.19.51.17,1.02.33,1.53.5,1.41.43,2.84.78,4.24,1.22.2.1.43.16.66.18,4.9,1.5,9.8,3.11,14.59,4.74,6.85,2.41,13.51,5.28,20.26,7.96,6.93,2.69,13.68,5.77,20.35,9.06,8.26,4.02,16.42,8.02,24.33,12.66,5.02,2.93,10.09,5.79,14.95,9,7.16,4.95,14.07,10.26,20.9,15.66,5.55,4.21,10.94,8.63,16.14,13.26.14.15.27.3.41.45.1.09.21.16.32.2,2.13,1.92,4.23,3.88,6.29,5.87.53.93,2,1.82,2.46,2.54,1.63,1.76,3.34,3.43,5.07,5.1.86.91,1.71,1.82,2.55,2.75,5.54,6.38,10.69,13.08,15.98,19.67,4.15,5.4,7.79,11.12,11.31,16.93,2.63,4.47,4.81,9.19,7.05,13.87,1.86,3.84,3.61,7.73,5.27,11.66,1.59,3.92,2.96,7.92,4.38,11.9,1.16,3.26,2.23,6.53,3.19,9.84.08.53.2,1.02.39,1.39.22.77.44,1.55.64,2.33,1.56,5.41,3.12,10.83,4.54,16.28.31,1.19.58,2.39.96,3.56.23.72.49,1.46.94,2.07.06.08.13.15.2.21.05.22.24.38.47.38s.4-.15.46-.36c.09-.1.13-.23.12-.37,0-.07-.04-.14-.08-.19.09-8.19.56-16.37.85-24.55.11-9.54.08-19.09-.42-28.61-.05-.78-.12-1.55-.19-2.33-.01-.19-.03-.43-.09-.62.61-.88,1.26-1.74,1.91-2.58,1.69-2.11,3.61-3.96,5.33-6.04,3.85-4.5,6.56-9.93,8.06-15.65,1.91-7.35,1.12-15.4-2.34-22.17-2.02-3.67-4.6-7.09-7.76-9.86-1.67-1.45-3.44-2.77-5.29-3.98.01-4.78.17-9.56.43-14.33.18-5.35.11-10.71.13-16.07,0-.05-.02-.09-.03-.13,4.83-3.3,9.14-7.37,11.99-12.52,2.64-4.62,4.47-12.43-.73-15.94-3.47-2.14-8.75-1.48-11.26,1.83,0-.02.01-.03.01-.05,0-1.93.2-3.86.25-5.79.06-5.15.05-10.3-.21-15.44-.12-2.08-.38-4.15-.59-6.22-.15-1.5-.3-3-.67-4.46-.24-.81-.74-2.32-1.51-2.84.08-.06.16-.12.24-.17.5-.29.99-.58,1.48-.88.3-.2.66-.36.98-.56,1.87-.74,3.99-.7,5.92-.12,1.67.45,3.38,1.28,4.13,2.93.48,1.02,1.04,2.32.46,3.4-.12.19-.26.37-.43.53-.12.05-.2.11-.24.2-.35.25-.76.39-1.19.28-.55-.17-.99-.55-1.52-.76-1.15-.54-2.6-.4-3.43.63-1.29,1.53-.39,3.95,1.24,4.85,2.95,1.86,6.79.02,8.32-2.83,3.77-6.22-.8-13.11-7.69-13.64-2.46-.22-4.85.4-7.12,1.31-.14-.06-.3-.06-.44.01-.67.34-1.33.68-2,1.04-.05.03-.1.07-.16.1-.04.02-.09.04-.13.06,0,0-.01,0-.02.01-.2-.38-.42-.75-.67-1.1-.91-1.22-1.86-2.43-3.02-3.41-1.77-1.44-3.88-2.79-6.18-3.08.38-.76.7-1.55.95-2.37.61-1.86,1.22-3.79,1.07-5.77-.07-2.02-1.38-3.67-2.83-4.96-1.56-1.43-3.39-1.85-5.45-1.56-2.59.24-5.06,1.4-6.95,3.19-.91.86-1.81,1.82-2.21,3.04-1.11,3.14,1.59,6.25,4.79,4.67,1.12-.55,2-1.76,1.79-3.04-.05-.82-.81-1.32-1.02-2.07-.09-.66.42-1.15.95-1.44,1.01-.49,2.2-.29,3.2.13,1.13.49,1.87,1.58,2.12,2.77.38,2.08-.03,4.24-.85,6.37-.17-.14-.43-.22-.66-.24-.72-.11-1.45-.17-2.19-.2-3.06-.12-6.11-.28-9.17-.3-4.28-.15-8.56-.02-12.84-.15-1.78,0-3.56.15-5.34.27,1.74-1.39,2.67-3.95,2.81-6.06.36-4.38-3.65-7.77-7.64-8.59-3.79-.79-7.76.47-10.81,2.75-2.1,1.51-4.11,3.19-5.9,5.07-1.88,2.15-3.43,4.56-4.76,7.1-.09-.03-.18-.04-.27-.02-1.36-.06-2.72-.08-4.09-.09-8.02-.03-16.03.37-24.05.33-15.9.16-31.81-.27-47.71-.13.19-.1.38-.2.57-.3,4.88-2.53,10.08-4.45,15.49-5.49,3.79-.76,7.64-1.41,11.51-1.21,3.87.31,7.79,1.09,11.22,2.93,1.97,1.05,3.63,2.56,5.4,3.89.22.12.53.12.69-.09.72-.64-1.87-2.93-2.32-3.44-1.4-1.39-3.01-2.55-4.75-3.46-5.42-2.69-11.46-4.22-17.53-4.16-3.06.08-6.07.71-9.08,1.21-5.03.91-9.88,2.65-14.58,4.64-3.66,1.59-7.14,3.51-10.57,5.54-.12-.12-.29-.18-.5-.11-4.16.19-8.33,0-12.5-.05-2-.05-4-.09-5.99-.1-.53.08-1.69-.28-1.76.46-.61-.65-1.25-1.27-1.93-1.86-2.65-2.33-5.68-4.4-9.14-5.28-1.56-.3-3.16-.18-4.74-.25-4.18-.55-8.46.41-12.15,2.42-2.39,1.39-4.51,3.23-6.85,4.72-.08-.12-.2-.21-.4-.22-4.01.03-8.02.07-12.04.08-.29.04-.73-.04-1.06.02-1.12-1.68-1.47-3.96.2-5.3.88-.77,2.24-1,3.26-.37.24.16.52.37.81.19.15-.08.25-.25.25-.42-.02-.33-.28-.58-.48-.82-.62-.71-1.46-1.2-2.35-1.51-1.26-.51-2.64-.38-3.93-.07-.58.15-1.18.28-1.68.61-2.14,1.51-2.6,4.52-2.14,6.93.06.26.15.51.23.77-.21-.03-.41.02-.59.12-1.17-.02-2.34-.07-3.51-.08-9.36-.11-18.72-.1-28.07.2-9.4.05-18.79.17-28.19.12-4.39-.04-8.79-.19-13.18-.18-.05,0-.09.01-.14.03-.31-.07-.74.07-1.07.09-.18-.09-.4-.06-.56.09-.33.31-.48.82-.19,1.22ZM312.59,223.78c0,.06,0,.11,0,.17,0,.08,0,.17,0,.25-.03-.12-.05-.24-.08-.37.03-.02.06-.04.09-.06ZM321.47,63.77c1.76.22,2.91,1.94,3.16,3.59.12,1.09-.16,2.12-.39,3.17-.35,1.39-.85,2.77-1.75,3.91-1.86,2.65-4.17,4.95-6.72,6.95.18-4.06.16-8.12.2-12.18.43.44.94.81,1.55,1.06.13.06.25.11.39.16.33.27.68.46,1.06.34.5.11,1.02.12,1.51-.04.42-.14.61-.68.32-1.03-.23-.29-.6-.44-.9-.64-.88-.57-1.87-1.3-2.07-2.39-.34-1.98,1.95-3.11,3.65-2.9ZM303.35,28.38c.15.13.3.27.43.42.04.28.19.5.4.63,0,.06,0,.12.02.17-1.65,1.73-3.15,3.62-4.57,5.52-5.5,7.65-9.97,15.97-13.7,24.61-.09.07-.18.14-.27.21-2.07,1.48-4.29,2.82-6.64,3.8-1.71.63-3.62,1.33-5.45.86-.03,0-.06,0-.09,0,.24-.41.46-.83.7-1.24,4.26-6.87,8.9-13.52,13.9-19.86,2.05-2.59,4.08-5.2,6.23-7.7.35-.35.68-.72,1.04-1.07,0-.04-.01-.08-.02-.12.51-.58,1.05-1.14,1.58-1.7.42-.26.77-.76,1.1-1.18.01-.01.02-.02.03-.03,1.33-1.2,2.65-2.41,3.87-3.73.15.04.29.11.42.22.03-.13.02-.26,0-.39.03.01.06.02.09.03.21.26.57.4.92.56ZM137.1,23.4c-.59-.7-1.36-1.26-1.97-1.94-.02-.02-.03-.04-.05-.05,1.62.02,3.23.05,4.85.01.19,0,.38-.01.56-.02-1.12.68-2.25,1.35-3.39,2ZM321.65,152.47c-.53,4.62-2.1,9.05-4.25,13.15-.75,1.39-1.48,2.79-2.18,4.22.01-.06.02-.13.01-.19,0-.03.02-.06.02-.1-.07-8.15.08-16.3.02-24.46,0-5.23.21-10.46.18-15.69.6.69,1.16,1.4,1.65,2.2,1.78,2.82,3.05,5.97,3.92,9.18.85,3.83.96,7.79.62,11.68ZM309.57,179.07c.02.14.04.27.05.41.01.11.03.22.04.33-.04-.24-.07-.48-.1-.73,0,0,0-.01.01-.01ZM314.28,169.59s0,0,0,0c0,0,0-.01,0-.02,0,0,0,0,0,.01ZM291.97,119.68c.52.87,1.02,1.76,1.51,2.64-.5-.88-1.01-1.76-1.51-2.64ZM272.72,102.49c.29.11.58.23.87.35-.28-.11-.57-.23-.87-.35ZM287.9,112.27c1.38,1.04,3.03,1.65,4.64,2.24,1.39.52,2.76,1.07,4.12,1.68,3.39,1.58,6.7,3.3,9.79,5.39,1.07.74,2.12,1.52,3.15,2.33-.02.1,0,.2.05.29.06.68.06,1.36.07,2.03-.03,7.05.17,14.1.35,21.15.15,5.11.45,10.21.4,15.32-.11,4.68-.05,9.36-.1,14.04-.01.19-.02.38-.03.57-.38-2.83-.84-5.65-1.28-8.46-.75-3.84-1.38-7.7-2.08-11.56-.71-3.86-1.79-7.64-2.94-11.38-.85-2.77-1.63-5.56-2.54-8.31-1.67-4.59-3.56-9.13-5.9-13.42-1.87-3.38-3.63-6.87-6.02-9.92-.54-.69-1.11-1.35-1.68-2.01ZM314.24,171.91c0-.11,0-.21,0-.32.02.05.05.08.09.12-.03.07-.06.14-.09.2ZM254.53,111.3c.02.58.08,1.15.17,1.71-.55-.54-1.09-1.07-1.63-1.61-.7-.71-1.34-1.48-2.02-2.2-.98-1.11-2.16-2.09-2.93-3.37-.31-.67-.51-1.4-.58-2.13.05-.82.21-1.65.45-2.44.68-1.41,1.67-2.69,2.83-3.74,1.86-1.6,4.19-2.88,6.71-2.77.29.03.59.05.84.22.08.04.16.04.24.03,3.93,1.96,8.13,3.33,12.42,4.24,3.44.68,6.96.89,10.47.93,5.21,0,10.37-.89,15.42-2.11,2.5-.78,5.01-1.59,7.44-2.58,1.66-.77,3.3-1.6,4.92-2.46,0,.26,0,.52,0,.79,0,.52,0,1.03,0,1.55,0,1.03,0,2.05.03,3.08.03,1.05.07,2.1.1,3.16.03,1.04.04,2.08.06,3.12.02,1.03.04,2.06.08,3.09.04,1.02.09,2.04.14,3.05.04.92.07,1.84.09,2.76.02.93.03,1.86.05,2.8,0,.11.05.21.11.29-6.98-3.19-14.8-4.27-21.61-7.84-.6-.32-1.18-.68-1.74-1.07-.49-.3-.9-.78-1.45-.97-.24-.05-.5.12-.57.35-.09.35.16.66.29.97.33.68.68,1.37,1.09,2.01-.73-.75-1.47-1.49-2.23-2.22-1.82-1.53-3.76-2.94-5.84-4.09-2.2-1.06-4.35-2.42-6.8-2.81-3.29-.6-6.78-.46-9.86.93-2.08.96-3.93,2.47-5.27,4.34-.98,1.46-1.46,3.24-1.41,4.99ZM292.8,22.94c-.83,1.16-1.66,2.25-2.4,3.23-2.72,3.68-5.79,7.01-9.09,10.16-2.88,2.75-6.05,5.17-9.04,7.79-1.61,1.31-3.28,2.57-4.97,3.79.01-.03.02-.05.03-.08,1.19-3.12,2.61-6.09,4.44-8.88,2.19-3.15,4.7-6.02,7.29-8.84,1.99-2.23,4.04-4.41,6.28-6.39.72-.65,1.44-1.29,2.17-1.93.09-.06.15-.14.21-.22.22.04.45.07.67.12,1.52.31,3,.45,4.34,1.2.03.01.05.03.08.04ZM245.92,21.13c1.77.02,3.55.02,5.32-.04,2.06-.11,4.12-.14,6.18-.17,2.06-.07,4.11-.27,6.18-.27,5.07-.11,10.14-.06,15.21.08,1.47.02,2.94.1,4.41.23-.3.2-.61.4-.9.61-4.2,2.95-7.65,6.79-11.12,10.53-2.18,2.27-4.03,4.84-5.74,7.47-1.77,2.69-3.48,5.42-4.89,8.32-.83,1.69-1.57,3.44-2.04,5.27-.03.11-.06.24-.09.36-3.13,1.65-6.39,3.1-9.79,4.11-1.77.49-3.53.95-5.32,1.29-.09.02-.16.06-.23.12-.24-.03-.54-.09-.79-.06-.18-.84-.33-1.69-.47-2.54-.42-2.37-.95-4.67-1.13-7.06-.24-4.68-.1-9.36.58-13.99.69-4.65,1.7-9.28,3.29-13.71.07-.19.14-.37.21-.55.37,0,.75-.01,1.12-.02ZM237.06,21.31c.27,0,.53,0,.8.01-.07.19-.14.37-.21.55-1.63,5.16-2.5,10.52-3.12,15.88-.23,2.67-.31,5.36-.48,8.03-.19,4.52,0,9.06.79,13.52.29,1.64.67,3.27,1.12,4.87-.04.03-.08.07-.11.12-.08.14-.09.32-.02.47,0,.03,0,.07,0,.1.02.71-.01,1.42-.07,2.13-.03.3-.08.6-.11.9-.06.19-.09.4-.08.63-.02.13-.03.26-.05.4-.11.65-.25,1.3-.4,1.94-.35,1.47-.78,2.93-1.27,4.29-.41,1.08-.88,2.12-1.4,3.11,0,.02-.02.03-.03.05,0,0,0,0,0,0-.29.54-.61,1.08-.96,1.58-.28.38-.57.74-.85,1.04-.49.51-.98,1-1.46,1.42-.26.22-.52.42-.8.61-.51.32-1.03.61-1.57.87-.34.15-.69.3-1.04.43-.16.05-.31.09-.48.12-.27.04-.55.07-.82.09-.1,0-.2,0-.31,0-.21-.02-.41-.06-.62-.1-.36-.09-.7-.19-1.05-.31-.84-.32-1.66-.68-2.46-1.09-1.38-.75-2.75-1.55-4.06-2.41-1.32-.87-2.62-1.77-3.91-2.68-1.84-1.3-3.63-2.67-5.46-3.98-.88-.63-1.77-1.24-2.67-1.83-.93-.62-1.87-1.24-2.81-1.84-1.93-1.24-3.9-2.42-5.87-3.58-1.01-.59-2.02-1.18-3.03-1.75-.99-.55-1.98-1.08-2.98-1.63-2.02-1.1-4.01-2.25-6.03-3.35-1.96-1.06-3.93-2.07-5.94-3.02-1.03-.49-2.06-.96-3.09-1.45-1.03-.49-2.05-.99-3.08-1.46-2.08-.94-4.2-1.8-6.32-2.65-1.07-.43-2.15-.85-3.23-1.27-1.01-.4-2.03-.81-3.04-1.22-2.08-.84-4.18-1.66-6.29-2.43-2.1-.77-4.2-1.51-6.29-2.29-2.05-.77-4.09-1.58-6.12-2.38-2.03-.8-4.07-1.56-6.11-2.3-1.35-.49-2.7-.97-4.05-1.46,3.21,1,6.44,1.94,9.63,2.98,4.06,1.14,8.1,2.36,12.2,3.36,3.74.8,7.54,1.4,11.36,1.75.13.01.27.02.4.03.81.07,1.61.14,2.42.19,4.75.28,9.41-.78,13.88-2.29,4.53-1.38,9.07-2.92,13.83-2.67,2.91.09,5.73.91,8.5,1.74,1.06.24,3.09,1.22,3.86.23.21-.33.23-.76.09-1.13-2.32-5.72-9.2-6.62-14.64-6.67-4.3.22-8.59,1.07-12.68,2.42-2.55.79-4.93,2.05-7.5,2.78,3.48-1.94,6.63-4.4,10.01-6.49,2.59-1.52,5.27-2.93,8.13-3.83,5-1.46,10.33-1.23,15.43-.41,3.46.7,6.83,1.89,9.96,3.52,3,1.83,5.82,4.08,8,6.86,2.92,3.55,4.85,7.62,5.26,12.23.23,3.32-.24,6.9-2.13,9.71-.16.19-.32.37-.49.56-.9.89-1.92,1.67-2.99,2.29-.41.18-.84.34-1.27.48-3.27.91-8.98,1.35-9.9-2.93-.24-2.33,1.2-4.73,3.35-5.62-1.64,3.07.86,5.46,3.99,4.9,1.48-.35,2.64-1.5,3.5-2.7,1.23-2.14,1.09-5.12-.57-7-1.18-1.35-3.03-1.81-4.76-1.81-4.71-.09-8.44,3.44-9.67,7.83-.66,2.34-.54,4.89.48,7.11.42,1.07.97,2.11,1.78,2.94,2.59,2.64,6.54,2.86,10.02,2.54,2.96-.23,5.79-1.47,8.26-3.08,1.93-1.45,3.41-3.47,4.59-5.56.8-1.55,1.25-3.26,1.55-4.96.74-4.6.55-9.39-.82-13.85-.74-2.15-1.9-4.12-3.05-6.07-.77-1.31-1.6-2.6-2.66-3.7-1.92-1.95-4.19-3.53-6.51-4.96-2.99-1.82-6.17-3.34-9.51-4.4-4.66-1.37-9.56-1.91-14.41-1.9-2.43.02-4.85.3-7.24.74-3.55.88-6.94,2.33-10.22,3.91-3.68,1.77-7.26,3.96-10.95,5.66-2.38,1.05-4.92,2.01-7.38,2.76-.13-.19-.39-.3-.67-.2-.62.2-1.33.06-1.97.07-2.12-.13-4.17-.53-6.18-1.18-3.69-1.32-8.29-3.44-10.91-6.38-.08-.07-.17-.18-.26-.3,1.45-.58,2.9-1.19,4.32-1.83.3-.13.6-.26.89-.4,1.61-.74,3.2-1.5,4.76-2.33,1-.53,1.96-1.14,2.93-1.73.06.2.24.37.46.36.57-.03,1.15-.05,1.72-.07.39.18.9.16,1.3-.05,4.03-.14,8.07-.17,12.11-.19,12.12-.13,24.24-.22,36.35-.08,10.47.28,20.95.46,31.42.17ZM157.78,36.26s.03,0,.04,0c-.01,0-.03,0-.04,0,0,0,0,0,0-.01ZM217.74,69.97c-.14,0-.29.01-.43.01.02-.01.04-.02.06-.03.12.01.25.01.37.02ZM208.98,66.51c.07.1.13.21.21.31,0,0,0,.01,0,.02-.07-.11-.14-.22-.21-.33ZM183.31,37.6c.09-.02.17-.04.26-.06,0,0-.02.01-.03.02-.08.01-.15.03-.23.04ZM121.2,32.24c2.06-.1,4.11-.38,6.14-.77,2.78-.42,5.53-1.09,8.19-2.02,0,0,.01.02.02.03,1.4,1.22,2.99,2.2,4.54,3.21,1.76,1.1,3.54,2.2,5.49,2.94,1.93.7,3.97,1.11,6,1.42.12.02.25.02.37.04-5.51.35-11.1-.37-16.48-1.51-5.16-1.04-10.31-2.15-15.45-3.34.18,0,.36,0,.54,0,.21,0,.43,0,.64,0ZM309.79,85.37c-8.61,5.08-18.41,8.45-28.45,8.66-.05,0-.11,0-.16,0,.07-.62.12-1.25.21-1.87.15-1.43.33-2.86.52-4.26.79-4.97,2.06-9.85,3.33-14.72.7-2.5,1.57-4.94,2.5-7.35.14.06.31.06.45-.03,3.5-2.15,6.3-5.21,9.29-7.98,2.36-2.11,4.37-4.54,6.2-7.12,2.22-2.91,4.32-5.92,5.92-9.22.34,2.95.39,5.92.4,8.89.02,9.08,0,18.17-.02,27.26-.05,2.58-.14,5.17-.19,7.75ZM297.42,24.92c.12.09.24.17.37.24-.53.56-1.04,1.51-1.29,1.81-.65.98-1.31,1.97-1.97,2.94-5.21,7.52-11.52,14.19-17.1,21.43-2.93,3.63-5.86,7.3-8.9,10.87-.08-.12-.19-.23-.3-.31-.39-.35-.74-.75-1.06-1.16-1.06-1.31-1.51-2.96-1.37-4.61.04-.04.08-.08.11-.13.18-.24.14-.63-.15-.77,0,0,0,0,0,0,6.34-4.52,12.15-9.75,17.42-15.5,4.67-4.86,9.2-9.91,13.21-15.34.06.09.14.17.25.21.27.08.53.19.78.31ZM274.18,34.22c-.06.08-.12.15-.19.23.04-.08.08-.15.12-.23.03,0,.05,0,.07,0ZM268.37,42.99c-.06.12-.12.25-.18.38.04-.11.08-.23.13-.35.02,0,.03-.02.05-.03ZM258.1,60.21c.16-.1.32-.2.48-.3,0,.07,0,.15,0,.22,0,0,0,0,0,0-.27-.09-.61.04-.64.41-.03,3.12,1.29,6.51,3.95,8.29.14.07.3.18.47.28-3.08,3.24-6.32,6.32-9.81,9.09-.65.47-1.33.9-2.04,1.27-2.82-4-4.72-8.6-6.22-13.24-.04-.13-.08-.27-.12-.4.35.03.7-.01,1.04-.09,4.56-1.14,8.9-3.11,12.91-5.55ZM266.88,61.91s.05.06.08.09c-.01,0-.03,0-.04.01-.02-.03-.03-.07-.04-.1ZM272.43,93.19c-1.97-.43-3.92-.99-5.82-1.68-1.59-.56-3.18-1.17-4.71-1.89.07-.29.13-.59.22-.85.6-2.1,1.39-4.14,2.25-6.15,1.63-3.49,3.29-6.96,5.03-10.4,0,0,0,0,0,0,.93.19,1.88.29,2.82.2,3.4-.4,6.79-1.36,9.84-2.94-1.2,3.3-2.32,6.62-3.36,9.96-1.42,4.62-2.43,9.37-3.13,14.15-.14-.02-.29-.03-.43-.05-.89-.03-1.82-.33-2.72-.35ZM239.84,87.8c-.84,1.36-1.58,3.04-3.13,3.71-1.94.55-3.81-.71-5.24-1.9-1.78-1.51-1.13-1.79.34-3.14,3.41-2.95,6.95-6.29,8.04-10.84.04-.2.07-.39.1-.59.85,1.81,1.81,3.57,2.84,5.28-.08.06-.15.14-.19.26-.11.47-.23.94-.36,1.41-.07.16-.11.34-.14.53-.53,1.85-1.23,3.64-2.27,5.27ZM250.37,90.9c-1.73.94-3.3,2.25-4.1,4.1-.55,1.19-.93,2.45-1.52,3.62-.24.43-.43.94-.87,1.2-.91.4-2.42-.89-3.1-1.45-.38-.4-.95-.76-1.04-1.33.08-.68.45-1.28.83-1.84,1.15-1.68,2.56-3.15,3.86-4.71,1-1.22,1.9-2.54,2.56-3.98.05-.11.04-.23,0-.34.02,0,.04,0,.06.01.51.63,1.03,1.25,1.58,1.85.83.85,1.74,1.63,2.67,2.38-.31.16-.63.32-.93.5ZM273.08,65.36s0,0,0,0c0,0,0,0,0,0,0,0,0,.01-.01.02,0,0,0-.01.01-.02ZM291.85,56.17s0,0,0,0c0,0-.02.02-.02.02,0-.01,0-.02.01-.03ZM73.13,21.12c2.24.08,4.49.17,6.7.36.12.13.31.2.49.14.15-.04.25-.15.32-.28,2.99,1.93,6.76,2.74,10.17,1.96,1.93-.44,3.68-1.33,5.4-2.28.03.2.18.38.46.39,4.1,0,8.21-.13,12.31-.11,6.3.21,12.6.41,18.91.55.07,0,.12-.01.18-.03,1.06,1,2.12,2,3.15,3.03.37.38.73.76,1.11,1.12,0,0,0,0,0,0-4.09,2.18-8.67,3.49-13.2,4.28-2.08.3-4.2.41-6.3.25-3.39-1.2-6.88-2.15-10.38-2.95-9.73-2.35-19.43-4.86-29.32-6.43ZM260.42,11.51s0,0,0,0c0,0,0,0,0,0,0,0,0,0,0,0ZM261.26,14.91c-.59.04-1.19.12-1.78.14-2.01.1-4.02.13-6.03.19-1.98.04-3.97.01-5.95.03.09-.14.16-.3.26-.44,1.33-2.31,3.07-4.36,5.12-6.07,1.79-1.45,3.77-2.84,6.08-3.29,6.12-1.33,7.33,6.35,4.6,6.83-.85,0-1.64-.51-2.19-1.13-.22-.26-.37-.57-.48-.9-.06-.27-.33-.48-.6-.4-.03,0-.04.03-.06.04-.37.02-.8.44-.79,1.7,0,1.39.75,2.54,1.82,3.29ZM306.66,33.73c.2-.21.4-.43.6-.64.07.06.15.1.25.11.64.94.95,2.07,1.2,3.19-.17.24-.32.49-.47.75-.12.07-.22.19-.24.36,0,.02,0,.04,0,.05-.07.13-.14.25-.22.37-2.33,4.07-5.61,7.48-8.84,10.83-2.02,2.16-4.17,4.19-6.39,6.14-.03.03-.07.06-.1.09,3.83-7.64,8.59-14.86,14.22-21.26ZM281.82,144.43c-4.49-6.5-9.27-12.82-14.73-18.55-.54-.6-1.1-1.18-1.67-1.74,1.41.33,2.91.35,4.63-.07,4.62-1.25,6.86-8.95,3.2-12.25-1.69-1.56-4.88-2.14-6.68-.49-1.04.96-1.15,2.53-.85,3.84.3,1.4,1.4,2.41,2.52,3.22-2.2.82-4.8-.25-6.07-2.15-1.31-1.97-1.84-4.75-.96-6.96.01-.02.03-.05.04-.07.01-.04.03-.08.04-.13.27-.6.64-1.15,1.13-1.63,1.33-1.24,3.17-1.57,4.93-1.7,2.29-.15,4.71.52,6.72,1.45,5.18,2.71,9.11,7.27,12.42,12,2.83,4.17,5.16,8.7,6.92,13.42,1.63,4.1,3.26,8.2,4.55,12.43-1.07-2.07-2.32-4.03-3.6-5.97-1.35-2.03-2.76-4.03-4.44-5.8-1-1.05-2.17-1.92-3.35-2.77-.68-.46-1.37-.95-2.18-1.16-2.54-.32-.2,3.24.36,4.16,2.06,3.2,4.29,6.27,6.25,9.53,3.14,5.04,6.25,10.13,8.52,15.63,1.84,4.31,3.35,8.76,4.74,13.23.95,2.86,1.52,5.82,2.09,8.78.52,2.83.99,5.67,1.43,8.51.09.6.15,1.2.22,1.8.03.48.06.95.09,1.42-.12-.37-.23-.73-.36-1.1-1.55-4.34-3.24-8.64-5.09-12.86-3.56-7.8-8.05-15.17-12.8-22.29-2.55-4-5.25-7.89-8.02-11.74ZM137.83,24.1s-.02.04-.02.06c-.11.04-.21.09-.32.13.11-.07.23-.13.34-.19ZM314.8,82.12c.03-.07.05-.15.07-.22.02.04.05.08.08.11-.05.04-.1.08-.15.12ZM278.71,141.73c-.38-.51-.76-1.01-1.14-1.52-.04-.08-.08-.16-.12-.24.42.58.84,1.17,1.26,1.75ZM59.74,19.85s-.03.02-.05.03c-.06,0-.12-.02-.18-.03.08,0,.15,0,.23,0ZM83.56,8.08s-.05,0-.08,0c0-.02,0-.03-.01-.05.03.01.06.03.09.04ZM93.7,15.98c-.05.03-.1.06-.15.09-.02,0-.04.02-.06.03-.02-.04-.04-.08-.06-.11.09,0,.18,0,.27,0ZM130.5,15.99s-.06.1-.09.16c-.05-.05-.1-.11-.15-.16,0,0,0,0,0,0,.08,0,.16,0,.24,0ZM149,16.19c-.06.03-.11.07-.17.1,0-.01,0-.02,0-.03,0-.03-.02-.04-.03-.06.07,0,.13,0,.2,0ZM205.45,11.37c-.08-.05-.16-.1-.24-.15,0-.01,0-.02.01-.03.07.06.15.12.22.18ZM312.27,28.3s0,.01,0,.02c-.01,0-.03,0-.04,0,.01,0,.02-.02.03-.03Z"/>
  </g>
</svg>