<?xml version="1.0" encoding="UTF-8"?>
<svg id="Layer_2" data-name="Layer 2" xmlns="http://www.w3.org/2000/svg" viewBox="0 0 238.28 208.94">
  <defs>
    <style>
      .cls-1 {
        fill: #fbb040;
      }
    </style>
  </defs>
  <g id="Layer_1-2" data-name="Layer 1">
    <path class="cls-1" d="M71.81,15.92c-.81-.66-2.54-1.96-1.67-2.99.57-.67,5.9-3.34,7.07-3.9,22.91-10.95,54.93-11.73,78.74-3.44,22-9.09,49.9-6.83,62.89,15.36,3.22,5.5,6.48,16.91,15.06,12.75.99-.09,2.29,4.37,2.56,5.3,3.35,11.48,1.87,24.05-3.06,34.82-5.87,11.49-14.2,21.51-24.09,29.72,6.7,11.95,8.86,26.75,7.39,40.31-.9,8.32-1.73,14.65-10.16,18.11-.72.29-4.59,1.34-4.62,1.64,2.3,6.23,3.1,14.02,1.19,20.45-1.9,6.41-7.36,11.13-13.58,13.18-.14.64.09.44.35.61,1.04.67,2.45,1.17,3.57,1.91,1.51.99,8.46,6.22,3.35,6.82-3.81.44-10-.07-14-.28-1.83-.1-10.78-1.31-11.68-.69-.32.22-.31,1.25-1.1,1.64-.68.33-2.83.54-3.73.67-12.33,1.65-35.56,1.45-47.59-1.47-3.93-.96-6.52-2.03-5.52-6.69-17.15-5.52-31.73-19.51-34.48-37.85-.17-1.12-.24-5.21-.6-5.71l-16.51-9.09-.2-.98,3.75-9.92-11.31-6.25-.73-.92,6.32-17.7-21.94-4.96,8.91-33.2L0,56.98,10.76,5.39c17.69,6.78,34.28,16.29,49.98,26.84l19.56-11.76c-2.85-.99-6.15-2.65-8.48-4.56ZM86.34,55.46c-8.24,12.26-16.89,24.3-24.55,36.94-.34.56-2.56,4.09-2.36,4.36,2.25.91,17.19,9.2,17.53,10.35.38,1.3-8.28,15.6-9.02,18.07.02.81,8.22,5.55,8.48,6.35.36,1.09-3.96,7.85-4.32,9.52l6.54,5.39c1.65-13.18,8.23-24.81,15.7-35.49,8.57-12.26,20.53-24.09,25.05-38.62,2.23-7.18,2.12-14.93,3.21-22.31.51-3.42,1.33-6.72,2.15-10.06l-11.39,1.09c-14.3.58-28.61-.4-42.68-3.01l15.65,17.42Z"/>
  </g>
</svg>